<?xml version="1.0" encoding="iso-8859-1"?>
<!-- Generator: Adobe Illustrator 21.0.0, SVG Export Plug-In . SVG Version: 6.00 Build 0)  -->
<svg version="1.1" id="Capa_1" xmlns="http://www.w3.org/2000/svg" xmlns:xlink="http://www.w3.org/1999/xlink" x="0px" y="0px"
	 viewBox="0 0 512.009 512.009" style="enable-background:new 0 0 512.009 512.009;" xml:space="preserve">
<g>
	<circle style="fill:#838AED;" cx="256.005" cy="264.232" r="247.777"/>
	<path style="fill:#F7CF9C;" d="M55.071,267.022l73.162-27.676l23.933-34.417l32.38,26.706l-25.673,36.92
		c-2.412,3.469-5.819,6.127-9.772,7.622l-79.23,29.972c-10.804,4.087-22.877-1.359-26.963-12.163
		C38.822,283.181,44.267,271.109,55.071,267.022z"/>
	<g>
		<path style="fill:#EDB87E;" d="M129.592,237.391l22.574-32.463l32.38,26.706l-25.13,36.14
			C167.306,249.041,148.628,229.791,129.592,237.391z"/>
	</g>
	<path style="fill:#686BDF;" d="M17.376,331.138c29.195,104.339,124.97,180.871,238.628,180.871
		c113.658,0,209.434-76.531,238.628-180.871H17.376z"/>
	<g>
		<path style="fill:#4352BF;" d="M287.537,331.138H17.376c29.195,104.339,124.97,180.871,238.628,180.871
			c9.661,0,19.188-0.566,28.561-1.642C220.188,471.781,222.485,368.032,287.537,331.138z"/>
	</g>
	<path style="fill:#BBEF89;" d="M453.866,359.469c-1.154-1.723-3.092-2.757-5.166-2.757H63.308c-2.074,0-4.011,1.034-5.166,2.757
		l-17.877,26.684c16.252,28.695,38.059,53.824,63.966,73.93h303.546c25.907-20.106,47.714-45.235,63.966-73.93L453.866,359.469z"/>
	<g>
		<path style="fill:#94DC76;" d="M349.032,356.712H63.308c-2.074,0-4.011,1.034-5.166,2.757l-17.877,26.684
			c16.252,28.695,38.059,53.824,63.966,73.93h249.838C311.888,439.8,309.206,380.903,349.032,356.712z"/>
	</g>
	
		<ellipse transform="matrix(0.866 -0.5 0.5 0.866 6.8428 135.3589)" style="fill:#F7CF9C;" cx="256.005" cy="54.911" rx="54.901" ry="54.901"/>
	<path style="fill:#EDB87E;" d="M256.008,0.016c-9.332-0.009-18.791,2.347-27.454,7.349c-26.259,15.161-35.256,48.738-20.095,74.997
		c15.161,26.259,48.738,35.256,74.997,20.095c8.663-5.002,15.433-12.015,20.091-20.102C261.28,82.312,234.922,36.625,256.008,0.016z
		"/>
	<g>
		<path style="fill:#F4C48B;" d="M238.051,422.02l152.686-80.526c10.217-5.389,14.133-18.04,8.743-28.258
			c-5.389-10.217-18.044-14.132-28.258-8.743l-152.686,80.526c-10.217,5.389-14.132,18.04-8.743,28.258
			C215.167,423.468,227.808,427.422,238.051,422.02z"/>
	</g>
	<path style="fill:#EDB87E;" d="M294.176,368.851c-4.406-8.353-3.095-18.199,2.544-25.066l-78.184,41.234
		c-10.217,5.389-14.133,18.04-8.743,28.258c5.374,10.191,18.016,14.145,28.258,8.743l77.917-41.093
		C307.097,381.573,298.474,377.002,294.176,368.851z"/>
	<path style="fill:#FA6E62;" d="M320.699,237.213L320.699,237.213l39.144-32.285l-36.598-52.63
		c-4.354-6.262-11.516-9.386-18.609-8.904v-0.072h-29.842h-38.225h-29.196v0.072c-7.093-0.482-14.255,2.642-18.609,8.904
		l-36.461,52.433l0,0l39.007,35.619l0,0l0,0v90.788l64.695,34.12l64.695-34.12V237.213L320.699,237.213L320.699,237.213z"/>
	<path style="fill:#FB5C4B;" d="M229.143,315.767V157.72c0-5.992,3.034-11.275,7.649-14.398h-0.223h-29.196v0.072
		c-7.093-0.482-14.255,2.642-18.609,8.904l-36.461,52.434l39.007,35.619v90.788l3.792,2h51.412
		C236.92,333.138,229.143,325.361,229.143,315.767z"/>
	<path style="fill:#F7CF9C;" d="M456.938,267.022l-73.162-27.676l-23.933-34.417l-32.38,26.706l25.673,36.92
		c2.412,3.469,5.819,6.127,9.772,7.622l79.23,29.972c10.804,4.087,22.877-1.359,26.963-12.163
		C473.187,283.181,467.742,271.109,456.938,267.022z"/>
	<path style="fill:#FB4A34;" d="M236.892,143.322l15.469,35.607c1.492,3.434,6.372,3.404,7.822-0.048l14.934-35.56H236.892z"/>
	<polygon style="fill:#48AEF9;" points="256.005,365.258 320.699,331.138 191.31,331.138 	"/>
	<g>
		<path style="fill:#4C98E0;" d="M256.004,331.138H191.31l57.224,30.18C233.752,353.522,239.293,331.138,256.004,331.138z"/>
	</g>
	<g>
		<path style="fill:#EDB87E;" d="M382.417,237.391l-22.574-32.463l-32.38,26.706l25.13,36.14
			C344.703,249.041,363.381,229.791,382.417,237.391z"/>
	</g>
	<g>
		<path style="fill:#F7CF9C;" d="M273.959,422.02l-152.686-80.526c-10.217-5.389-14.132-18.04-8.743-28.258
			c5.389-10.217,18.044-14.132,28.258-8.743l152.686,80.526c10.217,5.389,14.133,18.04,8.743,28.258
			C296.842,423.468,284.201,427.422,273.959,422.02z"/>
	</g>
	<path style="fill:#F4C48B;" d="M215.289,343.785l78.184,41.234c10.217,5.389,14.133,18.04,8.743,28.258
		c-5.374,10.191-18.016,14.145-28.258,8.743l-77.916-41.093C216.022,382.381,227.934,359.182,215.289,343.785z"/>
</g>
<g>
</g>
<g>
</g>
<g>
</g>
<g>
</g>
<g>
</g>
<g>
</g>
<g>
</g>
<g>
</g>
<g>
</g>
<g>
</g>
<g>
</g>
<g>
</g>
<g>
</g>
<g>
</g>
<g>
</g>
</svg>
