<?xml version="1.0" encoding="iso-8859-1"?>
<!-- Generator: Adobe Illustrator 21.0.0, SVG Export Plug-In . SVG Version: 6.00 Build 0)  -->
<svg version="1.1" id="Capa_1" xmlns="http://www.w3.org/2000/svg" xmlns:xlink="http://www.w3.org/1999/xlink" x="0px" y="0px"
	 viewBox="0 0 512.007 512.007" style="enable-background:new 0 0 512.007 512.007;" xml:space="preserve">
<g>
	<circle style="fill:#F9918F;" cx="256.004" cy="263.907" r="248.093"/>
	<path style="fill:#FA6E62;" d="M46.786,397.29c97.547,152.689,320.647,153.068,418.436,0H46.786z"/>
	<path style="fill:#FB5C4B;" d="M329.88,397.29H46.786c61.733,96.63,178.737,136.029,283.094,103.517V397.29z"/>
	<path style="fill:#BBEF89;" d="M70.043,428.107c44.126,49.936,108.04,81.976,179.477,83.809
		c76.132,1.772,145.063-30.189,192.444-83.809H70.043z"/>
	<g>
		<path style="fill:#94DC76;" d="M335.944,428.107H70.043c44.126,49.936,108.04,81.976,179.477,83.809
			c24.002,0.559,48.096-2.048,72.913-8.931C300.94,482.078,305.982,440.349,335.944,428.107z"/>
	</g>
	<path style="fill:#48AEF9;" d="M314.157,390.612l-7.808-78.049H205.736l-27.133,45.268c-2.025,3.378-0.811,7.763,2.662,9.62
		l39.125,20.916c3.15,1.684,7.066,0.637,8.956-2.394l20.764-33.297c0.693-1.11,2.399-0.709,2.523,0.594l0.581,36.424
		c0,4.195,3.401,7.596,7.597,7.596h47.303C311.707,397.29,314.515,394.187,314.157,390.612z"/>
	<path style="fill:#F7CF9C;" d="M263.113,511.892c11.462-0.323,22.726-1.434,33.748-3.26V397.29h-33.748V511.892z"/>
	<path style="fill:#EDB87E;" d="M296.861,430.422V397.29h-33.748v33.133C269.298,415.579,290.675,415.578,296.861,430.422z"/>
	<path style="fill:#F7CF9C;" d="M263.113,462.545c-0.139-4.708-2.577-9.333-6.504-12.556l-50.625-41.544
		c-0.829-0.68-1.066-1.848-0.568-2.797l10.355-19.75l-29.764-15.911l-17.713,33.787c-3.714,7.085-1.944,15.805,4.24,20.88
		l57.019,46.792c1.662,1.364,2.625,3.401,2.625,5.55v3.844c0,8.542,6.925,15.467,15.467,15.467l0,0
		c8.542,0,15.467-6.925,15.467-15.467V462.545L263.113,462.545z"/>
	<path style="fill:#FA6E62;" d="M338.105,151.081l-30.929-18.916c-2.195-1.342-5.065-0.597-6.33,1.643L288.997,154.8
		c-4.2,7.442-12.084,12.045-20.629,12.045c-9.009,0-16.147,0-25.153,0c-8.545,0-16.429-4.603-20.629-12.045l-11.849-20.992
		c-1.265-2.241-4.135-2.986-6.33-1.643l-30.929,18.916c-2.205,1.349-2.985,4.177-1.782,6.465l25.547,48.619
		c6.295,11.981,8.494,25.312,8.494,38.846v67.552h100.613V245.01c0-13.534,1.696-26.865,7.991-38.846l25.547-48.619
		C341.09,155.258,340.31,152.429,338.105,151.081z"/>
	<path style="fill:#FB4A34;" d="M241.35,166.844l11.799,27.161c1.138,2.619,4.861,2.597,5.966-0.036l11.391-27.124H241.35z"/>
	<path style="fill:#F7CF9C;" d="M202.842,133.121l-22.263-43.515l63.324-62.761c6.016-6.439,5.672-16.535-0.766-22.55
		c-6.439-6.014-16.535-5.672-22.549,0.767l-70.971,70.946c-4.589,4.912-5.607,12.174-2.545,18.158l28.473,55.651L202.842,133.121z"
		/>
	<g>
		
			<ellipse transform="matrix(0.866 -0.5 0.5 0.866 -15.3818 141.4056)" style="fill:#F7CF9C;" cx="256.175" cy="99.406" rx="41.871" ry="41.871"/>
		<path style="fill:#EDB87E;" d="M256.178,57.54c-7.117-0.007-14.331,1.79-20.938,5.604c-20.027,11.562-26.888,37.17-15.326,57.196
			c11.562,20.027,37.17,26.888,57.196,15.326c6.607-3.814,11.77-9.163,15.323-15.331C260.198,120.303,240.097,85.459,256.178,57.54z
			"/>
	</g>
	<g>
		<path style="fill:#4C98E0;" d="M250.977,312.563h-45.24l-27.133,45.268c-2.025,3.378-0.811,7.763,2.662,9.62l39.125,20.916
			c3.15,1.684,7.066,0.637,8.956-2.394l20.738-33.255C244.148,342.144,244.618,321.75,250.977,312.563z"/>
	</g>
	<g>
		<path style="fill:#EDB87E;" d="M205.218,406.215c0.137-0.626-0.378,0.611,10.553-20.318l-29.764-15.911l-13.188,25.155
			C184.564,386.654,201.14,392.371,205.218,406.215z"/>
	</g>
	<g>
		<path style="fill:#EDB87E;" d="M160.673,120.754l14.87,29.064l27.299-16.697l-12.794-25.007
			C187.564,121.585,172.142,128.199,160.673,120.754z"/>
	</g>
	<path style="fill:#F7CF9C;" d="M309.509,133.121l22.263-43.515l-63.324-62.761c-6.016-6.439-5.672-16.535,0.767-22.55
		c6.439-6.014,16.535-5.672,22.549,0.767l70.971,70.946c4.589,4.912,5.607,12.174,2.545,18.158l-28.473,55.651L309.509,133.121z"/>
	<g>
		<path style="fill:#EDB87E;" d="M351.678,120.754l-15.053,29.421l-27.32-16.709l12.999-25.352
			C324.786,121.585,340.209,128.199,351.678,120.754z"/>
	</g>
	<g>
		<path style="fill:#FB5C4B;" d="M236.894,312.563c-2.698-2.784-4.366-6.573-4.366-10.757V180.745c0-6.181,3.634-11.5,8.875-13.977
			c-7.835-0.6-14.916-5.057-18.817-11.969l-11.849-20.992c-1.265-2.241-4.135-2.986-6.33-1.643l-30.929,18.916
			c-2.205,1.349-2.985,4.177-1.782,6.465l25.547,48.619c6.295,11.981,8.494,25.312,8.494,38.846v67.552H236.894z"/>
	</g>
</g>
<g>
</g>
<g>
</g>
<g>
</g>
<g>
</g>
<g>
</g>
<g>
</g>
<g>
</g>
<g>
</g>
<g>
</g>
<g>
</g>
<g>
</g>
<g>
</g>
<g>
</g>
<g>
</g>
<g>
</g>
</svg>
