<?xml version="1.0" encoding="iso-8859-1"?>
<!-- Generator: Adobe Illustrator 21.0.0, SVG Export Plug-In . SVG Version: 6.00 Build 0)  -->
<svg version="1.1" id="Capa_1" xmlns="http://www.w3.org/2000/svg" xmlns:xlink="http://www.w3.org/1999/xlink" x="0px" y="0px"
	 viewBox="0 0 512 512" style="enable-background:new 0 0 512 512;" xml:space="preserve">
<g>
	<circle style="fill:#F9918F;" cx="256" cy="256" r="256"/>
	<path style="fill:#FA6E62;" d="M4.685,304.901C27.511,422.892,131.34,512,256,512s228.489-89.108,251.315-207.099H4.685z"/>
	<path style="fill:#FB5C4B;" d="M283.266,338.131v-33.23H4.685C27.511,422.892,131.34,512,256,512
		c27.488,0,53.96-4.338,78.777-12.358C268.642,473.859,252.385,393.047,283.266,338.131z"/>
	<path style="fill:#BBEF89;" d="M498.541,338.131H98.506c-2.216,0-4.286,1.105-5.52,2.946l-43.948,65.597
		c11.196,15.352,24.053,29.413,38.316,41.913h337.29C458.154,419.22,483.942,381.258,498.541,338.131z"/>
	<g>
		<path style="fill:#94DC76;" d="M308.298,393.676c0-23.435,17.858-43.988,44.692-55.545H98.506c-2.216,0-4.286,1.105-5.52,2.946
			l-43.948,65.597c11.196,15.352,24.053,29.413,38.316,41.913h264.188C325.515,436.922,308.298,416.688,308.298,393.676z"/>
	</g>
	<path style="fill:#F7CF9C;" d="M497.944,339.825c-2.572-1.087-5.4-1.689-8.368-1.689H306.395l-7.953,43.019h180.91
		C486.713,368.048,492.954,354.23,497.944,339.825z"/>
	<path style="fill:#FA6E62;" d="M242.351,145.003c-13.628,11.762-13.783,32.455-1.054,45.185l37.578,37.578
		c1.954,1.954,5.123,1.954,7.077,0l36.812-36.812c1.485-1.485,1.485-3.893,0-5.378l-39.032-39.032
		C272.385,135.197,254.307,134.683,242.351,145.003z"/>
	<path style="fill:#F7CF9C;" d="M288.724,224.994l97.912,97.912c8.4,8.4,22.019,8.4,30.419,0c8.4-8.4,8.4-22.019,0-30.419
		l-97.912-97.912L288.724,224.994z"/>
	<path style="fill:#FB5C4B;" d="M241.298,190.188c-12.729-12.729-12.574-33.422,1.053-45.185
		c10.628-9.174,26.083-9.765,37.358-1.818c-20.561-16.408-50.406-14.648-68.712,4.466c-27.934,29.168-63.977,80.695-79.913,162.249
		c0,0,45.306,27.958,76.324,16.847c31.019-11.111,40.852-13.979,40.852-13.979s-2.539-32.079,30.616-85.003L241.298,190.188z"/>
	<path style="fill:#FB4A34;" d="M239.275,187.96c-10.641-12.808-9.784-31.858,3.076-42.958c10.628-9.174,26.082-9.765,37.358-1.818
		c-20.561-16.408-50.406-14.648-68.712,4.466c-27.934,29.168-63.977,80.695-79.913,162.249c0,0,20.388,12.581,43.174,17.509
		C188.277,262.541,215.034,217.443,239.275,187.96z"/>
	<path style="fill:#48AEF9;" d="M300.816,318.445l-52.557-5.676c0,0-9.833,2.868-40.852,13.979
		c-31.018,11.111-76.324-16.847-76.324-16.847s-12.291,47.116,36.054,72.518c29.411,15.453,78.064,18.169,120.263,17.926
		c4.485-0.026,8.286-3.299,8.996-7.728l11.9-64.373C309.069,323.438,305.655,318.967,300.816,318.445z"/>
	<g>
		
			<ellipse transform="matrix(0.866 -0.5 0.5 0.866 0.4606 183.2581)" style="fill:#F7CF9C;" cx="342.194" cy="90.77" rx="53.461" ry="53.461"/>
		<path style="fill:#EDB87E;" d="M342.194,90.77c-9.892-17.134-9.209-37.461,0.004-53.455c-9.088-0.009-18.298,2.285-26.734,7.156
			c-25.57,14.763-34.331,47.459-19.568,73.029c14.763,25.57,47.459,34.331,73.029,19.568c8.436-4.871,15.029-11.7,19.564-19.575
			C370.032,117.475,352.087,107.904,342.194,90.77z"/>
	</g>
	<path style="fill:#4C98E0;" d="M240.958,315.098c-6.174,2.036-16.75,5.632-33.549,11.65
		c-31.018,11.111-76.324-16.847-76.324-16.847s-12.291,47.116,36.054,72.518c20.271,10.651,49.683,15.25,79.822,17.001
		C216.308,380.811,213.443,337.69,240.958,315.098z"/>
	<g>
		<path style="fill:#EDB87E;" d="M348.676,224.107l-29.533-29.533l-30.419,30.419l32.626,32.626
			C311.481,239.441,328.639,218.054,348.676,224.107z"/>
	</g>
	<g>
		<path style="fill:#EDB87E;" d="M345.328,338.136h-38.932l-7.953,43.019h48.708C328.585,373.378,327.497,347.462,345.328,338.136z"
			/>
	</g>
</g>
<g>
</g>
<g>
</g>
<g>
</g>
<g>
</g>
<g>
</g>
<g>
</g>
<g>
</g>
<g>
</g>
<g>
</g>
<g>
</g>
<g>
</g>
<g>
</g>
<g>
</g>
<g>
</g>
<g>
</g>
</svg>
