<?xml version="1.0" encoding="iso-8859-1"?>
<!-- Generator: Adobe Illustrator 21.0.0, SVG Export Plug-In . SVG Version: 6.00 Build 0)  -->
<svg version="1.1" id="Capa_1" xmlns="http://www.w3.org/2000/svg" xmlns:xlink="http://www.w3.org/1999/xlink" x="0px" y="0px"
	 viewBox="0 0 512.083 512.083" style="enable-background:new 0 0 512.083 512.083;" xml:space="preserve">
<g>
	<circle style="fill:#838AED;" cx="256" cy="256.042" r="256"/>
	<path style="fill:#686BDF;" d="M5.833,310.537C30.812,425.739,133.319,512.042,256,512.042s225.188-86.303,250.167-201.504H5.833z"
		/>
	<g>
		<path style="fill:#4352BF;" d="M339.142,310.537H5.833C30.812,425.739,133.319,512.042,256,512.042
			c26.053,0,51.19-3.905,74.875-11.14C254.246,463.603,258.939,341.762,339.142,310.537z"/>
	</g>
	<path style="fill:#BBEF89;" d="M437.229,345.506c-1.183-1.766-3.169-2.826-5.295-2.826h-395c-2.126,0-4.112,1.06-5.294,2.826
		l-9.666,14.427c15.188,34.161,37.632,64.377,65.38,88.696h337.29c17.676-15.491,33.198-33.375,46.065-53.148L437.229,345.506z"/>
	<g>
		<path style="fill:#94DC76;" d="M271.708,342.68H36.934c-2.126,0-4.112,1.06-5.294,2.826l-9.666,14.427
			c15.188,34.161,37.632,64.377,65.38,88.696h197.564C230.275,423.224,223.897,373.189,271.708,342.68z"/>
	</g>
	<path style="fill:#FA6E62;" d="M382.402,166.101c-17.221-1.265-31.361,12.665-31.361,29.932v50.975c0,2.651,2.149,4.8,4.8,4.8
		h49.936c2.014,0,3.647-1.633,3.647-3.647v-52.947C409.424,179.82,397.511,167.211,382.402,166.101z"/>
	<path style="fill:#F7CF9C;" d="M359.6,251.808v132.818c0,11.395,9.237,20.632,20.632,20.632c11.395,0,20.632-9.237,20.632-20.632
		V251.808H359.6z"/>
	<g>
		<path style="fill:#FB5C4B;" d="M359.6,251.808h-3.76c-2.651,0-4.8-2.149-4.8-4.8v-50.975c0-17.268,14.141-31.197,31.362-29.932
			c5.614,0.412,10.785,2.415,15.069,5.555c-5.878-6.021-14.112-11.568-24.59-11.691c-18.732-0.22-38.432,6.056-54.511,32.69
			c-12.195,20.199-28.047,49.542-62.714,71.409l20.435,96.675c0,0,49.304-14.996,83.51-46.662V251.808z"/>
	</g>
	<path style="fill:#48AEF9;" d="M255.656,264.064c0,0-31.948-2.904-67.406,21.47c-2.947,2.026-6.28,3.425-9.806,4.025l-44.755,7.608
		c-4.801,0.816-8.026,5.377-7.194,10.176l9.544,55.061l0,0c1.247,7.193,7.574,12.382,14.872,12.201
		c29.022-0.723,99.602-3.519,125.179-13.866L255.656,264.064z"/>
	<path style="fill:#F7CF9C;" d="M25.524,367.59l108.574-16.387l-7.049-40.666L10.316,328.155
		C14.316,341.807,19.413,354.988,25.524,367.59z"/>
	<g>
		
			<ellipse transform="matrix(0.866 -0.5 0.5 0.866 4.399 245.7162)" style="fill:#F7CF9C;" cx="460.712" cy="114.649" rx="51.363" ry="51.363"/>
		<path style="fill:#EDB87E;" d="M460.716,63.293c-8.731-0.009-17.58,2.196-25.685,6.875c-24.567,14.183-32.983,45.596-18.8,70.163
			c14.183,24.566,45.596,32.984,70.163,18.8c8.105-4.679,14.439-11.241,18.797-18.806
			C465.646,140.284,440.989,97.541,460.716,63.293z"/>
	</g>
	<path style="fill:#4C98E0;" d="M197.566,312.537c0-16.62,7.324-31.521,18.91-41.681c-8.725,3.209-18.338,7.881-28.226,14.678
		c-2.947,2.026-6.28,3.426-9.806,4.025l-44.755,7.608c-4.801,0.816-8.026,5.377-7.194,10.176l9.544,55.061v0
		c1.247,7.193,7.574,12.382,14.872,12.2c21.109-0.526,64.201-2.149,95.974-6.977C219.149,364.583,197.566,341.085,197.566,312.537z"
		/>
	<g>
		<path style="fill:#EDB87E;" d="M99.285,339.064c0,7.982-4.167,14.986-10.44,18.97l45.253-6.83l-7.049-40.666l-44.715,6.749
			C92.074,319.743,99.285,328.56,99.285,339.064z"/>
	</g>
	<g>
		<path style="fill:#FB4A34;" d="M372.881,159.965c-18.732-0.22-38.432,6.056-54.511,32.69
			c-6.716,11.125-14.55,25.023-26.018,38.918c32.852-3.099,61.63,19.648,67.248,50.967v-30.732h-3.759
			c-2.651,0-4.801-2.149-4.801-4.8v-50.975c0-17.268,14.141-31.197,31.362-29.932c5.614,0.412,10.785,2.415,15.069,5.556
			C391.593,165.636,383.359,160.088,372.881,159.965z"/>
	</g>
	<g>
		<path style="fill:#EDB87E;" d="M400.864,280.821v-29.013H359.6v29.013C369.534,266.338,390.901,266.296,400.864,280.821z"/>
	</g>
</g>
<g>
</g>
<g>
</g>
<g>
</g>
<g>
</g>
<g>
</g>
<g>
</g>
<g>
</g>
<g>
</g>
<g>
</g>
<g>
</g>
<g>
</g>
<g>
</g>
<g>
</g>
<g>
</g>
<g>
</g>
</svg>
