<?xml version="1.0" encoding="iso-8859-1"?>
<!-- Generator: Adobe Illustrator 21.0.0, SVG Export Plug-In . SVG Version: 6.00 Build 0)  -->
<svg version="1.1" id="Capa_1" xmlns="http://www.w3.org/2000/svg" xmlns:xlink="http://www.w3.org/1999/xlink" x="0px" y="0px"
	 viewBox="0 0 512.041 512.041" style="enable-background:new 0 0 512.041 512.041;" xml:space="preserve">
<g>
	<circle style="fill:#AF5B10;" cx="256.021" cy="256" r="256"/>
	<path style="fill:#994E04;" d="M506.435,309.358H5.606C29.589,422.465,127.435,506.07,243.092,511.676
		c2.55,0.127,6.469,0.241,6.586,0.243C376.357,515.001,481.637,426.306,506.435,309.358z"/>
	<g>
		<path style="fill:#894304;" d="M325.573,309.358H5.606c34.398,162.22,212.237,248.283,360.165,177.97
			C278.546,468.636,267.197,357.115,325.573,309.358z"/>
	</g>
	<path style="fill:#BBEF89;" d="M454.069,346.626c-1.17-1.746-3.133-2.794-5.235-2.794H58.284c-2.102,0-4.065,1.048-5.235,2.794
		l-21.633,32.289c14.48,26.403,33.48,49.971,55.959,69.671h337.29c21.336-18.699,39.542-40.88,53.72-65.666L454.069,346.626z"/>
	<path style="fill:#94DC76;" d="M329.691,390.462c0-18.587,11.102-35.254,28.668-46.63H58.284c-2.102,0-4.065,1.048-5.235,2.794
		l-21.633,32.29c14.48,26.403,33.48,49.971,55.959,69.671h296.962C352.415,439.758,329.691,417.07,329.691,390.462z"/>
	<g>
		<path style="fill:#EDB87E;" d="M144.21,362.049h170.526c0.102,0,0.256,0,0.437-0.185c0.208-0.212,0.205-0.422,0.203-0.524
			c-0.146-8.443-0.963-16.595-2.243-24.354H155.815c-11.266,0-20.399,9.133-20.399,20.399c0,2.171,0.346,4.259,0.974,6.222
			C138.799,362.607,141.438,362.049,144.21,362.049z"/>
	</g>
	<path style="fill:#FA6E62;" d="M169.714,121.871c-17.027-1.251-31.008,12.522-31.008,29.595v50.4c0,2.621,2.125,4.746,4.746,4.746
		h49.373c1.992,0,3.606-1.615,3.606-3.606v-52.351C196.432,135.436,184.653,122.969,169.714,121.871z"/>
	<path style="fill:#F7CF9C;" d="M147.169,206.613v131.322c0,11.266,9.133,20.399,20.399,20.399c11.266,0,20.399-9.133,20.399-20.399
		V206.613H147.169z"/>
	<path style="fill:#FB5C4B;" d="M200.699,102.291c-33.131-3.394-49.496,24.708-49.496,24.708c5.178-3.665,11.593-5.636,18.51-5.128
		c14.939,1.097,26.718,13.565,26.718,28.784v41.399l45.935,47.404l65.083-52.067C263.689,143.631,231.408,105.437,200.699,102.291z"
		/>
	<path style="fill:#48AEF9;" d="M361.659,277.91c-19.079-54.285-54.209-90.518-54.209-90.518l-65.083,52.067
		c5.225,29.857,24.904,41.819,33.739,45.759c2.995,1.335,5.469,3.611,7.103,6.455l10.562,18.386c1.362,2.37,4.317,3.295,6.787,2.124
		l58.361-27.673C361.386,283.338,362.565,280.487,361.659,277.91z"/>
	<path style="fill:#F7CF9C;" d="M306.388,309.417c4.853,14.99,8.654,32.705,8.987,51.924c0.002,0.101,0.006,0.312-0.203,0.524
		c-0.181,0.185-0.335,0.185-0.437,0.185H144.21c-11.266,0-20.399,9.133-20.399,20.399c0,11.266,9.133,20.399,20.399,20.399h170.526
		c11.197,0,21.686-4.399,29.536-12.385c7.867-8.005,12.092-18.598,11.897-29.829c-0.452-26.018-5.912-49.526-12.621-68.836
		L306.388,309.417z"/>
	<g>
		<path style="fill:#EDB87E;" d="M358.918,284.509l-15.37,7.288c6.709,19.31,12.169,42.819,12.621,68.836
			c0.195,11.231-4.03,21.825-11.897,29.829C386.533,371.083,358.918,284.509,358.918,284.509z"/>
	</g>
	<g>
		
			<ellipse transform="matrix(0.866 -0.5 0.5 0.866 -26.3043 58.7406)" style="fill:#F7CF9C;" cx="96.459" cy="78.455" rx="50.702" ry="50.702"/>
		<path style="fill:#EDB87E;" d="M96.463,27.759c-8.619-0.009-17.354,2.167-25.354,6.787c-24.25,14.001-32.559,45.01-18.558,69.26
			c14.001,24.25,45.01,32.559,69.26,18.558c8.001-4.619,14.253-11.096,18.555-18.564C101.33,103.76,76.99,61.567,96.463,27.759z"/>
	</g>
	<path style="fill:#4C98E0;" d="M361.659,277.91c-7.621-21.682-17.8-40.472-27.28-55.236c-8.739,38.505-52.813,56.348-85.78,35.974
		c8.153,16.147,20.88,23.615,27.506,26.569c2.995,1.335,5.469,3.611,7.103,6.455l10.562,18.386c1.362,2.37,4.317,3.295,6.788,2.124
		l58.361-27.673C361.386,283.338,362.565,280.487,361.659,277.91z"/>
	<g>
		<path style="fill:#F4C48B;" d="M334.723,331.546c8.293,0,15.648,4.008,20.239,10.192c-2.035-18.541-6.371-35.427-11.414-49.941
			l-37.159,17.62c3.219,9.944,5.969,21.093,7.557,33.079C318.486,335.884,326.096,331.546,334.723,331.546z"/>
	</g>
	<g>
		<path style="fill:#FB4A34;" d="M259.742,207.918l-64.134-64.134c0.538,2.202,0.824,4.503,0.824,6.871v41.399l45.935,47.404
			l32.639-26.112C269.549,213.883,263.899,212.075,259.742,207.918z"/>
	</g>
	<g>
		<path style="fill:#EDB87E;" d="M167.569,232.974c8.862,0,16.549,5.009,20.399,12.348v-38.709H147.17v38.709
			C151.019,237.983,158.707,232.974,167.569,232.974z"/>
	</g>
</g>
<g>
</g>
<g>
</g>
<g>
</g>
<g>
</g>
<g>
</g>
<g>
</g>
<g>
</g>
<g>
</g>
<g>
</g>
<g>
</g>
<g>
</g>
<g>
</g>
<g>
</g>
<g>
</g>
<g>
</g>
</svg>
