<?xml version="1.0" encoding="iso-8859-1"?>
<!-- Generator: Adobe Illustrator 21.0.0, SVG Export Plug-In . SVG Version: 6.00 Build 0)  -->
<svg version="1.1" id="Capa_1" xmlns="http://www.w3.org/2000/svg" xmlns:xlink="http://www.w3.org/1999/xlink" x="0px" y="0px"
	 viewBox="0 0 512.103 512.103" style="enable-background:new 0 0 512.103 512.103;" xml:space="preserve">
<g>
	<circle style="fill:#7DD776;" cx="256.012" cy="256" r="256"/>
	<path style="fill:#5CBA4F;" d="M7.701,318.46C35.583,429.652,136.174,512,256.012,512s220.429-82.348,248.311-193.54H7.701z"/>
	<path style="fill:#4EA83F;" d="M356.777,318.46H7.701c35.314,140.834,181.703,224.799,321.893,182.793
		C270.475,455.899,281.111,343.063,356.777,318.46z"/>
	<path style="fill:#BBEF89;" d="M434.879,350.523c-1.125-1.679-3.013-2.687-5.035-2.687H54.22c-2.021,0-3.91,1.008-5.035,2.687
		L30.844,377.9c14.548,26.816,33.755,50.733,56.523,70.687h337.29c16.382-14.357,30.92-30.766,43.204-48.834L434.879,350.523z"/>
	<g>
		<path style="fill:#94DC76;" d="M266.045,402.901c0-27.836,25.27-50.901,58.295-55.065H54.22c-2.021,0-3.91,1.008-5.035,2.687
			L30.844,377.9c14.548,26.816,33.755,50.733,56.523,70.687h208.182C277.717,438.509,266.045,421.81,266.045,402.901z"/>
	</g>
	<path style="fill:#FA6E62;" d="M388.771,177.743c-16.376-1.203-29.823,12.043-29.823,28.464v48.474
		c0,2.521,2.044,4.565,4.565,4.565h47.486c1.916,0,3.468-1.553,3.468-3.468v-50.35C414.468,190.79,403.139,178.799,388.771,177.743z
		"/>
	<path style="fill:#F7CF9C;" d="M367.088,259.246v126.303c0,10.836,8.784,19.62,19.62,19.62c10.836,0,19.62-8.784,19.62-19.62
		V259.246H367.088z"/>
	<g>
		<path style="fill:#FB5C4B;" d="M367.088,259.246h-3.575c-2.521,0-4.565-2.044-4.565-4.565v-48.474
			c0-16.42,13.447-29.667,29.823-28.464c5.339,0.392,10.256,2.297,14.33,5.283c-5.589-5.725-13.419-11.001-23.384-11.118
			c-17.813-0.209-36.546,5.759-51.837,31.087c-11.597,19.208-37.187,67.292-70.153,88.087l56.056,71.005
			c0,0,33.241-23.563,53.304-43.626V259.246z"/>
	</g>
	<path style="fill:#48AEF9;" d="M257.728,291.082c0,0-32.876-0.991-57.68,22.586c-0.906,0.861-1.998,1.503-3.204,1.83l-26.428,7.167
		c-2.729,0.74-4.453,3.426-3.99,6.215l11.546,69.557c0.636,3.83,4.128,6.512,7.99,6.122c22.45-2.268,94.115-11.735,127.823-42.472
		L257.728,291.082z"/>
	<path style="fill:#F7CF9C;" d="M168.984,344.299c-16.023,1.476-33.296,3.494-48.495-0.825c-2.174-0.618-3.223-3.087-2.146-5.075
		l62.223-114.876c3.758-6.86,3.082-15.297-1.72-21.471l-11.772-15.135c-6.653-8.553-18.979-10.096-27.532-3.441
		c-8.554,6.652-10.095,18.979-3.442,27.532l3.862,4.965L78.978,328.626c-0.071,0.129-0.14,0.259-0.208,0.39
		c-9.138,17.613-1.354,39.34,16.872,47.073c25.844,10.967,55.092,11.919,80.762,12.907L168.984,344.299z"/>
	<g>
		<path style="fill:#EDB87E;" d="M203.723,206.658l-9.924-16.406c-5.608-9.271-17.67-12.243-26.942-6.632
			c-0.603,0.365-1.177,0.76-1.727,1.177c0.685,0.656,1.344,1.349,1.943,2.12l11.772,15.135c4.802,6.174,5.478,14.611,1.72,21.471
			l-62.222,114.876c-1.077,1.987-0.028,4.457,2.146,5.075c10.213,2.902,21.362,2.939,32.44,2.206
			c-8.252-0.807-16.32-2.324-23.676-5.381c-2.087-0.867-2.839-3.443-1.539-5.291l75.211-106.825
			C207.457,221.809,207.771,213.35,203.723,206.658z"/>
	</g>
	<g>
		
			<ellipse transform="matrix(0.866 -0.5 0.5 0.866 -2.3458 248.8776)" style="fill:#F7CF9C;" cx="463.24" cy="128.816" rx="48.843" ry="48.843"/>
		<path style="fill:#EDB87E;" d="M463.243,79.979c-8.303-0.008-16.718,2.088-24.425,6.538
			c-23.362,13.488-31.366,43.36-17.878,66.721s43.359,31.365,66.721,17.878c7.707-4.45,13.73-10.689,17.874-17.884
			C467.932,153.194,444.484,112.547,463.243,79.979z"/>
	</g>
	<path style="fill:#FB4A34;" d="M379.718,171.908c-17.813-0.209-36.547,5.759-51.837,31.087
		c-5.046,8.358-12.743,22.183-22.542,36.848c29.811,1.906,54.428,22.894,61.75,50.892v-31.489h-3.575
		c-2.521,0-4.565-2.044-4.565-4.565v-48.474c0-16.42,13.447-29.667,29.823-28.464c5.339,0.392,10.256,2.297,14.33,5.283
		C397.512,177.301,389.682,172.026,379.718,171.908z"/>
	<g>
		<path style="fill:#EDB87E;" d="M386.646,280.525c8.392,0,15.721,4.536,19.682,11.286v-32.565h-39.239v32.348
			C371.078,284.962,378.343,280.525,386.646,280.525z"/>
	</g>
	<path style="fill:#4C98E0;" d="M227.456,334.098c0-17.005,7.734-32.203,19.875-42.272c-11.705,1.593-31.188,6.544-47.283,21.842
		c-0.906,0.861-1.998,1.503-3.204,1.83l-26.428,7.167c-2.729,0.74-4.454,3.426-3.99,6.215l11.546,69.557
		c0.636,3.83,4.128,6.512,7.99,6.121c14.594-1.475,49.983-5.994,82.225-17.418C244.735,380.892,227.456,359.517,227.456,334.098z"/>
	<g>
		<path style="fill:#EDB87E;" d="M129.785,345.345c18.059,8.788,14.381,35.607-5.417,39.125c17.588,3.267,35.549,3.892,52.036,4.526
			l-7.42-44.697C156.149,345.481,142.515,347.002,129.785,345.345z"/>
	</g>
</g>
<g>
</g>
<g>
</g>
<g>
</g>
<g>
</g>
<g>
</g>
<g>
</g>
<g>
</g>
<g>
</g>
<g>
</g>
<g>
</g>
<g>
</g>
<g>
</g>
<g>
</g>
<g>
</g>
<g>
</g>
</svg>
