<?xml version="1.0" encoding="iso-8859-1"?>
<!-- Generator: Adobe Illustrator 21.0.0, SVG Export Plug-In . SVG Version: 6.00 Build 0)  -->
<svg version="1.1" id="Capa_1" xmlns="http://www.w3.org/2000/svg" xmlns:xlink="http://www.w3.org/1999/xlink" x="0px" y="0px"
	 viewBox="0 0 512 512" style="enable-background:new 0 0 512 512;" xml:space="preserve">
<g>
	<circle style="fill:#838AED;" cx="256" cy="256" r="256"/>
	<path style="fill:#686BDF;" d="M502.981,323.525H9.019C38.647,432.142,137.99,512,256,512S473.353,432.142,502.981,323.525z"/>
	<path style="fill:#4352BF;" d="M298.462,353.249v-29.725H9.019C38.647,432.142,137.99,512,256,512
		c25.619,0,50.357-3.768,73.694-10.773C274.593,473.731,264.944,399.038,298.462,353.249z"/>
	<path style="fill:#BBEF89;" d="M420.453,355.819c-1.08-1.613-2.893-2.58-4.835-2.58H54.924c-1.941,0-3.754,0.968-4.834,2.58
		L32.86,381.535c14.638,25.964,33.667,49.121,56.094,68.45h334.091c13.031-11.232,24.911-23.759,35.456-37.374L420.453,355.819z"/>
	<g>
		<path style="fill:#94DC76;" d="M254.718,404.455c0-22.028,17.28-41.207,42.811-51.216H54.924c-1.941,0-3.754,0.968-4.834,2.58
			L32.86,381.535c14.638,25.964,33.667,49.121,56.094,68.451h196.631C266.76,439.242,254.718,422.842,254.718,404.455z"/>
	</g>
	<path style="fill:#FA6E62;" d="M383.117,189.357c15.725-1.155,28.637,11.565,28.637,27.332v46.548c0,2.421-1.962,4.383-4.383,4.383
		h-45.599c-1.839,0-3.331-1.491-3.331-3.331v-48.349C358.442,201.886,369.32,190.371,383.117,189.357z"/>
	<path style="fill:#F7CF9C;" d="M403.938,267.621v121.283c0,10.405-8.435,18.84-18.84,18.84c-10.405,0-18.84-8.435-18.84-18.84
		V267.621H403.938z"/>
	<path style="fill:#FB5C4B;" d="M258.168,202.015c46.479,11.977,94.403,0.56,107.097-3.874c-4.239,4.72-6.823,10.957-6.823,17.8
		v48.349c0,1.839,1.491,3.331,3.331,3.331h4.486v17.28c-42.047,18.63-120.471,2.49-120.471,2.49
		C240.405,238.174,258.168,202.015,258.168,202.015z"/>
	<path style="fill:#48AEF9;" d="M196.535,206.717c27.786-18.145,61.633-4.702,61.633-4.702s-17.763,36.159-12.381,85.375
		l-0.878,31.224c-0.077,2.734-2.315,4.91-5.05,4.91h-47.058c-2.037,0-3.774-1.477-4.102-3.488l-7.04-43.179
		c-0.273-1.673-0.667-3.321-1.197-4.931C177.453,262.78,167.493,225.683,196.535,206.717z"/>
	<path style="fill:#F7CF9C;" d="M107.682,370.064h92.259c2.449,0,4.361-2.118,4.11-4.555l-4.32-41.984h37.879
		c5.92,57.876,5.754,55.116,5.754,56.896c0,15.066-12.256,27.323-27.323,27.323H107.188c-10.285,0-18.645-8.241-18.837-18.48
		C88.154,378.705,97.122,370.064,107.682,370.064z"/>
	<path style="fill:#4C98E0;" d="M181.659,276.858c-0.273-1.673-0.667-3.321-1.197-4.931c-3.01-9.146-12.97-46.244,16.072-65.21
		l-59.543-1.077c-3.815,0-6.907,3.092-6.907,6.907v54.81c0,3.446,2.633,6.321,6.066,6.622l45.678,3.917L181.659,276.858z"/>
	<path style="fill:#F7CF9C;" d="M0.888,234.706c30.044,6.698,79.85,16.376,129.197,19.639v-37.783
		c-47.066-3.361-95.279-12.91-123.329-19.2C3.912,209.5,1.937,221.971,0.888,234.706z"/>
	<g>
		
			<ellipse transform="matrix(0.866 -0.5 0.5 0.866 -28.489 256.9154)" style="fill:#F7CF9C;" cx="465.166" cy="181.619" rx="46.826" ry="46.826"/>
		<path style="fill:#EDB87E;" d="M465.166,181.619c-8.664-15.007-8.066-32.811,0.003-46.82c-7.96-0.008-16.027,2.002-23.416,6.268
			c-22.397,12.931-30.07,41.569-17.139,63.965c12.931,22.396,41.569,30.07,63.965,17.139c7.389-4.266,13.163-10.248,17.136-17.145
			C489.549,205.01,473.831,196.626,465.166,181.619z"/>
	</g>
	<path style="fill:#FB4A34;" d="M361.772,267.621c-1.839,0-3.331-1.491-3.331-3.331v-48.349c0-6.844,2.584-13.08,6.823-17.8
		c-6.212,2.17-20.871,6.007-39.657,7.961c21.243,26.447,18.295,64.685-6.449,87.647c16.917-0.552,33.822-2.965,47.099-8.848v-17.28
		H361.772z"/>
	<g>
		<path style="fill:#EDB87E;" d="M385.098,290.12c8.789,0,16.231,5.719,18.84,13.635v-36.134h-37.68v36.134
			C368.867,295.839,376.309,290.12,385.098,290.12z"/>
	</g>
	<g>
		<path style="fill:#EDB87E;" d="M241.192,358.342l-3.582-34.817h-37.879l3.5,34.02
			C212.459,343.963,232.559,344.415,241.192,358.342z"/>
	</g>
	<g>
		<path style="fill:#EDB87E;" d="M94.024,212.915c13.332,10.208,10.549,31.1-5.104,37.38c13.461,1.716,27.33,3.135,41.165,4.05
			v-37.783C118.02,215.701,105.881,214.43,94.024,212.915z"/>
	</g>
</g>
<g>
</g>
<g>
</g>
<g>
</g>
<g>
</g>
<g>
</g>
<g>
</g>
<g>
</g>
<g>
</g>
<g>
</g>
<g>
</g>
<g>
</g>
<g>
</g>
<g>
</g>
<g>
</g>
<g>
</g>
</svg>
