<?xml version="1.0" encoding="iso-8859-1"?>
<!-- Generator: Adobe Illustrator 21.0.0, SVG Export Plug-In . SVG Version: 6.00 Build 0)  -->
<svg version="1.1" id="Capa_1" xmlns="http://www.w3.org/2000/svg" xmlns:xlink="http://www.w3.org/1999/xlink" x="0px" y="0px"
	 viewBox="0 0 512 512" style="enable-background:new 0 0 512 512;" xml:space="preserve">
<g>
	<circle style="fill:#838AED;" cx="256" cy="256" r="256"/>
	<path style="fill:#686BDF;" d="M10.781,329.677C42.425,435.145,140.23,512,256,512s213.575-76.855,245.219-182.323H10.781z"/>
	<path style="fill:#4352BF;" d="M300.323,362.987v-33.31H10.781C42.425,435.145,140.23,512,256,512
		c24.917,0,48.998-3.569,71.77-10.208C276.322,475.779,267.891,405.251,300.323,362.987z"/>
	<path style="fill:#BBEF89;" d="M435.814,363.77c-1.14-1.702-3.055-2.724-5.104-2.724H49.938c-2.049,0-3.963,1.022-5.104,2.724
		l-11.941,17.824c18.137,32.15,43.019,59.982,72.73,81.584h300.755c22.062-16.041,41.463-35.515,57.416-57.645L435.814,363.77z"/>
	<g>
		<path style="fill:#94DC76;" d="M300.323,361.046H49.938c-2.049,0-3.963,1.022-5.104,2.724l-11.941,17.824
			c18.137,32.15,43.019,59.982,72.73,81.584h190.77C246.245,439.485,248.262,382.457,300.323,361.046z"/>
	</g>
	<path style="fill:#FA6E62;" d="M395.775,237.343c12.601-10.876,12.744-30.01,0.974-41.78l-34.746-34.746
		c-1.807-1.807-4.737-1.807-6.544,0l-34.038,34.038c-1.373,1.373-1.373,3.599,0,4.972l36.091,36.091
		C368.004,246.41,384.72,246.885,395.775,237.343z"/>
	<path style="fill:#F7CF9C;" d="M352.897,163.38l-90.534-90.534c-7.767-7.767-20.36-7.767-28.127,0
		c-7.767,7.767-7.767,20.36,0,28.127l90.534,90.534L352.897,163.38z"/>
	<path style="fill:#F7CF9C;" d="M85.176,378.807h97.394c2.586,0,4.604-2.236,4.339-4.809l-4.56-44.321h39.988l5.97,58.028
		c0.07,0.677,0.104,1.356,0.104,2.036c0,15.904-12.939,28.843-28.844,28.843H84.655c-10.857,0-19.682-8.7-19.885-19.508
		C64.561,387.929,74.028,378.807,85.176,378.807z"/>
	<path style="fill:#FB5C4B;" d="M404.931,221.421l-0.004-0.002c-1.103,5.959-4.138,11.596-9.152,15.924
		c-11.055,9.542-27.771,9.068-38.263-1.425l-31.553-31.552c-22.207,3.304-52.335,4.663-81.921-2.961c0,0-18.752,38.171-13.07,90.127
		c0,0,58.942,12.649,104.619,6.324C375.252,292.363,411.981,259.505,404.931,221.421z"/>
	<g>
		<path style="fill:#FA6E62;" d="M405.236,223.446c4.124,28.384-15.891,53.604-42.917,66.373h41.095
			c2.555,0,4.628-2.072,4.628-4.627v-49.139C408.041,231.536,407.03,227.26,405.236,223.446z"/>
	</g>
	<path style="fill:#F7CF9C;" d="M360.012,290.878v107.818c0,10.984,8.904,19.889,19.889,19.889s19.889-8.904,19.889-19.889V289.819
		h-37.47C361.554,290.18,360.787,290.536,360.012,290.878z"/>
	<g>
		<path style="fill:#4C98E0;" d="M163.272,280.413l7.432,45.583c0.346,2.123,2.18,3.682,4.331,3.682h49.678
			c2.887,0,5.25-2.298,5.331-5.184l0.927-32.962l-68.092-13.072C163.021,279.108,163.165,279.757,163.272,280.413z"/>
	</g>
	<path style="fill:#48AEF9;" d="M244.039,201.404c0,0-30.807-12.219-58.693,1.371c-3.108,1.515-6.621,1.993-10.023,1.371
		l-33.156-6.068c-3.813-0.698-7.518,1.668-8.488,5.421l-15.234,58.92c-0.834,3.227,1.176,6.503,4.431,7.22l40.002,8.819
		l68.092,13.072C225.287,239.576,244.039,201.404,244.039,201.404z"/>
	<path style="fill:#F7CF9C;" d="M219.893,89.232L219.893,89.232l0.001-25.406c0-10.211-8.278-18.489-18.489-18.489l0,0
		c-10.211,0-18.489,8.278-18.489,18.489V74.65c0,2.726-1.341,5.277-3.587,6.822l-94.79,65.232
		c-9.52,6.329-15.968,16.42-17.706,27.725c-1.748,11.37,1.424,22.996,8.703,31.896c10.893,13.318,28.795,25.621,48.249,35.441
		l9.894-38.267c0.114-0.439,0.268-0.856,0.452-1.254c-12.145-6.821-22.224-14.281-27.804-21.103c-0.083-0.101-0.236-0.29-0.178-0.67
		c0.064-0.414,0.31-0.576,0.416-0.645c0.124-0.082,0.248-0.165,0.371-0.25l104.451-71.881
		C217.6,103.421,220.625,96.241,219.893,89.232z"/>
	<g>
		
			<ellipse transform="matrix(0.866 -0.5 0.5 0.866 -27.9651 255.3777)" style="fill:#F7CF9C;" cx="462.559" cy="179.873" rx="49.432" ry="49.432"/>
		<path style="fill:#EDB87E;" d="M462.559,179.872c-9.147-15.843-8.515-34.638,0.004-49.426c-8.403-0.008-16.919,2.113-24.72,6.617
			c-23.643,13.65-31.744,43.883-18.093,67.526c13.65,23.643,43.882,31.744,67.526,18.093c7.8-4.503,13.896-10.818,18.09-18.099
			C488.299,204.565,471.706,195.715,462.559,179.872z"/>
	</g>
	<path style="fill:#4C98E0;" d="M174.689,250.516c0-25.762,17.316-47.466,40.94-54.147c-9.371-0.093-20.022,1.407-30.283,6.407
		c-3.108,1.515-6.622,1.993-10.023,1.371l-33.156-6.068c-3.813-0.698-7.518,1.668-8.488,5.421l-15.234,58.92
		c-0.834,3.227,1.176,6.503,4.431,7.22l40.002,8.819l21.908,4.206C178.428,273.55,174.689,262.472,174.689,250.516z"/>
	<g>
		<path style="fill:#FB4A34;" d="M360.778,238.719c-1.141-0.838-2.234-1.769-3.266-2.801l-31.552-31.552
			c-22.207,3.304-52.335,4.663-81.921-2.961c0,0-8.439,17.21-12.277,44.226C272.664,231.463,317.645,228.823,360.778,238.719z"/>
	</g>
	<g>
		<path style="fill:#EDB87E;" d="M83.86,215.097c10.678,9.927,24.825,19.048,39.925,26.67l9.894-38.267
			c0.114-0.439,0.268-0.856,0.452-1.254c-8.176-4.592-15.408-9.473-20.969-14.254C117.929,205.504,100.988,221.239,83.86,215.097z"
			/>
	</g>
	<g>
		<path style="fill:#EDB87E;" d="M331.537,142.02c2.647,17.899-15.313,31.465-31.645,24.609l24.878,24.878l28.127-28.127
			L331.537,142.02z"/>
	</g>
	<g>
		<path style="fill:#EDB87E;" d="M399.789,328.73v-38.911h-37.47c-0.765,0.361-1.532,0.717-2.307,1.059v37.852
			C367.319,311.026,392.467,310.991,399.789,328.73z"/>
	</g>
	<g>
		<path style="fill:#EDB87E;" d="M225.559,360.996l-3.222-31.319H182.35l3.466,33.69
			C195.192,349.873,214.667,348.726,225.559,360.996z"/>
	</g>
</g>
<g>
</g>
<g>
</g>
<g>
</g>
<g>
</g>
<g>
</g>
<g>
</g>
<g>
</g>
<g>
</g>
<g>
</g>
<g>
</g>
<g>
</g>
<g>
</g>
<g>
</g>
<g>
</g>
<g>
</g>
</svg>
