<?xml version="1.0" encoding="iso-8859-1"?>
<!-- Generator: Adobe Illustrator 21.0.0, SVG Export Plug-In . SVG Version: 6.00 Build 0)  -->
<svg version="1.1" id="Capa_1" xmlns="http://www.w3.org/2000/svg" xmlns:xlink="http://www.w3.org/1999/xlink" x="0px" y="0px"
	 viewBox="0 0 512 512" style="enable-background:new 0 0 512 512;" xml:space="preserve">
<g>
	<circle style="fill:#7DD776;" cx="256.405" cy="261.391" r="250.609"/>
	<path style="fill:#5CBA4F;" d="M40.442,388.575C84.036,462.439,164.426,512,256.405,512c91.979,0,172.369-49.561,215.963-123.425
		H40.442z"/>
	<path style="fill:#4EA83F;" d="M361.464,388.575H40.442C84.036,462.439,164.426,512,256.405,512
		c37.519,0,73.108-8.249,105.059-23.028V388.575z"/>
	<path style="fill:#BBEF89;" d="M64.15,422.134c46.044,55.012,115.139,89.853,192.208,89.865c0.016,0,0.031,0.001,0.047,0.001
		c0.015,0,0.031-0.001,0.046-0.001c77.07-0.013,146.165-34.853,192.209-89.865H64.15z"/>
	<g>
		<path style="fill:#94DC76;" d="M361.464,422.134H64.15c46.044,55.012,115.139,89.853,192.208,89.865
			c0.016,0,0.031,0.001,0.047,0.001c0.015,0,0.031-0.001,0.046-0.001c24.653-0.004,49.967-3.593,75.038-11.458
			C304.351,476.839,315.567,422.134,361.464,422.134z"/>
	</g>
	<path style="fill:#F7CF9C;" d="M135.474,339.331h37.958V450.5c0,10.836-8.784,19.621-19.621,19.621
		c-10.836,0-19.621-8.785-19.621-19.621V339.189C134.605,339.278,135.033,339.331,135.474,339.331z"/>
	<g>
		<path style="fill:#EDB87E;" d="M134.191,376.394v-37.206c0.415,0.09,0.842,0.142,1.283,0.142h37.958v37.063
			C164.277,361.995,143.325,362.029,134.191,376.394z"/>
	</g>
	<path style="fill:#FA6E62;" d="M198.391,173.709c-3.864,0.574-7.455-2.084-8.043-5.946l-4.993-32.816
		c-0.363-2.391-2.419-4.157-4.837-4.157h-45.044c-3.348,0-6.063,2.715-6.063,6.063l-2.242,82.369v37.647l2.242,75.846
		c0,4.479,3.631,8.109,8.109,8.109h36.816c4.4,0,8.074-3.357,8.47-7.739l4.086-45.218c0.543-6.007,4.763-11.032,10.574-12.652
		c30.156-8.408,54.902,8.241,54.902,8.241c47.838-23.732,66.524-77.174,66.524-77.174
		C268.402,167.815,216.704,170.99,198.391,173.709z"/>
	<path style="fill:#F7CF9C;" d="M135.474,130.79h37.958V19.621C173.432,8.784,164.648,0,153.812,0
		c-10.836,0-19.621,8.784-19.621,19.621v111.312C134.605,130.843,135.033,130.79,135.474,130.79z"/>
	<path style="fill:#48AEF9;" d="M393.896,311.289c-7.011-18.324-34.178-83.178-75.005-105.005c0,0-18.686,53.442-66.524,77.174
		l-15.644,50.451c-1.059,3.416,0.865,7.04,4.288,8.077l44.726,13.546c2.909,0.881,6.013-0.585,7.181-3.391l18.901-45.405
		c1.369-3.288,5.945-3.505,7.618-0.361l15.381,28.899c1.46,2.743,4.761,3.933,7.636,2.753l48.487-19.915
		C393.617,317.012,394.93,313.989,393.896,311.289z"/>
	<path style="fill:#F7CF9C;" d="M383.437,321.193l-36.43,14.962c9.545,27.705,23.814,79.233,27.007,146.571
		c13.335-7.1,25.955-15.362,37.718-24.665C406.493,395.505,392.904,348.025,383.437,321.193z"/>
	<path style="fill:#F7CF9C;" d="M213.699,508.36l68.121-154.015l-37.84-11.46l-67.485,152.576c-0.459,1.038-0.799,2.096-1.068,3.161
		C187.779,502.836,200.565,506.105,213.699,508.36z"/>
	<g>
		
			<ellipse transform="matrix(0.866 -0.5 0.5 0.866 -110.1389 58.322)" style="fill:#F7CF9C;" cx="53.761" cy="234.683" rx="48.767" ry="48.767"/>
		<path style="fill:#EDB87E;" d="M53.765,185.922c-8.29-0.008-16.692,2.085-24.387,6.528c-23.325,13.467-31.316,43.292-17.85,66.617
			c13.466,23.325,43.292,31.316,66.616,17.85c7.695-4.443,13.709-10.673,17.846-17.856
			C58.446,259.022,35.035,218.439,53.765,185.922z"/>
	</g>
	<g>
		<path style="fill:#4C98E0;" d="M287.622,266.277c0-4.042,0.604-7.943,1.714-11.622c-9.629,10.819-21.839,21.297-36.969,28.803
			l-15.644,50.451c-1.059,3.416,0.865,7.04,4.288,8.077l44.725,13.545c2.91,0.881,6.014-0.584,7.182-3.391l18.901-45.405
			c0.566-1.361,1.685-2.187,2.917-2.475C298.964,298.842,287.622,283.889,287.622,266.277z"/>
	</g>
	<path style="fill:#FB5C4B;" d="M129.411,332.717c0,4.479,3.631,8.109,8.109,8.109h36.816c4.401,0,8.074-3.357,8.47-7.739
		l4.086-45.218c0.543-6.007,4.763-11.032,10.573-12.652c30.157-8.408,54.902,8.241,54.902,8.241
		c15.13-7.506,27.34-17.984,36.969-28.803v0c-68.88-34.456-127.098-13.02-127.098-13.02l-35.07,15.235v0L129.411,332.717z"/>
	<path style="fill:#FB4A34;" d="M127.169,256.87l35.07-15.235c3.382-1.469,3.353-6.276-0.047-7.704l-35.023-14.708V256.87z"/>
	<g>
		<path style="fill:#EDB87E;" d="M134.191,93.727v37.206c0.415-0.089,0.842-0.142,1.283-0.142h37.958V93.727
			C164.277,108.126,143.325,108.092,134.191,93.727z"/>
	</g>
	<g>
		<path style="fill:#EDB87E;" d="M266.654,388.636l15.167-34.291l-37.84-11.46l-14.002,31.658
			C243.39,363.353,264.169,371.13,266.654,388.636z"/>
	</g>
	<g>
		<path style="fill:#EDB87E;" d="M396.734,365.982c-4.54-18.346-9.288-33.426-13.297-44.789l-36.43,14.962
			c3.313,9.615,7.194,22.104,10.983,37.121C363.498,356.483,385.441,352.294,396.734,365.982z"/>
	</g>
</g>
<g>
</g>
<g>
</g>
<g>
</g>
<g>
</g>
<g>
</g>
<g>
</g>
<g>
</g>
<g>
</g>
<g>
</g>
<g>
</g>
<g>
</g>
<g>
</g>
<g>
</g>
<g>
</g>
<g>
</g>
</svg>
