<?xml version="1.0" encoding="iso-8859-1"?>
<!-- Generator: Adobe Illustrator 21.0.0, SVG Export Plug-In . SVG Version: 6.00 Build 0)  -->
<svg version="1.1" id="Capa_1" xmlns="http://www.w3.org/2000/svg" xmlns:xlink="http://www.w3.org/1999/xlink" x="0px" y="0px"
	 viewBox="0 0 512.008 512.008" style="enable-background:new 0 0 512.008 512.008;" xml:space="preserve">
<g>
	<circle style="fill:#838AED;" cx="256.004" cy="265.997" r="246.003"/>
	<path style="fill:#686BDF;" d="M41.326,386.179c94.01,167.566,335.284,167.676,429.356,0H41.326z"/>
	<path style="fill:#4352BF;" d="M363.214,386.179H41.326c64.924,115.723,207.158,156.936,321.888,101.278V386.179z"/>
	<path style="fill:#BBEF89;" d="M65.899,422.134c98.519,119.812,281.747,119.743,380.21,0H65.899z"/>
	<path style="fill:#94DC76;" d="M329.108,500.931c-21.658-26.946-9.261-78.797,34.106-78.797H65.899
		C131.199,501.547,235.966,529.884,329.108,500.931z"/>
	<path style="fill:#F7CF9C;" d="M403.132,392.61l-22.877-11.172l-22.949,30.966l17.997,8.789c1.577,0.77,2.283,2.635,1.611,4.256
		l-28.412,68.549c19.13-7.769,37.061-17.87,53.439-29.959l14.754-35.596C422.342,414.821,416.384,399.081,403.132,392.61z"/>
	<path style="fill:#48AEF9;" d="M254.577,309.588c0,0,23.047,30.834,59.139,28.307c0,0-14.505,51.459-64.431,93.903
		c-1.955,1.662-4.8,1.762-6.852,0.222l-39.52-29.668c-1.118-0.839-1.339-2.429-0.492-3.541l7.493-9.847
		c5.001-6.135,9.834-20.409,11.005-27.568C223.373,346.393,233.358,321.604,254.577,309.588z"/>
	<path style="fill:#F7CF9C;" d="M128.227,476.251c11.894,7.244,24.449,13.509,37.557,18.679
		c31.682-25.696,55.322-49.813,70.857-67.257l-30.466-22.871C189.531,423.214,163.454,449.264,128.227,476.251z"/>
	<path style="fill:#48AEF9;" d="M254.577,309.588c0,0,23.047,30.834,59.139,28.307c0,0-14.505,51.459-64.431,93.903
		c-1.955,1.662-4.8,1.762-6.852,0.222l-39.52-29.668c-1.118-0.839-1.339-2.429-0.492-3.541l7.493-9.847
		c5.001-6.135,9.834-20.409,11.005-27.568C223.373,346.393,233.358,321.604,254.577,309.588z"/>
	<path style="fill:#4C98E0;" d="M380.227,370.157l-67.565-28.13c-0.123,0.066-0.245,0.141-0.368,0.209
		c-3.144,8.9-11.871,30.399-29.742,54.182l63.531,21.46c3.394,1.176,7.159,0.012,9.297-2.874l27.061-36.516
		C384.548,375.644,383.468,371.579,380.227,370.157z"/>
	<g>
		
			<ellipse transform="matrix(0.866 -0.5 0.5 0.866 -15.5941 161.5157)" style="fill:#F4C48B;" cx="293.595" cy="109.857" rx="47.095" ry="47.095"/>
		<path style="fill:#EAB883;" d="M293.596,109.857c-8.714-15.094-8.112-33,0.003-47.089c-8.005-0.008-16.119,2.013-23.551,6.304
			c-22.525,13.005-30.243,41.808-17.238,64.333c13.005,22.525,41.807,30.243,64.333,17.238c7.431-4.29,13.239-10.307,17.235-17.244
			C318.118,133.382,302.31,124.95,293.596,109.857z"/>
	</g>
	<path style="fill:#FA6E62;" d="M286.268,219.64c-15.816,1.162-28.802-11.631-28.802-27.489v-46.815
		c0-2.435,1.974-4.409,4.408-4.409h45.861c1.85,0,3.35,1.5,3.35,3.35v48.627C311.085,207.04,300.144,218.621,286.268,219.64z"/>
	<path style="fill:#F7CF9C;" d="M265.328,140.928V18.948C265.328,8.483,273.811,0,284.276,0c10.465,0,18.948,8.483,18.948,18.948
		v121.979H265.328z"/>
	<path style="fill:#F7CF9C;" d="M265.328,140.928V18.948C265.328,8.483,273.811,0,284.276,0c10.465,0,18.948,8.483,18.948,18.948
		v121.979H265.328z"/>
	<path style="fill:#FB5C4B;" d="M311.085,180.872v12.031c0,14.136-10.941,25.717-24.817,26.736
		c-15.816,1.162-28.802-11.631-28.802-27.489v-11.463c-3.467,3.265-5.842,7.655-6.528,12.591
		c-4.041,29.112-6.502,83.811-2.677,120.503c0.002-0.001-6.269,4.226,0,0c0,0,37.04,34.377,73.134,31.882
		c7.689-21.969,16.59-64.213,16.631-112.576C338.05,205.715,324.04,189.769,311.085,180.872z"/>
	<g>
		<path style="fill:#FB4A34;" d="M280.822,219.482c-13.243-1.739-23.355-13.339-23.355-27.331v-11.463
			c-3.467,3.265-5.842,7.655-6.528,12.591c-4.041,29.112-6.502,83.811-2.677,120.503c0,0,13.313,12.346,31.746,21.704
			C277.162,300.25,278.12,255.214,280.822,219.482z"/>
	</g>
	<g>
		<path style="fill:#EAB883;" d="M284.276,118.111c-8.176,0-15.289-4.55-18.948-11.255v34.071h37.896v-34.071
			C299.565,113.562,292.452,118.111,284.276,118.111z"/>
	</g>
	<g>
		<path style="fill:#4C98E0;" d="M270.502,398.215c-25.084,0-45.418-20.335-45.418-45.418c0-2.906,0.284-5.744,0.806-8.498
			c-2.549,6.22-4.167,12.185-4.971,17.098c-1.171,7.159-6.003,21.433-11.005,27.568l-7.493,9.846
			c-0.847,1.113-0.626,2.702,0.493,3.542l39.52,29.668c2.052,1.54,4.897,1.44,6.852-0.222
			c13.483-11.462,24.378-23.581,33.106-35.167C278.6,397.658,274.617,398.215,270.502,398.215z"/>
	</g>
	<g>
		<path style="fill:#EDB87E;" d="M375.96,421.63c-4.488-17.157,11.193-32.932,28.451-28.353c-1.209-0.669-0.401-0.223-24.155-11.839
			l-22.949,30.966C376.242,421.7,375.311,421.091,375.96,421.63z"/>
	</g>
	<g>
		<path style="fill:#EDB87E;" d="M216.811,448.764c7.642-7.727,14.265-14.843,19.829-21.091l-30.466-22.871
			c-4.686,5.184-10.147,10.99-16.322,17.235C205.98,418.354,220.329,432.718,216.811,448.764z"/>
	</g>
</g>
<g>
</g>
<g>
</g>
<g>
</g>
<g>
</g>
<g>
</g>
<g>
</g>
<g>
</g>
<g>
</g>
<g>
</g>
<g>
</g>
<g>
</g>
<g>
</g>
<g>
</g>
<g>
</g>
<g>
</g>
</svg>
