<?xml version="1.0" encoding="iso-8859-1"?>
<!-- Generator: Adobe Illustrator 21.0.0, SVG Export Plug-In . SVG Version: 6.00 Build 0)  -->
<svg version="1.1" id="Capa_1" xmlns="http://www.w3.org/2000/svg" xmlns:xlink="http://www.w3.org/1999/xlink" x="0px" y="0px"
	 viewBox="0 0 512 512" style="enable-background:new 0 0 512 512;" xml:space="preserve">
<g>
	<circle style="fill:#AF5B10;" cx="256" cy="256" r="256"/>
	<path style="fill:#994E04;" d="M9.896,326.702C40.578,433.698,139.142,512,256,512s215.422-78.302,246.104-185.298H9.896z"/>
	<path style="fill:#894304;" d="M339.335,357.096v-30.394H9.896C40.578,433.698,139.142,512,256,512
		c33.771,0,66.008-6.551,95.526-18.433C309.718,461.757,306.265,395.884,339.335,357.096z"/>
	<path style="fill:#F4C48B;" d="M385.707,80.655l0.014-0.019l-11.433-9.208c-10.596-7.775-22.603-7.958-31.096,0.621l0,0
		c-8.235,8.317-9.56,22.831-0.189,30.108c1.326,1.6,6.765,4.147,4.97,9.424c-13.371,39.298-43.254,123.824-68.555,176.222
		l35.531,20.398c36.447-74.474,77.761-201.5,78.835-205.516C396.069,94.142,392.57,85.433,385.707,80.655z"/>
	<g>
		<path style="fill:#EDB87E;" d="M309.451,217.471c-9.889,25.263-20.3,50.176-30.033,70.333l35.531,20.398
			c9.243-18.886,18.798-41.153,27.931-63.936C325.628,248.059,309.486,234.92,309.451,217.471z"/>
	</g>
	<path style="fill:#BBEF89;" d="M456.802,361.068c-1.171-1.749-3.138-2.798-5.242-2.798H60.44c-2.105,0-4.071,1.049-5.242,2.798
		l-18.327,27.355c17.728,29.272,41.163,54.695,68.751,74.755h300.755c27.588-20.06,51.023-45.483,68.751-74.755L456.802,361.068z"/>
	<g>
		<path style="fill:#94DC76;" d="M319.123,403.62c0-17.952,9.027-34.104,23.418-45.349H60.44c-2.105,0-4.071,1.049-5.242,2.798
			l-18.327,27.355c17.728,29.272,41.163,54.695,68.751,74.755h267.566C342.093,456.333,319.123,432.263,319.123,403.62z"/>
	</g>
	<g>
		<path style="fill:#FB5C4B;" d="M212.495,262.926L212.495,262.926L212.495,262.926l-2.706,2.706c-1.856,1.856-4.866,1.856-6.722,0
			l-35.691-35.69c-12.09-12.09-11.942-31.743,1.001-42.915c3.958-3.416,8.626-5.553,13.48-6.469
			c-14.45,1.704-24.284,7.405-30.951,14.267c-11.444,11.778-14.984,29.161-9.896,44.775l36.396,111.696
			c40.469,0,75.49-31.593,75.49-31.593l-5.278-23.674L212.495,262.926z"/>
	</g>
	<path style="fill:#FB4A34;" d="M184.674,247.238l-17.298-17.297c-12.09-12.09-11.942-31.743,1.001-42.915
		c3.958-3.416,8.627-5.553,13.48-6.469c-14.45,1.704-24.284,7.405-30.951,14.267c-11.444,11.778-14.984,29.161-9.896,44.775
		l36.396,111.696c13.826,0,27.014-3.69,38.389-8.545L184.674,247.238z"/>
	<path style="fill:#48AEF9;" d="M330.448,306.526l-24.083-9.751l-8.133,7.999c-10.221,10.371-26.781,11.633-38.446,2.54
		l-6.889,12.387c0,0-35.021,31.593-75.49,31.593c9.923,31.348,22.472,66.077,68.486,66.077c47.084,0,64.206-44.166,64.206-44.166
		l24.026-58.079C335.471,311.737,333.828,307.896,330.448,306.526z"/>
	<g>
		<path style="fill:#4C98E0;" d="M279.781,395.205c-39.403,0-54.262-25.469-63.95-52.471c-11.383,4.863-24.585,8.56-38.425,8.56
			c9.923,31.348,22.472,66.078,68.486,66.078c25.273,0,41.909-12.724,51.903-24.513
			C292.351,394.342,286.359,395.205,279.781,395.205z"/>
	</g>
	<path style="fill:#FA6E62;" d="M168.377,187.026c-12.943,11.172-13.09,30.825-1.001,42.915l35.69,35.69
		c1.856,1.856,4.866,1.856,6.722,0l34.963-34.963c1.41-1.41,1.41-3.697,0-5.107l-37.072-37.072
		C196.903,177.712,179.733,177.224,168.377,187.026z"/>
	<path style="fill:#F7CF9C;" d="M383.42,192.336c-7.911-8.043-20.846-8.151-28.89-0.239l-75.252,74.012
		c-1.048,1.031-2.722,1.048-3.792,0.041l-34.089-32.127l-28.903,28.904l45.045,42.453c11.471,10.961,29.59,10.661,40.692-0.604
		l84.949-83.548C391.225,213.314,391.332,200.381,383.42,192.336z"/>
	<g>
		
			<ellipse transform="matrix(0.866 -0.5 0.5 0.866 -28.419 98.7361)" style="fill:#F7CF9C;" cx="170.035" cy="102.399" rx="50.776" ry="50.776"/>
		<path style="fill:#EDB87E;" d="M170.038,51.629c-8.631-0.009-17.379,2.171-25.392,6.796
			c-24.286,14.021-32.606,45.075-18.585,69.361c14.021,24.286,45.075,32.606,69.361,18.585c8.012-4.626,14.274-11.112,18.582-18.591
			C174.913,127.741,150.537,85.486,170.038,51.629z"/>
	</g>
	<g>
		<path style="fill:#EDB87E;" d="M233.991,275.998c0-12.155,9.854-22.009,22.009-22.009c2.942,0,5.748,0.582,8.313,1.629
			l-22.915-21.596l-28.903,28.904l23.423,22.075C234.683,282.252,233.991,279.207,233.991,275.998z"/>
	</g>
</g>
<g>
</g>
<g>
</g>
<g>
</g>
<g>
</g>
<g>
</g>
<g>
</g>
<g>
</g>
<g>
</g>
<g>
</g>
<g>
</g>
<g>
</g>
<g>
</g>
<g>
</g>
<g>
</g>
<g>
</g>
</svg>
