<?xml version="1.0" encoding="iso-8859-1"?>
<!-- Generator: Adobe Illustrator 21.0.0, SVG Export Plug-In . SVG Version: 6.00 Build 0)  -->
<svg version="1.1" id="Capa_1" xmlns="http://www.w3.org/2000/svg" xmlns:xlink="http://www.w3.org/1999/xlink" x="0px" y="0px"
	 viewBox="0 0 512.108 512.108" style="enable-background:new 0 0 512.108 512.108;" xml:space="preserve">
<g>
	<circle style="fill:#48AEF9;" cx="256.054" cy="264.992" r="247.116"/>
	<path style="fill:#4C98E0;" d="M17.77,330.639c28.757,104.611,124.538,181.469,238.284,181.469
		c113.747,0,209.528-76.858,238.284-181.469H17.77z"/>
	<g>
		<path style="fill:#318AD3;" d="M330.979,330.639H17.77c28.757,104.611,124.538,181.469,238.284,181.469
			c15.631,0,30.92-1.46,45.746-4.235C209.798,481.065,222.24,330.639,330.979,330.639z"/>
	</g>
	<path style="fill:#BBEF89;" d="M453.031,359.091c-1.149-1.715-3.078-2.745-5.142-2.745H64.22c-2.065,0-3.993,1.03-5.143,2.745
		l-18.294,27.305c15.932,28.189,37.229,52.944,62.522,72.859h305.497c25.293-19.915,46.59-44.67,62.522-72.859L453.031,359.091z"/>
	<path style="fill:#94DC76;" d="M354.676,356.347H64.22c-2.065,0-3.993,1.029-5.143,2.745l-18.294,27.305
		c15.932,28.189,37.229,52.944,62.522,72.859h256.417c-18.146-10.74-30.319-30.503-30.319-53.117
		C329.404,385.69,339.355,367.571,354.676,356.347z"/>
	<path style="fill:#FA6E62;" d="M320.632,236.883L320.632,236.883l34.628-28.56c2.511-2.071,3.014-5.723,1.155-8.396l-33.243-47.805
		c-4.346-6.251-11.495-9.369-18.575-8.888v-0.072h-29.789h-38.155h-29.143v0.072c-7.08-0.481-14.229,2.637-18.575,8.888l0,0
		l-33.69,48.448c-1.549,2.227-1.209,5.257,0.794,7.087l35.437,32.359l0,0l0,0v90.624l64.578,34.058l64.578-34.058V236.883
		L320.632,236.883L320.632,236.883z"/>
	<path style="fill:#FB5C4B;" d="M219.714,319.308V159.962c0-7.746,4.939-14.322,11.833-16.8h-24.036v0.072
		c-7.081-0.481-14.229,2.637-18.575,8.888l-33.69,48.448c-1.549,2.227-1.209,5.257,0.794,7.087l35.437,32.359v90.624l12.394,6.537
		h33.711C227.714,337.176,219.714,329.176,219.714,319.308z"/>
	<path style="fill:#FB4A34;" d="M236.976,143.162l15.441,35.543c1.489,3.428,6.361,3.398,7.808-0.048l14.907-35.496H236.976z"/>
	<path style="fill:#EDB87E;" d="M227.057,261.178l-50.557-4.494l11.525-19.821l-31.55-28.81l-24.998,42.994
		c-5.286,9.09-5.536,20.083-0.672,29.406c4.85,9.296,13.974,15.37,24.419,16.261l68.137,6.057
		c11.564,1.014,21.629-7.523,22.645-18.948C247.026,272.338,238.543,262.2,227.057,261.178z"/>
	<polygon style="fill:#48AEF9;" points="256.054,364.697 320.632,330.639 191.476,330.639 	"/>
	<g>
		<path style="fill:#4C98E0;" d="M256.054,330.639h-64.578l57.12,30.125C233.842,352.982,239.373,330.639,256.054,330.639z"/>
	</g>
	
		<ellipse transform="matrix(0.866 -0.5 0.5 0.866 6.8296 135.3096)" style="fill:#F7CF9C;" cx="255.906" cy="54.911" rx="54.901" ry="54.901"/>
	<path style="fill:#EDB87E;" d="M255.906,54.91c-10.159-17.596-9.457-38.47,0.004-54.895c-9.332-0.009-18.791,2.347-27.454,7.349
		C202.197,22.525,193.2,56.102,208.36,82.361c15.161,26.259,48.738,35.256,74.997,20.095c8.663-5.002,15.434-12.015,20.091-20.102
		C284.494,82.335,266.065,72.506,255.906,54.91z"/>
	<g>
		<path style="fill:#F4C48B;" d="M238.032,421.363l152.003-80.166c10.171-5.365,14.069-17.959,8.704-28.132
			c-5.365-10.172-17.963-14.068-28.132-8.704l-152.003,80.166c-10.171,5.365-14.069,17.959-8.704,28.132
			C215.251,422.804,227.836,426.741,238.032,421.363z"/>
	</g>
	<path style="fill:#EDB87E;" d="M296.44,343.478l-77.834,41.05c-10.171,5.365-14.069,17.959-8.704,28.132
		c5.35,10.145,17.935,14.082,28.132,8.704l77.568-40.909C295.692,381.903,283.858,358.798,296.44,343.478z"/>
	<g>
		<path style="fill:#F7CF9C;" d="M273.78,421.363l-152.003-80.166c-10.171-5.365-14.069-17.959-8.704-28.132
			c5.365-10.172,17.963-14.068,28.132-8.704l152.003,80.166c10.171,5.365,14.069,17.959,8.704,28.132
			C296.561,422.804,283.976,426.741,273.78,421.363z"/>
	</g>
	<path style="fill:#F4C48B;" d="M215.373,343.478l77.834,41.05c10.171,5.365,14.069,17.959,8.704,28.132
		c-5.35,10.145-17.935,14.082-28.131,8.704l-77.568-40.909C216.102,381.901,227.961,358.806,215.373,343.478z"/>
	<g>
		<path style="fill:#F7CF9C;" d="M227.057,261.178l-50.557-4.494l0.104-0.178c-15.607,13.363-40.064-0.182-36.106-20.973
			l-9.021,15.515c-5.286,9.09-5.537,20.083-0.672,29.406c4.851,9.296,13.974,15.37,24.419,16.261l68.137,6.056
			c11.564,1.014,21.629-7.524,22.645-18.948C247.026,272.338,238.543,262.2,227.057,261.178z"/>
	</g>
	<path style="fill:#EDB87E;" d="M283.344,261.178l50.557-4.494l-12.082-20.78l32.646-26.925l24.46,42.068
		c5.286,9.09,5.536,20.083,0.672,29.406c-4.85,9.296-13.974,15.37-24.419,16.261l-68.137,6.057
		c-11.564,1.014-21.629-7.523-22.645-18.948C263.375,272.338,271.858,262.2,283.344,261.178z"/>
	<g>
		<path style="fill:#F7CF9C;" d="M283.344,261.178l50.557-4.494l-0.103-0.178c15.607,13.363,40.064-0.182,36.106-20.973
			l9.021,15.515c5.286,9.09,5.537,20.083,0.672,29.406c-4.851,9.296-13.974,15.37-24.418,16.261l-68.137,6.056
			c-11.564,1.014-21.629-7.524-22.645-18.948C263.375,272.338,271.858,262.2,283.344,261.178z"/>
	</g>
</g>
<g>
</g>
<g>
</g>
<g>
</g>
<g>
</g>
<g>
</g>
<g>
</g>
<g>
</g>
<g>
</g>
<g>
</g>
<g>
</g>
<g>
</g>
<g>
</g>
<g>
</g>
<g>
</g>
<g>
</g>
</svg>
