<?xml version="1.0" encoding="iso-8859-1"?>
<!-- Generator: Adobe Illustrator 21.0.0, SVG Export Plug-In . SVG Version: 6.00 Build 0)  -->
<svg version="1.1" id="Capa_1" xmlns="http://www.w3.org/2000/svg" xmlns:xlink="http://www.w3.org/1999/xlink" x="0px" y="0px"
	 viewBox="0 0 512 512" style="enable-background:new 0 0 512 512;" xml:space="preserve">
<g>
	<circle style="fill:#838AED;" cx="256" cy="256" r="256"/>
	<path style="fill:#686BDF;" d="M7.028,315.752C33.944,428.312,135.192,512,256,512s222.056-83.688,248.972-196.248H7.028z"/>
	<g>
		<path style="fill:#4352BF;" d="M278.099,315.752H7.028C33.944,428.312,135.192,512,256,512c15.276,0,30.238-1.343,44.777-3.908
			C208.36,484.722,202.896,356.509,278.099,315.752z"/>
	</g>
	<path style="fill:#BBEF89;" d="M480.172,349.185c-1.308-1.952-3.503-3.124-5.852-3.124H37.681c-2.35,0-4.545,1.171-5.853,3.124
		l-8.778,13.102c18.441,40.352,47.061,75.071,82.573,100.891h300.755c35.512-25.82,64.131-60.539,82.573-100.891L480.172,349.185z"
		/>
	<g>
		<path style="fill:#94DC76;" d="M291.77,408.102c0-28.374,22.151-52.574,53.288-62.041H37.681c-2.35,0-4.545,1.171-5.853,3.124
			l-8.778,13.102c18.441,40.352,47.061,75.071,82.573,100.891H328.27C306.258,451.273,291.77,431.051,291.77,408.102z"/>
	</g>
	<path style="fill:#FA6E62;" d="M165.251,374.306c-1.522,20.721,15.239,37.735,36.016,37.735h61.336c3.19,0,5.776-2.586,5.776-5.776
		V346.18c0-2.424-1.965-4.389-4.389-4.389h-63.709C181.76,341.791,166.587,356.125,165.251,374.306z"/>
	<path style="fill:#F7CF9C;" d="M268.379,401.741h159.815c13.711,0,24.825-11.115,24.825-24.825
		c0-13.711-11.115-24.825-24.825-24.825H268.379V401.741z"/>
	<path style="fill:#F7CF9C;" d="M385.237,52.554l6.407,1.372c-5.017,36.15-13.081,111.233-12.11,181.389h49.672
		c-1.321-94.058,14.979-196.998,15.172-198.137c2.297-13.51-7.343-25.126-20.313-28.631l-24.477-7.407
		c-14.55-4.419-29.792,4.447-33.143,19.28C363.285,34.405,371.498,48.45,385.237,52.554z"/>
	<path style="fill:#48AEF9;" d="M365.837,352.091h62.357c9.781,0,18.215,5.67,22.261,13.89c13.768-29.29,0.288-62.16-0.856-69.174
		l-9.276-56.897c-0.432-2.65-2.721-4.595-5.406-4.595h-62.009c-3.604,0-6.553,2.868-6.655,6.47L365.837,352.091L365.837,352.091z"/>
	<g>
		<path style="fill:#FB5C4B;" d="M200.281,341.791h63.709c2.424,0,4.389,1.965,4.389,4.389v5.911h97.458l0.103-27.161
			c-31.557-4.694-103.648-18.19-157.687,0.226c-14.199,4.839-23.836,12.125-29.329,23.876
			C184.843,344.492,192.245,341.791,200.281,341.791z"/>
	</g>
	<g>
		
			<ellipse transform="matrix(0.866 -0.5 0.5 0.866 -163.2827 101.313)" style="fill:#F7CF9C;" cx="107.412" cy="355.346" rx="56.685" ry="56.685"/>
		<path style="fill:#EDB87E;" d="M107.412,355.346c-10.489-18.167-9.764-39.72,0.004-56.678c-9.636-0.01-19.402,2.423-28.347,7.587
			c-27.112,15.653-36.401,50.321-20.748,77.433s50.321,36.401,77.433,20.748c8.945-5.164,15.935-12.406,20.744-20.755
			C136.928,383.662,117.901,373.514,107.412,355.346z"/>
	</g>
	<g>
		<path style="fill:#EDB87E;" d="M292.443,376.916c0-10.863,6.242-20.263,15.332-24.825h-39.395v49.651h39.395
			C298.685,397.179,292.443,387.779,292.443,376.916z"/>
	</g>
	<g>
		<path style="fill:#4C98E0;" d="M450.547,301.177c-22.621,29.29-67.896,24.816-84.488-8.064l-0.223,58.977h62.357
			c9.781,0,18.215,5.67,22.261,13.89c11.589-24.655,3.657-53.754,0.721-62.676C450.945,302.601,450.74,301.891,450.547,301.177z"/>
	</g>
	<g>
		<path style="fill:#FB4A34;" d="M307.31,352.091c-5.332-4.26-8.752-10.814-8.752-18.169c0-6.622,2.773-12.592,7.216-16.827
			c-31.305-2.556-67.246-2.256-97.521,8.062c-14.199,4.839-23.836,12.125-29.329,23.876c5.918-4.54,13.321-7.241,21.357-7.241
			h63.709c2.424,0,4.389,1.965,4.389,4.389v5.911H307.31z"/>
	</g>
	<g>
		<path style="fill:#EDB87E;" d="M429.985,184.927c-10.159,20.883-40.069,20.544-49.747-0.572
			c-0.646,16.863-0.938,34.053-0.704,50.958h49.672C428.971,218.591,429.296,201.59,429.985,184.927z"/>
	</g>
</g>
<g>
</g>
<g>
</g>
<g>
</g>
<g>
</g>
<g>
</g>
<g>
</g>
<g>
</g>
<g>
</g>
<g>
</g>
<g>
</g>
<g>
</g>
<g>
</g>
<g>
</g>
<g>
</g>
<g>
</g>
</svg>
