<?xml version="1.0" encoding="iso-8859-1"?>
<!-- Generator: Adobe Illustrator 21.0.0, SVG Export Plug-In . SVG Version: 6.00 Build 0)  -->
<svg version="1.1" id="Capa_1" xmlns="http://www.w3.org/2000/svg" xmlns:xlink="http://www.w3.org/1999/xlink" x="0px" y="0px"
	 viewBox="0 0 497.759 497.759" style="enable-background:new 0 0 497.759 497.759;" xml:space="preserve">
<g>
	<circle style="fill:#4C98E0;" cx="248.879" cy="248.879" r="248.879"/>
	<path style="fill:#EAF3F9;" d="M381.479,403.388c-5.216-19.972,1.264-41.033,16.444-55.021
		c39.804-36.678,64.744-89.24,64.744-147.634C462.667,89.871,372.796,0,261.934,0C157.356,0,63.785,72.291,53.675,173.706
		c-1.777,17.82,3.455,29.481,4.727,35.574c2.658,9.798,0.394,20.274-6.079,28.095C31.957,261.98,9.115,291.132,9.115,298.108
		c0,10.776,26.424,20.714,34.021,23.348c1.211,0.42,2.02,1.557,2.02,2.838l0,17.896c0,1.427,0.64,2.779,1.744,3.684l12.466,10.221
		c2.717,2.228,0.545,5.378,0.214,7.946c-1.137,4.51,0.223,9.283,3.567,12.516c4.506,5.473,17.669,12.507,17.669,29.208
		c0.607,5.797-2.959,23.403,9.848,42.187h0c6.301,9.241,16.512,15.23,27.685,15.729c9.815,0.438,19.721-1.05,29.124-4.326
		l24.195-8.432c3.94-1.373,8.302,0.23,10.414,3.829l13.882,23.651c2.062,3.512,2.95,7.522,3.083,11.592
		c0.034,1.024,0.264,1.997,0.646,2.889c15.9,3.193,32.347,4.874,49.188,4.874c54.134,0,104.223-17.292,145.067-46.641
		L381.479,403.388z"/>
	<path style="fill:#C6E0F4;" d="M143.347,454.682c-11.173-0.498-21.384-6.488-27.685-15.729h0
		c-6.416-9.41-4.848-11.536-4.848-22.925v-10.262c0-16.197-12.333-23.14-15.565-27.174c-19.802-17.446-20.094-36.402-20.094-36.402
		l0-17.896c0-1.282-0.809-2.419-2.02-2.838c-7.597-2.634-34.02-12.572-34.02-23.348c0-6.975,22.843-36.128,43.208-60.733
		c6.473-7.821,8.737-18.297,6.079-28.095c-1.298-6.213-6.499-17.801-4.727-35.574c9.61-96.405,94.641-166.484,192.85-173.175
		C271.705,0.185,266.842,0,261.934,0C157.356,0,63.785,72.291,53.675,173.706c-1.777,17.82,3.455,29.481,4.727,35.574
		c2.658,9.798,0.394,20.274-6.079,28.095C31.957,261.98,9.115,291.132,9.115,298.108c0,10.776,26.424,20.714,34.021,23.348
		c1.211,0.42,2.02,1.557,2.02,2.838l0,17.896c0,1.427,0.64,2.779,1.744,3.684l12.466,10.221c2.717,2.228,0.545,5.378,0.214,7.946
		c-1.137,4.51,0.223,9.283,3.567,12.516c4.506,5.473,17.669,12.507,17.669,29.208c0.607,5.797-2.959,23.403,9.848,42.187h0
		c6.301,9.241,16.512,15.23,27.685,15.729c9.815,0.438,19.721-1.05,29.124-4.326l17.267-6.018
		C157.324,454.49,149.376,454.951,143.347,454.682z"/>
	<g>
		<path style="fill:#C6E0F4;" d="M225.962,478.403l-13.882-31.651c-2.112-3.599-6.474-5.202-10.414-3.829l-23.648,8.241
			c1.654,0.717,3.095,1.94,4.062,3.588l13.882,23.651c2.062,3.512,2.95,7.522,3.083,11.592c0.034,1.024,0.264,1.997,0.646,2.889
			c9.464,1.9,19.125,3.251,28.944,4.045C228.178,489.85,227.328,480.729,225.962,478.403z"/>
	</g>
	<path style="fill:#A3CCEF;" d="M245.87,184.185c-26.52-5.649-47.879-25.216-56.077-50.696
		c-34.113,7.266-59.705,37.559-59.705,73.839c0,41.702,33.806,75.509,75.508,75.509c22.256,0,42.258-9.632,56.077-24.951
		C243.307,237.527,237.761,209.385,245.87,184.185z"/>
	<path style="fill:#7DD776;" d="M261.674,156.771c13.819-15.319,33.821-24.951,56.077-24.951c5.422,0,10.706,0.583,15.803,1.669
		c15.687-48.755-20.743-98.652-71.88-98.652c-51.205,0-87.542,49.973-71.881,98.652c5.098-1.086,10.382-1.669,15.803-1.669
		C227.852,131.82,247.854,141.452,261.674,156.771z"/>
	<path style="fill:#5CBA4F;" d="M245.87,184.185c3.305-10.273,8.742-19.587,15.803-27.414
		c-13.82-15.319-33.822-24.951-56.077-24.951c-5.422,0-10.705,0.583-15.803,1.669C197.991,158.969,219.35,178.536,245.87,184.185z"
		/>
	<path style="fill:#838AED;" d="M333.554,133.489c-8.198,25.48-29.557,45.047-56.077,50.696
		c8.086,25.131,2.613,53.288-15.803,73.701c46.099,51.1,131.586,18.509,131.586-50.557
		C393.259,171.048,367.667,140.755,333.554,133.489z"/>
	<path style="fill:#4C98E0;" d="M277.477,184.185c-10.198,2.172-20.911,2.278-31.607,0c-8.103,25.183-2.576,53.328,15.803,73.701
		C280.077,237.486,285.569,209.335,277.477,184.185z"/>
	<path style="fill:#686BDF;" d="M261.674,156.771c7.061,7.827,12.498,17.141,15.803,27.414c26.52-5.649,47.879-25.216,56.077-50.696
		c-5.098-1.086-10.382-1.669-15.803-1.669C295.495,131.82,275.493,141.452,261.674,156.771z"/>
	<path style="fill:#585877;" d="M245.87,184.185c10.198,2.172,20.911,2.278,31.607,0c-3.305-10.273-8.742-19.587-15.803-27.414
		C254.613,164.598,249.175,173.912,245.87,184.185z"/>
	<path style="fill:#6DC963;" d="M235.891,101.511c0-28.256,15.697-52.841,38.843-65.525c-4.245-0.741-8.603-1.149-13.06-1.149
		c-51.204,0-87.543,49.973-71.88,98.652c5.098-1.086,10.382-1.669,15.803-1.669c17.489,0,33.572,5.967,46.371,15.949
		C241.91,135.047,235.891,118.987,235.891,101.511z"/>
	<path style="fill:#686BDF;" d="M352.151,258.859c-33.214,0-61.349-21.691-71.048-51.675c0.091,18.155-6.514,36.387-19.429,50.702
		c31.139,34.517,85.598,32.974,114.792-3.098C368.841,257.414,360.667,258.859,352.151,258.859z"/>
	<path style="fill:#67AAE6;" d="M242.242,260.528c-66.437,0-99.106-80-53.443-126.805c-33.612,7.64-58.711,37.68-58.711,73.605
		c0,41.702,33.806,75.508,75.508,75.508c22.206,0,42.167-9.592,55.983-24.852C255.41,259.635,248.932,260.528,242.242,260.528z"/>
</g>
<g>
</g>
<g>
</g>
<g>
</g>
<g>
</g>
<g>
</g>
<g>
</g>
<g>
</g>
<g>
</g>
<g>
</g>
<g>
</g>
<g>
</g>
<g>
</g>
<g>
</g>
<g>
</g>
<g>
</g>
</svg>
