<?xml version="1.0" encoding="iso-8859-1"?>
<!-- Generator: Adobe Illustrator 21.0.0, SVG Export Plug-In . SVG Version: 6.00 Build 0)  -->
<svg version="1.1" id="Capa_1" xmlns="http://www.w3.org/2000/svg" xmlns:xlink="http://www.w3.org/1999/xlink" x="0px" y="0px"
	 viewBox="0 0 512 512" style="enable-background:new 0 0 512 512;" xml:space="preserve">
<g>
	<circle style="fill:#F9918F;" cx="256" cy="256" r="256"/>
	<path style="fill:#F7CF9C;" d="M396.778,107.573L396.778,107.573c0-15.958-12.936-28.895-28.893-28.895h-0.001
		c-15.612,0-28.891,12.718-28.894,28.89V68.82c0-15.363-11.945-28.479-27.299-28.991c-15.494-0.517-28.309,11.44-29.183,26.599
		V29.204c0-11.166-6.27-20.865-15.478-25.778c-1.512-0.825-3.094-1.53-4.749-2.068c-0.041,0.004-0.082,0.009-0.123,0.013
		c-2.593-0.824-5.346-1.281-8.197-1.345c-0.799,0.006-1.597,0.017-2.394,0.03c-15.319,0.9-27.466,13.603-27.466,29.147v35.927
		c-1.752-13.833-13.128-24.985-27.34-25.31c-15.898-0.364-29.11,12.571-28.939,28.56c-0.933,239.439,1.556,240.283-1.374,236.525
		l-64.202-82.348c-23.11-29.444-70.055,2.307-42.618,36.693c25.386,35.361,41.888,47.188,52.677,81.41
		c2.19,6.951,3.984,16.191,10.624,29.064c8.181,15.872,16.893,24.807,27.698,34.791c23.187,21.474,20.198,40.644,21.26,45.052
		c0.004,6.893,0.012,25.967,0.02,48.281C198.248,507.008,226.539,512,256,512c39.37,0,76.659-8.897,109.981-24.775
		c-0.027-10.15-0.137-52.067-0.141-53.73c-0.052-4.796,1.411-9.463,4.068-13.456c8.225-12.359,14.623-25.735,19.125-39.712l0-0.002
		C401.994,340.115,394.778,324.033,396.778,107.573z"/>
	<path style="fill:#EDB87E;" d="M284.471,454.328c-39.197,0-72.487-12.115-95.706-44.278c-4.015-5.562-8.91-10.671-14.45-15.636
		c-27.924-25.048-33.847-51.726-38.511-66.528c-11.794-37.415-30.391-51.061-57.222-88.436c-6.769-8.484-9.83-18.026-8.678-26.909
		c-17.41,5.94-25.85,27.191-10.276,46.709c25.386,35.361,41.889,47.188,52.677,81.41c2.19,6.951,3.984,16.191,10.624,29.064
		c13.353,25.906,26.709,31.193,37.34,45.409v0c14.952,18.514,11.637,40.788,11.986,82.838C198.497,507.053,226.669,512,256,512
		c39.371,0,76.66-8.897,109.982-24.775c-0.082-36.939-0.246-53.296-0.085-55.581C342.143,446.04,314.275,454.328,284.471,454.328z"
		/>
	<path style="fill:#EFEFEF;" d="M58.043,220.542c-10.079,11.511-7.962,26.744,1.586,38.709l14.748,19.081l0.001,0
		c0,0,20.104-8.953,11.75-25.671C79.943,240.285,64.387,226.55,58.043,220.542z"/>
	<path style="fill:#EDB87E;" d="M196.761,62.43c0,0,0.114-14.265,7.516-21.356c-18.053-5.634-36.659,8.211-36.456,27.306v234.738
		h28.94V62.43z"/>
	<path style="fill:#EDB87E;" d="M238.57,232.905c7.992,0,14.469-6.478,14.469-14.47V18.639c0,0,0.089-10.821,5.002-18.298
		c-1.563-0.245-3.163-0.366-4.796-0.336c-15.148,0.285-28.929,12.944-28.929,28.657v39.053c-0.033-0.854-0.112-1.697-0.216-2.534
		v153.254C224.1,226.427,230.578,232.905,238.57,232.905z"/>
	<path style="fill:#EDB87E;" d="M296.977,232.905c7.992,0,14.47-6.478,14.47-14.47V60.778c0,0,0.103-12.65,6.298-20.046
		c-1.943-0.511-3.962-0.834-6.054-0.903c-15.716-0.525-28.646,11.793-29.183,27.26v151.346
		C282.507,226.427,288.985,232.905,296.977,232.905z"/>
	<path style="fill:#EDB87E;" d="M367.885,78.678h-0.001c-15.329,0-28.341,12.205-28.858,27.935v111.823
		c0,7.991,6.479,14.47,14.47,14.47l0,0c7.991,0,14.469-6.478,14.469-14.47V99.597c0,0,0.106-12.784,6.4-20.163
		C372.279,78.955,370.116,78.678,367.885,78.678z"/>
	<g>
		<path style="fill:#EDB87E;" d="M263.584,368.954c3.061,5.329,9.895,7.218,15.273,4.124c5.358-3.079,7.203-9.917,4.124-15.273
			c-39.338-68.434-111.151-75.44-114.188-75.705c-0.327-0.029-0.65-0.036-0.972-0.038v22.434
			C176.251,305.51,232.111,314.204,263.584,368.954z"/>
	</g>
	<path style="fill:#FA6E62;" d="M214.781,160.603L214.781,160.603c-56.92,32.863-76.422,105.646-43.56,162.566l0,0
		c32.863,56.92,105.646,76.422,162.566,43.559l0,0c56.92-32.863,76.422-105.646,43.559-162.566l0,0
		C344.484,147.243,271.701,127.74,214.781,160.603z"/>
	<path style="fill:#FB4A34;" d="M224.157,292.607L224.157,292.607c-27.58-47.769-18.272-106.706,19.076-143.848
		c-9.739,2.639-19.301,6.561-28.452,11.844l0,0c-56.92,32.863-76.422,105.646-43.559,162.566l0,0
		c32.863,56.92,105.646,76.422,162.566,43.559l0,0c9.151-5.283,17.329-11.603,24.483-18.718
		C307.431,361.784,251.736,340.376,224.157,292.607z"/>
	<path style="fill:#FB5C4B;" d="M230.077,187.097L230.077,187.097c-42.288,24.415-56.777,78.488-32.362,120.776l0,0
		c24.415,42.288,78.488,56.777,120.776,32.362l0,0c42.288-24.415,56.777-78.488,32.362-120.776l0,0
		C326.438,177.171,272.365,162.682,230.077,187.097z"/>
	<path style="fill:#ED3B2E;" d="M298.781,348.634c-30.361-7.476-57.755-26.809-74.624-56.027l0,0
		c-16.869-29.218-19.915-62.608-11.208-92.639c-28.628,27.524-35.981,71.968-15.233,107.905l0,0
		C218.464,343.81,260.63,359.664,298.781,348.634z"/>
	<path style="fill:#FB4A34;" d="M245.343,213.539L245.343,213.539c-27.685,15.984-37.17,51.384-21.186,79.068l0,0
		c15.984,27.685,51.384,37.17,79.068,21.186h0c27.685-15.984,37.17-51.384,21.186-79.068l0,0
		C308.428,207.04,273.028,197.555,245.343,213.539z"/>
	<path style="fill:#ED3B2E;" d="M260.458,239.719L260.458,239.719c-13.226,7.636-17.757,24.547-10.121,37.773l0,0
		c7.636,13.226,24.547,17.757,37.773,10.121l0,0c13.226-7.636,17.757-24.547,10.121-37.773l0,0
		C290.596,236.614,273.684,232.083,260.458,239.719z"/>
	<g>
		<path style="fill:#D3221E;" d="M275.264,271.092c-4.541,0.607-8.751-3.026-8.464-7.919c0.229-3.908,3.634-7.253,7.972-6.992
			c3.922,0.227,7.246,3.649,6.993,7.971C281.565,267.558,278.912,270.64,275.264,271.092z"/>
	</g>
</g>
<g>
</g>
<g>
</g>
<g>
</g>
<g>
</g>
<g>
</g>
<g>
</g>
<g>
</g>
<g>
</g>
<g>
</g>
<g>
</g>
<g>
</g>
<g>
</g>
<g>
</g>
<g>
</g>
<g>
</g>
</svg>
