<?xml version="1.0" encoding="iso-8859-1"?>
<!-- Generator: Adobe Illustrator 21.0.0, SVG Export Plug-In . SVG Version: 6.00 Build 0)  -->
<svg version="1.1" id="Capa_1" xmlns="http://www.w3.org/2000/svg" xmlns:xlink="http://www.w3.org/1999/xlink" x="0px" y="0px"
	 viewBox="0 0 497.759 497.759" style="enable-background:new 0 0 497.759 497.759;" xml:space="preserve">
<g>
	<circle style="fill:#FEC50A;" cx="248.879" cy="248.879" r="248.879"/>
	<path style="fill:#EAF3F9;" d="M483.667,200.733C483.667,89.871,393.796,0,282.935,0C178.356,0,84.785,72.291,74.675,173.706
		c-1.776,17.82,3.455,29.48,4.727,35.574c2.658,9.798,0.394,20.274-6.079,28.095c-20.366,24.605-43.208,53.757-43.208,60.733
		c0,10.776,26.424,20.714,34.021,23.348c1.211,0.42,2.02,1.557,2.02,2.838l0,17.896c0,1.427,0.64,2.779,1.744,3.684l12.466,10.221
		c2.717,2.228,0.546,5.378,0.214,7.946c-1.137,4.509,0.223,9.283,3.567,12.516c4.506,5.473,17.669,12.507,17.669,29.208
		c0.607,5.798-2.96,23.403,9.848,42.187l0,0c6.301,9.241,16.512,15.23,27.685,15.729c9.815,0.438,19.721-1.05,29.124-4.327
		l24.195-8.432c3.941-1.373,8.302,0.23,10.414,3.829l13.882,23.651c2.061,3.512,2.949,13.522,3.083,17.592
		c0.001,0.031,0.006,0.061,0.008,0.091c9.459,1.091,19.075,1.671,28.827,1.671c62.1,0,118.884-22.748,162.483-60.36l-8.883-34.01
		c-5.216-19.972,1.264-41.033,16.444-55.021C458.727,311.689,483.667,259.127,483.667,200.733z"/>
	<path style="fill:#C6E0F4;" d="M249.304,497.753c-0.496-7.555-1.255-17.499-2.341-19.35l-13.882-31.651
		c-2.112-3.599-6.474-5.202-10.414-3.829l-23.648,8.241c1.654,0.717,3.095,1.94,4.062,3.588l13.882,23.651
		c2.061,3.512,2.949,13.522,3.083,17.592c0.001,0.031,0.006,0.061,0.008,0.091c9.459,1.091,19.075,1.671,28.827,1.671
		C249.021,497.759,249.162,497.754,249.304,497.753z"/>
	<path style="fill:#C6E0F4;" d="M164.347,454.682c-11.173-0.498-21.384-6.488-27.685-15.729h0
		c-6.416-9.41-4.848-11.536-4.848-22.925v-10.262c0-16.197-12.333-23.14-15.565-27.174c-19.802-17.446-20.094-36.402-20.094-36.402
		l0-17.896c0-1.282-0.809-2.419-2.02-2.838c-7.597-2.634-34.021-12.572-34.021-23.348c0-6.975,22.843-36.128,43.208-60.733
		c6.473-7.82,8.737-18.297,6.079-28.095c-1.298-6.213-6.499-17.801-4.727-35.574c9.61-96.405,94.641-166.484,192.85-173.175
		C292.706,0.185,287.842,0,282.934,0C178.356,0,84.785,72.291,74.675,173.706c-1.776,17.82,3.455,29.481,4.727,35.574
		c2.658,9.798,0.394,20.274-6.079,28.095c-20.366,24.606-43.208,53.758-43.208,60.733c0,10.776,26.424,20.714,34.021,23.348
		c1.211,0.42,2.02,1.557,2.02,2.838l0,17.896c0,1.427,0.64,2.779,1.744,3.684l12.466,10.222c2.717,2.228,0.545,5.378,0.214,7.946
		c-1.137,4.51,0.223,9.283,3.567,12.516c4.506,5.473,17.669,12.507,17.669,29.208c0.607,5.797-2.959,23.403,9.848,42.187h0
		c6.301,9.241,16.512,15.23,27.685,15.729c9.815,0.438,19.721-1.05,29.124-4.327l17.267-6.018
		C178.324,454.49,170.376,454.951,164.347,454.682z"/>
	<g>
		<path style="fill:#FA6E62;" d="M65.756,184.844l-13.636-50.408l-7.16,17.898c-1.139,2.848-3.897,4.715-6.964,4.715H7.5
			c-4.142,0-7.5-3.357-7.5-7.5c0-4.143,3.358-7.5,7.5-7.5h25.42l13.614-34.033c1.198-2.995,4.176-4.899,7.4-4.702
			c3.221,0.188,5.961,2.414,6.804,5.529l14.229,52.604l7.267-15.143c1.248-2.601,3.877-4.255,6.762-4.255h48.496
			c4.142,0,7.5,3.357,7.5,7.5c0,4.143-3.358,7.5-7.5,7.5H93.715l-13.957,29.082C76.735,192.429,67.559,191.51,65.756,184.844z"/>
	</g>
	<path style="fill:#C6E0F4;" d="M395.403,313.228c-3.276-14.915-4.076-28.896-2.378-41.555l0.168-1.252l-1.253,0.158
		c-22.444,2.824-43.066-13.136-45.969-35.57c-0.543-4.198-0.441-8.425,0.301-12.565l0.133-0.741l-0.683-0.314
		c-18.668-8.603-38.464-7.358-51.78-4.8l-0.817,0.158l0.028,0.831c0.069,2.041,0.23,4.045,0.477,5.953
		c3.187,24.629,20.668,44.999,44.535,51.895c9.639,2.785,17.424,9.86,20.824,18.927l9.306,24.819
		c1.212,3.234,4.258,5.304,7.631,5.304c0.955,0,0.501-0.019,12.725-1.577C393.401,322.284,396.392,317.728,395.403,313.228z"/>
	<g>
		<path style="fill:#A3CCEF;" d="M336.379,266.359c0-8.401,6.695-15.296,15.01-15.66c-2.781-4.674-4.678-9.97-5.418-15.689
			c-0.543-4.198-0.441-8.425,0.301-12.565l0.133-0.741l-0.683-0.314c-18.668-8.603-38.464-7.358-51.781-4.8l-0.817,0.158
			l0.028,0.831c0.069,2.041,0.23,4.045,0.478,5.953c3.187,24.629,20.668,44.999,44.535,51.895c0.504,0.146,1,0.31,1.494,0.479
			C337.612,273.254,336.379,269.947,336.379,266.359z"/>
	</g>
	<path style="fill:#A3CCEF;" d="M413.624,209.601c-1.581,0.848-2.535,2.521-2.482,4.315c0.092,3.094-0.311,6.268-1.304,9.417
		c-3.742,11.865-13.261,16.595-20.967,18.455c-9.915,2.393-19.214-1.498-26.65-8.286c-5.363-4.895-11.077-8.55-16.905-11.236
		c-0.744,4.144-0.878,8.47-0.309,12.867c2.988,23.088,24.126,39.382,47.214,36.394c23.088-2.988,39.382-24.126,36.394-47.214
		c-0.96-7.415-3.799-14.122-7.966-19.722C418.526,206.555,416.164,208.239,413.624,209.601z"/>
	<g>
		<path style="fill:#85BBEB;" d="M416.054,258.684c-15.816,2.047-30.716-4.958-39.493-16.994
			c-5.223-1.333-10.477-4.662-14.339-8.188c-5.363-4.895-11.077-8.55-16.905-11.236c-0.744,4.144-0.878,8.47-0.309,12.867
			c2.988,23.088,24.126,39.382,47.214,36.394c10.152-1.314,18.989-6.139,25.452-13.095
			C417.136,258.523,416.598,258.613,416.054,258.684z"/>
	</g>
	<path style="fill:#67AAE6;" d="M418.617,151.909c-1.492-1.128-1.993-3.157-1.191-4.825c1.07-2.227,1.904-4.578,2.481-6.991
		c3.623-15.162-3.36-31.026-16.981-38.58c-2.553-1.415-4.24-3.864-4.63-6.718c-1.961-14.366-12.34-25.826-26.44-29.195
		c-2.594-0.62-5.251-0.943-7.897-0.961c-2.019-0.013-3.803-1.227-4.545-3.093c-4.194-10.548-13.278-18.417-24.3-21.051
		c-11.279-2.694-23.123,0.384-31.683,8.236c-3.016,2.768-7.516,3.094-10.943,0.794c-3.441-2.31-7.245-3.973-11.308-4.944
		c-13.605-3.251-27.782,1.913-36.116,13.158c-1.973,2.663-5.089,4.172-8.308,4.081c-16.451-0.575-31.202,10.692-35.036,26.736
		c-0.257,1.072-0.465,2.17-0.618,3.263c-0.353,2.504-2.197,4.537-4.697,5.18c-10.651,2.738-18.854,11.076-21.427,21.847l-0.04,0.173
		c-0.602,2.628-2.067,4.919-4.124,6.449c-7.257,5.398-12.078,13.314-13.576,22.287c-2.594,15.54,6.017,31.366,20.475,37.633
		c2.694,1.167,5.512,1.993,8.377,2.454c2.403,0.388,4.381,1.95,5.29,4.18c3.594,8.813,11.257,15.394,20.499,17.603
		c5.904,1.41,12.003,0.987,17.638-1.226c1.617-0.638,3.502,0.026,4.478,1.577c4.883,7.749,12.476,13.189,21.379,15.317
		c7.741,1.849,15.636,1.05,22.791-2.296c0.491-0.201,49.425-19.789,83.403,11.228c7.705,7.035,17.349,10.975,27.535,8.514
		c7.723-1.865,17.752-6.694,21.666-19.108c0.994-3.153,1.448-6.429,1.348-9.739c-0.043-1.439,0.712-2.753,1.97-3.428
		c8.772-4.705,15.128-12.95,17.44-22.621C434.743,174.365,429.676,160.262,418.617,151.909z"/>
	<g>
		<path style="fill:#4C98E0;" d="M244.722,211.058c-2.848-7.608-2.654-15.882,0.548-23.297c0.907-2.102,1.018-4.527,0.31-6.828
			l-0.046-0.152c-2.819-9.478-0.198-19.589,6.816-26.461c1.647-1.614,2.165-4.009,1.32-6.103c-0.369-0.913-0.698-1.855-0.979-2.799
			c-4.199-14.118,2.179-29.417,15.157-36.318c2.531-1.367,4.266-3.924,4.603-6.865c1.424-12.417,10.082-22.74,22.055-26.3
			c3.575-1.063,7.26-1.475,10.952-1.225c3.676,0.249,7.011-2.012,8.108-5.5c3.114-9.894,10.899-17.562,20.824-20.515
			c5.114-1.521,10.459-1.662,15.538-0.547c-4.194-3.663-9.257-6.326-14.815-7.654c-11.279-2.694-23.123,0.384-31.683,8.236
			c-3.016,2.768-7.516,3.094-10.943,0.794c-3.441-2.31-7.245-3.973-11.308-4.944c-13.605-3.251-27.783,1.913-36.116,13.158
			c-1.973,2.663-5.089,4.172-8.308,4.081c-16.451-0.575-31.202,10.692-35.036,26.736c-0.256,1.072-0.464,2.17-0.618,3.263
			c-0.353,2.504-2.197,4.537-4.697,5.18c-10.651,2.738-18.854,11.076-21.427,21.847l-0.04,0.173
			c-0.602,2.628-2.067,4.919-4.124,6.449c-7.257,5.398-12.078,13.314-13.576,22.287c-2.594,15.54,6.017,31.366,20.474,37.633
			c2.694,1.167,5.512,1.993,8.377,2.454c2.403,0.388,4.381,1.95,5.29,4.18c3.594,8.813,11.257,15.394,20.499,17.603
			c5.904,1.41,12.003,0.987,17.638-1.226c1.617-0.638,3.502,0.026,4.478,1.577c4.883,7.749,12.476,13.189,21.379,15.317
			c0.16,0.038,0.32,0.068,0.48,0.104C250.893,221.88,246.927,216.949,244.722,211.058z"/>
	</g>
	<g>
		<path style="fill:#FB4A34;" d="M80.872,149.14l-5.906,12.306l-14.229-52.604c-0.842-3.115-3.583-5.342-6.804-5.529
			c-3.224-0.197-6.201,1.707-7.4,4.702L32.92,142.049H7.5c-4.142,0-7.5,3.357-7.5,7.5c0,4.143,3.358,7.5,7.5,7.5h30.498
			c3.067,0,5.825-1.867,6.964-4.715l7.16-17.898l13.635,50.408c1.802,6.664,10.978,7.587,14.002,1.287l13.145-27.391
			C86.583,161.184,79.887,155.95,80.872,149.14z"/>
	</g>
</g>
<g>
</g>
<g>
</g>
<g>
</g>
<g>
</g>
<g>
</g>
<g>
</g>
<g>
</g>
<g>
</g>
<g>
</g>
<g>
</g>
<g>
</g>
<g>
</g>
<g>
</g>
<g>
</g>
<g>
</g>
</svg>
