<?xml version="1.0" encoding="iso-8859-1"?>
<!-- Generator: Adobe Illustrator 21.0.0, SVG Export Plug-In . SVG Version: 6.00 Build 0)  -->
<svg version="1.1" id="Capa_1" xmlns="http://www.w3.org/2000/svg" xmlns:xlink="http://www.w3.org/1999/xlink" x="0px" y="0px"
	 viewBox="0 0 512 512" style="enable-background:new 0 0 512 512;" xml:space="preserve">
<g>
	<circle style="fill:#686BDF;" cx="256" cy="256" r="256"/>
	<path style="fill:#F7CF9C;" d="M396.778,107.573L396.778,107.573c0-15.958-12.936-28.895-28.894-28.895h-0.001
		c-15.612,0-28.891,12.718-28.894,28.89V68.82c0-15.363-11.945-28.479-27.299-28.991c-15.494-0.517-28.309,11.44-29.183,26.599
		V29.204c0-11.166-6.27-20.865-15.478-25.778c-1.512-0.825-3.094-1.53-4.749-2.068c-0.041,0.004-0.082,0.009-0.123,0.013
		c-2.593-0.824-5.346-1.281-8.197-1.345c-0.799,0.006-1.597,0.017-2.394,0.03c-15.319,0.9-27.466,13.603-27.466,29.147v35.927
		c-1.752-13.833-13.128-24.985-27.34-25.31c-15.898-0.364-29.11,12.571-28.939,28.56c-0.933,239.439,1.556,240.283-1.374,236.525
		l-64.201-82.348c-23.11-29.444-70.055,2.307-42.618,36.693c25.386,35.361,41.888,47.188,52.677,81.41
		c2.19,6.951,3.984,16.191,10.624,29.064c8.181,15.872,16.893,24.807,27.698,34.791c23.186,21.474,20.198,40.644,21.26,45.052
		c0.004,6.893,0.012,25.967,0.02,48.281C198.248,507.008,226.539,512,256,512c39.37,0,76.659-8.897,109.981-24.775
		c-0.027-10.15-0.137-52.067-0.141-53.73c-0.052-4.796,1.411-9.463,4.068-13.456c8.225-12.359,14.623-25.736,19.125-39.712
		l0.001-0.002C401.995,340.115,394.778,324.033,396.778,107.573z"/>
	<path style="fill:#EDB87E;" d="M284.471,454.328c-39.197,0-72.487-12.115-95.706-44.278c-4.015-5.562-8.91-10.671-14.45-15.636
		c-27.924-25.049-33.847-51.726-38.511-66.528c-11.794-37.415-30.391-51.061-57.222-88.436c-6.769-8.484-9.83-18.026-8.677-26.909
		c-17.41,5.94-25.85,27.191-10.276,46.709c25.386,35.361,41.889,47.188,52.677,81.41c2.19,6.951,3.984,16.191,10.624,29.064
		c13.353,25.906,26.709,31.193,37.34,45.409v0c9.38,12.539,11.637,40.788,11.986,82.838C198.497,507.053,226.669,512,256,512
		c39.371,0,76.66-8.897,109.982-24.775c-0.081-36.939-0.246-53.296-0.085-55.581C342.143,446.039,314.276,454.328,284.471,454.328z"
		/>
	<path style="fill:#EFEFEF;" d="M58.043,220.542c-10.079,11.511-7.962,26.744,1.586,38.709l14.748,19.081l0.001,0
		c0,0,20.104-8.953,11.75-25.671C79.943,240.285,64.387,226.55,58.043,220.542z"/>
	<path style="fill:#EDB87E;" d="M196.761,62.43c0,0,0.114-14.265,7.516-21.356c-18.053-5.635-36.659,8.211-36.456,27.306v234.738
		h28.939V62.43z"/>
	<path style="fill:#EDB87E;" d="M238.57,232.905c7.992,0,14.47-6.478,14.47-14.47V18.639c0,0,0.089-10.821,5.002-18.298
		c-1.562-0.246-3.163-0.366-4.796-0.336c-15.148,0.285-28.929,12.944-28.929,28.657v39.053c-0.033-0.854-0.112-1.697-0.216-2.534
		v153.254C224.1,226.427,230.578,232.905,238.57,232.905z"/>
	<path style="fill:#EDB87E;" d="M296.977,232.905c7.992,0,14.47-6.478,14.47-14.47V60.778c0,0,0.103-12.65,6.298-20.046
		c-1.943-0.511-3.962-0.834-6.054-0.903c-15.716-0.525-28.646,11.793-29.183,27.26v151.346
		C282.507,226.427,288.985,232.905,296.977,232.905z"/>
	<path style="fill:#EDB87E;" d="M367.885,78.678h-0.001c-15.329,0-28.341,12.205-28.858,27.935v111.823
		c0,7.991,6.479,14.47,14.47,14.47l0,0c7.991,0,14.469-6.478,14.469-14.47V99.597c0,0,0.106-12.784,6.4-20.163
		C372.279,78.955,370.116,78.678,367.885,78.678z"/>
	<g>
		<path style="fill:#EDB87E;" d="M263.584,368.954c3.061,5.329,9.895,7.218,15.273,4.124c5.358-3.079,7.203-9.917,4.124-15.273
			c-39.338-68.434-111.151-75.44-114.188-75.705c-0.327-0.029-0.65-0.036-0.971-0.038v22.434
			C176.251,305.51,232.111,314.204,263.584,368.954z"/>
	</g>
	<path style="fill:#A0A9F9;" d="M207.264,150.913L207.264,150.913c-64.137,37.029-86.19,119.334-49.161,183.47
		c37.029,64.137,119.334,86.19,183.47,49.161c64.137-37.029,86.189-119.334,49.16-183.47
		C353.704,135.937,271.4,113.884,207.264,150.913z"/>
	<path style="fill:#838AED;" d="M209.868,304.497c-31.895-55.243-19.953-123.962,24.956-165.621
		c-9.423,2.908-18.667,6.902-27.56,12.037l0,0c-64.137,37.029-86.19,119.334-49.16,183.47
		c37.029,64.137,119.334,86.19,183.47,49.161c8.894-5.135,16.974-11.143,24.204-17.85
		C307.246,383.757,241.762,359.74,209.868,304.497z"/>
	<path style="fill:#686BDF;" d="M274.418,159.924L274.418,159.924c-59.263,0-107.304,48.042-107.304,107.304v0
		c0,59.262,48.042,107.304,107.304,107.304h0c59.262,0,107.304-48.042,107.304-107.304v0
		C381.723,207.966,333.681,159.924,274.418,159.924z"/>
	<path style="fill:#4352BF;" d="M209.868,304.497c-21.075-36.503-22.997-78.883-8.929-115.459
		c-20.819,19.572-33.825,47.361-33.825,78.19v0c0,72.042,69.642,123.467,138.342,102.739
		C266.723,363.878,230.954,341.019,209.868,304.497z"/>
	<path style="fill:#EAF3F9;" d="M274.418,159.924c-59.263,0-107.304,48.042-107.304,107.304v0
		c0,59.261,48.039,107.301,107.299,107.304c-29.628-0.003-53.647-24.022-53.647-53.652c0-29.631,24.021-53.652,53.652-53.652
		c29.631,0,53.652-24.021,53.652-53.652c0-29.628-24.015-53.646-53.642-53.652c-0.004,0-0.007,0-0.007,0H274.418z"/>
	<path style="fill:#C6E0F4;" d="M220.766,320.88c0-0.11,0.008-0.218,0.008-0.328c-3.957-5.019-7.619-10.361-10.906-16.055
		c-21.075-36.503-22.997-78.883-8.929-115.459c-20.819,19.572-33.825,47.361-33.825,78.19v0
		c0,59.261,48.039,107.301,107.299,107.304C244.785,374.53,220.766,350.51,220.766,320.88z"/>
	
		<ellipse transform="matrix(0.866 -0.5 0.5 0.866 -123.7043 180.2785)" style="fill:#EAF3F9;" cx="274.552" cy="320.975" rx="17.846" ry="17.846"/>
	
		<ellipse transform="matrix(0.866 -0.5 0.5 0.866 -70.005 165.8899)" style="fill:#686BDF;" cx="274.552" cy="213.576" rx="17.846" ry="17.846"/>
	<path style="fill:#C6E0F4;" d="M274.56,303.143c-13.607-0.02-22.372,14.788-15.463,26.755c6.912,11.971,24.119,11.775,30.902-0.014
		C276.274,329.864,267.7,315.063,274.56,303.143z"/>
	<path style="fill:#4352BF;" d="M274.56,195.744c-3.036-0.004-6.112,0.75-8.931,2.377c-8.536,4.928-11.46,15.842-6.532,24.378
		c4.928,8.536,15.842,11.46,24.378,6.532c2.818-1.627,5.01-3.914,6.524-6.546C276.273,222.465,267.701,207.665,274.56,195.744z"/>
</g>
<g>
</g>
<g>
</g>
<g>
</g>
<g>
</g>
<g>
</g>
<g>
</g>
<g>
</g>
<g>
</g>
<g>
</g>
<g>
</g>
<g>
</g>
<g>
</g>
<g>
</g>
<g>
</g>
<g>
</g>
</svg>
