<?xml version="1.0" encoding="iso-8859-1"?>
<!-- Generator: Adobe Illustrator 21.0.0, SVG Export Plug-In . SVG Version: 6.00 Build 0)  -->
<svg version="1.1" id="Capa_1" xmlns="http://www.w3.org/2000/svg" xmlns:xlink="http://www.w3.org/1999/xlink" x="0px" y="0px"
	 viewBox="0 0 497.759 497.759" style="enable-background:new 0 0 497.759 497.759;" xml:space="preserve">
<g>
	<circle style="fill:#994E04;" cx="248.879" cy="248.879" r="248.879"/>
	<path style="fill:#EAF3F9;" d="M381.479,403.388c-5.216-19.972,1.264-41.033,16.444-55.021
		c39.804-36.678,64.744-89.24,64.744-147.635C462.667,89.871,372.796,0,261.934,0C157.356,0,63.785,72.291,53.675,173.706
		c-1.777,17.82,3.455,29.481,4.727,35.574c2.658,9.798,0.394,20.274-6.079,28.095C31.957,261.98,9.115,291.132,9.115,298.108
		c0,10.776,26.424,20.714,34.021,23.348c1.211,0.42,2.02,1.557,2.02,2.838l0,17.896c0,1.427,0.64,2.779,1.744,3.685l12.466,10.221
		c2.717,2.228,0.545,5.378,0.214,7.946c-1.137,4.51,0.223,9.283,3.567,12.516c4.506,5.473,17.669,12.507,17.669,29.208
		c0.607,5.797-2.959,23.403,9.848,42.187h0c6.301,9.241,16.512,15.23,27.685,15.729c9.815,0.438,19.721-1.05,29.125-4.326
		l24.195-8.432c3.94-1.373,8.302,0.23,10.414,3.829l13.882,23.651c2.062,3.512,2.949,7.522,3.083,11.592
		c0.034,1.024,0.264,1.997,0.646,2.889c15.901,3.192,32.347,4.874,49.188,4.874c54.134,0,104.223-17.292,145.067-46.641
		L381.479,403.388z"/>
	<path style="fill:#C6E0F4;" d="M143.347,454.682c-11.173-0.498-21.384-6.488-27.685-15.729h0
		c-6.416-9.41-4.848-11.536-4.848-22.925v-10.262c0-16.197-12.333-23.14-15.565-27.174c-19.802-17.446-20.094-36.402-20.094-36.402
		l0-17.896c0-1.282-0.809-2.418-2.02-2.838c-7.597-2.634-34.021-12.572-34.021-23.348c0-6.975,22.843-36.128,43.208-60.733
		c6.473-7.82,8.737-18.297,6.079-28.095c-1.298-6.213-6.499-17.801-4.727-35.574c9.61-96.405,94.641-166.484,192.85-173.175
		C271.705,0.185,266.842,0,261.934,0C157.356,0,63.785,72.291,53.675,173.706c-1.777,17.82,3.455,29.481,4.727,35.574
		c2.658,9.798,0.394,20.274-6.079,28.095C31.957,261.98,9.115,291.132,9.115,298.108c0,10.776,26.424,20.714,34.021,23.348
		c1.211,0.42,2.02,1.557,2.02,2.838l0,17.896c0,1.427,0.64,2.779,1.744,3.685l12.466,10.221c2.717,2.228,0.545,5.378,0.214,7.946
		c-1.137,4.51,0.223,9.283,3.567,12.516c4.506,5.473,17.669,12.507,17.669,29.208c0.607,5.797-2.959,23.403,9.848,42.187h0
		c6.301,9.241,16.512,15.23,27.685,15.729c9.815,0.438,19.721-1.05,29.125-4.326l17.267-6.018
		C157.324,454.49,149.376,454.951,143.347,454.682z"/>
	<g>
		<path style="fill:#C6E0F4;" d="M225.962,478.403l-13.882-31.651c-2.112-3.599-6.474-5.202-10.414-3.829l-23.648,8.241
			c1.654,0.717,3.095,1.94,4.062,3.588l13.882,23.651c2.062,3.512,2.949,7.522,3.083,11.592c0.034,1.024,0.264,1.997,0.646,2.889
			c9.464,1.9,19.125,3.251,28.944,4.045C228.178,489.85,227.328,480.729,225.962,478.403z"/>
	</g>
	<path style="fill:#C6E0F4;" d="M342.255,143.4c-18.307-26.072-48.602-43.114-82.879-43.114c-34.277,0-64.572,17.042-82.879,43.114
		c-3.156,4.494-3.156,10.482,0,14.977c18.308,26.072,48.602,43.114,82.879,43.114c34.277,0,64.572-17.042,82.879-43.114
		C345.411,153.882,345.411,147.894,342.255,143.4z"/>
	<path style="fill:#A3CCEF;" d="M273.907,101.333c-4.746-0.683-9.595-1.047-14.531-1.047c-34.277,0-64.572,17.042-82.879,43.114
		c-3.156,4.494-3.156,10.482,0,14.977c18.308,26.072,48.602,43.114,82.879,43.114c4.935,0,9.784-0.364,14.531-1.047
		C242.67,177.141,242.67,124.635,273.907,101.333z"/>
	
		<ellipse transform="matrix(0.866 -0.5 0.5 0.866 -47.5247 151.7333)" style="fill:#656582;" cx="259.376" cy="164.549" rx="36.941" ry="36.941"/>
	<path style="fill:#50506D;" d="M256.953,127.686c-5.482,0.356-10.968,1.938-16.048,4.871
		c-17.669,10.201-23.722,32.794-13.521,50.462c10.201,17.669,32.794,23.722,50.462,13.521c5.079-2.933,9.193-6.893,12.242-11.462
		C259.543,187.063,239.963,153.147,256.953,127.686z"/>
	<g>
		<g>
			<path style="fill:#585877;" d="M259.376,87.282c-4.142,0-7.5-3.357-7.5-7.5V63.968c0-4.142,3.358-7.5,7.5-7.5
				c4.142,0,7.5,3.358,7.5,7.5v15.813C266.876,83.924,263.518,87.282,259.376,87.282z"/>
		</g>
		<g>
			<path style="fill:#585877;" d="M203.726,93.008l-7.907-13.695c-2.071-3.587-0.842-8.174,2.745-10.245
				c3.585-2.07,8.174-0.843,10.245,2.745l7.907,13.695c2.071,3.587,0.842,8.174-2.745,10.245
				C210.406,97.812,205.809,96.618,203.726,93.008z"/>
		</g>
		<g>
			<path style="fill:#585877;" d="M170.761,122.375l-13.695-7.907c-3.587-2.071-4.816-6.658-2.745-10.245
				c2.07-3.588,6.657-4.816,10.245-2.745l13.695,7.907c3.587,2.071,4.816,6.658,2.745,10.245
				C178.929,123.228,174.339,124.439,170.761,122.375z"/>
		</g>
		<g>
			<path style="fill:#585877;" d="M304.781,95.754c-3.587-2.071-4.816-6.658-2.745-10.245l7.907-13.695
				c2.071-3.588,6.658-4.815,10.245-2.745c3.587,2.071,4.816,6.658,2.745,10.245l-7.907,13.695
				C312.949,96.606,308.359,97.818,304.781,95.754z"/>
		</g>
		<g>
			<path style="fill:#585877;" d="M337.745,119.63c-2.071-3.587-0.842-8.174,2.745-10.245l13.695-7.907
				c3.585-2.07,8.174-0.842,10.245,2.745c2.071,3.587,0.842,8.174-2.745,10.245l-13.695,7.907
				C344.426,124.433,339.829,123.239,337.745,119.63z"/>
		</g>
	</g>
	<g>
		<path style="fill:#83839B;" d="M269.861,168.271c-5.507,0-10-4.488-10-10c0-6.336,5.84-11.043,11.96-9.811
			c4.762,0.982,8.04,5.101,8.04,9.811C279.861,163.827,275.33,168.271,269.861,168.271z"/>
	</g>
</g>
<g>
</g>
<g>
</g>
<g>
</g>
<g>
</g>
<g>
</g>
<g>
</g>
<g>
</g>
<g>
</g>
<g>
</g>
<g>
</g>
<g>
</g>
<g>
</g>
<g>
</g>
<g>
</g>
<g>
</g>
</svg>
