<?xml version="1.0" encoding="iso-8859-1"?>
<!-- Generator: Adobe Illustrator 21.0.0, SVG Export Plug-In . SVG Version: 6.00 Build 0)  -->
<svg version="1.1" id="Capa_1" xmlns="http://www.w3.org/2000/svg" xmlns:xlink="http://www.w3.org/1999/xlink" x="0px" y="0px"
	 viewBox="0 0 497.759 497.759" style="enable-background:new 0 0 497.759 497.759;" xml:space="preserve">
<g>
	<circle style="fill:#686BDF;" cx="248.879" cy="248.879" r="248.879"/>
	<path style="fill:#EAF3F9;" d="M381.479,403.388c-5.216-19.972,1.264-41.033,16.444-55.021
		c39.804-36.678,64.744-89.24,64.744-147.635C462.667,89.871,372.796,0,261.934,0C157.356,0,63.785,72.291,53.675,173.706
		c-1.777,17.82,3.455,29.481,4.727,35.574c2.658,9.798,0.394,20.274-6.079,28.095C31.957,261.98,9.115,291.132,9.115,298.108
		c0,10.776,26.424,20.714,34.021,23.348c1.211,0.42,2.02,1.557,2.02,2.838l0,17.896c0,1.427,0.64,2.779,1.744,3.684l12.466,10.221
		c2.717,2.228,0.545,5.378,0.214,7.946c-1.137,4.51,0.223,9.283,3.567,12.516c4.506,5.473,17.669,12.507,17.669,29.208
		c0.607,5.797-2.959,23.403,9.848,42.187h0c6.301,9.241,16.512,15.231,27.685,15.729c9.815,0.438,19.721-1.05,29.124-4.327
		l24.195-8.432c3.94-1.373,8.302,0.23,10.414,3.829l13.882,23.651c2.062,3.512,2.95,7.522,3.083,11.593
		c0.034,1.024,0.264,1.997,0.646,2.889c15.9,3.192,32.347,4.874,49.188,4.874c54.134,0,104.223-17.292,145.067-46.641
		L381.479,403.388z"/>
	<path style="fill:#C6E0F4;" d="M143.347,454.682c-11.173-0.498-21.384-6.488-27.685-15.729h0
		c-6.416-9.41-4.848-11.536-4.848-22.925v-10.262c0-16.197-12.333-23.14-15.565-27.174c-19.802-17.446-20.094-36.402-20.094-36.402
		l0-17.896c0-1.282-0.809-2.419-2.02-2.838c-7.597-2.634-34.02-12.572-34.02-23.348c0-6.975,22.843-36.128,43.208-60.733
		c6.473-7.821,8.737-18.297,6.079-28.095c-1.298-6.213-6.499-17.801-4.727-35.574c9.61-96.405,94.641-166.484,192.85-173.175
		C271.705,0.185,266.842,0,261.934,0C157.356,0,63.785,72.291,53.675,173.706c-1.777,17.82,3.455,29.481,4.727,35.574
		c2.658,9.798,0.394,20.274-6.079,28.095C31.957,261.98,9.115,291.132,9.115,298.108c0,10.776,26.424,20.714,34.021,23.348
		c1.211,0.42,2.02,1.557,2.02,2.838l0,17.896c0,1.427,0.64,2.779,1.744,3.684l12.466,10.221c2.717,2.228,0.545,5.378,0.214,7.946
		c-1.137,4.51,0.223,9.283,3.567,12.516c4.506,5.473,17.669,12.507,17.669,29.208c0.607,5.797-2.959,23.403,9.848,42.187h0
		c6.301,9.241,16.512,15.231,27.685,15.729c9.815,0.438,19.721-1.05,29.124-4.327l17.267-6.018
		C157.324,454.49,149.376,454.951,143.347,454.682z"/>
	<g>
		<path style="fill:#838AED;" d="M300.467,150.319c12.585-7.215,26.26-11.805,40.234-13.8c-0.718-15.692-4.605-31.004-11.298-45.012
			c-2.76-5.776-9.4-8.527-15.435-6.394c-10.832,3.828-21.069,9.266-30.37,16.113C298.91,127.517,300.771,152.482,300.467,150.319z"
			/>
		<path style="fill:#686BDF;" d="M324.138,140.164c-24.93-7.246-30.561-40.123-9.425-55.276c-0.249,0.071-0.499,0.138-0.746,0.225
			c-10.832,3.828-21.069,9.266-30.37,16.113c15.406,26.451,17.206,51.636,16.869,49.092
			C308.021,145.988,315.97,142.61,324.138,140.164z"/>
	</g>
	<g>
		<path style="fill:#838AED;" d="M195.11,150.374c0.003-0.019,0.004-0.037,0.007-0.056c-12.585-7.215-26.26-11.805-40.233-13.8
			c0.718-15.692,4.605-31.004,11.298-45.012c2.76-5.776,9.4-8.527,15.435-6.394c10.832,3.828,21.069,9.266,30.37,16.113
			C203.36,116.036,197.497,132.653,195.11,150.374z"/>
		<path style="fill:#686BDF;" d="M171.445,140.164c24.93-7.246,30.561-40.123,9.425-55.276c0.249,0.071,0.499,0.138,0.746,0.225
			c10.832,3.828,21.069,9.266,30.37,16.113c-8.626,14.81-14.489,31.427-16.876,49.148c0.002-0.019,0.004-0.037,0.006-0.056
			C187.563,145.988,179.614,142.61,171.445,140.164z"/>
	</g>
	<g>
		<path style="fill:#C6E0F4;" d="M225.962,478.403l-13.882-31.651c-2.112-3.599-6.474-5.202-10.414-3.829l-23.648,8.241
			c1.654,0.717,3.095,1.94,4.062,3.588l13.882,23.651c2.062,3.512,2.95,7.522,3.083,11.593c0.034,1.024,0.264,1.997,0.646,2.889
			c9.464,1.9,19.125,3.251,28.944,4.045C228.178,489.85,227.328,480.729,225.962,478.403z"/>
	</g>
	<path style="fill:#4C98E0;" d="M373.296,146.008c-0.33-6.217-5.272-11.159-11.488-11.488c-21.451-1.138-43.159,3.802-62.341,14.799
		c5.825,43.15-9.438,86.19-41.507,115.975C323.949,266.564,376.776,211.626,373.296,146.008z"/>
	<g>
		<path style="fill:#318AD3;" d="M345.88,204.507c-21.725,0-39.985-14.82-45.231-34.901c-0.62,37.789-16.923,71.757-42.688,95.686
			c45.531,0.877,85.354-25.15,104.095-63.662C357.014,203.49,351.566,204.507,345.88,204.507z"/>
	</g>
	<path style="fill:#4C98E0;" d="M122.287,146.008c0.33-6.217,5.272-11.159,11.488-11.488c21.451-1.138,43.159,3.802,62.341,14.799
		c-5.825,43.15,9.438,86.19,41.507,115.975C171.635,266.564,118.807,211.626,122.287,146.008z"/>
	<g>
		<path style="fill:#318AD3;" d="M194.935,169.607c0.62,37.789,16.923,71.757,42.688,95.686
			c-45.531,0.877-85.354-25.15-104.095-63.662C159.42,211.18,187.973,196.255,194.935,169.607z"/>
	</g>
	<path style="fill:#67AAE6;" d="M237.624,265.293c-11.68-10.848-21.411-23.762-28.625-38.155l-83.221-89.032
		c-2.026,2.049-3.327,4.817-3.491,7.901C118.806,211.659,171.663,266.563,237.624,265.293z"/>
	<path style="fill:#4C98E0;" d="M178.541,194.553l30.458,32.585c7.403,14.73,17.346,27.704,28.624,38.155
		c-40.768,0.784-81.598-19.73-104.095-63.662C148.323,207.087,165.455,204.825,178.541,194.553z"/>
	<path style="fill:#67AAE6;" d="M257.959,265.293c11.68-10.848,21.411-23.762,28.625-38.155l83.221-89.032
		c2.026,2.049,3.327,4.817,3.491,7.901C376.778,211.659,323.92,266.563,257.959,265.293z"/>
	<path style="fill:#4C98E0;" d="M345.88,204.507c-10.882,0-20.894-3.719-28.837-9.954l-30.458,32.585
		c-7.351,14.627-17.176,27.547-28.624,38.155c4.644,0.089,9.293-0.104,13.918-0.581c38.504-3.97,71.052-25.734,90.177-63.081
		C357.014,203.49,351.566,204.507,345.88,204.507z"/>
	<path style="fill:#7DD776;" d="M257.372,67.991c-5.458-4.909-13.701-4.909-19.16,0c-59.132,53.176-59.019,145.692,0,198.768
		c5.459,4.909,13.702,4.909,19.16,0C316.501,213.586,316.393,121.066,257.372,67.991z"/>
	<g>
		<path style="fill:#6DC963;" d="M194.006,162.435c-1.481,40.783,15.37,78.391,44.205,104.323c5.459,4.909,13.702,4.909,19.16,0
			c28.812-25.91,45.688-63.509,44.206-104.323C280.637,208.653,214.938,208.634,194.006,162.435z"/>
	</g>
	<path style="fill:#6DC963;" d="M247.792,64.309c-3.425,0-6.85,1.227-9.58,3.682c-59.122,53.168-59.028,145.685,0,198.767
		c2.73,2.454,6.155,3.682,9.58,3.682V64.309z"/>
	<path style="fill:#5CBA4F;" d="M238.212,266.758c2.73,2.454,6.155,3.682,9.58,3.682v-73.299l0,0
		c-23.927,0-44.514-14.243-53.785-34.706C194.223,163.461,188.435,221.993,238.212,266.758z"/>
</g>
<g>
</g>
<g>
</g>
<g>
</g>
<g>
</g>
<g>
</g>
<g>
</g>
<g>
</g>
<g>
</g>
<g>
</g>
<g>
</g>
<g>
</g>
<g>
</g>
<g>
</g>
<g>
</g>
<g>
</g>
</svg>
