<?xml version="1.0" encoding="iso-8859-1"?>
<!-- Generator: Adobe Illustrator 21.0.0, SVG Export Plug-In . SVG Version: 6.00 Build 0)  -->
<svg version="1.1" id="Capa_1" xmlns="http://www.w3.org/2000/svg" xmlns:xlink="http://www.w3.org/1999/xlink" x="0px" y="0px"
	 viewBox="0 0 497.759 497.759" style="enable-background:new 0 0 497.759 497.759;" xml:space="preserve">
<g>
	<circle style="fill:#994E04;" cx="248.879" cy="248.879" r="248.879"/>
	<path style="fill:#EAF3F9;" d="M381.479,403.388c-5.216-19.972,1.264-41.033,16.444-55.021
		c39.804-36.678,64.744-89.24,64.744-147.635C462.667,89.871,372.796,0,261.934,0C157.356,0,63.785,72.291,53.675,173.706
		c-1.777,17.82,3.455,29.481,4.727,35.574c2.658,9.798,0.394,20.274-6.079,28.095C31.957,261.98,9.115,291.132,9.115,298.108
		c0,10.776,26.424,20.714,34.021,23.348c1.211,0.42,2.02,1.557,2.02,2.838l0,17.896c0,1.427,0.64,2.779,1.744,3.685l12.466,10.221
		c2.717,2.228,0.545,5.378,0.214,7.946c-1.137,4.51,0.223,9.283,3.567,12.516c4.506,5.473,17.669,12.507,17.669,29.208
		c0.607,5.797-2.959,23.403,9.848,42.187h0c6.301,9.241,16.512,15.23,27.685,15.729c9.815,0.438,19.721-1.05,29.125-4.326
		l24.195-8.432c3.94-1.373,8.302,0.23,10.414,3.829l13.882,23.651c2.062,3.512,2.949,7.522,3.083,11.592
		c0.033,1.024,0.264,1.997,0.646,2.889c15.9,3.192,32.347,4.874,49.188,4.874c54.134,0,104.223-17.292,145.067-46.641
		L381.479,403.388z"/>
	<g>
		<path style="fill:#C6E0F4;" d="M225.962,478.403l-13.882-31.651c-2.112-3.599-6.474-5.202-10.414-3.829l-23.648,8.241
			c1.654,0.717,3.095,1.94,4.062,3.588l13.882,23.651c2.062,3.512,2.949,7.522,3.083,11.592c0.033,1.024,0.264,1.997,0.646,2.889
			c9.464,1.9,19.125,3.251,28.944,4.045C228.178,489.85,227.328,480.729,225.962,478.403z"/>
	</g>
	<path style="fill:#C6E0F4;" d="M143.347,454.682c-11.173-0.498-21.384-6.488-27.685-15.729h0
		c-6.416-9.41-4.848-11.536-4.848-22.925v-10.262c0-16.197-12.333-23.14-15.565-27.174c-19.802-17.446-20.094-36.402-20.094-36.402
		l0-17.896c0-1.282-0.809-2.418-2.02-2.838c-7.597-2.634-34.021-12.572-34.021-23.348c0-6.975,22.843-36.128,43.208-60.733
		c6.473-7.82,8.737-18.297,6.079-28.095c-1.298-6.213-6.499-17.801-4.727-35.574c9.61-96.405,94.641-166.484,192.85-173.175
		C271.705,0.185,266.842,0,261.934,0C157.356,0,63.785,72.291,53.675,173.706c-1.777,17.82,3.455,29.481,4.727,35.574
		c2.658,9.798,0.394,20.274-6.079,28.095C31.957,261.98,9.115,291.132,9.115,298.108c0,10.776,26.424,20.714,34.021,23.348
		c1.211,0.42,2.02,1.557,2.02,2.838l0,17.896c0,1.427,0.64,2.779,1.744,3.685l12.466,10.221c2.717,2.228,0.545,5.378,0.214,7.946
		c-1.137,4.51,0.223,9.283,3.567,12.516c4.506,5.473,17.669,12.507,17.669,29.208c0.607,5.797-2.959,23.403,9.848,42.187h0
		c6.301,9.241,16.512,15.23,27.685,15.729c9.815,0.438,19.721-1.05,29.125-4.326l17.267-6.018
		C157.323,454.49,149.376,454.951,143.347,454.682z"/>
	<path style="fill:#94DC76;" d="M174.866,167.006c-0.031-0.031-0.066-0.057-0.097-0.088c-4.109-4.005-10.602-3.845-14.537,0.082
		c-0.002,0.002-0.004,0.004-0.006,0.006L135.1,192.132c-4.043,4.043-4.044,10.598-0.001,14.641c4.044,4.043,10.599,4.043,14.64,0
		l7.454-7.454v40.66c0,5.717,4.635,10.352,10.352,10.352c5.718,0,10.352-4.635,10.352-10.352v-40.659l7.453,7.453
		c4.045,4.043,10.598,4.042,14.641,0c4.042-4.043,4.042-10.598,0-14.641L174.866,167.006z"/>
	<path style="fill:#FEC50A;" d="M252.265,122.954c-4.137-4.042-10.636-3.832-14.549,0.082l-25.126,25.125
		c-4.042,4.043-4.042,10.598,0,14.641c4.043,4.042,10.598,4.042,14.641,0l7.453-7.453v84.629c0,5.717,4.635,10.352,10.352,10.352
		c5.718,0,10.352-4.635,10.352-10.352V155.35l7.453,7.453c2.021,2.021,4.671,3.032,7.32,3.032c2.649,0,5.299-1.011,7.32-3.032
		c4.042-4.043,4.042-10.598,0-14.641C272.938,143.62,252.894,123.568,252.265,122.954z"/>
	<path style="fill:#FA6E62;" d="M354.972,104.193c-9.445-9.44-24.61-24.622-25.28-25.267c-4.162-3.998-10.613-3.752-14.486,0.14
		l-25.125,25.126c-4.043,4.043-4.043,10.598,0,14.641c4.043,4.042,10.597,4.042,14.64,0l7.453-7.453v128.598
		c0,5.717,4.635,10.352,10.352,10.352c5.717,0,10.352-4.635,10.352-10.352V111.381l7.453,7.453c4.044,4.042,10.597,4.043,14.64,0
		C359.014,114.791,359.015,108.236,354.972,104.193z"/>
	<g>
		<path style="fill:#FCAD19;" d="M265.06,135.741c-4.562-4.559-12.16-12.167-12.796-12.787c-4.137-4.042-10.636-3.832-14.55,0.082
			l-25.126,25.125c-4.042,4.043-4.042,10.598,0,14.641c4.043,4.042,10.598,4.042,14.641,0l7.453-7.453v84.629
			c0,5.717,4.635,10.352,10.352,10.352c5.718,0,10.352-4.635,10.352-10.352v-84.397C247.632,147.87,253.897,134.354,265.06,135.741z
			"/>
	</g>
	<path style="fill:#6DC963;" d="M136.255,207.755c4.114,3.06,9.867,2.639,13.484-0.982l7.454-7.454v40.66
		c0,5.717,4.635,10.352,10.352,10.352c5.713,0,10.345-4.629,10.351-10.34v-40.44c-7.755-7.711-1.492-21.227,9.673-19.84
		l-12.705-12.705c-0.029-0.029-0.061-0.053-0.091-0.082c-4.178-4.083-10.671-3.787-14.542,0.077
		c-0.002,0.002-0.004,0.004-0.006,0.006L135.1,192.132C130.715,196.516,131.073,203.903,136.255,207.755z"/>
	<path style="fill:#FB4A34;" d="M342.551,91.771c-15.612-15.613-12.245-12.25-12.796-12.787c-4.014-3.923-10.53-3.959-14.549,0.082
		l-25.125,25.126c-4.042,4.042-4.043,10.597,0,14.64c4.043,4.042,10.598,4.042,14.641,0l7.453-7.453v0.001l0,0v128.598
		c0,5.717,4.635,10.352,10.352,10.352c5.717,0,10.351-4.635,10.352-10.351V111.611C325.123,103.901,331.386,90.384,342.551,91.771z"
		/>
</g>
<g>
</g>
<g>
</g>
<g>
</g>
<g>
</g>
<g>
</g>
<g>
</g>
<g>
</g>
<g>
</g>
<g>
</g>
<g>
</g>
<g>
</g>
<g>
</g>
<g>
</g>
<g>
</g>
<g>
</g>
</svg>
