<?xml version="1.0" encoding="iso-8859-1"?>
<!-- Generator: Adobe Illustrator 21.0.0, SVG Export Plug-In . SVG Version: 6.00 Build 0)  -->
<svg version="1.1" id="Capa_1" xmlns="http://www.w3.org/2000/svg" xmlns:xlink="http://www.w3.org/1999/xlink" x="0px" y="0px"
	 viewBox="0 0 497.759 497.759" style="enable-background:new 0 0 497.759 497.759;" xml:space="preserve">
<g>
	<circle style="fill:#FA6E62;" cx="248.879" cy="248.879" r="248.879"/>
	<path style="fill:#EAF3F9;" d="M381.479,403.388c-5.216-19.972,1.264-41.033,16.444-55.021
		c39.804-36.678,64.744-89.24,64.744-147.635C462.667,89.871,372.796,0,261.934,0C157.356,0,63.785,72.291,53.675,173.706
		c-1.777,17.82,3.455,29.481,4.727,35.574c2.658,9.798,0.394,20.274-6.079,28.095C31.957,261.98,9.115,291.132,9.115,298.108
		c0,10.776,26.424,20.714,34.021,23.348c1.211,0.42,2.02,1.557,2.02,2.838l0,17.896c0,1.427,0.64,2.779,1.744,3.685l12.466,10.221
		c2.717,2.228,0.545,5.378,0.214,7.946c-1.137,4.51,0.223,9.283,3.567,12.516c4.506,5.473,17.669,12.507,17.669,29.208
		c0.607,5.797-2.959,23.403,9.848,42.187h0c6.301,9.241,16.512,15.23,27.685,15.729c9.815,0.438,19.721-1.05,29.125-4.326
		l24.195-8.432c3.94-1.373,8.302,0.23,10.414,3.829l13.882,23.651c2.062,3.512,2.949,7.522,3.083,11.592
		c0.034,1.024,0.264,1.997,0.646,2.889c15.901,3.192,32.347,4.874,49.188,4.874c54.134,0,104.223-17.292,145.067-46.641
		L381.479,403.388z"/>
	<g>
		<path style="fill:#C6E0F4;" d="M225.962,478.403l-13.882-31.651c-2.112-3.599-6.474-5.202-10.414-3.829l-23.648,8.241
			c1.654,0.717,3.095,1.94,4.062,3.588l13.882,23.651c2.062,3.512,2.949,7.522,3.083,11.592c0.034,1.024,0.264,1.997,0.646,2.889
			c9.464,1.9,19.125,3.251,28.944,4.045C228.178,489.85,227.328,480.729,225.962,478.403z"/>
	</g>
	<path style="fill:#C6E0F4;" d="M143.347,454.682c-11.173-0.498-21.384-6.488-27.685-15.729h0
		c-6.416-9.41-4.848-11.536-4.848-22.925v-10.262c0-16.197-12.333-23.14-15.565-27.174c-19.802-17.446-20.094-36.402-20.094-36.402
		l0-17.896c0-1.282-0.809-2.418-2.02-2.838c-7.597-2.634-34.021-12.572-34.021-23.348c0-6.975,22.843-36.128,43.208-60.733
		c6.473-7.82,8.737-18.297,6.079-28.095c-1.298-6.213-6.499-17.801-4.727-35.574c9.61-96.405,94.641-166.484,192.85-173.175
		C271.705,0.185,266.842,0,261.934,0C157.356,0,63.785,72.291,53.675,173.706c-1.777,17.82,3.455,29.481,4.727,35.574
		c2.658,9.798,0.394,20.274-6.079,28.095C31.957,261.98,9.115,291.132,9.115,298.108c0,10.776,26.424,20.714,34.021,23.348
		c1.211,0.42,2.02,1.557,2.02,2.838l0,17.896c0,1.427,0.64,2.779,1.744,3.685l12.466,10.221c2.717,2.228,0.545,5.378,0.214,7.946
		c-1.137,4.51,0.223,9.283,3.567,12.516c4.506,5.473,17.669,12.507,17.669,29.208c0.607,5.797-2.959,23.403,9.848,42.187h0
		c6.301,9.241,16.512,15.23,27.685,15.729c9.815,0.438,19.721-1.05,29.125-4.326l17.267-6.018
		C157.324,454.49,149.376,454.951,143.347,454.682z"/>
	<path style="fill:#FA6E62;" d="M324.152,151.313L324.152,151.313c-19.366-19.366-50.764-19.366-70.13,0
		c-2.853,2.853-7.418,2.868-10.286,0c-19.366-19.366-50.764-19.366-70.13,0h0c-19.366,19.366-19.366,50.764,0,70.13
		c4.173,4.173,65.954,65.954,70.13,70.13c2.853,2.853,7.418,2.868,10.286,0c4.175-4.175,65.956-65.956,70.13-70.13
		C343.518,202.077,343.518,170.679,324.152,151.313z"/>
	<path style="fill:#FB5C4B;" d="M276.191,267.905c-4.175-4.175-65.956-65.956-70.13-70.13
		c-16.225-16.224-18.848-40.891-7.887-59.855c-9.003,1.941-17.572,6.396-24.568,13.392l0,0c-19.366,19.366-19.366,50.764,0,70.13
		c4.173,4.173,65.954,65.954,70.13,70.13c2.853,2.853,7.418,2.868,10.286,0c1.568-1.568,11.262-11.262,22.977-22.977
		C276.719,268.385,276.446,268.161,276.191,267.905z"/>
	<g>
		<g>
			<path style="fill:#4C98E0;" d="M152.307,145.585l-11.005-9.116c-3.19-2.642-3.634-7.37-0.992-10.56
				c2.642-3.191,7.37-3.634,10.56-0.991l11.005,9.116c3.19,2.642,3.634,7.37,0.992,10.56
				C160.226,147.784,155.497,148.228,152.307,145.585z"/>
		</g>
		<g>
			<path style="fill:#4C98E0;" d="M184.992,113.674l-4.973-13.397c-1.441-3.883,0.538-8.199,4.421-9.641
				c3.884-1.443,8.2,0.539,9.641,4.422l4.973,13.397c1.441,3.883-0.538,8.199-4.421,9.641
				C190.766,119.532,186.439,117.574,184.992,113.674z"/>
		</g>
		<g>
			<path style="fill:#4C98E0;" d="M134.093,186.875l-14.089-2.393c-4.083-0.694-6.831-4.566-6.138-8.65
				c0.693-4.084,4.56-6.84,8.65-6.139l14.089,2.393c4.084,0.694,6.832,4.566,6.138,8.65
				C142.048,184.828,138.167,187.568,134.093,186.875z"/>
		</g>
	</g>
	<g>
		<g>
			<path style="fill:#4C98E0;" d="M334.891,144.594c-2.642-3.189-2.198-7.918,0.992-10.56l11.005-9.116
				c3.188-2.643,7.917-2.2,10.56,0.991c2.642,3.189,2.198,7.918-0.992,10.56l-11.005,9.116
				C342.269,148.222,337.539,147.791,334.891,144.594z"/>
		</g>
		<g>
			<path style="fill:#4C98E0;" d="M303.126,118.096c-3.883-1.441-5.863-5.758-4.421-9.641l4.973-13.397
				c1.441-3.884,5.756-5.864,9.641-4.422c3.883,1.441,5.863,5.758,4.421,9.641l-4.973,13.397
				C311.322,117.568,307,119.534,303.126,118.096z"/>
		</g>
		<g>
			<path style="fill:#4C98E0;" d="M355.016,180.737c-0.693-4.084,2.055-7.956,6.138-8.65l14.089-2.393
				c4.086-0.689,7.957,2.055,8.65,6.139c0.693,4.084-2.055,7.956-6.138,8.65l-14.089,2.393
				C359.54,187.568,355.704,184.788,355.016,180.737z"/>
		</g>
	</g>
</g>
<g>
</g>
<g>
</g>
<g>
</g>
<g>
</g>
<g>
</g>
<g>
</g>
<g>
</g>
<g>
</g>
<g>
</g>
<g>
</g>
<g>
</g>
<g>
</g>
<g>
</g>
<g>
</g>
<g>
</g>
</svg>
