<?xml version="1.0" encoding="iso-8859-1"?>
<!-- Generator: Adobe Illustrator 21.0.0, SVG Export Plug-In . SVG Version: 6.00 Build 0)  -->
<svg version="1.1" id="Capa_1" xmlns="http://www.w3.org/2000/svg" xmlns:xlink="http://www.w3.org/1999/xlink" x="0px" y="0px"
	 viewBox="0 0 497.759 497.759" style="enable-background:new 0 0 497.759 497.759;" xml:space="preserve">
<g>
	<circle style="fill:#4C98E0;" cx="248.879" cy="248.879" r="248.879"/>
	<path style="fill:#EAF3F9;" d="M381.479,403.388c-5.216-19.972,1.264-41.033,16.444-55.021
		c39.804-36.678,64.744-89.24,64.744-147.634C462.667,89.871,372.796,0,261.934,0C157.356,0,63.785,72.291,53.675,173.706
		c-1.777,17.82,3.455,29.481,4.727,35.574c2.658,9.798,0.394,20.274-6.079,28.095C31.957,261.98,9.115,291.132,9.115,298.108
		c0,10.776,26.424,20.714,34.021,23.348c1.211,0.42,2.02,1.557,2.02,2.838l0,17.896c0,1.427,0.64,2.779,1.744,3.685l12.466,10.221
		c2.717,2.228,0.545,5.378,0.214,7.946c-1.137,4.51,0.223,9.283,3.567,12.516c4.506,5.473,17.669,12.507,17.669,29.208
		c0.607,5.797-2.959,23.403,9.848,42.187h0c6.301,9.241,16.512,15.231,27.685,15.729c9.815,0.438,19.721-1.05,29.125-4.326
		l24.195-8.432c3.94-1.373,8.302,0.23,10.414,3.829l13.882,23.651c2.062,3.512,2.949,7.522,3.083,11.592
		c0.034,1.024,0.264,1.997,0.646,2.889c15.901,3.193,32.347,4.874,49.188,4.874c54.134,0,104.223-17.292,145.067-46.641
		L381.479,403.388z"/>
	<g>
		<path style="fill:#C6E0F4;" d="M225.962,478.403l-13.882-31.651c-2.112-3.599-6.474-5.202-10.414-3.829l-23.648,8.241
			c1.654,0.717,3.095,1.94,4.062,3.588l13.882,23.651c2.062,3.512,2.949,7.522,3.083,11.592c0.034,1.024,0.264,1.997,0.646,2.889
			c9.464,1.9,19.125,3.251,28.944,4.045C228.178,489.85,227.328,480.729,225.962,478.403z"/>
	</g>
	<path style="fill:#C6E0F4;" d="M143.347,454.682c-11.173-0.498-21.384-6.488-27.685-15.729h0
		c-6.416-9.41-4.848-11.535-4.848-22.925v-10.262c0-16.197-12.333-23.14-15.565-27.174c-19.802-17.446-20.094-36.402-20.094-36.402
		l0-17.896c0-1.282-0.809-2.418-2.02-2.838c-7.597-2.634-34.021-12.572-34.021-23.348c0-6.975,22.843-36.127,43.208-60.733
		c6.473-7.82,8.737-18.297,6.079-28.095c-1.298-6.213-6.499-17.801-4.727-35.574c9.61-96.405,94.641-166.484,192.85-173.175
		C271.705,0.185,266.842,0,261.934,0C157.356,0,63.785,72.291,53.675,173.706c-1.777,17.82,3.455,29.481,4.727,35.574
		c2.658,9.798,0.394,20.274-6.079,28.095C31.957,261.98,9.115,291.132,9.115,298.108c0,10.776,26.424,20.714,34.021,23.348
		c1.211,0.42,2.02,1.557,2.02,2.838l0,17.896c0,1.427,0.64,2.779,1.744,3.685l12.466,10.221c2.717,2.228,0.545,5.378,0.214,7.946
		c-1.137,4.51,0.223,9.283,3.567,12.516c4.506,5.473,17.669,12.507,17.669,29.208c0.607,5.797-2.959,23.403,9.848,42.187h0
		c6.301,9.241,16.512,15.231,27.685,15.729c9.815,0.438,19.721-1.05,29.125-4.326l17.267-6.018
		C157.324,454.49,149.376,454.951,143.347,454.682z"/>
	<path style="fill:#A0A9F9;" d="M206.966,48.277L206.966,48.277c-55.26,31.904-74.261,102.817-42.357,158.077
		c31.904,55.26,102.817,74.261,158.077,42.357c55.26-31.904,74.26-102.817,42.356-158.077
		C333.138,35.374,262.225,16.372,206.966,48.277z"/>
	<path style="fill:#838AED;" d="M209.209,180.603c-27.48-47.597-17.191-106.805,21.502-142.698
		c-8.119,2.506-16.083,5.947-23.746,10.371l0,0c-55.26,31.904-74.26,102.817-42.356,158.077
		c31.904,55.26,102.817,74.261,158.077,42.357c7.663-4.424,14.625-9.601,20.854-15.379
		C293.109,248.893,236.689,228.2,209.209,180.603z"/>
	<path style="fill:#686BDF;" d="M264.826,56.04L264.826,56.04c-51.06,0-92.453,41.392-92.453,92.453v0
		c0,51.06,41.392,92.452,92.453,92.452h0c51.06,0,92.453-41.392,92.453-92.452v0C357.278,97.433,315.886,56.04,264.826,56.04z"/>
	<path style="fill:#4352BF;" d="M209.209,180.604c-18.158-31.45-19.814-67.965-7.693-99.479
		c-17.938,16.863-29.143,40.805-29.143,67.368v0c0,51.06,41.392,92.453,92.452,92.453h0c9.3,0,18.276-1.379,26.742-3.933
		C258.195,231.766,227.377,212.071,209.209,180.604z"/>
	<path style="fill:#EAF3F9;" d="M264.826,56.04c-51.06,0-92.453,41.393-92.453,92.453v0c0,51.059,41.39,92.45,92.448,92.452
		c-25.528-0.002-46.222-20.697-46.222-46.226c0-25.53,20.697-46.226,46.226-46.226s46.226-20.696,46.226-46.227
		c0-25.527-20.691-46.222-46.217-46.226c-0.003,0-0.006,0-0.006,0H264.826z"/>
	<path style="fill:#C6E0F4;" d="M218.599,194.719c0-0.095,0.007-0.188,0.007-0.283c-3.409-4.324-6.564-8.927-9.397-13.833
		c-18.158-31.45-19.814-67.966-7.693-99.479c-17.938,16.863-29.143,40.805-29.143,67.368v0c0,51.059,41.39,92.45,92.448,92.452
		C239.293,240.943,218.599,220.248,218.599,194.719z"/>
	
		<ellipse transform="matrix(0.866 -0.5 0.5 0.866 -61.9051 158.5694)" style="fill:#EAF3F9;" cx="264.941" cy="194.801" rx="15.376" ry="15.376"/>
	
		<ellipse transform="matrix(0.866 -0.5 0.5 0.866 -15.6381 146.1713)" style="fill:#686BDF;" cx="264.941" cy="102.267" rx="15.376" ry="15.376"/>
	<path style="fill:#C6E0F4;" d="M264.948,179.437c-2.616-0.004-5.267,0.646-7.695,2.048c-7.354,4.246-9.874,13.65-5.628,21.004
		c4.246,7.355,13.65,9.874,21.004,5.628c2.428-1.402,4.316-3.372,5.621-5.64C266.424,202.46,259.038,189.708,264.948,179.437z"/>
	<path style="fill:#4352BF;" d="M264.948,86.903c-2.616-0.004-5.267,0.646-7.695,2.048c-7.354,4.246-9.874,13.65-5.628,21.004
		c4.246,7.354,13.65,9.874,21.004,5.628c2.428-1.402,4.316-3.373,5.621-5.64C266.424,109.926,259.038,97.174,264.948,86.903z"/>
</g>
<g>
</g>
<g>
</g>
<g>
</g>
<g>
</g>
<g>
</g>
<g>
</g>
<g>
</g>
<g>
</g>
<g>
</g>
<g>
</g>
<g>
</g>
<g>
</g>
<g>
</g>
<g>
</g>
<g>
</g>
</svg>
