<?xml version="1.0" encoding="iso-8859-1"?>
<!-- Generator: Adobe Illustrator 21.0.0, SVG Export Plug-In . SVG Version: 6.00 Build 0)  -->
<svg version="1.1" id="Capa_1" xmlns="http://www.w3.org/2000/svg" xmlns:xlink="http://www.w3.org/1999/xlink" x="0px" y="0px"
	 viewBox="0 0 512.034 512.034" style="enable-background:new 0 0 512.034 512.034;" xml:space="preserve">
<g>
	<circle style="fill:#7DD776;" cx="256.017" cy="264.834" r="247.166"/>
	<path style="fill:#5CBA4F;" d="M471.498,385.964H40.536C135,553.646,376.669,554.292,471.498,385.964z"/>
	<path style="fill:#BBEF89;" d="M448.415,419.978c-0.752-0.322-1.568-0.504-2.41-0.504H66.029c-0.843,0-1.658,0.182-2.41,0.504
		C162.622,542.6,349.292,542.748,448.415,419.978z"/>
	<g>
		<path style="fill:#94DC76;" d="M348.944,419.474H66.029c-0.843,0-1.658,0.182-2.41,0.504
			c68.3,84.594,182.226,113.628,281.045,75.632C319.698,475.376,321.928,436.756,348.944,419.474z"/>
	</g>
	<path style="fill:#FA6E62;" d="M360.505,192.677l-39.444-24.124c-2.799-1.712-6.46-0.762-8.073,2.096l-15.112,26.771
		c-5.357,9.491-15.411,15.361-26.309,15.361c-11.49,0-20.593,0-32.078,0c-10.898,0-20.952-5.87-26.309-15.361l-15.112-26.771
		c-1.613-2.858-5.274-3.808-8.073-2.096l-39.444,24.124c-2.812,1.72-3.806,5.327-2.273,8.245l32.581,62.005
		c8.029,15.279,12.223,32.281,12.223,49.541v83.019l62.27,32.841v0.184l0.175-0.092l0.175,0.092v-0.184l62.27-32.841v-83.019
		c0-17.26,4.195-34.262,12.223-49.541l32.581-62.005C364.311,198.004,363.317,194.397,360.505,192.677z"/>
	<path style="fill:#FB5C4B;" d="M229.931,381.365V225.896c0-5.227,2.118-9.958,5.543-13.384
		c-9.308-1.247-17.602-6.781-22.294-15.092l-15.112-26.771c-1.613-2.858-5.274-3.808-8.073-2.096l-39.444,24.124
		c-2.812,1.72-3.807,5.327-2.273,8.245l32.581,62.005c8.028,15.279,12.223,32.281,12.223,49.541v83.019l0,0h43.202
		C232.395,392.019,229.931,386.986,229.931,381.365z"/>
	<polygon style="fill:#48AEF9;" points="256.017,428.678 318.952,395.487 193.083,395.487 	"/>
	<g>
		<path style="fill:#4C98E0;" d="M251.845,395.487h-58.762l49.117,25.905C235.735,412.277,240.285,398.245,251.845,395.487z"/>
	</g>
	<path style="fill:#FB4A34;" d="M237.11,212.78l15.048,34.639c1.451,3.34,6.199,3.311,7.609-0.047l14.527-34.592H237.11z"/>
	<path style="fill:#F7CF9C;" d="M188,169.773l-28.393-55.496l80.758-80.04c7.672-8.211,7.234-21.087-0.978-28.758
		c-8.211-7.67-21.088-7.234-28.758,0.978l-90.511,90.48c-5.853,6.264-7.151,15.525-3.246,23.157l36.312,70.973L188,169.773z"/>
	<g>
		
			<ellipse transform="matrix(0.866 -0.5 0.5 0.866 -29.0672 144.9876)" style="fill:#F7CF9C;" cx="256.017" cy="126.734" rx="53.358" ry="53.358"/>
		<path style="fill:#EDB87E;" d="M256.021,73.382c-9.07-0.009-18.263,2.281-26.683,7.142c-25.521,14.735-34.265,47.368-19.53,72.889
			c14.734,25.521,47.368,34.265,72.889,19.53c8.42-4.861,15-11.677,19.527-19.537C261.143,153.365,235.528,108.961,256.021,73.382z"
			/>
	</g>
	<g>
		<path style="fill:#F4C48B;" d="M238.315,483.864l150.54-79.394c10.073-5.313,13.934-17.786,8.62-27.861
			c-5.314-10.074-17.79-13.933-27.861-8.62l-150.54,79.394c-10.073,5.313-13.934,17.786-8.62,27.861
			C215.754,485.291,228.217,489.19,238.315,483.864z"/>
	</g>
	<path style="fill:#EDB87E;" d="M296.16,406.728l-77.085,40.655c-10.073,5.313-13.934,17.786-8.62,27.861
		c5.299,10.047,17.762,13.946,27.861,8.62l76.821-40.516C295.438,444.782,283.693,421.909,296.16,406.728z"/>
	<g>
		<path style="fill:#F7CF9C;" d="M273.719,483.864l-150.54-79.394c-10.073-5.313-13.934-17.786-8.62-27.861
			c5.313-10.074,17.79-13.933,27.861-8.62l150.54,79.394c10.073,5.313,13.934,17.786,8.62,27.861
			C296.281,485.291,283.817,489.19,273.719,483.864z"/>
	</g>
	<path style="fill:#F4C48B;" d="M215.874,406.728l77.085,40.655c10.073,5.313,13.934,17.786,8.62,27.861
		c-5.299,10.047-17.762,13.946-27.861,8.62l-76.821-40.516C216.596,444.782,228.341,421.909,215.874,406.728z"/>
	<g>
		<path style="fill:#EDB87E;" d="M128.832,143.468l24.353,47.598L188,169.773l-21.263-41.559
			C162.234,144.673,143.256,152.095,128.832,143.468z"/>
	</g>
	<path style="fill:#F7CF9C;" d="M324.035,169.773l28.393-55.496l-80.758-80.04c-7.672-8.211-7.234-21.087,0.978-28.758
		c8.211-7.67,21.088-7.234,28.758,0.978l90.512,90.48c5.853,6.264,7.151,15.525,3.246,23.157l-36.312,70.973L324.035,169.773z"/>
	<g>
		<path style="fill:#EDB87E;" d="M382.97,143.931l-24.353,47.598L323.8,170.228l21.265-41.552
			C349.568,145.135,368.546,152.557,382.97,143.931z"/>
	</g>
</g>
<g>
</g>
<g>
</g>
<g>
</g>
<g>
</g>
<g>
</g>
<g>
</g>
<g>
</g>
<g>
</g>
<g>
</g>
<g>
</g>
<g>
</g>
<g>
</g>
<g>
</g>
<g>
</g>
<g>
</g>
</svg>
