<?xml version="1.0" encoding="iso-8859-1"?>
<!-- Generator: Adobe Illustrator 21.0.0, SVG Export Plug-In . SVG Version: 6.00 Build 0)  -->
<svg version="1.1" id="Capa_1" xmlns="http://www.w3.org/2000/svg" xmlns:xlink="http://www.w3.org/1999/xlink" x="0px" y="0px"
	 viewBox="0 0 497.759 497.759" style="enable-background:new 0 0 497.759 497.759;" xml:space="preserve">
<g>
	<circle style="fill:#7DD776;" cx="248.879" cy="248.879" r="248.879"/>
	<path style="fill:#EAF3F9;" d="M381.479,403.388c-5.216-19.972,1.264-41.033,16.444-55.021
		c39.804-36.678,64.744-89.24,64.744-147.634C462.667,89.871,372.796,0,261.934,0C157.356,0,63.785,72.291,53.675,173.706
		c-1.777,17.82,3.455,29.481,4.727,35.574c2.658,9.798,0.394,20.274-6.079,28.095C31.957,261.98,9.115,291.132,9.115,298.108
		c0,10.776,26.424,20.714,34.021,23.348c1.211,0.42,2.02,1.557,2.02,2.838l0,17.896c0,1.427,0.64,2.779,1.744,3.685l12.466,10.221
		c2.717,2.228,0.545,5.378,0.214,7.946c-1.137,4.51,0.223,9.283,3.567,12.516c4.506,5.473,17.669,12.507,17.669,29.208
		c0.607,5.797-2.959,23.403,9.848,42.187h0c6.301,9.241,16.512,15.231,27.685,15.729c9.815,0.438,19.721-1.05,29.125-4.326
		l24.195-8.432c3.94-1.373,8.302,0.23,10.414,3.829l13.882,23.651c2.062,3.512,2.949,7.522,3.083,11.592
		c0.034,1.024,0.264,1.997,0.646,2.889c15.901,3.193,32.347,4.874,49.188,4.874c54.134,0,104.223-17.292,145.067-46.641
		L381.479,403.388z"/>
	<g>
		<path style="fill:#C6E0F4;" d="M225.962,478.403l-13.882-31.651c-2.112-3.599-6.474-5.202-10.414-3.829l-23.648,8.241
			c1.654,0.717,3.095,1.94,4.062,3.588l13.882,23.651c2.062,3.512,2.949,7.522,3.083,11.592c0.034,1.024,0.264,1.997,0.646,2.889
			c9.464,1.9,19.125,3.251,28.944,4.045C228.178,489.85,227.328,480.729,225.962,478.403z"/>
	</g>
	<path style="fill:#C6E0F4;" d="M143.347,454.682c-11.173-0.498-21.384-6.488-27.685-15.729h0
		c-6.416-9.41-4.848-11.535-4.848-22.925v-10.262c0-16.197-12.333-23.14-15.565-27.174c-19.802-17.446-20.094-36.402-20.094-36.402
		l0-17.896c0-1.282-0.809-2.418-2.02-2.838c-7.597-2.634-34.021-12.572-34.021-23.348c0-6.975,22.843-36.127,43.208-60.733
		c6.473-7.82,8.737-18.297,6.079-28.095c-1.298-6.213-6.499-17.801-4.727-35.574c9.61-96.405,94.641-166.484,192.85-173.175
		C271.705,0.185,266.842,0,261.934,0C157.356,0,63.785,72.291,53.675,173.706c-1.777,17.82,3.455,29.481,4.727,35.574
		c2.658,9.798,0.394,20.274-6.079,28.095C31.957,261.98,9.115,291.132,9.115,298.108c0,10.776,26.424,20.714,34.021,23.348
		c1.211,0.42,2.02,1.557,2.02,2.838l0,17.896c0,1.427,0.64,2.779,1.744,3.685l12.466,10.221c2.717,2.228,0.545,5.378,0.214,7.946
		c-1.137,4.51,0.223,9.283,3.567,12.516c4.506,5.473,17.669,12.507,17.669,29.208c0.607,5.797-2.959,23.403,9.848,42.187h0
		c6.301,9.241,16.512,15.231,27.685,15.729c9.815,0.438,19.721-1.05,29.125-4.326l17.267-6.018
		C157.324,454.49,149.376,454.951,143.347,454.682z"/>
	<path style="fill:#585877;" d="M296.226,154.336c-11.038,2.195-23.659,3.442-37.068,3.442c-13.41,0-26.031-1.247-37.069-3.442
		c-35.218,5.388-60,18.22-60,33.195c0,19.832,43.459,35.908,97.069,35.908c53.609,0,97.069-16.077,97.069-35.908
		C356.227,172.556,331.444,159.724,296.226,154.336z"/>
	<g>
		<path style="fill:#50506D;" d="M283.689,156.324c-7.719,0.941-15.961,1.455-24.532,1.455c-13.41,0-26.031-1.247-37.069-3.442
			c-35.218,5.388-60,18.22-60,33.195c0,19.832,43.459,35.908,97.069,35.908c11.352,0,22.245-0.723,32.37-2.048
			C252.39,211.164,247.58,171.558,283.689,156.324z"/>
	</g>
	<path style="fill:#656582;" d="M275.946,101.474c-10.869,1.325-22.621,1.336-33.577,0c-35.226,2.844-61.603,14.447-61.603,28.331
		c0,16.016,35.097,28.999,78.392,28.999c43.295,0,78.391-12.984,78.391-28.999C337.549,115.921,311.172,104.318,275.946,101.474z"/>
	<path style="fill:#585877;" d="M285.288,102.461c-14.89-1.947-8.227,0.011-26.13,0.011c-5.866,0-11.506-0.354-16.789-0.997
		c-35.226,2.844-61.603,14.447-61.603,28.33c0,16.016,35.097,28.999,78.392,28.999c9.165,0,17.955-0.588,26.13-1.657
		C250.554,148.061,250.501,111.559,285.288,102.461z"/>
	<path style="fill:#585877;" d="M276.645,64.915c-10.57,2.622-24.11,2.695-34.974,0c-21.021,2.683-36.128,10.061-36.128,18.749
		c0,10.954,24.004,19.834,53.615,19.834c29.611,0,53.615-8.88,53.615-19.834C312.773,74.976,297.666,67.598,276.645,64.915z"/>
	<g>
		<path style="fill:#50506D;" d="M277.037,64.968c-0.132-0.017-0.26-0.036-0.392-0.053c-10.55,2.617-24.088,2.7-34.974,0
			c-21.022,2.683-36.128,10.061-36.128,18.749c0,13.952,37.361,23.164,71.487,18.701C253.27,96.15,253.234,71.192,277.037,64.968z"
			/>
	</g>
	<ellipse style="fill:#656582;" cx="259.158" cy="54.187" rx="33.703" ry="13.747"/>
	<path style="fill:#585877;" d="M270.423,41.229c-3.524-0.51-7.314-0.79-11.266-0.79c-18.614,0-33.703,6.155-33.703,13.747
		c0,7.592,15.089,13.747,33.703,13.747c3.952,0,7.742-0.28,11.266-0.79C255.437,62.844,255.433,45.532,270.423,41.229z"/>
</g>
<g>
</g>
<g>
</g>
<g>
</g>
<g>
</g>
<g>
</g>
<g>
</g>
<g>
</g>
<g>
</g>
<g>
</g>
<g>
</g>
<g>
</g>
<g>
</g>
<g>
</g>
<g>
</g>
<g>
</g>
</svg>
