<?xml version="1.0" encoding="iso-8859-1"?>
<!-- Generator: Adobe Illustrator 21.0.0, SVG Export Plug-In . SVG Version: 6.00 Build 0)  -->
<svg version="1.1" id="Capa_1" xmlns="http://www.w3.org/2000/svg" xmlns:xlink="http://www.w3.org/1999/xlink" x="0px" y="0px"
	 viewBox="0 0 516 516" style="enable-background:new 0 0 516 516;" xml:space="preserve">
<g>
	<circle style="fill:#994E04;" cx="258" cy="260" r="256"/>
	<g>
		<path style="fill:#BBEF89;" d="M275.278,113.537c-2.52-3.287-1.898-7.995,1.389-10.516l16.082-12.329
			c3.287-2.519,7.995-1.897,10.515,1.389c2.52,3.287,1.898,7.995-1.389,10.516l-16.081,12.329
			C282.506,117.445,277.799,116.823,275.278,113.537z"/>
	</g>
	<path style="fill:#5CBA4F;" d="M459.922,417.369c-4.184,1.95-8.036,4.491-11.425,7.544c-3.364,3.031-8.398,2.999-11.764-0.028
		c-17.607-15.834-44.35-15.839-61.961,0.045c-3.346,3.017-8.35,3.017-11.696,0c-17.585-15.859-44.327-15.903-61.961-0.045
		c-3.378,3.037-8.418,3.037-11.796,0c-8.204-7.378-19.053-11.869-30.956-11.869c-11.902,0-22.752,4.491-30.955,11.869
		c-3.33,2.994-8.466,2.994-11.796,0c-17.662-15.884-44.529-15.842-62.14,0.207c-3.229,2.943-8.109,2.943-11.338,0
		c-17.558-16.001-44.423-16.14-62.139-0.207c-3.378,3.037-8.418,3.037-11.796,0c-3.682-3.311-7.906-6.023-12.511-8.024
		C102.523,477.178,175.724,516,258,516C340.047,516,413.072,477.397,459.922,417.369z"/>
	<g>
		<path style="fill:#4EA83F;" d="M305.622,464.508c0-22.905,13.956-42.547,33.827-50.895c-14.019-2.247-27.979,1.96-38.333,11.272
			c-3.378,3.037-8.418,3.037-11.796,0c-8.204-7.378-19.053-11.869-30.956-11.869c-11.902,0-22.752,4.491-30.955,11.869
			c-3.33,2.994-8.466,2.994-11.796,0c-17.662-15.884-44.529-15.842-62.14,0.207c-3.229,2.943-8.109,2.943-11.338,0
			c-17.558-16.001-44.423-16.14-62.139-0.207c-3.378,3.037-8.418,3.037-11.796,0c-3.682-3.311-7.906-6.023-12.511-8.024
			C102.523,477.178,175.724,516,258,516c23.391,0,46.044-3.148,67.57-9.025C313.384,496.853,305.622,481.588,305.622,464.508z"/>
	</g>
	<g>
		<path style="fill:#7DD776;" d="M123.972,281.37l-19.969-14.5c-3.352-2.434-4.096-7.123-1.662-10.476
			c2.433-3.352,7.123-4.098,10.476-1.661l19.969,14.5c3.352,2.434,4.096,7.123,1.662,10.476
			C132.006,283.07,127.315,283.798,123.972,281.37z"/>
	</g>
	<path style="fill:#5CBA4F;" d="M72.81,272.016c-0.866-0.731-1.19-1.936-0.808-3.003c5.261-14.681,23.52-19.598,35.441-9.535
		c0.866,0.731,1.19,1.936,0.808,3.003C102.99,277.161,84.731,282.079,72.81,272.016z"/>
	<g>
		<path style="fill:#6DC963;" d="M232.082,70.8l-10.45-16.185l-8.671-6.146c-0.75-0.532-1.396-1.197-1.906-1.963l-16.577-24.896
			c-2.296-3.447-1.362-8.104,2.086-10.399c3.448-2.295,8.104-1.362,10.399,2.087l15.806,23.737
			c2.335,1.655,18.002,12.758,19.95,14.139c1.984,1.406,3.163,3.688,3.163,6.119v9.438C245.883,74.181,236.132,77.073,232.082,70.8z
			"/>
	</g>
	<path style="fill:#5CBA4F;" d="M178.826,54.108c-0.866-0.731-1.19-1.936-0.808-3.003c2.385-6.655,7.879-12.073,15.223-14.049
		c7.344-1.976,14.815-0.046,20.218,4.514c0.866,0.731,1.19,1.936,0.808,3.003c-2.385,6.655-7.879,12.073-15.223,14.049
		C191.699,60.598,184.228,58.668,178.826,54.108z"/>
	<path style="fill:#5CBA4F;" d="M447.19,164.315c0.866-0.731,1.19-1.936,0.808-3.003c-2.385-6.655-7.879-12.073-15.223-14.049
		c-7.344-1.976-14.815-0.046-20.218,4.514c-0.866,0.731-1.19,1.936-0.808,3.003c2.385,6.655,7.879,12.073,15.223,14.049
		C434.317,170.805,441.788,168.875,447.19,164.315z"/>
	<g>
		<path style="fill:#6DC963;" d="M380.133,176.94v-9.438c0-2.432,1.179-4.713,3.163-6.119l11.12-7.881
			c0.075-0.055,0.15-0.108,0.226-0.16l8.604-6.098l15.806-23.737c2.295-3.448,6.952-4.381,10.399-2.087
			c3.448,2.296,4.382,6.952,2.086,10.399l-16.577,24.896c-0.51,0.766-1.156,1.431-1.906,1.963l-8.669,6.144l-10.452,16.188
			C389.884,187.281,380.133,184.388,380.133,176.94z"/>
	</g>
	<path style="fill:#BBEF89;" d="M392.477,371.315v-0.018c-17.253,0-33.97,0-48.188,0v0.018c-4.336,0.187-7.797,3.751-7.797,8.133
		c0,3.004,1.627,5.624,4.047,7.034c2.297,1.339,3.75,3.755,3.75,6.414v105.32c0,1.1-0.26,2.152-0.715,3.11
		c17.224-6.108,33.599-14.004,48.903-23.471V392.98c0-2.71,1.494-5.151,3.821-6.54c2.381-1.42,3.976-4.017,3.976-6.992
		C400.274,375.066,396.813,371.502,392.477,371.315z"/>
	<path style="fill:#6DC963;" d="M396.298,356.155c-2.327-1.388-3.821-3.829-3.821-6.539V244.461c0-2.71,1.494-5.151,3.821-6.539
		c2.381-1.42,3.976-4.018,3.976-6.992c0-4.382-3.461-7.946-7.797-8.133v-0.018c-17.253,0-33.969,0-48.188,0v0.018
		c-4.336,0.187-7.797,3.751-7.797,8.133c0,3.004,1.627,5.624,4.047,7.035c2.297,1.339,3.75,3.755,3.75,6.414v105.321
		c0,2.659-1.453,5.076-3.75,6.414c-2.42,1.41-4.047,4.03-4.047,7.034c0,4.382,3.461,7.946,7.797,8.133v0.018
		c14.133,0,30.903,0,48.188,0v-0.018c4.336-0.187,7.797-3.751,7.797-8.133C400.274,360.173,398.679,357.575,396.298,356.155z"/>
	<path style="fill:#BBEF89;" d="M396.298,207.636c-2.327-1.388-3.821-3.829-3.821-6.539V95.942c0-2.71,1.494-5.151,3.821-6.54
		c2.381-1.42,3.976-4.018,3.976-6.992c0-4.382-3.461-7.946-7.797-8.133V74.26c-17.253,0-33.969,0-48.188,0v0.018
		c-4.336,0.187-7.797,3.751-7.797,8.133c0,3.004,1.627,5.624,4.047,7.034c2.297,1.339,3.75,3.756,3.75,6.414v105.321
		c0,2.659-1.453,5.076-3.75,6.414c-2.42,1.41-4.047,4.03-4.047,7.035c0,4.382,3.461,7.946,7.797,8.133v0.018
		c14.133,0,30.903,0,48.188,0v-0.018c4.336-0.187,7.797-3.751,7.797-8.133C400.274,211.654,398.679,209.056,396.298,207.636z"/>
	<path style="fill:#6DC963;" d="M283.095,445.575v-0.018c-17.253,0-33.969,0-48.188,0v0.018c-4.336,0.186-7.797,3.751-7.797,8.133
		c0,3.004,1.627,5.624,4.047,7.034c2.297,1.339,3.75,3.755,3.75,6.414v47.796C242.515,515.632,250.214,516,258,516
		c8.468,0,16.837-0.422,25.094-1.226V467.24c0-2.71,1.494-5.151,3.821-6.539c2.381-1.42,3.976-4.018,3.976-6.992
		C290.891,449.326,287.431,445.762,283.095,445.575z"/>
	<path style="fill:#BBEF89;" d="M286.916,133.376c-2.327-1.388-3.821-3.829-3.821-6.539V21.682c0-2.71,1.494-5.151,3.821-6.539
		c2.381-1.42,3.975-4.018,3.975-6.992c0-4.382-3.461-7.946-7.797-8.133V0c-17.253,0-33.969,0-48.188,0v0.018
		c-4.336,0.187-7.797,3.751-7.797,8.133c0,3.004,1.627,5.624,4.047,7.034c2.297,1.339,3.75,3.755,3.75,6.414V126.92
		c0,2.659-1.452,5.075-3.75,6.414c-2.421,1.411-4.047,4.031-4.047,7.035c0,4.382,3.461,7.946,7.797,8.133v0.018
		c14.133,0,30.903,0,48.188,0v-0.018c4.336-0.187,7.797-3.751,7.797-8.133C290.891,137.394,289.297,134.796,286.916,133.376z"/>
	<path style="fill:#BBEF89;" d="M286.916,430.414c-2.327-1.388-3.821-3.829-3.821-6.539V318.72c0-2.71,1.494-5.151,3.821-6.539
		c2.381-1.42,3.975-4.018,3.975-6.992c0-4.382-3.461-7.946-7.797-8.133v-0.018c-17.253,0-33.969,0-48.188,0v0.018
		c-4.336,0.187-7.797,3.751-7.797,8.133c0,3.004,1.627,5.624,4.047,7.034c2.297,1.339,3.75,3.755,3.75,6.414v105.321
		c0,2.659-1.452,5.076-3.75,6.414c-2.421,1.411-4.047,4.03-4.047,7.035c0,4.382,3.461,7.946,7.797,8.133v0.018
		c14.133,0,30.903,0,48.188,0v-0.018c4.336-0.187,7.797-3.751,7.797-8.133C290.891,434.432,289.297,431.835,286.916,430.414z"/>
	<path style="fill:#6DC963;" d="M286.916,281.895c-2.327-1.388-3.821-3.829-3.821-6.539V170.201c0-2.71,1.494-5.151,3.821-6.539
		c2.381-1.42,3.975-4.018,3.975-6.992c0-4.382-3.461-7.946-7.797-8.133v-0.018c-17.253,0-33.969,0-48.188,0v0.018
		c-4.336,0.187-7.797,3.751-7.797,8.133c0,3.004,1.627,5.624,4.047,7.035c2.297,1.339,3.75,3.755,3.75,6.414v105.321
		c0,2.659-1.452,5.075-3.75,6.414c-2.421,1.411-4.047,4.03-4.047,7.035c0,4.382,3.461,7.946,7.797,8.133v0.018
		c14.133,0,30.903,0,48.188,0v-0.018c4.336-0.187,7.797-3.751,7.797-8.133C290.891,285.913,289.297,283.315,286.916,281.895z"/>
	<path style="fill:#BBEF89;" d="M173.712,371.315v-0.018c-14.219,0-30.935,0-48.188,0v0.018c-4.336,0.187-7.797,3.751-7.797,8.133
		c0,2.975,1.595,5.572,3.975,6.992c2.327,1.389,3.821,3.83,3.821,6.54v86.117c15.468,9.373,32.011,17.147,49.396,23.109
		c-0.765-1.17-1.208-2.54-1.208-3.989v-105.32c0-2.659,1.452-5.076,3.75-6.414c2.42-1.41,4.047-4.031,4.047-7.034
		C181.509,375.066,178.048,371.502,173.712,371.315z"/>
	<path style="fill:#6DC963;" d="M121.703,356.155c2.327-1.388,3.821-3.829,3.821-6.539V244.461c0-2.71-1.494-5.151-3.821-6.539
		c-2.381-1.42-3.976-4.018-3.976-6.992c0-4.382,3.461-7.946,7.797-8.133v-0.018c17.253,0,33.969,0,48.188,0v0.018
		c4.336,0.187,7.797,3.751,7.797,8.133c0,3.004-1.627,5.624-4.047,7.035c-2.297,1.339-3.75,3.755-3.75,6.414v105.321
		c0,2.659,1.452,5.076,3.75,6.414c2.42,1.41,4.047,4.03,4.047,7.034c0,4.382-3.461,7.946-7.797,8.133v0.018
		c-14.133,0-30.903,0-48.188,0v-0.018c-4.336-0.187-7.797-3.751-7.797-8.133C117.727,360.173,119.322,357.575,121.703,356.155z"/>
	<path style="fill:#6DC963;" d="M344.289,18.924V52.66c0,2.659-1.452,5.075-3.75,6.414c-7.01,4.085-4.351,14.819,3.75,15.167v0.018
		c14.133,0,30.903,0,48.188,0v-0.018c8.041-0.346,10.765-10.983,3.821-15.125c-2.327-1.388-3.821-3.83-3.821-6.54V42.143
		C377.385,32.807,361.252,24.996,344.289,18.924z"/>
	<path style="fill:#6DC963;" d="M125.524,40.903v11.674c0,2.71-1.494,5.151-3.821,6.54c-2.381,1.42-3.975,4.018-3.975,6.992
		c0,4.382,3.461,7.946,7.797,8.133v0.018c17.285,0,34.055,0,48.188,0v-0.018c4.336-0.187,7.797-3.751,7.797-8.133
		c0-3.004-1.627-5.624-4.047-7.034c-2.297-1.339-3.75-3.756-3.75-6.414V18.219C156.77,24.125,140.633,31.748,125.524,40.903z"/>
	<path style="fill:#BBEF89;" d="M121.703,207.636c2.327-1.388,3.821-3.829,3.821-6.539V95.942c0-2.71-1.494-5.151-3.821-6.54
		c-2.381-1.42-3.976-4.018-3.976-6.992c0-4.382,3.461-7.946,7.797-8.133V74.26c17.253,0,33.969,0,48.188,0v0.018
		c4.336,0.187,7.797,3.751,7.797,8.133c0,3.004-1.627,5.624-4.047,7.034c-2.297,1.339-3.75,3.756-3.75,6.414v105.321
		c0,2.659,1.452,5.076,3.75,6.414c2.42,1.41,4.047,4.03,4.047,7.035c0,4.382-3.461,7.946-7.797,8.133v0.018
		c-14.133,0-30.903,0-48.188,0v-0.018c-4.336-0.187-7.797-3.751-7.797-8.133C117.727,211.654,119.322,209.056,121.703,207.636z"/>
	<g>
		<path style="fill:#7DD776;" d="M232.788,394.261l-21.604-15.482c-3.367-2.413-4.14-7.099-1.727-10.466
			c2.413-3.366,7.098-4.141,10.465-1.728l21.604,15.482c3.367,2.413,4.14,7.099,1.728,10.466
			C240.832,395.91,236.145,396.667,232.788,394.261z"/>
	</g>
	<g>
		<path style="fill:#94DC76;" d="M177.462,207.593c-2.297-1.339-3.75-3.755-3.75-6.414v-33.518
			c-10.344,19.148-37.836,19.161-48.188,0v33.435c0,2.71-1.494,5.151-3.821,6.539c-2.381,1.42-3.975,4.018-3.975,6.992
			c0,4.382,3.46,7.946,7.797,8.133v0.018c17.285,0,34.055,0,48.188,0v-0.018c4.336-0.186,7.797-3.751,7.797-8.133
			C181.509,211.624,179.882,209.004,177.462,207.593z"/>
	</g>
	<g>
		<path style="fill:#94DC76;" d="M396.227,207.593c-2.297-1.339-3.75-3.755-3.75-6.414v-33.518
			c-10.344,19.148-37.836,19.161-48.188,0v33.435c0,2.71-1.494,5.151-3.821,6.539c-2.381,1.42-3.975,4.018-3.975,6.992
			c0,4.382,3.461,7.946,7.797,8.133v0.018c17.285,0,34.055,0,48.188,0v-0.018c4.336-0.186,7.797-3.751,7.797-8.133
			C400.274,211.624,398.647,209.004,396.227,207.593z"/>
	</g>
	<g>
		<path style="fill:#94DC76;" d="M286.844,133.334c-2.297-1.339-3.75-3.755-3.75-6.414V93.402
			c-4.625,8.562-13.68,14.379-24.094,14.379c-10.414,0-19.469-5.818-24.094-14.379v33.435c0,2.71-1.494,5.151-3.821,6.54
			c-2.381,1.42-3.975,4.018-3.975,6.992c0,4.382,3.46,7.946,7.797,8.133v0.018c17.285,0,34.055,0,48.188,0v-0.018
			c4.336-0.186,7.797-3.751,7.797-8.133C290.891,137.364,289.264,134.745,286.844,133.334z"/>
	</g>
	<g>
		<path style="fill:#94DC76;" d="M286.844,430.372c-2.297-1.339-3.75-3.755-3.75-6.414V390.44
			c-4.625,8.562-13.68,14.379-24.094,14.379c-10.414,0-19.469-5.818-24.094-14.379v33.435c0,2.71-1.494,5.151-3.821,6.54
			c-2.381,1.42-3.975,4.018-3.975,6.992c0,4.382,3.46,7.946,7.797,8.133v0.018c17.285,0,34.055,0,48.188,0v-0.018
			c4.336-0.187,7.797-3.751,7.797-8.133C290.891,434.402,289.264,431.783,286.844,430.372z"/>
	</g>
	<g>
		<path style="fill:#5CBA4F;" d="M286.844,281.853c-2.297-1.339-3.75-3.755-3.75-6.414v-33.518
			c-10.344,19.148-37.836,19.161-48.188,0v33.435c0,2.71-1.494,5.151-3.821,6.54c-2.381,1.42-3.975,4.018-3.975,6.992
			c0,4.382,3.46,7.946,7.797,8.133v0.018c17.285,0,34.055,0,48.188,0v-0.018c4.336-0.187,7.797-3.751,7.797-8.133
			C290.891,285.883,289.264,283.263,286.844,281.853z"/>
	</g>
	<g>
		<path style="fill:#5CBA4F;" d="M396.227,356.112c-2.297-1.339-3.75-3.755-3.75-6.414V316.18
			c-10.344,19.148-37.836,19.161-48.188,0v33.435c0,2.71-1.494,5.151-3.821,6.54c-2.381,1.42-3.975,4.018-3.975,6.992
			c0,4.382,3.461,7.946,7.797,8.133v0.018c17.285,0,34.055,0,48.188,0v-0.018c4.336-0.186,7.797-3.751,7.797-8.133
			C400.274,360.143,398.647,357.523,396.227,356.112z"/>
	</g>
	<path style="fill:#94DC76;" d="M392.477,463.697c-10.344,19.149-37.835,19.16-48.188,0v34.521c0,1.1-0.26,2.152-0.715,3.11
		c17.224-6.108,33.598-14.004,48.902-23.471V463.697z"/>
	<path style="fill:#5CBA4F;" d="M234.823,466.091c0.052,0.35,0.084,0.705,0.084,1.065v47.796C242.515,515.633,250.214,516,258,516
		c8.468,0,16.837-0.422,25.095-1.226V467.24c0-0.402,0.043-0.795,0.106-1.183C271.656,483.286,246.403,483.32,234.823,466.091z"/>
	<path style="fill:#5CBA4F;" d="M396.226,59.074c-2.297-1.339-3.75-3.755-3.75-6.414V42.143c-5.5-3.402-11.143-6.597-16.909-9.584
		c-12.302,3.34-25.222-2.207-31.278-13.416V52.66c0,2.659-1.452,5.076-3.749,6.414c-3.162,1.841-4.812,5.72-3.699,9.396
		c0.981,3.238,3.926,5.62,7.449,5.771v0.018c14.133,0,30.903,0,48.188,0v-0.018c3.523-0.152,6.469-2.533,7.449-5.771
		C401.033,64.813,399.399,60.922,396.226,59.074z"/>
	<g>
		<path style="fill:#5CBA4F;" d="M177.462,356.112c-2.297-1.339-3.75-3.755-3.75-6.414V316.18
			c-10.344,19.148-37.836,19.161-48.188,0v33.435c0,2.71-1.494,5.151-3.821,6.54c-2.381,1.42-3.975,4.018-3.975,6.992
			c0,4.382,3.46,7.946,7.797,8.133v0.018c17.285,0,34.055,0,48.188,0v-0.018c4.336-0.186,7.797-3.751,7.797-8.133
			C181.509,360.143,179.882,357.523,177.462,356.112z"/>
	</g>
	<path style="fill:#5CBA4F;" d="M181.509,66.109c0-7.815-7.797-6.183-7.797-13.449V19.142c-6.22,11.513-19.8,17.165-32.535,13.036
		c-5.326,2.734-10.553,5.634-15.653,8.725v11.674c0,2.687-1.473,5.139-3.821,6.54c-2.381,1.42-3.975,4.017-3.975,6.992
		c0,4.382,3.46,7.946,7.797,8.133v0.018c17.285,0,34.055,0,48.188,0v-0.018C178.048,74.055,181.509,70.491,181.509,66.109z"/>
	<path style="fill:#94DC76;" d="M173.712,498.218v-1.002v-0.001v-33.518c-10.344,19.149-37.836,19.16-48.188,0v15.401
		c15.468,9.373,32.011,17.147,49.396,23.109C174.156,501.036,173.712,499.667,173.712,498.218z"/>
	<path style="fill:#7DD776;" d="M331.849,308.791c-1.167-0.682-2.634,0.159-2.634,1.511v2.545c0,2.442,0.743,4.826,2.132,6.835
		l9.645,13.962c2.378,3.442,7.068,4.434,10.586,2.169C370.943,323.347,331.766,308.691,331.849,308.791z"/>
</g>
<g>
</g>
<g>
</g>
<g>
</g>
<g>
</g>
<g>
</g>
<g>
</g>
<g>
</g>
<g>
</g>
<g>
</g>
<g>
</g>
<g>
</g>
<g>
</g>
<g>
</g>
<g>
</g>
<g>
</g>
</svg>
