<?xml version="1.0" encoding="iso-8859-1"?>
<!-- Generator: Adobe Illustrator 21.0.0, SVG Export Plug-In . SVG Version: 6.00 Build 0)  -->
<svg version="1.1" id="Capa_1" xmlns="http://www.w3.org/2000/svg" xmlns:xlink="http://www.w3.org/1999/xlink" x="0px" y="0px"
	 viewBox="0 0 497.759 497.759" style="enable-background:new 0 0 497.759 497.759;" xml:space="preserve">
<g>
	<circle style="fill:#FA6E62;" cx="248.879" cy="258.948" r="238.811"/>
	<path style="fill:#FB5C4B;" d="M37.556,370.247c40.017,75.822,119.628,127.512,211.324,127.512
		c91.697,0,171.307-51.689,211.324-127.512H37.556z"/>
	<g>
		<path style="fill:#ED3B2E;" d="M274.144,370.247H37.556c40.017,75.822,119.627,127.512,211.324,127.512
			c5.885,0,11.719-0.216,17.497-0.635C188.193,489.204,193.163,370.247,274.144,370.247z"/>
	</g>
	<rect x="49.974" y="123.632" style="fill:#C6E0F4;" width="398.366" height="35.071"/>
	<path style="fill:#A3CCEF;" d="M108.002,151.113c-8.84-0.02-16-7.191-16-16.035c0-4.485,1.845-8.535,4.812-11.445h-46.84v35.072
		h58.028V151.113z"/>
	<g>
		<path style="fill:#EAF3F9;" d="M248.88,157.052c-4.771,0-8.639-3.867-8.639-8.639v-37.086c0-4.771,3.868-8.639,8.639-8.639
			c4.771,0,8.639,3.867,8.639,8.639v37.086C257.518,153.185,253.65,157.052,248.88,157.052z"/>
	</g>
	<g>
		<path style="fill:#EAF3F9;" d="M360.803,401.346H136.955c-25.186,0-47.004-17.075-53.057-41.522L29.059,138.33
			c-2.063-8.336,3.021-16.767,11.357-18.831c8.339-2.062,16.768,3.022,18.831,11.357l54.839,221.494
			c2.609,10.538,12.013,17.898,22.869,17.898h223.847c10.856,0,20.26-7.36,22.869-17.898l54.84-221.494
			c2.065-8.336,10.493-13.419,18.831-11.357c8.336,2.064,13.42,10.495,11.357,18.831l-54.84,221.494
			C407.806,384.271,385.989,401.346,360.803,401.346z"/>
	</g>
	<path style="fill:#F4C48B;" d="M136.955,370.247h223.847c10.856,0,20.26-7.36,22.869-17.898l50.492-203.936H63.594l50.492,203.936
		C116.696,362.887,126.1,370.247,136.955,370.247z"/>
	<path style="fill:#EDB87E;" d="M149.923,352.349L99.431,148.413H63.594l50.492,203.936c2.609,10.538,12.013,17.898,22.869,17.898
		h35.836C161.936,370.247,152.532,362.887,149.923,352.349z"/>
	<path style="fill:#EDB87E;" d="M110.818,339.148l3.268,13.202c2.609,10.538,12.013,17.898,22.869,17.898h223.847
		c10.856,0,20.26-7.36,22.869-17.898l3.269-13.202H110.818z"/>
	<path style="fill:#DBA575;" d="M149.923,352.349l-3.269-13.201h-35.836l3.268,13.201c2.635,10.64,12.11,17.898,22.869,17.898
		h35.836C161.936,370.247,152.532,362.887,149.923,352.349z"/>
	<path style="fill:#C6E0F4;" d="M97.599,432.445H400.16c-4.313-17.786-20.408-31.099-39.47-31.099h-223.62
		C118.006,401.346,101.912,414.66,97.599,432.445z"/>
	<g>
		<path style="fill:#A3CCEF;" d="M179.455,401.346h-42.385c-19.063,0-35.158,13.314-39.47,31.099h56.069
			C156.486,414.659,167.001,401.346,179.455,401.346z"/>
	</g>
	<path style="fill:#FEC50A;" d="M284.656,76.214L284.656,76.214c0.98-20.682-10.098-49.568-42.668-75.992
		c-0.717-0.581-1.767,0.062-1.587,0.967c1.412,7.093,3.381,26.472-12.429,42.282c-28.186,28.186-14.133,68.574,22.917,68.574
		C266.835,112.045,284.656,97.126,284.656,76.214z"/>
	<path style="fill:#FCAD19;" d="M247.359,46.186c8.095-15.74,5.547-30.276,2.185-39.432c-2.383-2.19-4.89-4.37-7.555-6.532
		c-0.717-0.581-1.767,0.062-1.587,0.967c1.412,7.093,3.381,26.472-12.429,42.282c-28.15,28.15-14.243,68.574,22.917,68.574
		c5.07,0,9.978-1.336,14.411-3.793C244.588,100.458,232.962,74.178,247.359,46.186z"/>
	<path style="fill:#FCAD19;" d="M239.9,109.586L239.9,109.586c5.697,3.289,12.726,3.269,18.387,0l0,0
		c8.849-5.109,11.908-16.528,6.8-25.376l-14.704-25.468c-0.573-0.992-2.005-0.992-2.579,0l-15.244,26.404
		C227.441,94.01,230.745,105.008,239.9,109.586z"/>
	<path style="fill:#ED9811;" d="M240.906,70.689l-8.347,14.457c-5.118,8.864-1.815,19.862,7.341,24.44l0,0
		c5.599,3.233,12.633,3.322,18.387,0l0,0c1.374-0.793,2.609-1.74,3.695-2.804C249.838,100.675,240.755,87.446,240.906,70.689z"/>
	<path style="fill:#A3CCEF;" d="M84.501,432.176c12.509,11.874,26.304,22.405,41.153,31.368h246.45
		c14.849-8.963,28.644-19.494,41.153-31.368c-1.427-0.445-2.938-0.69-4.506-0.69H89.007
		C87.44,431.487,85.928,431.731,84.501,432.176z"/>
	<path style="fill:#EDB87E;" d="M248.855,215.413c37.003,0,67-29.997,67-67h-134C181.855,185.417,211.852,215.413,248.855,215.413z"
		/>
	<path style="fill:#DBA575;" d="M284.716,196.87c-30.567,0-56.335-20.477-64.38-48.457h-38.481c0,37.003,29.997,67,67,67
		c18.454,0,35.163-7.463,47.28-19.532C292.422,196.519,288.611,196.87,284.716,196.87z"/>
	<g>
		<path style="fill:#C6E0F4;" d="M161.125,385.308c0-6.935,4.41-12.825,10.572-15.062h-34.742c-10.856,0-20.26-7.36-22.869-17.898
			L59.247,130.855c-2.063-8.335-10.492-13.419-18.831-11.357c-8.336,2.064-13.42,10.495-11.357,18.831l54.839,221.494
			c6.053,24.448,27.871,41.522,53.057,41.522h40.207C168.305,401.346,161.125,394.166,161.125,385.308z"/>
	</g>
	<g>
		<path style="fill:#85BBEB;" d="M141.805,447.515c0-7.601,5.082-14.005,12.029-16.029H89.007c-1.568,0-3.079,0.245-4.506,0.689
			c12.51,11.874,26.304,22.406,41.153,31.368h28.179C146.886,461.52,141.805,455.116,141.805,447.515z"/>
	</g>
</g>
<g>
</g>
<g>
</g>
<g>
</g>
<g>
</g>
<g>
</g>
<g>
</g>
<g>
</g>
<g>
</g>
<g>
</g>
<g>
</g>
<g>
</g>
<g>
</g>
<g>
</g>
<g>
</g>
<g>
</g>
</svg>
