<?xml version="1.0" encoding="iso-8859-1"?>
<!-- Generator: Adobe Illustrator 21.0.0, SVG Export Plug-In . SVG Version: 6.00 Build 0)  -->
<svg version="1.1" id="Capa_1" xmlns="http://www.w3.org/2000/svg" xmlns:xlink="http://www.w3.org/1999/xlink" x="0px" y="0px"
	 viewBox="0 0 512.005 512.005" style="enable-background:new 0 0 512.005 512.005;" xml:space="preserve">
<g>
	<circle style="fill:#7DD776;" cx="256.002" cy="264.512" r="247.493"/>
	<path style="fill:#A3CCEF;" d="M398.935,207.334c-4.698,0-8.507-3.808-8.507-8.507v-22.15c0-3.753-3.053-6.806-6.806-6.806
		s-6.806,3.053-6.806,6.806v22.15c0,4.699-3.809,8.507-8.507,8.507c-4.698,0-8.507-3.808-8.507-8.507v-22.15
		c0-13.134,10.685-23.819,23.819-23.819c13.134,0,23.819,10.686,23.819,23.819v22.15
		C407.442,203.526,403.633,207.334,398.935,207.334z"/>
	<path style="fill:#85BBEB;" d="M359.803,176.677v22.15c0,4.699,3.809,8.507,8.507,8.507c4.698,0,8.507-3.808,8.507-8.507v-22.15
		c0-3.753,3.053-6.806,6.806-6.806v-17.014C370.488,152.858,359.803,163.543,359.803,176.677z"/>
	<path style="fill:#A3CCEF;" d="M143.696,207.334c-4.698,0-8.507-3.808-8.507-8.507v-22.15c0-3.753-3.053-6.806-6.805-6.806
		c-3.753,0-6.806,3.053-6.806,6.806v22.15c0,4.699-3.809,8.507-8.507,8.507c-4.698,0-8.507-3.808-8.507-8.507v-22.15
		c0-13.134,10.685-23.819,23.819-23.819s23.819,10.686,23.819,23.819v22.15C152.203,203.526,148.394,207.334,143.696,207.334z"/>
	<path style="fill:#85BBEB;" d="M104.564,176.677v22.15c0,4.699,3.809,8.507,8.507,8.507c4.698,0,8.507-3.808,8.507-8.507v-22.15
		c0-3.753,3.053-6.806,6.805-6.806v-17.014C115.249,152.858,104.564,163.543,104.564,176.677z"/>
	<path style="fill:#AF5B10;" d="M501.948,236.855c-17.518-0.013-31.766-14.269-31.766-31.79c0-8.457-6.856-15.313-15.312-15.313
		H57.135c-8.457,0-15.313,6.855-15.313,15.313c0,17.521-14.248,31.776-31.766,31.79c-1.01,9.082-1.547,18.306-1.547,27.657
		c0,92.748,51.028,173.566,126.532,215.949h241.922c75.504-42.384,126.531-123.201,126.531-215.949
		C503.495,255.161,502.958,245.937,501.948,236.855z"/>
	<path style="fill:#994E04;" d="M84.743,210.888c0-11.624,9.511-21.135,21.135-21.135H57.135c-8.457,0-15.313,6.855-15.313,15.313
		c0,17.52-14.248,31.776-31.766,31.79c-1.01,9.082-1.547,18.306-1.547,27.657c0,70.221,29.256,133.597,76.233,178.638V210.888z"/>
	<path style="fill:#994E04;" d="M483.332,264.638c-19.355-6.068-34.682-21.329-40.842-40.644c-0.683-2.142-2.644-3.616-4.893-3.616
		H75.187c-2.638,0-5.025,1.658-5.849,4.163c-6.247,18.976-21.364,33.96-40.423,40.021c-2.115,0.673-3.569,2.609-3.569,4.828v84.999
		c14.412,36.96,37.454,69.595,66.645,95.448h328.025c29.191-25.854,52.233-58.489,66.645-95.448v-85.252
		C486.66,267.068,485.306,265.257,483.332,264.638z"/>
	<path style="fill:#894304;" d="M84.743,443.125V220.377h-9.556c-2.638,0-5.025,1.658-5.849,4.163
		c-6.247,18.976-21.364,33.96-40.423,40.021c-2.115,0.673-3.569,2.609-3.569,4.828v84.954
		C38.672,388.529,59.184,418.608,84.743,443.125z"/>
	<g>
		<path style="fill:#EAF3F9;" d="M383.623,173.465c-2.225,0-4.446-0.867-6.115-2.592L256.003,45.281L134.497,170.873
			c-3.267,3.376-8.653,3.465-12.029,0.199c-3.377-3.268-3.466-8.653-0.199-12.029L249.889,27.132
			c1.603-1.657,3.809-2.592,6.114-2.592c2.305,0,4.511,0.935,6.114,2.592l127.62,131.911c3.267,3.376,3.178,8.762-0.199,12.029
			C387.886,172.669,385.753,173.465,383.623,173.465z"/>
	</g>
	<path style="fill:#D87735;" d="M129.856,343.998c0-0.712-0.18-1.337-0.535-1.872l-27.676-45.86
		c-0.508-1.004-0.435-3.158,1.136-4.88c0.936-1.024,2.116-1.916,3.543-2.674c1.425-0.757,2.963-1.358,4.613-1.805
		c6.926-1.87,8.869,0.136,10.63,3.209l15.548,28.541c1.365,2.506,4.966,2.501,6.323-0.01l15.431-28.531
		c0.712-1.247,1.471-2.206,2.273-2.874c2.692-2.244,9.467-0.385,12.969,1.471c2.428,1.292,4.946,3.335,4.946,6.083
		c0,0.624-0.09,1.115-0.267,1.47l-27.542,45.86c-0.357,0.535-0.535,1.159-0.535,1.872v33.559c0,4.742-6.159,6.418-10.428,6.418
		c-4.279,0-10.429-1.639-10.429-6.418V343.998z"/>
	<path style="fill:#D87735;" d="M216.762,384.777c-21.704,0-32.757-11.597-32.757-31.553v-35.431
		c0-19.531,10.654-31.553,32.757-31.553c21.791,0,32.89,11.519,32.89,31.553v35.431
		C249.652,372.734,239.146,384.777,216.762,384.777z M228.795,317.793c0-4.634-1.07-8.022-3.209-10.161
		c-2.139-2.139-5.081-3.209-8.824-3.209c-3.744,0-6.664,1.07-8.758,3.209c-2.095,2.139-3.142,5.528-3.142,10.161v35.431
		c0,8.396,3.636,13.37,11.9,13.37c8.347,0,12.033-5.057,12.033-13.37V317.793z"/>
	<path style="fill:#D87735;" d="M306.742,316.456c0-7.484-2.716-12.033-11.9-12.033c-8.293,0-12.033,4.979-12.033,13.37v35.431
		c0,4.546,1.047,7.911,3.142,10.094c2.094,2.185,5.014,3.275,8.758,3.275s6.685-1.09,8.824-3.275
		c4.265-4.353,2.976-11.931,3.209-14.64h-7.889c-5.975,0-7.982-8.271-4.68-13.504c2.685-4.248,5.662-1.841,27.142-2.54
		c4.242,0,6.284,3.15,6.284,6.552v14.039c0,19.725-10.783,31.553-32.89,31.553c-21.685,0-32.757-11.526-32.757-31.553v-35.431
		c0-19.78,11.14-31.553,32.088-31.553c35.89,0,36.728,30.205,31.019,34.562c-3.362,2.566-11.07,2.428-15.175,0.602
		C307.878,320.513,306.829,318.863,306.742,316.456z"/>
	<path style="fill:#D87735;" d="M385.358,292.39c-2.875-9.318-24.433-9.246-27.275,0l-24.868,81.558
		c-1.808,7.192,11.456,12.05,17.448,9.158c3.249-1.563,2.427-4.573,6.628-18.282c0.231-0.85,1.003-1.439,1.883-1.439h25.233
		c0.878,0,1.646,0.588,1.877,1.435l4.156,15.278c2.423,7.778,20.189,2.623,20.189-4.68
		C410.627,374.229,410.589,375.025,385.358,292.39z M379.802,347.341H364.36c-1.209,0-2.087-1.149-1.769-2.316l7.72-28.34
		c0.391-1.436,2.428-1.436,2.82,0l7.909,29.036C381.262,346.537,380.647,347.341,379.802,347.341z"/>
	<g>
		<path style="fill:#D87735;" d="M410.627,423.945h-15.813c-4.698,0-8.507-3.808-8.507-8.507c0-4.699,3.809-8.507,8.507-8.507
			h15.813c4.698,0,8.507,3.808,8.507,8.507C419.134,420.137,415.326,423.945,410.627,423.945z"/>
	</g>
	<path style="fill:#C1671E;" d="M402.721,415.438c0-4.597,3.649-8.332,8.207-8.492c-0.1-0.004-0.199-0.015-0.3-0.015h-15.813
		c-4.698,0-8.507,3.808-8.507,8.507s3.809,8.507,8.507,8.507h15.813c0.101,0,0.2-0.012,0.3-0.015
		C406.37,423.77,402.721,420.036,402.721,415.438z"/>
	
		<ellipse transform="matrix(0.866 -0.5 0.5 0.866 19.787 131.8892)" style="fill:#FA6E62;" cx="256.002" cy="29.022" rx="29.017" ry="29.017"/>
	<path style="fill:#FB5C4B;" d="M256.002,29.022c-5.369-9.3-4.998-20.332,0.002-29.013c-4.932-0.005-9.932,1.24-14.511,3.884
		c-13.878,8.013-18.633,25.759-10.621,39.638c8.013,13.878,25.759,18.633,39.637,10.621c4.579-2.644,8.157-6.35,10.619-10.624
		C271.112,43.516,261.372,38.321,256.002,29.022z"/>
	<g>
		<path style="fill:#C1671E;" d="M141.774,320.204c-1.617,0.735-3.695,0.225-4.66-1.547l-15.548-28.541
			c-1.78-3.106-3.71-5.077-10.63-3.209c-3.965,1.074-9.559,3.797-9.559,7.889c0,0.624,0.088,1.115,0.267,1.47l27.676,45.859
			c0.355,0.535,0.535,1.159,0.535,1.872v33.559c0,4.737,6.155,6.418,10.429,6.418c4.278,0,10.428-1.646,10.428-6.418v-33.559
			c0-0.712,0.178-1.337,0.535-1.872l6.078-10.121C149.275,337.061,139.034,329.49,141.774,320.204z"/>
	</g>
	<g>
		<path style="fill:#C1671E;" d="M217.575,366.564c-0.27,0.012-0.535,0.03-0.813,0.03c-8.264,0-11.899-4.974-11.899-13.37v-35.431
			c0-4.634,1.047-8.023,3.142-10.162c2.094-2.139,5.014-3.209,8.758-3.209c0.279,0,0.544,0.018,0.813,0.03
			c-2.132-1.912-3.481-4.68-3.481-7.769c0-4.938,3.431-9.066,8.037-10.154c-1.745-0.177-3.525-0.29-5.369-0.29
			c-21.873,0-32.757,11.812-32.757,31.554v35.431c0,19.939,10.994,31.553,32.757,31.553c1.843,0,3.624-0.113,5.369-0.29
			C213.951,382.554,211.287,372.205,217.575,366.564z"/>
	</g>
	<g>
		<path style="fill:#C1671E;" d="M380.307,347.23c-0.49,0.212,0.373,0.065-15.947,0.11c-1.209,0-2.087-1.149-1.769-2.316l7.72-28.34
			c0.195-0.716,0.8-1.075,1.405-1.077c-0.31-0.987-0.477-2.038-0.477-3.127c0-5.768,4.676-10.444,10.444-10.444
			c3.034,0,5.757,1.301,7.665,3.367l-3.989-13.014c-2.875-9.318-24.433-9.246-27.275,0l-24.868,81.558
			c-1.808,7.192,11.456,12.05,17.448,9.158c3.249-1.563,2.427-4.573,6.628-18.282c0.231-0.85,1.003-1.439,1.883-1.439h24.262
			C377.378,360.292,375.833,352.361,380.307,347.23z"/>
	</g>
	<g>
		<path style="fill:#C1671E;" d="M292.427,374.333c0-3.098,1.356-5.872,3.499-7.785c-0.397,0.027-0.8,0.046-1.217,0.046
			c-3.743,0-6.664-1.09-8.758-3.276c-2.095-2.183-3.142-5.549-3.142-10.094v-35.431c0-8.392,3.741-13.37,12.033-13.37
			c0.362,0,0.714,0.007,1.055,0.02c-6.198-5.575-3.685-15.728,4.295-17.843c-22.797-2.613-38.24,7.931-38.24,31.194v35.431
			c0,23.115,15.324,33.701,38.408,31.236C295.807,383.334,292.427,379.234,292.427,374.333z"/>
	</g>
</g>
<g>
</g>
<g>
</g>
<g>
</g>
<g>
</g>
<g>
</g>
<g>
</g>
<g>
</g>
<g>
</g>
<g>
</g>
<g>
</g>
<g>
</g>
<g>
</g>
<g>
</g>
<g>
</g>
<g>
</g>
</svg>
