<?xml version="1.0" encoding="iso-8859-1"?>
<!-- Generator: Adobe Illustrator 21.0.0, SVG Export Plug-In . SVG Version: 6.00 Build 0)  -->
<svg version="1.1" id="Capa_1" xmlns="http://www.w3.org/2000/svg" xmlns:xlink="http://www.w3.org/1999/xlink" x="0px" y="0px"
	 viewBox="0 0 497.759 497.759" style="enable-background:new 0 0 497.759 497.759;" xml:space="preserve">
<g>
	<circle style="fill:#686BDF;" cx="248.879" cy="260.45" r="237.309"/>
	<path style="fill:#FA6E62;" d="M32.056,357.019c36.992,82.93,120.152,140.74,216.824,140.74s179.832-57.81,216.824-140.74H32.056z"
		/>
	<g>
		<path style="fill:#FB5C4B;" d="M280.45,357.019H32.056c36.992,82.93,120.152,140.74,216.824,140.74
			c7.013,0,13.952-0.314,20.81-0.91C185.73,486.139,191.722,357.019,280.45,357.019z"/>
	</g>
	<path style="fill:#EDB87E;" d="M209.209,228.26c-10.495,0-19.003-8.508-19.003-19.004c0-5.408,0-21.633,0-26.674
		c0-10.495-8.508-19.004-19.003-19.004c-10.495,0-19.004,8.508-19.004,19.004c0-0.113,0,0.005,0,0.735
		c0,15.547-17.669,24.439-30.152,15.367v189.699h97.741V225.043C216.763,227.074,213.125,228.26,209.209,228.26z"/>
	<path style="fill:#DBA575;" d="M159.744,167.447c-4.577,3.47-7.546,8.949-7.546,15.135c0,0.078,0,0.293,0,0.735
		c0,15.547-17.67,24.44-30.152,15.367v189.699h37.698V167.447z"/>
	<path style="fill:#EDB87E;" d="M275.84,388.384V281.832c3.024,2.031,6.662,3.217,10.579,3.217c10.495,0,19.004-8.508,19.004-19.004
		c0-5.408,0-21.633,0-26.674c0-10.495,8.508-19.004,19.004-19.004c10.495,0,19.004,8.508,19.004,19.004c0,0.063,0,0.262,0,0.735
		c0,10.495,8.508,19.004,19.004,19.004c4.17,0,8.014-1.359,11.148-3.637v132.91H275.84z"/>
	<path style="fill:#DBA575;" d="M313.537,223.811c-4.902,3.437-8.115,9.12-8.115,15.561c0,5.041,0,21.267,0,26.674
		c0,10.495-8.508,19.004-19.004,19.004c-3.916,0-7.555-1.187-10.579-3.217v106.551h37.698V223.811z"/>
	<path style="fill:#A3CCEF;" d="M113.18,449.463c-1.128,1.128-2.044,2.386-2.757,3.724c8.518,6.13,17.458,11.707,26.77,16.683
		l21.224-21.223c-11.786-3.277-22.791-7.168-32.822-11.597L113.18,449.463z"/>
	<path style="fill:#A3CCEF;" d="M384.579,449.463l-12.413-12.413c-10.031,4.429-21.036,8.32-32.822,11.597l21.224,21.223
		c9.311-4.976,18.252-10.553,26.77-16.683C386.623,451.849,385.707,450.591,384.579,449.463z"/>
	<g>
		<path style="fill:#C6E0F4;" d="M171.233,148.025c-4.671,0-8.458-3.786-8.458-8.458v-22.591c0-4.672,3.787-8.458,8.458-8.458
			s8.458,3.786,8.458,8.458v22.591C179.692,144.239,175.905,148.025,171.233,148.025z"/>
	</g>
	<g>
		<path style="fill:#C6E0F4;" d="M324.457,204.814c-4.671,0-8.458-3.786-8.458-8.458v-22.59c0-4.672,3.787-8.458,8.458-8.458
			c4.671,0,8.458,3.786,8.458,8.458v22.59C332.915,201.028,329.128,204.814,324.457,204.814z"/>
	</g>
	<path style="fill:#F7CF9C;" d="M215.063,139.567c-26.478,0-83.187,0-87.723,0c-7.262,0-13.15,5.887-13.15,13.15
		c0,9.062,0,26.491,0,33.985c0,10.495,8.508,19.003,19.004,19.003c10.496,0,19.004-8.508,19.004-19.003c0-0.73,0-0.848,0-0.735
		c0-10.495,8.508-19.003,19.004-19.003c10.495,0,19.003,8.508,19.003,19.003c0,5.041,0,21.267,0,26.674
		c0,10.495,8.508,19.004,19.003,19.004c10.496,0,19.004-8.508,19.004-19.004c0-27.12,0-33.049,0-59.924
		C228.213,145.454,222.325,139.567,215.063,139.567z"/>
	<path style="fill:#F7CF9C;" d="M280.564,196.356c26.478,0,83.187,0,87.723,0c7.262,0,13.15,5.887,13.15,13.15
		c0,9.062,0,26.491,0,33.985c0,10.495-8.508,19.004-19.004,19.004c-10.496,0-19.004-8.508-19.004-19.004c0-0.73,0-0.848,0-0.735
		c0-10.495-8.508-19.003-19.004-19.003c-10.495,0-19.004,8.508-19.004,19.003c0,5.041,0,21.267,0,26.674
		c0,10.495-8.508,19.004-19.004,19.004c-10.496,0-19.004-8.508-19.004-19.004c0-27.12,0-33.049,0-59.924
		C267.415,202.243,273.302,196.356,280.564,196.356z"/>
	<g>
		<path style="fill:#EAF3F9;" d="M88.143,415.451c32.269,27.526,92.166,46.022,160.736,46.022s128.468-18.495,160.736-46.022H88.143
			z"/>
	</g>
	<g>
		<path style="fill:#C6E0F4;" d="M222.145,415.451H88.143c27.633,23.572,75.536,40.509,131.787,44.893
			C191.682,457.626,193.412,415.451,222.145,415.451z"/>
	</g>
	<path style="fill:#FEC50A;" d="M208.553,79.567L208.553,79.567c1.023-21.592-10.542-51.749-44.545-79.335
		c-0.748-0.607-1.845,0.065-1.657,1.01c1.474,7.405,3.53,27.637-12.976,44.142c-29.426,29.427-14.754,71.591,23.925,71.591
		C189.947,116.975,208.553,101.4,208.553,79.567z"/>
	<path style="fill:#FCAD19;" d="M169.614,48.218c8.451-16.432,5.791-31.608,2.281-41.166c-2.488-2.286-5.105-4.562-7.888-6.819
		c-0.748-0.607-1.844,0.065-1.657,1.01c1.474,7.405,3.53,27.637-12.976,44.142c-29.388,29.389-14.869,71.591,23.925,71.591
		c5.293,0,10.417-1.395,15.045-3.96C166.721,104.878,154.584,77.441,169.614,48.218z"/>
	<path style="fill:#FCAD19;" d="M161.827,114.407L161.827,114.407c5.948,3.434,13.286,3.412,19.196,0l0,0
		c9.238-5.334,12.432-17.255,7.099-26.493l-15.351-26.588c-0.598-1.036-2.094-1.036-2.692,0l-15.915,27.566
		C148.82,98.146,152.269,109.628,161.827,114.407z"/>
	<path style="fill:#ED9811;" d="M162.878,73.799l-8.714,15.093c-5.343,9.255-1.895,20.736,7.663,25.515l0,0
		c5.846,3.375,13.189,3.468,19.195,0l0,0c1.435-0.828,2.723-1.816,3.857-2.928C172.202,105.104,162.719,91.294,162.878,73.799z"/>
	<path style="fill:#FEC50A;" d="M361.808,136.357L361.808,136.357c1.023-21.592-10.542-51.749-44.545-79.335
		c-0.748-0.607-1.844,0.065-1.656,1.01c1.474,7.405,3.529,27.637-12.976,44.142c-29.426,29.427-14.754,71.591,23.925,71.591
		C343.203,173.765,361.808,158.19,361.808,136.357z"/>
	<path style="fill:#FCAD19;" d="M322.87,105.008c8.451-16.432,5.792-31.608,2.281-41.166c-2.487-2.286-5.105-4.562-7.888-6.819
		c-0.748-0.607-1.844,0.065-1.656,1.01c1.474,7.405,3.529,27.637-12.976,44.142c-29.388,29.389-14.87,71.591,23.925,71.591
		c5.293,0,10.417-1.395,15.045-3.96C319.977,161.668,307.839,134.231,322.87,105.008z"/>
	<path style="fill:#FCAD19;" d="M315.083,171.197L315.083,171.197c5.948,3.434,13.285,3.412,19.196,0l0,0
		c9.238-5.333,12.432-17.255,7.099-26.493l-15.351-26.588c-0.598-1.036-2.094-1.036-2.692,0l-15.915,27.566
		C302.076,154.936,305.525,166.418,315.083,171.197z"/>
	<path style="fill:#ED9811;" d="M316.133,130.589l-8.714,15.093c-5.343,9.255-1.895,20.736,7.664,25.515l0,0
		c5.845,3.375,13.189,3.468,19.195,0l0,0c1.435-0.828,2.723-1.816,3.857-2.927C325.458,161.894,315.975,148.084,316.133,130.589z"/>
	<g>
		<path style="fill:#C6E0F4;" d="M419.703,415.942H78.056c-8.409,0-15.225-6.926-15.225-15.471c0-8.545,6.816-15.471,15.225-15.471
			h341.647c8.409,0,15.225,6.926,15.225,15.471C434.928,409.016,428.112,415.942,419.703,415.942z"/>
	</g>
	<path style="fill:#A3CCEF;" d="M204.331,400.471c0-8.544,6.816-15.471,15.225-15.471h-141.5c-8.409,0-15.225,6.926-15.225,15.471
		c0,8.545,6.816,15.471,15.225,15.471h141.5C211.147,415.942,204.331,409.016,204.331,400.471z"/>
	<g>
		<path style="fill:#EDB87E;" d="M301.93,211.535c0-6.69,3.905-12.452,9.551-15.179c-11.575,0-22.701,0-30.917,0
			c-7.262,0-13.149,5.887-13.149,13.15c0,26.874,0,32.804,0,59.924c0,10.495,8.508,19.003,19.004,19.003
			c10.495,0,19.004-8.508,19.004-19.003c0-5.408,0-21.633,0-26.674c0-6.297,3.076-11.863,7.793-15.32
			C306.647,225.129,301.93,218.89,301.93,211.535z"/>
	</g>
	<g>
		<path style="fill:#EDB87E;" d="M146.691,154.946c0-7.244,4.791-13.367,11.377-15.38c-15.854,0-28.669,0-30.728,0
			c-7.262,0-13.15,5.887-13.15,13.15c0,9.062,0,26.491,0,33.985c0,10.495,8.508,19.003,19.004,19.003
			c10.496,0,19.004-8.508,19.004-19.003c0-0.442,0-0.657,0-0.735c0-6.234,3.015-11.75,7.652-15.215
			C152.366,169.374,146.691,162.829,146.691,154.946z"/>
	</g>
</g>
<g>
</g>
<g>
</g>
<g>
</g>
<g>
</g>
<g>
</g>
<g>
</g>
<g>
</g>
<g>
</g>
<g>
</g>
<g>
</g>
<g>
</g>
<g>
</g>
<g>
</g>
<g>
</g>
<g>
</g>
</svg>
