<?xml version="1.0" encoding="iso-8859-1"?>
<!-- Generator: Adobe Illustrator 21.0.0, SVG Export Plug-In . SVG Version: 6.00 Build 0)  -->
<svg version="1.1" id="Capa_1" xmlns="http://www.w3.org/2000/svg" xmlns:xlink="http://www.w3.org/1999/xlink" x="0px" y="0px"
	 viewBox="0 0 497.759 497.759" style="enable-background:new 0 0 497.759 497.759;" xml:space="preserve">
<g>
	<circle style="fill:#686BDF;" cx="248.879" cy="248.879" r="248.879"/>
	<g>
		<path style="fill:#F9918F;" d="M11.642,173.477c15.363-1.556,30.827-1.815,46.216-0.779
			C38.055,240.607,43.081,312.68,72.367,377.457c25.116,55.55,71.72,78.359,118.211,77.419
			c-23.444,9.543-49.724,11.847-75.671,3.781C45.806,414.434,0,337.007,0,248.879C0,222.592,4.088,197.263,11.642,173.477z"/>
		<g>
			<path style="fill:#FA6E62;" d="M46.205,266.69c1.436,38.166,10.275,75.623,26.163,110.767
				c25.116,55.549,71.72,78.359,118.211,77.419c-23.444,9.543-49.724,11.847-75.671,3.781
				C54.443,419.961,11.814,355.843,2.103,281.379C17.699,293.447,40.875,286,46.205,266.69z"/>
		</g>
		<path style="fill:#FA6E62;" d="M88.479,100.865c4.015-6.594,11.888-9.855,19.39-8.031c23.35,5.676,45.91,14.17,67.184,25.216
			c-45.834,58.472-71.016,131.833-68.539,209.729c2.104,66.142,39.071,108.484,85.814,127.029
			c-47.411,1.93-95.393-20.685-121.013-77.351C29.508,284.986,38.957,182.196,88.479,100.865z"/>
		<g>
			<path style="fill:#FB5C4B;" d="M110.699,264.245c-3.464,20.969-4.863,42.193-4.185,63.533
				c2.104,66.142,39.072,108.484,85.814,127.029c-47.411,1.93-95.393-20.685-121.013-77.351
				c-15.281-33.802-24.37-70.469-26.091-108.577C60.777,294.589,98.939,291.888,110.699,264.245z"/>
		</g>
	</g>
	<path style="fill:#F9918F;" d="M486.117,173.477c-15.363-1.556-30.827-1.815-46.216-0.779
		c19.803,67.909,14.777,139.982-14.509,204.759c-25.116,55.55-71.72,78.359-118.211,77.419c23.444,9.543,49.724,11.847,75.671,3.781
		c69.101-44.222,114.907-121.65,114.907-209.777C497.759,222.592,493.671,197.263,486.117,173.477z"/>
	<g>
		<path style="fill:#FA6E62;" d="M451.554,266.69c-1.436,38.166-10.275,75.623-26.163,110.767
			c-25.116,55.549-71.72,78.359-118.211,77.419c23.444,9.543,49.724,11.847,75.671,3.781
			c60.464-38.695,103.093-102.813,112.804-177.278C480.06,293.447,456.884,286,451.554,266.69z"/>
	</g>
	<path style="fill:#FA6E62;" d="M409.279,100.865c-4.015-6.594-11.888-9.855-19.39-8.031c-23.35,5.676-45.91,14.17-67.184,25.216
		c45.835,58.472,71.016,131.833,68.539,209.729c-2.104,66.142-39.071,108.484-85.814,127.029
		c47.411,1.93,95.393-20.685,121.013-77.351C468.25,284.986,458.802,182.196,409.279,100.865z"/>
	<g>
		<path style="fill:#FB5C4B;" d="M387.06,264.245c3.464,20.969,4.863,42.193,4.185,63.533
			c-2.104,66.142-39.072,108.484-85.814,127.029c47.411,1.93,95.393-20.685,121.013-77.351
			c15.281-33.802,24.371-70.469,26.091-108.577C436.982,294.589,398.819,291.888,387.06,264.245z"/>
	</g>
	<path style="fill:#FB5C4B;" d="M260.263,56.528c-6.761-4.963-16.007-4.963-22.768,0
		c-84.353,61.915-135.512,161.891-132.034,271.251c5.846,183.826,280.99,183.826,286.836,0
		C395.773,218.495,344.679,118.488,260.263,56.528z"/>
	<path style="fill:#ED3B2E;" d="M109.195,266.993c-3.049,19.506-4.4,39.838-3.734,60.785c5.846,183.826,280.99,183.826,286.836,0
		c0.63-19.81-0.51-40.161-3.734-60.785C357.077,410.077,140.682,410.077,109.195,266.993z"/>
	<path style="fill:#FEC50A;" d="M255.933,215.288c-4.189-3.075-9.918-3.075-14.107,0c-52.268,38.365-83.963,100.314-81.807,168.064
		c1.267,39.825,22.941,65.704,50.741,77.679c24.866,6.146,51.374,6.146,76.239,0c30.965-13.338,50.844-41.141,50.844-84.163
		C337.843,310.538,305.598,251.742,255.933,215.288z"/>
	<path style="fill:#FCAD19;" d="M162.11,347.196c-1.778,11.973-2.477,24.036-2.091,36.156c1.267,39.825,22.941,65.705,50.741,77.679
		c24.866,6.146,51.374,6.146,76.239,0c45.997-19.813,56.026-64.174,48.65-113.835C301.691,421.35,196.096,421.412,162.11,347.196z"
		/>
	
		<ellipse transform="matrix(0.9978 -0.0668 0.0668 0.9978 -18.8532 19.1047)" style="fill:#FDD044;" cx="276.396" cy="291.612" rx="17.985" ry="17.985"/>
	
		<ellipse transform="matrix(0.9978 -0.0668 0.0668 0.9978 -20.6375 17.9619)" style="fill:#FDD044;" cx="258.41" cy="317.739" rx="8.03" ry="8.03"/>
</g>
<g>
</g>
<g>
</g>
<g>
</g>
<g>
</g>
<g>
</g>
<g>
</g>
<g>
</g>
<g>
</g>
<g>
</g>
<g>
</g>
<g>
</g>
<g>
</g>
<g>
</g>
<g>
</g>
<g>
</g>
</svg>
