<?xml version="1.0" encoding="iso-8859-1"?>
<!-- Generator: Adobe Illustrator 21.0.0, SVG Export Plug-In . SVG Version: 6.00 Build 0)  -->
<svg version="1.1" id="Capa_1" xmlns="http://www.w3.org/2000/svg" xmlns:xlink="http://www.w3.org/1999/xlink" x="0px" y="0px"
	 viewBox="0 0 512.107 512.107" style="enable-background:new 0 0 512.107 512.107;" xml:space="preserve">
<g>
	<circle style="fill:#686BDF;" cx="256.054" cy="256" r="256"/>
	<path style="fill:#F9918F;" d="M256.053,56.572c-130.084,0-237.619,96.466-255.019,221.761C12.352,409.257,122.195,512,256.054,512
		s243.702-102.743,255.019-233.668C493.673,153.038,386.138,56.572,256.053,56.572L256.053,56.572z"/>
	<path style="fill:#FA6E62;" d="M107.284,252.398c0-73.68,31.138-140.078,80.96-186.785C90.104,92.338,15.295,175.646,1.034,278.333
		c13.507,156.251,163.997,264.188,317.054,226.086C198.259,483.073,107.284,378.36,107.284,252.398z"/>
	<path style="fill:#FA6E62;" d="M420.647,452.059c31.287-37.341,50.134-85.46,50.134-137.987v0
		c0-118.739-96.257-214.996-214.996-214.996h0c-118.739,0-214.996,96.257-214.996,214.996c0.572,3.102-4.151,71.979,48.834,136.435
		C183.963,531.304,324.129,533.172,420.647,452.059z"/>
	<path style="fill:#ED3B2E;" d="M318.088,504.419C198.259,483.073,107.284,378.36,107.284,252.398
		c0-41.903,10.082-81.444,27.934-116.354C30.489,207.109,9.339,352.79,89.588,450.462
		C151.782,503.835,236.713,524.677,318.088,504.419z"/>
	<path style="fill:#FEC50A;" d="M284.283,185.766l-16.796-16.796c-2.461-2.461-6.451-2.461-8.912,0l-16.796,16.796
		c-2.461,2.461-2.461,6.451,0,8.912l16.796,16.796c2.461,2.461,6.451,2.461,8.912,0l16.796-16.796
		C286.744,192.217,286.744,188.227,284.283,185.766z"/>
	<path style="fill:#FEC50A;" d="M338.69,233.583l-14.379-18.405c-2.751-3.522-7.925-3.914-11.196-0.869
		c-40.354,37.568-85.652,9.562-102.893-3.854c-1.417-1.102-3.292,0.617-2.328,2.132c41.628,65.494,105.595,43.077,128.119,32.368
		C340.342,242.899,341.641,237.361,338.69,233.583z"/>
	<path style="fill:#FEC50A;" d="M422.073,302.448c-47.096-66.604-109.829-34.563-121.939-6.307
		c-11.62,27.113-21.118,96.049-84.23,55.142c-3.949-2.559-4.324-8.163-0.809-11.291c8.45-7.521,20.837-23.054,19.108-48.56
		c-2.624-38.706-61.543-81.25-137.457-29.696c-3.257,2.211-4.094,6.656-1.854,9.892l20.432,29.513
		c2.825,4.081,8.69,4.47,12.057,0.823c9.164-9.925,28.246-26.006,55.69-26.006c37.957,0,46.384,45.525-11.191,49.507
		c-4.373,0.302-7.465,4.417-6.579,8.71l5.476,26.537c0.85,4.12,4.568,6.993,8.77,6.811c15.935-0.689,52.636,1.497,52.636,36.26
		c0,43.024-88.431,83.522-156.349-15.605c-1.055-1.539-3.443-0.326-2.803,1.426c9.02,24.693,36.281,82.337,98.603,99.62
		c75.702,20.993,104.484-62.079,84.641-100.76c-0.969-1.889,0.886-3.975,2.882-3.248c10.706,3.904,32.261,8.685,51.403-5.997
		c26.742-20.511,24.724-91.151,76.695-75.005c51.971,16.146,28.761,99.401-12.614,120.593c-32.475,16.634-67.749-0.927-81.421-9.251
		c-2.153-1.311-4.791,0.733-4.038,3.139c4.86,15.539,20.857,51.523,64.771,51.523C409.964,470.219,469.169,369.052,422.073,302.448z
		"/>
	<path style="fill:#FEC50A;" d="M422.073,302.448c-47.096-66.604-109.829-34.563-121.939-6.307
		c-11.62,27.113-21.118,96.049-84.23,55.142c-3.949-2.559-4.324-8.163-0.809-11.291c8.45-7.521,20.837-23.054,19.108-48.56
		c-2.624-38.706-61.543-81.25-137.457-29.696c-3.257,2.211-4.094,6.656-1.854,9.892l20.432,29.513
		c2.825,4.081,8.69,4.47,12.057,0.823c9.164-9.925,28.246-26.006,55.69-26.006c37.957,0,46.384,45.525-11.191,49.507
		c-4.373,0.302-7.465,4.417-6.579,8.71l5.476,26.537c0.85,4.12,4.568,6.993,8.77,6.811c15.935-0.689,52.636,1.497,52.636,36.26
		c0,43.024-88.431,83.522-156.349-15.605c-1.055-1.539-3.443-0.326-2.803,1.426c9.02,24.693,36.281,82.337,98.603,99.62
		c75.702,20.993,104.484-62.079,84.641-100.76c-0.969-1.889,0.886-3.975,2.882-3.248c10.706,3.904,32.261,8.685,51.403-5.997
		c26.742-20.511,24.724-91.151,76.695-75.005c51.971,16.146,28.761,99.401-12.614,120.593c-32.475,16.634-67.749-0.927-81.421-9.251
		c-2.153-1.311-4.791,0.733-4.038,3.139c4.86,15.539,20.857,51.523,64.771,51.523C409.964,470.219,469.169,369.052,422.073,302.448z
		"/>
	<g>
		<path style="fill:#FCAD19;" d="M259.16,385.216c6.579,2.399,17.255,5.121,28.949,3.463c-15.077-4.773-21.713-22.343-13.781-35.854
			c-11.767,12.857-29.439,17.244-58.423-1.542c-3.949-2.559-4.324-8.163-0.809-11.291c8.45-7.521,20.837-23.054,19.108-48.56
			c-2.624-38.706-61.543-81.25-137.457-29.695c-3.257,2.211-4.094,6.656-1.854,9.892l20.432,29.513
			c2.825,4.081,8.69,4.47,12.057,0.823c9.164-9.924,28.246-26.006,55.69-26.006c37.956,0,46.384,45.524-11.191,49.507
			c-4.373,0.302-7.465,4.417-6.579,8.71l5.476,26.537c0.85,4.12,4.568,6.993,8.77,6.811c15.935-0.689,52.635,1.497,52.635,36.26
			c0,43.024-88.431,83.522-156.349-15.605c-1.054-1.539-3.443-0.326-2.803,1.427c9.02,24.693,36.281,82.337,98.603,99.619
			c75.702,20.993,104.485-62.079,84.641-100.76C255.309,386.575,257.165,384.489,259.16,385.216z"/>
	</g>
	<g>
		<path style="fill:#ED9811;" d="M195.267,445.917c-31.98,10.658-79.286,0.852-119.43-57.738c-1.054-1.539-3.443-0.326-2.803,1.427
			c9.02,24.693,36.281,82.337,98.603,99.619c26.768,7.423,47.662,1.826,62.622-10.21
			C212.517,492.646,185.039,470.355,195.267,445.917z"/>
	</g>
	<g>
		<path style="fill:#FCAD19;" d="M283.024,231.293c-30.791,7.72-59.788-10.711-72.801-20.836c-1.417-1.102-3.292,0.617-2.328,2.132
			c23.272,36.615,53.525,45.749,79.616,44.819C277.381,252.542,275.14,239.197,283.024,231.293z"/>
	</g>
</g>
<g>
</g>
<g>
</g>
<g>
</g>
<g>
</g>
<g>
</g>
<g>
</g>
<g>
</g>
<g>
</g>
<g>
</g>
<g>
</g>
<g>
</g>
<g>
</g>
<g>
</g>
<g>
</g>
<g>
</g>
</svg>
