<?xml version="1.0" encoding="iso-8859-1"?>
<!-- Generator: Adobe Illustrator 21.0.0, SVG Export Plug-In . SVG Version: 6.00 Build 0)  -->
<svg version="1.1" id="Capa_1" xmlns="http://www.w3.org/2000/svg" xmlns:xlink="http://www.w3.org/1999/xlink" x="0px" y="0px"
	 viewBox="0 0 512 512" style="enable-background:new 0 0 512 512;" xml:space="preserve">
<g>
	<circle style="fill:#994E04;" cx="256" cy="268.081" r="243.919"/>
	<path style="fill:#F7CF9C;" d="M444.469,422.927l-29.996-45.302c-22.257-33.613-28.324-72.241-31.917-112.395l-19.269-117.982
		c-2.184-10.424-5.194-20.658-9.002-30.605l-45.56-103.178c-4.276-9.426-14.334-14.822-24.552-13.171l0,0
		c-14.044,2.269-23.59,15.494-21.321,29.538l19.318,119.574c-0.209,0.034-0.417,0.069-0.623,0.104
		c-16.685,2.898-27.844,18.814-25.143,35.531l13.277,82.178c3.139,19.427-6.791,21.273-6.347,48.588
		c0.446,27.467,11.652,53.667,30.61,73.547l55.69,104.011C386.778,477.911,419.283,453.546,444.469,422.927z"/>
	<path style="fill:#F7CF9C;" d="M230.454,149.511c-0.207-0.036-0.414-0.07-0.623-0.104L249.15,29.833
		c2.269-14.044-7.277-27.269-21.321-29.538c-10.218-1.651-20.276,3.745-24.552,13.171l-45.56,103.178
		c-3.808,9.947-6.818,20.181-9.002,30.605l-19.27,117.982c-3.593,40.154-9.66,78.782-31.917,112.395l-29.996,45.302
		c25.186,30.619,57.691,54.984,94.835,70.44l55.691-104.011c18.958-19.88,30.164-46.08,30.61-73.547
		c0.443-27.262-9.482-29.188-6.347-48.588l13.277-82.178C258.298,168.325,247.139,152.409,230.454,149.511z"/>
	<path style="fill:#EFEFEF;" d="M299.112,184.127l-4.688-28.22c-1.068-6.431-6.675-11.019-12.992-11.057l0.736,4.556
		c-0.209,0.034-0.417,0.069-0.623,0.104c-8.331,1.447-15.284,6.14-19.822,12.557l4.57,27.51c1.194,7.185,8.048,12.087,15.233,10.893
		l6.693-1.112C295.404,198.166,300.305,191.312,299.112,184.127z"/>
	<path style="fill:#EFEFEF;" d="M230.454,149.511c-0.207-0.036-0.414-0.07-0.623-0.104l1.098-6.793
		c-6.881-0.513-13.194,4.331-14.345,11.263l-4.979,29.973c-1.219,7.337,3.787,14.338,11.125,15.557l6.137,1.02
		c7.337,1.219,14.338-3.787,15.557-11.124l4.763-28.673C244.66,154.955,238.147,150.847,230.454,149.511z"/>
	<path style="fill:#EAB883;" d="M306.776,170.923l17.43,107.886c0.826,5.113,5.638,8.546,10.705,7.728
		c5.09-0.823,8.549-5.616,7.727-10.706l-17.43-107.886c-3.272-20.257-19.549-35.553-39.578-37.196
		c-2.835-0.233-4.733-0.132-5.087-0.111c-0.47,0.03-0.927,0.106-1.374,0.202l2.978,18.43c0.418,0.001,1.086,0.017,1.953,0.087
		C295.551,150.296,304.876,159.165,306.776,170.923z"/>
	<path style="fill:#EAB883;" d="M205.224,170.923l-17.43,107.886c-0.826,5.113-5.638,8.546-10.705,7.728
		c-5.09-0.823-8.549-5.616-7.727-10.706l17.43-107.886c3.272-20.257,19.549-35.553,39.578-37.196
		c2.835-0.233,4.733-0.132,5.087-0.111c0.47,0.03,0.927,0.106,1.374,0.202l-2.978,18.43c-0.418,0.001-1.086,0.017-1.953,0.087
		C216.449,150.296,207.124,159.165,205.224,170.923z"/>
	<g>
		<path style="fill:#EAB883;" d="M395.862,338.835c-6.697,47.813-59.167,74.105-101.396,51.498l55.168,103.035
			c37.145-15.456,69.649-39.821,94.835-70.44C419.762,383.393,406.907,372.071,395.862,338.835z"/>
	</g>
	<g>
		<path style="fill:#EAB883;" d="M116.138,338.835c-11.063,33.289-24.047,44.794-48.607,84.092
			c25.186,30.619,57.691,54.984,94.835,70.44l55.168-103.035C175.309,412.939,122.836,386.65,116.138,338.835z"/>
	</g>
</g>
<g>
</g>
<g>
</g>
<g>
</g>
<g>
</g>
<g>
</g>
<g>
</g>
<g>
</g>
<g>
</g>
<g>
</g>
<g>
</g>
<g>
</g>
<g>
</g>
<g>
</g>
<g>
</g>
<g>
</g>
</svg>
