<?xml version="1.0" encoding="iso-8859-1"?>
<!-- Generator: Adobe Illustrator 21.0.0, SVG Export Plug-In . SVG Version: 6.00 Build 0)  -->
<svg version="1.1" id="Capa_1" xmlns="http://www.w3.org/2000/svg" xmlns:xlink="http://www.w3.org/1999/xlink" x="0px" y="0px"
	 viewBox="0 0 512.107 512.107" style="enable-background:new 0 0 512.107 512.107;" xml:space="preserve">
<g>
	<circle style="fill:#686BDF;" cx="256.054" cy="256" r="256"/>
	<path style="fill:#A0A9F9;" d="M256.053,56.572c-130.084,0-237.619,96.466-255.019,221.761C12.352,409.257,122.195,512,256.054,512
		s243.702-102.743,255.019-233.668C493.673,153.038,386.138,56.572,256.053,56.572L256.053,56.572z"/>
	<path style="fill:#838AED;" d="M107.284,252.398c0-73.68,31.138-140.078,80.96-186.785C90.104,92.338,15.295,175.646,1.034,278.333
		c13.507,156.251,163.997,264.188,317.054,226.086C198.259,483.073,107.284,378.36,107.284,252.398z"/>
	<path style="fill:#686BDF;" d="M420.647,452.059c31.287-37.341,50.134-85.46,50.134-137.987v0
		c0-118.739-96.257-214.996-214.996-214.996h0c-118.739,0-214.996,96.257-214.996,214.996v0c0,51.799,18.322,99.317,48.834,136.434
		C183.963,531.304,324.129,533.172,420.647,452.059z"/>
	<path style="fill:#4352BF;" d="M318.088,504.419C198.259,483.073,107.284,378.36,107.284,252.398
		c0-41.903,10.082-81.444,27.934-116.354c-56.985,38.668-94.428,103.974-94.428,178.028v0c0,51.779,18.308,99.28,48.799,136.39
		c0.205,0.176,0.408,0.353,0.613,0.528C153.845,505.17,238.674,524.189,318.088,504.419z"/>
	<path style="fill:#EAF3F9;" d="M255.806,99.076c-0.007,0-0.014,0-0.014,0h-0.007c-118.74,0-214.997,96.257-214.997,214.996v0
		c0,51.799,18.322,99.316,48.834,136.434c27.186,23.284,59.309,40.963,94.584,51.258c-22.04-19.686-35.92-48.317-35.92-80.194
		c0-59.37,48.129-107.498,107.498-107.498s107.498-48.129,107.498-107.498C363.284,147.211,315.166,99.087,255.806,99.076z"/>
	<path style="fill:#C6E0F4;" d="M148.287,421.57c0-8.801,1.065-17.352,3.061-25.539c-27.812-40.956-44.064-90.396-44.064-143.633
		c0-41.903,10.082-81.444,27.934-116.354c-56.985,38.668-94.429,103.974-94.429,178.028v0c0,51.779,18.308,99.279,48.799,136.39
		c27.852,23.834,60.066,41.216,94.619,51.302C162.167,482.078,148.287,453.447,148.287,421.57z"/>
	
		<ellipse transform="matrix(0.866 -0.5 0.5 0.866 -176.5746 184.5316)" style="fill:#EAF3F9;" cx="256.054" cy="421.759" rx="35.756" ry="35.756"/>
	
		<ellipse transform="matrix(0.866 -0.5 0.5 0.866 -69.0181 155.5684)" style="fill:#686BDF;" cx="255.785" cy="206.574" rx="35.756" ry="35.756"/>
	<path style="fill:#C6E0F4;" d="M256.054,421.759c-6.616-11.46-6.159-25.055,0.003-35.752c-6.078-0.006-12.239,1.528-17.881,4.786
		c-17.102,9.874-22.962,31.742-13.088,48.844c9.874,17.102,31.742,22.962,48.844,13.088c5.642-3.258,10.052-7.825,13.085-13.092
		C274.672,439.62,262.67,433.219,256.054,421.759z"/>
	<path style="fill:#4352BF;" d="M256.018,206.44c-6.589-11.412-6.163-24.942-0.075-35.618c-6.128-0.033-12.345,1.501-18.035,4.786
		c-17.102,9.874-22.962,31.742-13.088,48.844c9.874,17.102,31.742,22.962,48.844,13.088c5.69-3.285,10.127-7.903,13.163-13.226
		C274.536,224.248,262.606,217.852,256.018,206.44z"/>
</g>
<g>
</g>
<g>
</g>
<g>
</g>
<g>
</g>
<g>
</g>
<g>
</g>
<g>
</g>
<g>
</g>
<g>
</g>
<g>
</g>
<g>
</g>
<g>
</g>
<g>
</g>
<g>
</g>
<g>
</g>
</svg>
