<?xml version="1.0" encoding="iso-8859-1"?>
<!-- Generator: Adobe Illustrator 21.0.0, SVG Export Plug-In . SVG Version: 6.00 Build 0)  -->
<svg version="1.1" id="Capa_1" xmlns="http://www.w3.org/2000/svg" xmlns:xlink="http://www.w3.org/1999/xlink" x="0px" y="0px"
	 viewBox="0 0 512.009 512.009" style="enable-background:new 0 0 512.009 512.009;" xml:space="preserve">
<g>
	<circle style="fill:#FA6E62;" cx="240.045" cy="256.004" r="240.036"/>
	<path style="fill:#F4C48B;" d="M502.549,319.294c-2.637-12.958-15.164-21.88-28.557-20.339l-27.901,3.21l-110.804,63.523
		c-10.61,6.083-21.737,11.141-33.22,15.106l179.51-31.345C496.044,346.923,505.425,333.432,502.549,319.294L502.549,319.294z"/>
	<g>
		<path style="fill:#EAB883;" d="M424.368,314.618l-89.081,51.07c-10.61,6.083-21.738,11.14-33.22,15.106l124.499-21.739
			C411.244,348.631,410.156,326.491,424.368,314.618z"/>
	</g>
	<path style="fill:#F7CF9C;" d="M508.476,237.084L508.476,237.084c-6.725-11.789-21.479-16.283-33.634-10.245l-122.846,61.027
		c-8.561,26.31-28.842,61.392-76.278,92.714c-10.35,6.834-22.243,10.755-34.446,11.546l-0.001,0.006c1.065,0,2.12-0.007,3.165-0.021
		c32.269-0.421,63.855-9.371,91.853-25.422l162.219-93C511.353,266.323,515.814,249.947,508.476,237.084z"/>
	<g>
		<path style="fill:#F4C48B;" d="M416.238,319.17c-26.785,0-40.88-31.734-23.303-51.642l-40.94,20.338
			c-8.56,26.31-28.842,61.392-76.278,92.714c-10.35,6.834-22.243,10.754-34.446,11.545l-0.002,0.006c1.065,0,2.12-0.007,3.165-0.02
			c32.27-0.421,63.855-9.371,91.853-25.422l83.175-47.684C418.402,319.113,417.327,319.17,416.238,319.17z"/>
	</g>
	<path style="fill:#F7CF9C;" d="M332.017,201.737c-8.097-13.73-22.589-26.206-38.083-27.952
		c34.502-17.604,34.821-59.729,14.244-53.424c-28.024,8.587-78.563,9.679-102.127,9.688c-8.389,0.003-16.552,2.718-23.284,7.724
		l-64.478,47.939c-21.729,16.156-48.085,24.88-75.162,24.88H4.318c-11.012,57.5-1.052,118.488,30.937,170.675
		c74.067-3.191,157.928,4.727,190.994,10.098c17.544,2.85,35.556-0.944,50.392-10.732c48.902-32.266,68.952-68.538,77.09-95.089
		C361.002,261.816,348.594,228.491,332.017,201.737z M295.016,265.938c-14.168,36.177-50.784,48.729-99.578,8.194
		c-9.889-8.215-12.834-22.128-7.133-33.65c9.461-19.119,22.593-34.255,29.71-41.697c3.107-3.249,7.06-5.562,11.408-6.71
		l38.905-10.27c-8.667,7.911-10.476,19.826-3.758,28.785c3.247,4.331,13.192,11.341,16.486,14.635
		C294.433,238.602,300.038,253.112,295.016,265.938z"/>
	<path style="fill:#EFEFEF;" d="M273.321,133.693c1.337,6.463,7.719,10.657,14.182,9.32l25.787-5.335
		c4-0.827,7.126-3.59,8.615-7.105c-0.934-7.838-5.765-12.654-13.728-10.214c-9.974,3.056-22.802,5.159-36.249,6.605L273.321,133.693
		z"/>
	<g>
		<path style="fill:#F4C48B;" d="M99.993,197.003c-38.181,19.318-68.097,11.924-95.675,13.587
			c-11.012,57.5-1.052,118.488,30.937,170.675c39.991-1.723,82.834-0.207,118.998,2.398
			C71.471,361.714,42.338,259.478,99.993,197.003z"/>
	</g>
	<g>
		<path style="fill:#F4C48B;" d="M258.527,298.752c37.668-2.035,51.712-15.03,59.497-36.553c8.5-23.5-10.5-53-26.5-64
			s-11.5-20.125-11.5-20.125l-11.695,3.732c-8.667,7.911-10.476,19.826-3.758,28.785c3.247,4.331,13.192,11.341,16.486,14.635
			c13.377,13.376,18.982,27.887,13.96,40.713C285.552,290.102,269.332,296.984,258.527,298.752z"/>
		<path style="fill:#F4C48B;" d="M234.747,297.075c3.602,1.259,7.835,1.967,12.806,1.967
			C243.348,299.042,239.045,298.317,234.747,297.075z"/>
	</g>
</g>
<g>
</g>
<g>
</g>
<g>
</g>
<g>
</g>
<g>
</g>
<g>
</g>
<g>
</g>
<g>
</g>
<g>
</g>
<g>
</g>
<g>
</g>
<g>
</g>
<g>
</g>
<g>
</g>
<g>
</g>
</svg>
