<?xml version="1.0" encoding="iso-8859-1"?>
<!-- Generator: Adobe Illustrator 21.0.0, SVG Export Plug-In . SVG Version: 6.00 Build 0)  -->
<svg version="1.1" id="Capa_1" xmlns="http://www.w3.org/2000/svg" xmlns:xlink="http://www.w3.org/1999/xlink" x="0px" y="0px"
	 viewBox="0 0 512 512" style="enable-background:new 0 0 512 512;" xml:space="preserve">
<g>
	<circle style="fill:#AF5B10;" cx="256" cy="265.177" r="246.823"/>
	<path style="fill:#994E04;" d="M52.845,405.363C97.383,469.783,171.756,512,256,512s158.617-42.216,203.155-106.637H52.845z"/>
	<path style="fill:#BBEF89;" d="M432.937,437.242H79.063C123.907,483.347,186.602,512,255.998,512H256
		C325.397,512,388.093,483.348,432.937,437.242z"/>
	<g>
		<path style="fill:#94DC76;" d="M338.736,437.242H79.063C123.907,483.347,186.602,512,255.998,512H256
			c32.392,0,63.322-6.247,91.66-17.592C328.573,481.54,324.52,455.215,338.736,437.242z"/>
	</g>
	<path style="fill:#FA6E62;" d="M315.289,307.047l5.139-96.43l0,0l0,0l0,0l34.097-28.122c2.473-2.04,2.968-5.635,1.138-8.267
		l-32.733-47.072c-4.28-6.155-11.318-9.225-18.29-8.752v-0.071h-29.332h-37.57h-28.696v0.071c-6.972-0.473-14.011,2.597-18.29,8.752
		l0,0l-33.173,47.705c-1.525,2.193-1.191,5.177,0.782,6.978l34.893,31.863l0,0l0,0l5.139,93.346H315.289z"/>
	<g>
		<path style="fill:#FB5C4B;" d="M230.657,296.834V128.545c0-3.968,1.576-7.562,4.126-10.212h-25.741v0.071
			c-6.972-0.473-14.011,2.597-18.29,8.752l-33.173,47.705c-1.525,2.193-1.191,5.176,0.782,6.978l34.893,31.863l5.139,93.346h36.39
			C232.232,304.397,230.657,300.802,230.657,296.834z"/>
	</g>
	<path style="fill:#FB4A34;" d="M238.055,118.333l15.204,34.998c1.466,3.375,6.263,3.346,7.688-0.047l14.678-34.951H238.055z"/>
	<path style="fill:#F7CF9C;" d="M312.199,405.363h-41.177l5.753,105.759c13.962-1.164,27.598-3.475,40.803-6.867L312.199,405.363z"
		/>
	<path style="fill:#EDB87E;" d="M314.09,440.133l-1.892-34.77h-41.177l2.179,40.052C277.536,425.513,304.795,422.101,314.09,440.133
		z"/>
	<path style="fill:#48AEF9;" d="M324.203,397.613l-9.06-90.567c-13.264,0-103.49,0-116.751,0l-9.006,90.031
		c-0.444,4.436,3.04,8.286,7.498,8.286h46.567c2.825,0,5.213-2.094,5.582-4.895l6.846-52.045c0.126-0.954,1.506-0.954,1.632,0
		l6.918,52.597c0.327,2.485,2.446,4.343,4.952,4.343h47.808C321.359,405.363,324.618,401.763,324.203,397.613z"/>
	<g>
		
			<ellipse transform="matrix(0.866 -0.5 0.5 0.866 10.0726 134.9415)" style="fill:#F7CF9C;" cx="256.841" cy="48.675" rx="48.667" ry="48.667"/>
		<path style="fill:#EDB87E;" d="M256.841,48.675c-9.005-15.597-8.383-34.101,0.004-48.661c-8.273-0.008-16.657,2.081-24.337,6.514
			c-23.277,13.439-31.252,43.203-17.813,66.48c13.439,23.277,43.203,31.252,66.48,17.813c7.68-4.434,13.681-10.651,17.81-17.819
			C282.182,72.986,265.846,64.272,256.841,48.675z"/>
	</g>
	<path style="fill:#EDB87E;" d="M228.288,234.539l-49.782-4.425l11.348-19.517l-31.066-28.368l-24.615,42.335
		c-11.077,19.049,1.48,43.098,23.383,44.966c70.686,6.254,67.175,6.045,68.936,6.045c10.532,0.001,19.503-8.049,20.454-18.739
		C247.951,245.528,239.598,235.545,228.288,234.539z"/>
	<g>
		<path style="fill:#F7CF9C;" d="M228.288,234.539l-49.781-4.425l0.102-0.175c-15.368,13.158-39.45-0.179-35.553-20.651
			l-8.882,15.277c-11.075,19.046,1.476,43.098,23.382,44.966c70.624,6.248,67.177,6.045,68.936,6.045
			c10.532,0.001,19.503-8.049,20.454-18.739C247.951,245.528,239.598,235.545,228.288,234.539z"/>
	</g>
	<path style="fill:#EDB87E;" d="M283.712,234.539l49.782-4.425l-11.897-20.461l32.145-26.512l24.085,41.424
		c11.077,19.049-1.48,43.098-23.383,44.966c-70.686,6.254-67.175,6.045-68.936,6.045c-10.532,0.001-19.503-8.049-20.453-18.739
		C264.049,245.528,272.402,235.545,283.712,234.539z"/>
	<g>
		<path style="fill:#F7CF9C;" d="M283.712,234.539l49.781-4.425l-0.102-0.175c15.368,13.158,39.45-0.179,35.553-20.651l8.882,15.277
			c11.075,19.046-1.476,43.098-23.383,44.966c-70.624,6.248-67.177,6.045-68.936,6.045c-10.532,0.001-19.503-8.049-20.454-18.739
			C264.049,245.528,272.402,235.545,283.712,234.539z"/>
	</g>
	<path style="fill:#F7CF9C;" d="M195.828,504.599c13.217,3.311,26.853,5.566,40.818,6.649l5.713-105.885h-41.177L195.828,504.599z"
		/>
	<path style="fill:#EDB87E;" d="M199.291,440.422l1.891-35.059h41.177l-2.179,40.385
		C235.812,425.529,208.525,422.358,199.291,440.422z"/>
	<g>
		<path style="fill:#4C98E0;" d="M257.551,307.046c-7.175,0-52.328,0-59.159,0l-9.006,90.031c-0.444,4.436,3.04,8.286,7.498,8.286
			h46.567c2.825,0,5.213-2.094,5.582-4.895l6.776-51.519C249.948,337.047,250.819,316.493,257.551,307.046z"/>
	</g>
</g>
<g>
</g>
<g>
</g>
<g>
</g>
<g>
</g>
<g>
</g>
<g>
</g>
<g>
</g>
<g>
</g>
<g>
</g>
<g>
</g>
<g>
</g>
<g>
</g>
<g>
</g>
<g>
</g>
<g>
</g>
</svg>
