<?xml version="1.0" encoding="iso-8859-1"?>
<!-- Generator: Adobe Illustrator 21.0.0, SVG Export Plug-In . SVG Version: 6.00 Build 0)  -->
<svg version="1.1" id="Capa_1" xmlns="http://www.w3.org/2000/svg" xmlns:xlink="http://www.w3.org/1999/xlink" x="0px" y="0px"
	 viewBox="0 0 512.019 512.019" style="enable-background:new 0 0 512.019 512.019;" xml:space="preserve">
<g>
	<circle style="fill:#686BDF;" cx="256.01" cy="256" r="256"/>
	<path style="fill:#A3CCEF;" d="M511.429,273.077c-2.866-4.087-4.782-8.714-5.709-13.881c-0.715-31.876-24.796-58.093-55.75-62.157
		c11.958-28.838,1.294-62.802-25.955-79.36c-10.338-8.729-14.372-21.307-11.989-37.403c1.349-9.1-2.936-17.958-10.918-22.568
		c-7.979-4.608-17.797-3.895-25.006,1.824c-12.75,10.113-25.661,12.909-38.387,8.321c-27.966-15.323-62.709-7.577-81.706,17.202
		c-18.996-24.778-53.741-32.521-81.706-17.202c-12.73,4.588-25.637,1.792-38.389-8.321c-7.21-5.717-17.022-6.434-25.002-1.826
		c-7.981,4.607-12.268,13.465-10.921,22.565c2.383,16.099-1.651,28.678-11.989,37.407c-27.249,16.558-37.912,50.522-25.955,79.36
		c-30.954,4.064-55.034,30.281-55.75,62.156c-0.928,5.167-2.843,9.795-5.709,13.882c3.693,56.055,25.422,107.174,59.446,147.618
		c0.669,0.11,1.336,0.222,2.011,0.311c-0.195,0.47-0.367,0.945-0.55,1.417c102.271,119.419,286.724,119.452,389.023,0.001
		c-0.183-0.473-0.355-0.948-0.551-1.418c0.676-0.089,1.344-0.202,2.013-0.311C486.008,380.25,507.736,329.131,511.429,273.077z"/>
	<path style="fill:#85BBEB;" d="M134.739,256c0-77.24,34.21-146.49,88.302-193.427c-15.785-4.592-33.292-3.179-48.736,5.281
		c-12.73,4.588-25.637,1.792-38.389-8.321c-7.21-5.717-17.022-6.434-25.002-1.826c-7.981,4.607-12.268,13.465-10.921,22.565
		c2.383,16.099-1.651,28.678-11.989,37.407c-27.249,16.558-37.912,50.522-25.955,79.36c-30.954,4.064-55.034,30.281-55.75,62.156
		c-0.928,5.167-2.843,9.795-5.709,13.882c3.693,56.055,25.422,107.174,59.446,147.618c0.669,0.11,1.336,0.222,2.011,0.311
		c-0.195,0.47-0.367,0.945-0.55,1.418c65.9,76.951,168.284,106.061,261.865,80.598C214.669,473.443,134.739,374.064,134.739,256z"/>
	<path style="fill:#67AAE6;" d="M422.128,388.31h19.446c17.049,0,30.919-13.87,30.919-30.918c0-0.837,0.064-1.673,0.189-2.5
		c2.875-18.894,12.736-34.673,28.346-45.87c-15.61-11.194-25.471-26.973-28.346-45.869c-0.125-0.827-0.189-1.663-0.189-2.5
		c0-17.049-13.871-30.918-30.919-30.918h-19.446c-12.747,0-20.803-13.832-14.395-24.933l9.724-16.842
		c8.525-14.764,3.447-33.71-11.317-42.235c-0.725-0.418-1.416-0.891-2.07-1.414c-14.925-11.936-23.659-28.366-25.551-47.482
		c-17.501,7.92-36.095,8.572-53.896,1.614c-0.779-0.304-1.534-0.667-2.259-1.086c-14.767-8.525-33.712-3.445-42.235,11.317
		l-9.724,16.842c-6.385,11.057-22.395,11.078-28.79,0l-9.724-16.842c-8.523-14.764-27.468-19.839-42.235-11.317
		c-0.725,0.418-1.48,0.782-2.259,1.086c-17.798,6.958-36.396,6.305-53.897-1.614c-1.891,19.117-10.625,35.546-25.55,47.482
		c-0.654,0.523-1.345,0.996-2.071,1.414c-14.764,8.525-19.842,27.471-11.317,42.235l9.724,16.842
		c6.374,11.041-1.581,24.933-14.395,24.933H70.444c-17.049,0-30.918,13.869-30.918,30.918c0,0.837-0.064,1.673-0.189,2.5
		c-2.875,18.896-12.736,34.674-28.346,45.87c15.611,11.196,25.471,26.974,28.346,45.869c0.125,0.827,0.189,1.663,0.189,2.5
		c0,17.049,13.869,30.918,30.918,30.918h19.447c12.747,0,20.803,13.832,14.395,24.933l-9.724,16.84
		c-3.936,6.817-4.966,14.525-3.487,21.689c38.574,32.531,86.886,53.872,139.948,59.013c0.877-1.349,0.608-0.994,10.593-18.255
		c2.969-5.143,8.456-8.311,14.395-8.311c5.939,0,11.426,3.168,14.395,8.312c10.374,17.936,9.755,16.969,10.591,18.254
		c53.061-5.141,101.374-26.482,139.948-59.013c1.478-7.163,0.448-14.871-3.487-21.689l-9.724-16.84
		C401.359,402.201,409.314,388.31,422.128,388.31z"/>
	<path style="fill:#4C98E0;" d="M189.948,97.2c-0.897,0.506-1.593,0.87-2.55,1.244c-17.798,6.958-36.396,6.305-53.897-1.614
		c-1.891,19.117-10.625,35.546-25.55,47.482c-0.654,0.523-1.345,0.996-2.071,1.414c-14.764,8.525-19.842,27.471-11.317,42.235
		l9.724,16.842c6.374,11.041-1.581,24.933-14.395,24.933H70.444c-17.049,0-30.918,13.869-30.918,30.918
		c0,0.837-0.064,1.673-0.189,2.5c-2.875,18.896-12.736,34.674-28.346,45.87c15.611,11.196,25.471,26.974,28.346,45.869
		c0.125,0.827,0.189,1.663,0.189,2.5c0,17.049,13.869,30.918,30.918,30.918h19.447c12.747,0,20.803,13.832,14.395,24.933
		l-9.724,16.84c-3.934,6.815-4.965,14.519-3.489,21.679c38.488,32.465,86.751,53.856,139.957,59.01
		c0.85-1.308,0.365-0.574,10.585-18.243c2.969-5.143,8.456-8.311,14.395-8.311c5.939,0,11.426,3.168,14.395,8.312
		c10.436,18.044,9.756,16.971,10.591,18.254c14.408-1.497,27.66-3.761,42.367-7.762C147.038,455.039,76.061,241.001,189.948,97.2z"
		/>
	<path style="fill:#BBEF89;" d="M256.01,354.769c-14.936,25.132-36.11,46.996-62.843,63.062
		c-0.574,32.559,7.361,63.634,22.335,90.967c26.855,4.27,54.162,4.27,81.017,0c14.973-27.332,22.909-58.407,22.335-90.968
		C292.12,401.764,270.946,379.9,256.01,354.769z"/>
	<path style="fill:#7DD776;" d="M296.524,508.788c2.206-4.028,4.247-8.159,6.151-12.365
		c-43.136-15.804-80.828-42.884-109.518-77.667c-0.461,31.16,7.115,62.238,22.34,90.033
		C242.161,513.042,269.581,513.084,296.524,508.788z"/>
	<path style="fill:#BBEF89;" d="M256.01,263.277c14.936-25.132,36.11-46.996,62.843-63.062
		c0.893-50.615-18.891-98.309-54.243-133.265c-4.75-4.697-12.449-4.697-17.199,0c-35.286,34.89-55.138,82.557-54.244,133.265
		C219.9,216.281,241.074,238.145,256.01,263.277z"/>
	<path style="fill:#BBEF89;" d="M381.697,309.022c-27.276,15.122-56.805,22.518-86.035,22.893
		c14.284,25.491,22.642,54.747,23.191,85.915c34.284,20.609,73.134,29.111,111.786,25.338
		c12.445-11.617,23.737-24.452,33.671-38.329C449.263,364.569,420.541,330.563,381.697,309.022z"/>
	<path style="fill:#BBEF89;" d="M193.166,200.214c-44.196-26.568-95.4-32.581-142.498-19.676c-6.443,1.765-10.292,8.433-8.6,14.895
		c12.568,47.988,43.9,88.996,88.253,113.589c27.276-15.122,56.805-22.518,86.036-22.893
		C202.073,260.639,193.715,231.383,193.166,200.214z"/>
	<path style="fill:#6DC963;" d="M268.245,330.215c-3.44,8.457-7.544,16.659-12.235,24.554c14.936,25.132,36.11,46.996,62.843,63.062
		c-0.549-31.168-8.907-60.424-23.191-85.915C286.467,332.033,277.301,331.466,268.245,330.215z"/>
	<path style="fill:#6DC963;" d="M243.774,287.83c3.441-8.457,7.544-16.659,12.235-24.554c-14.936-25.132-36.11-46.996-62.843-63.062
		c0.549,31.168,8.907,60.425,23.192,85.915C225.553,286.012,234.718,286.579,243.774,287.83z"/>
	<path style="fill:#BBEF89;" d="M381.697,309.022c44.261-24.544,75.657-65.495,88.253-113.589c1.693-6.462-2.157-13.13-8.599-14.895
		c-46.704-12.797-97.928-7.101-142.498,19.676c-0.549,31.168-8.907,60.424-23.191,85.915
		C324.892,286.504,354.42,293.901,381.697,309.022z"/>
	<path style="fill:#BBEF89;" d="M47.71,404.839c9.933,13.877,21.225,26.712,33.67,38.329c38.556,3.763,77.424-4.68,111.786-25.337
		c0.549-31.168,8.907-60.425,23.191-85.915c-29.23-0.375-58.759-7.771-86.035-22.893C91.581,330.505,62.797,364.461,47.71,404.839z"
		/>
	<path style="fill:#7DD776;" d="M192.651,418.143c-24.304-29.651-42.088-64.851-51.142-103.42
		c-3.765-1.764-7.498-3.656-11.187-5.701c-38.732,21.478-67.517,55.426-82.607,95.804c3.998,5.586,8.613,11.476,12.327,15.869
		c0.667,0.109,1.333,0.222,2.006,0.31c-0.192,0.463-0.362,0.932-0.542,1.398c6.107,7.126,12.631,13.983,19.893,20.766
		C121.209,447.052,160.988,437.515,192.651,418.143z"/>
	<path style="fill:#6DC963;" d="M256.01,263.277c4.692,7.895,8.795,16.096,12.235,24.553c9.056-1.25,18.221-1.818,27.416-1.701
		c14.285-25.491,22.643-54.747,23.191-85.915C292.12,216.281,270.946,238.145,256.01,263.277z"/>
	<path style="fill:#6DC963;" d="M256.01,354.769c-4.692-7.895-8.795-16.097-12.236-24.554c-9.056,1.25-18.222,1.819-27.416,1.701
		c-14.285,25.491-22.643,54.747-23.191,85.915C219.9,401.764,241.073,379.901,256.01,354.769z"/>
	<path style="fill:#6DC963;" d="M280.48,309.022c5.611,7.218,10.686,14.871,15.181,22.893c29.23-0.375,58.759-7.771,86.036-22.893
		c-27.277-15.122-56.805-22.518-86.036-22.893C291.166,294.151,286.092,301.805,280.48,309.022z"/>
	<path style="fill:#6DC963;" d="M231.539,309.022c-5.611-7.217-10.686-14.871-15.181-22.893
		c-29.23,0.375-58.759,7.771-86.036,22.893c27.276,15.122,56.805,22.518,86.035,22.893
		C220.853,323.893,225.928,316.24,231.539,309.022z"/>
	<path style="fill:#4EA83F;" d="M295.661,286.129c-9.195-0.118-18.36,0.45-27.416,1.701c-3.44-8.457-7.544-16.659-12.235-24.553
		c-4.692,7.895-8.795,16.097-12.235,24.554c-9.056-1.251-18.221-1.819-27.416-1.701c4.495,8.022,9.57,15.676,15.181,22.893
		c-5.611,7.218-10.686,14.871-15.181,22.893c9.195,0.118,18.36-0.45,27.416-1.701c3.44,8.457,7.544,16.659,12.236,24.554
		c4.692-7.895,8.795-16.097,12.235-24.554c9.056,1.251,18.221,1.819,27.416,1.701c-4.495-8.022-9.57-15.676-15.181-22.893
		C286.092,301.805,291.166,294.151,295.661,286.129z"/>
	<path style="fill:#7DD776;" d="M130.322,309.022c2.967-1.645,5.966-3.181,8.983-4.645c-7.749-40.51-5.757-83.468,6.849-124.184
		c-31.749-8.499-64.71-8.088-95.486,0.344c-6.443,1.765-10.292,8.433-8.6,14.895C54.278,242.051,84.761,283.761,130.322,309.022z"/>
</g>
<g>
</g>
<g>
</g>
<g>
</g>
<g>
</g>
<g>
</g>
<g>
</g>
<g>
</g>
<g>
</g>
<g>
</g>
<g>
</g>
<g>
</g>
<g>
</g>
<g>
</g>
<g>
</g>
<g>
</g>
</svg>
