<?xml version="1.0" encoding="iso-8859-1"?>
<!-- Generator: Adobe Illustrator 21.0.0, SVG Export Plug-In . SVG Version: 6.00 Build 0)  -->
<svg version="1.1" id="Capa_1" xmlns="http://www.w3.org/2000/svg" xmlns:xlink="http://www.w3.org/1999/xlink" x="0px" y="0px"
	 viewBox="0 0 512.003 512.003" style="enable-background:new 0 0 512.003 512.003;" xml:space="preserve">
<g>
	<circle style="fill:#838AED;" cx="256.002" cy="256.003" r="256"/>
	<path style="fill:#686BDF;" d="M0.002,256.003c0,141.385,114.615,256,256,256c141.385,0,256-114.615,256-256
		c0-22.83-3.005-44.955-8.612-66.018H8.613C3.007,211.048,0.002,233.173,0.002,256.003z"/>
	<path style="fill:#4352BF;" d="M274.327,256.003c0-22.83,3.005-44.955,8.612-66.018H8.613c-5.607,21.064-8.612,43.189-8.612,66.018
		c0,141.385,114.615,256,256,256c50.465,0,97.513-14.61,137.163-39.819C321.73,426.765,274.327,346.923,274.327,256.003z"/>
	<path style="fill:#A3CCEF;" d="M295.658,372.458L295.658,372.458L295.658,372.458L295.658,372.458l-24.63,26.093
		c-3.147,3.334-7.529,5.224-12.114,5.224H49.361c-8.377,0-15.49,6.589-15.641,14.965c-0.163,9.012,7.093,16.368,16.067,16.368
		h245.681c17.352,0,31.419-14.067,31.419-31.419l0,0C326.888,386.44,312.906,372.458,295.658,372.458z"/>
	<path style="fill:#EAF3F9;" d="M322.099,420.355l30.293-43.524c-9.898-20.838-31.13-35.249-55.734-35.249H195.604
		c-5.857,0-9.299-6.583-5.957-11.393L357.43,88.675l0,0H244.028c-16.891,0-30.373,9.365-39.946,22.332L8.529,392.394
		c8.483-12.053,22.493-19.936,38.351-19.936h248.778c17.248,0,31.23,13.982,31.23,31.23v0
		C326.888,409.812,325.13,415.523,322.099,420.355z"/>
	<g>
		<path style="fill:#C6E0F4;" d="M352.392,376.831L322.1,420.353c-5.556,8.859-15.403,14.754-26.631,14.754H49.788
			c-8.974,0-16.23-7.356-16.067-16.368c0.151-8.376,7.264-14.965,15.641-14.965h209.552c4.585,0,8.967-1.89,12.114-5.224
			l24.63-26.093H46.88c-15.859,0-29.868,7.883-38.351,19.936l-0.011-0.007c-5.366,7.624-8.516,16.919-8.516,26.95v0
			c0,27.015,21.9,48.916,48.916,48.916h244.418c23.912,0,44.808-12.913,56.096-32.146c5.657-9.639,8.901-20.866,8.901-32.851
			C358.332,393.798,356.196,384.841,352.392,376.831z"/>
	</g>
	<path style="fill:#67AAE6;" d="M322.099,420.355l30.293-43.524c0-0.588-0.009-1.169-0.028-1.744
		c-0.76-23.636-20.625-42.185-44.273-42.185c-24.618,0-224.066,0-246.9,0c-4.164,0-8.23,0.42-12.161,1.212L8.529,392.393
		c8.483-12.052,22.493-19.935,38.351-19.935h248.778c17.248,0,31.23,13.982,31.23,31.23l0,0
		C326.888,409.813,325.13,415.523,322.099,420.355z"/>
	<path style="fill:#C6E0F4;" d="M507.577,208.464c-11.338-60.369-43.857-113.263-89.557-150.665h-32.217
		c-4.337,0-8.399,2.124-10.874,5.686L189.646,330.19c-3.342,4.81,0.101,11.392,5.958,11.392h101.054
		c34.062,0,61.674,27.612,61.674,61.674c0,11.985-3.244,23.211-8.901,32.851L507.577,208.464z"/>
	<path style="fill:#A3CCEF;" d="M421.387,332.53c-1.423-37.339-32.125-67.177-69.813-67.177H237.071
		c-0.767,0-1.492-0.109-2.178-0.293l-45.247,65.13c-3.342,4.81,0.101,11.392,5.958,11.392h101.054
		c34.062,0,61.674,27.612,61.674,61.674c0,11.985-3.244,23.211-8.901,32.851L421.387,332.53z"/>
	<path style="fill:#4C98E0;" d="M392.455,374.175c-2.175-40.211-35.464-72.149-76.218-72.149H209.212l-19.565,28.163
		c-3.342,4.81,0.1,11.392,5.957,11.392h101.054c34.062,0,61.674,27.612,61.674,61.674c0,11.985-3.244,23.211-8.901,32.851
		L392.455,374.175z"/>
	<path style="fill:#A3CCEF;" d="M295.658,276.663L295.658,276.663L295.658,276.663L295.658,276.663l-24.63,26.093
		c-3.147,3.334-7.529,5.224-12.114,5.224H49.361c-8.377,0-15.49,6.589-15.641,14.965c-0.163,9.011,7.093,16.368,16.067,16.368
		h245.681c17.352,0,31.419-14.067,31.419-31.419l0,0C326.888,290.645,312.906,276.663,295.658,276.663z"/>
	<path style="fill:#EAF3F9;" d="M342.149,14.877C301.669,0.413,258.07-3.556,215.543,3.197c-4.28,3.406-8.115,7.483-11.461,12.016
		L8.529,296.599c8.483-12.053,22.493-19.935,38.351-19.935h248.778c17.248,0,31.23,13.982,31.23,31.23l0,0
		c0,6.125-1.759,11.835-4.789,16.668l30.293-43.525c-9.898-20.838-31.13-35.248-55.734-35.248H195.604
		c-5.857,0-9.299-6.583-5.958-11.393L342.149,14.877z"/>
	<path style="fill:#C6E0F4;" d="M296.658,245.788H195.604c-5.857,0-9.299-6.583-5.958-11.393l19.51-28.083H82.006
		c-3.965,0-7.828,0.426-11.564,1.198L8.529,296.599c8.483-12.053,22.493-19.935,38.351-19.935h248.778
		c17.248,0,31.23,13.982,31.23,31.23c0,6.125-1.759,11.835-4.789,16.668l30.293-43.525
		C342.494,260.198,321.262,245.788,296.658,245.788z"/>
	<g>
		<path style="fill:#C6E0F4;" d="M352.392,281.036L322.1,324.558c-5.556,8.859-15.403,14.754-26.631,14.754H49.788
			c-8.974,0-16.23-7.356-16.067-16.368c0.151-8.376,7.264-14.965,15.641-14.965h209.552c4.585,0,8.967-1.89,12.114-5.224
			l24.63-26.093H46.88c-15.859,0-29.868,7.883-38.351,19.936l-0.011-0.008c-5.366,7.624-8.516,16.919-8.516,26.951v0
			c0,27.016,21.9,48.916,48.916,48.916h244.418c23.912,0,44.808-12.913,56.096-32.146c5.657-9.639,8.901-20.866,8.901-32.851
			C358.332,298.004,356.196,289.047,352.392,281.036z"/>
	</g>
	<g>
		<path style="fill:#A3CCEF;" d="M63.782,339.312H49.788c-8.974,0-16.23-7.356-16.067-16.368
			c0.151-8.375,7.264-14.965,15.641-14.965h14.459c1.437-4.084,3.417-7.911,5.864-11.388l0.01,0.007
			c8.483-12.053,22.493-19.935,38.351-19.935H46.88c-15.859,0-29.868,7.883-38.351,19.935l-0.01-0.007
			c-5.366,7.624-8.517,16.919-8.517,26.951l0,0c0,27.016,21.9,48.916,48.916,48.916h61.166
			C88.589,372.458,70.345,358.587,63.782,339.312z"/>
	</g>
	<path style="fill:#F9918F;" d="M322.099,324.561l30.293-43.525c0-0.588-0.009-1.169-0.028-1.744
		c-0.76-23.636-20.625-42.185-44.273-42.185c-24.618,0-224.066,0-246.9,0c-4.164,0-8.23,0.42-12.161,1.212L8.529,296.599
		c8.483-12.052,22.493-19.935,38.351-19.935h248.778c17.248,0,31.23,13.982,31.23,31.23l0,0
		C326.888,314.018,325.13,319.729,322.099,324.561z"/>
	<path style="fill:#C6E0F4;" d="M486.068,143.63C456.896,84.017,405.243,37.421,342.149,14.877L189.646,234.395
		c-3.342,4.81,0.101,11.393,5.958,11.393h101.054c34.062,0,61.674,27.612,61.674,61.674c0,11.984-3.244,23.212-8.901,32.851
		L486.068,143.63z"/>
	<path style="fill:#A3CCEF;" d="M416.505,243.763c-2.396-38.944-34.723-69.792-74.27-69.792H231.623l-41.977,60.423
		c-3.342,4.81,0.101,11.393,5.958,11.393h101.054c34.062,0,61.674,27.612,61.674,61.674c0,11.984-3.244,23.212-8.901,32.851
		L416.505,243.763z"/>
	<path style="fill:#FB5C4B;" d="M392.455,278.381c-2.175-40.211-35.464-72.149-76.218-72.149H209.212l-19.565,28.163
		c-3.342,4.81,0.1,11.393,5.957,11.393h101.054c34.062,0,61.674,27.612,61.674,61.674c0,11.985-3.244,23.211-8.901,32.851
		L392.455,278.381z"/>
	<g>
		<path style="fill:#85BBEB;" d="M60.875,324.561c0-5.829,1.044-11.414,2.951-16.581H49.361c-8.377,0-15.49,6.589-15.641,14.965
			c-0.163,9.012,7.093,16.368,16.067,16.368h13.994C62.278,334.664,60.875,329.71,60.875,324.561z"/>
	</g>
	<g>
		<path style="fill:#A3CCEF;" d="M63.782,435.107H49.788c-8.974,0-16.23-7.356-16.067-16.368
			c0.151-8.376,7.264-14.965,15.641-14.965h14.459c1.437-4.083,3.417-7.911,5.864-11.388l0.01,0.007
			c8.483-12.053,22.493-19.936,38.351-19.936H46.88c-15.859,0-29.868,7.883-38.351,19.936l-0.01-0.007
			c-5.366,7.624-8.517,16.919-8.517,26.951l0,0c0,27.016,21.9,48.916,48.916,48.916h61.166
			C88.589,468.253,70.345,454.382,63.782,435.107z"/>
	</g>
	<g>
		<path style="fill:#85BBEB;" d="M60.875,420.355c0-5.829,1.044-11.414,2.951-16.581H49.361c-8.377,0-15.49,6.589-15.641,14.965
			c-0.163,9.012,7.093,16.368,16.067,16.368h13.994C62.278,430.459,60.875,425.504,60.875,420.355z"/>
	</g>
</g>
<g>
</g>
<g>
</g>
<g>
</g>
<g>
</g>
<g>
</g>
<g>
</g>
<g>
</g>
<g>
</g>
<g>
</g>
<g>
</g>
<g>
</g>
<g>
</g>
<g>
</g>
<g>
</g>
<g>
</g>
</svg>
