<?xml version="1.0" encoding="iso-8859-1"?>
<!-- Generator: Adobe Illustrator 21.0.0, SVG Export Plug-In . SVG Version: 6.00 Build 0)  -->
<svg version="1.1" id="Capa_1" xmlns="http://www.w3.org/2000/svg" xmlns:xlink="http://www.w3.org/1999/xlink" x="0px" y="0px"
	 viewBox="0 0 512 512" style="enable-background:new 0 0 512 512;" xml:space="preserve">
<g>
	<circle style="fill:#7DD776;" cx="256" cy="256" r="256"/>
	<path style="fill:#5CBA4F;" d="M23.4,363.035C63.928,450.963,152.83,512,256,512s192.072-61.037,232.601-148.964H23.4z"/>
	<g>
		<path style="fill:#4EA83F;" d="M310.454,363.035H23.4C63.928,450.963,152.83,512,256,512c11.879,0,23.565-0.819,35.013-2.385
			C210.696,491.294,219.465,363.035,310.454,363.035z"/>
	</g>
	<path style="fill:#EAF3F9;" d="M337.869,55.321c-56.677,22.51-118.47,25.083-183.166,25.083c-28.012,0-55.48-0.486-82.224-2.86
		C27.632,123.655,0,186.596,0,256c0,67.504,26.14,128.893,68.834,174.632c27.892-2.665,56.581-3.2,85.868-3.2
		c64.696,0,126.489,2.572,183.166,25.083c9.728,3.863,19.294-5.702,15.43-15.43c-22.51-56.677-25.083-118.47-25.083-183.166
		c0-64.696,2.573-126.488,25.083-183.166C357.162,61.023,347.597,51.458,337.869,55.321z"/>
	<g>
		<path style="fill:#C6E0F4;" d="M139.012,253.917c0-61.205-2.314-119.809-21.622-173.945c-15.168-0.396-30.154-1.118-44.912-2.429
			C27.632,123.655,0,186.596,0,256c0,67.504,26.14,128.893,68.834,174.632c15.935-1.523,32.137-2.336,48.554-2.766
			C136.697,373.73,139.012,315.124,139.012,253.917z"/>
	</g>
	<path style="fill:#686BDF;" d="M2.818,217.959h325.778c0.559-22.779,1.871-45.13,4.722-66.956H22.458
		C13.016,171.972,6.321,194.444,2.818,217.959z"/>
	<path style="fill:#4352BF;" d="M133.882,151.003H22.479c-9.829,21.829-16.281,44.289-19.661,66.956h135.806
		C138.06,195.18,136.743,172.827,133.882,151.003z"/>
	<path style="fill:#686BDF;" d="M20.491,356.5h312.827c-2.851-21.825-4.163-44.177-4.722-66.956H2.188
		C5.26,313.012,11.509,335.478,20.491,356.5z"/>
	<path style="fill:#4352BF;" d="M133.926,356.5c2.844-21.825,4.15-44.177,4.706-66.956H2.197c2.969,22.624,8.97,45.12,18.299,66.956
		H133.926z"/>
	<path style="fill:#EAF3F9;" d="M449.12,314.258c0-45.126,1.795-88.226,17.495-127.759c2.695-6.785-3.977-13.457-10.762-10.762
		c-39.533,15.701-82.634,17.495-127.759,17.495c-45.125,0-88.227-1.795-127.759-17.495c-6.786-2.695-13.458,3.977-10.763,10.763
		c15.701,39.533,17.496,82.633,17.496,127.759s-1.794,88.227-17.496,127.759c-2.695,6.786,3.977,13.458,10.763,10.763
		c39.533-15.701,82.634-17.495,127.759-17.495c45.126,0,88.227,1.794,127.759,17.495c6.785,2.695,13.457-3.977,10.762-10.762
		C450.914,402.484,449.12,359.383,449.12,314.258z"/>
	<g>
		<path style="fill:#C6E0F4;" d="M328.563,314.258c0-42.607-1.606-83.408-15.002-121.106c-39.851-0.471-77.96-3.409-113.227-17.416
			c-6.786-2.695-13.458,3.978-10.763,10.763c15.701,39.533,17.496,82.633,17.496,127.759c0,45.126-1.795,88.227-17.496,127.759
			c-2.695,6.786,3.977,13.458,10.763,10.763c35.267-14.007,73.376-16.944,113.227-17.415
			C326.956,397.667,328.563,356.866,328.563,314.258z"/>
	</g>
	<path style="fill:#67AAE6;" d="M203.419,241.906c2.041,15.364,2.979,31.103,3.378,47.148H449.39
		c0.399-16.045,1.337-31.784,3.378-47.148H203.419z"/>
	<path style="fill:#4C98E0;" d="M324.911,241.906H203.419c2.952,22.222,3.319,45.885,3.378,47.146l121.492,0.003
		C327.89,273.01,326.953,257.27,324.911,241.906z"/>
	<path style="fill:#67AAE6;" d="M449.39,339.462H206.797c-0.399,16.044-1.337,31.784-3.378,47.148h249.349
		C450.727,371.245,449.789,355.506,449.39,339.462z"/>
	<path style="fill:#4C98E0;" d="M328.289,339.462H206.797c-0.091,1.62-0.353,24.376-3.378,47.147h121.492
		C326.953,371.246,327.89,355.506,328.289,339.462z"/>
</g>
<g>
</g>
<g>
</g>
<g>
</g>
<g>
</g>
<g>
</g>
<g>
</g>
<g>
</g>
<g>
</g>
<g>
</g>
<g>
</g>
<g>
</g>
<g>
</g>
<g>
</g>
<g>
</g>
<g>
</g>
</svg>
