<?xml version="1.0" encoding="iso-8859-1"?>
<!-- Generator: Adobe Illustrator 21.0.0, SVG Export Plug-In . SVG Version: 6.00 Build 0)  -->
<svg version="1.1" id="Capa_1" xmlns="http://www.w3.org/2000/svg" xmlns:xlink="http://www.w3.org/1999/xlink" x="0px" y="0px"
	 viewBox="0 0 497.759 497.759" style="enable-background:new 0 0 497.759 497.759;" xml:space="preserve">
<g>
	<circle style="fill:#686BDF;" cx="248.879" cy="248.879" r="248.879"/>
	<path style="fill:#EAF3F9;" d="M381.479,403.388c-5.216-19.972,1.264-41.033,16.444-55.021
		c39.804-36.678,64.744-89.24,64.744-147.634C462.667,89.871,372.796,0,261.934,0C157.356,0,63.785,72.291,53.675,173.706
		c-1.777,17.82,3.455,29.481,4.727,35.574c2.658,9.798,0.394,20.274-6.079,28.095C31.957,261.98,9.115,291.132,9.115,298.108
		c0,10.776,26.424,20.714,34.021,23.348c1.211,0.42,2.02,1.557,2.02,2.838l0,17.896c0,1.427,0.64,2.779,1.744,3.684l12.466,10.222
		c2.717,2.228,0.545,5.378,0.214,7.946c-1.137,4.51,0.223,9.283,3.567,12.516c4.506,5.473,17.669,12.507,17.669,29.208
		c0.607,5.797-2.959,23.403,9.848,42.187h0c6.301,9.241,16.512,15.231,27.685,15.729c9.815,0.438,19.721-1.05,29.125-4.327
		l24.195-8.432c3.94-1.373,8.302,0.23,10.414,3.829l13.882,23.651c2.062,3.512,2.95,7.522,3.083,11.592
		c0.034,1.024,0.264,1.997,0.646,2.889c15.9,3.193,32.347,4.874,49.188,4.874c54.134,0,104.223-17.292,145.067-46.641
		L381.479,403.388z"/>
	<g>
		<path style="fill:#C6E0F4;" d="M225.962,478.403l-13.882-31.651c-2.112-3.599-6.474-5.202-10.414-3.829l-23.648,8.241
			c1.654,0.717,3.095,1.94,4.062,3.588l13.882,23.651c2.062,3.512,2.95,7.522,3.083,11.592c0.034,1.024,0.264,1.997,0.646,2.889
			c9.464,1.9,19.125,3.251,28.944,4.045C228.178,489.85,227.328,480.729,225.962,478.403z"/>
	</g>
	<path style="fill:#C6E0F4;" d="M143.347,454.682c-11.173-0.498-21.384-6.488-27.685-15.729h0
		c-6.416-9.41-4.848-11.535-4.848-22.925v-10.262c0-16.197-12.333-23.14-15.565-27.174c-19.802-17.446-20.094-36.402-20.094-36.402
		l0-17.896c0-1.281-0.809-2.419-2.02-2.838c-7.597-2.634-34.021-12.572-34.021-23.348c0-6.975,22.843-36.127,43.208-60.733
		c6.473-7.821,8.737-18.297,6.079-28.095c-1.298-6.213-6.499-17.801-4.727-35.574c9.61-96.405,94.641-166.484,192.85-173.175
		C271.705,0.185,266.842,0,261.934,0C157.356,0,63.785,72.291,53.675,173.706c-1.777,17.82,3.455,29.481,4.727,35.574
		c2.658,9.798,0.394,20.274-6.079,28.095C31.957,261.98,9.115,291.132,9.115,298.108c0,10.776,26.424,20.714,34.021,23.348
		c1.211,0.42,2.02,1.557,2.02,2.838l0,17.896c0,1.427,0.64,2.779,1.744,3.684l12.466,10.222c2.717,2.228,0.545,5.378,0.214,7.946
		c-1.137,4.51,0.223,9.283,3.567,12.516c4.506,5.473,17.669,12.507,17.669,29.208c0.607,5.797-2.959,23.403,9.848,42.187h0
		c6.301,9.241,16.512,15.231,27.685,15.729c9.815,0.438,19.721-1.05,29.125-4.327l17.267-6.018
		C157.324,454.49,149.376,454.951,143.347,454.682z"/>
	<path style="fill:#67AAE6;" d="M288.666,111.779l-24.319,25.305l-24.319-25.305C196.798,66.798,120.78,97.31,120.78,159.79
		c0,62.498,75.951,93.063,119.248,48.011l24.319-25.305l24.319,25.305c43.231,44.984,119.248,14.463,119.248-48.011
		C407.914,97.406,331.957,66.728,288.666,111.779z M217.339,185.997c-23.587,24.543-65.09,7.84-65.09-26.207
		c0-33.923,41.405-50.853,65.09-26.207l25.187,26.207L217.339,185.997z M311.355,185.997l-25.187-26.207l25.187-26.207
		c23.584-24.54,65.09-7.843,65.09,26.207C376.446,193.826,334.95,210.547,311.355,185.997z"/>
	<path style="fill:#4C98E0;" d="M286.169,159.79c22.593-22.168,26.474-30.971,39.709-35.728
		c-7.569-1.756-13.215-8.526-13.215-16.629c0-6.532,3.668-12.203,9.053-15.078c-11.847,2.96-23.281,9.257-33.05,19.423
		l-24.319,25.305l-24.319-25.305C196.798,66.798,120.78,97.31,120.78,159.79c0,62.498,75.951,93.063,119.248,48.011l24.319-25.305
		 M217.339,185.997c-23.587,24.543-65.09,7.84-65.09-26.207c0-33.923,41.405-50.853,65.09-26.207l25.187,26.207L217.339,185.997z"/>
	<path style="fill:#7DD776;" d="M407.914,159.79c-4.093,16.158-26.967,16.386-31.382,0.313l-0.086-0.313
		c0,34.036-41.496,50.757-65.09,26.206l-25.187-26.206c-1.765-1.836-43.583-45.349-46.141-48.011
		c-43.23-44.982-119.247-14.47-119.247,48.011l0.013-0.059c3.826-16.744,27.691-16.699,31.455,0.059l0,0
		c0-33.923,41.405-50.853,65.09-26.207c6.978,7.261,63.598,66.175,71.327,74.218C331.897,252.786,407.914,222.265,407.914,159.79z"
		/>
	<g>
		<path style="fill:#5CBA4F;" d="M312.58,212.423c0-8.4,6.168-15.34,14.218-16.59c-5.535-1.824-10.831-5.039-15.442-9.837
			l-25.187-26.206c-1.586-1.65-43.593-45.36-46.141-48.012c-43.23-44.981-119.248-14.47-119.248,48.012l0.013-0.059
			c3.826-16.744,27.691-16.699,31.455,0.059c0-33.924,41.405-50.853,65.09-26.207c6.86,7.138,63.667,66.247,71.327,74.218
			c9.612,10.002,20.847,16.263,32.505,19.278C316.047,224.199,312.58,218.72,312.58,212.423z"/>
	</g>
</g>
<g>
</g>
<g>
</g>
<g>
</g>
<g>
</g>
<g>
</g>
<g>
</g>
<g>
</g>
<g>
</g>
<g>
</g>
<g>
</g>
<g>
</g>
<g>
</g>
<g>
</g>
<g>
</g>
<g>
</g>
</svg>
