<?xml version="1.0" encoding="iso-8859-1"?>
<!-- Generator: Adobe Illustrator 21.0.0, SVG Export Plug-In . SVG Version: 6.00 Build 0)  -->
<svg version="1.1" id="Capa_1" xmlns="http://www.w3.org/2000/svg" xmlns:xlink="http://www.w3.org/1999/xlink" x="0px" y="0px"
	 viewBox="0 0 512 512" style="enable-background:new 0 0 512 512;" xml:space="preserve">
<g>
	<circle style="fill:#7DD776;" cx="256" cy="256" r="256"/>
	<path style="fill:#5CBA4F;" d="M5.645,309.631C30.297,425.265,133.012,512,256,512s225.703-86.735,250.355-202.369H5.645z"/>
	<g>
		<path style="fill:#4EA83F;" d="M287.49,309.631H5.645C30.297,425.265,133.012,512,256,512c9.712,0,19.298-0.544,28.729-1.597
			C210.582,468.214,213.207,350.141,287.49,309.631z"/>
	</g>
	<path style="fill:#CFF9A2;" d="M164.693,372.502c-28.8-125.596-16.159-225.404-8.896-264.376c0.431-2.314-2.409-4.015-3.272-1.958
		c-41.485,98.784-35.039,211.603-28.325,266.335H164.693z"/>
	<g>
		<path style="fill:#BBEF89;" d="M146.689,215.241c-2.542,2.9-6.264,4.741-10.424,4.741c-5.06,0-9.473-2.718-11.896-6.765
			c-8.724,64.37-4.505,123.941-0.169,159.285h40.493C151.064,313.067,146.718,259.412,146.689,215.241z"/>
	</g>
	<path style="fill:#CFF9A2;" d="M78.486,372.503h34.117c0.938,0,1.634-0.867,1.424-1.78
		c-3.35-14.578-29.021-115.462-111.634-182.864c-1.345-1.097-3.139,0.667-2.067,2.033c18.824,23.984,63.003,88.581,76.722,181.365
		C77.154,371.97,77.764,372.503,78.486,372.503z"/>
	<g>
		<path style="fill:#BBEF89;" d="M114.028,370.722c-2.223-9.675-14.286-57.363-46.29-108.048c0.021,0.29,0.044,0.58,0.044,0.875
			c0,6.584-5.338,11.922-11.922,11.922c-2.472,0-4.768-0.752-6.671-2.04c11.804,27.463,22.318,60.342,27.86,97.824
			c0.35,2.369,1.729,0.739,35.555,1.247C113.541,372.503,114.238,371.636,114.028,370.722z"/>
	</g>
	<path style="fill:#CFF9A2;" d="M108.049,372.503h39.007c1.072,0,1.868-1.276,1.628-2.621
		c-3.831-21.463-33.181-169.988-127.636-269.22c-1.538-1.615-3.588,0.983-2.363,2.993c21.523,35.311,72.035,130.412,87.719,267.012
		C106.526,371.719,107.224,372.503,108.049,372.503z"/>
	<g>
		<path style="fill:#BBEF89;" d="M148.685,369.882c-2.443-13.691-15.277-79.087-48.764-150.408
			c-0.856,7.941-7.577,14.125-15.745,14.125c-2.949,0-5.7-0.821-8.065-2.224c12.858,39.46,24.203,86.245,30.294,139.293
			c0.121,1.051,0.819,1.835,1.644,1.835h39.007C148.128,372.503,148.925,371.226,148.685,369.882z"/>
	</g>
	<path style="fill:#585877;" d="M437.741,436.28c30.78-31.028,53.659-69.896,65.398-113.342
		c-17.821-7.852-40.018-14.642-65.462-20.009c-74.475,14.656-173.489,12.875-242.688-6.49
		c-88.406,12.472-150.05,40.538-150.05,73.17C44.939,434.046,272.24,471.219,437.741,436.28z"/>
	<g>
		<path style="fill:#50506D;" d="M342.886,312.498c-47.984,0.941-102.585-3.379-147.896-16.059
			c-88.406,12.472-150.05,40.538-150.05,73.17c0,55.793,174.545,93.673,336.906,75.522
			C308.538,425.572,286.747,354.19,342.886,312.498z"/>
	</g>
	<path style="fill:#656582;" d="M510.952,279.091c0.68-7.607,1.048-15.306,1.048-23.09c0-12.906-0.965-25.586-2.809-37.978
		c-27.783-16.037-76.407-27.938-134.331-32.042c-40.008,8.414-88.68,9.325-129.073,4.194c-70.68,10.165-119.84,32.712-119.84,58.901
		c0,35.712,91.401,64.663,204.151,64.663C408.64,313.739,476.81,299.687,510.952,279.091z"/>
	<path style="fill:#585877;" d="M324.252,192.538c-25.413,1.549-52.8,0.896-78.465-2.364c-70.68,10.165-119.84,32.712-119.84,58.901
		c0,35.712,91.401,64.663,204.151,64.663c5.744,0,11.424-0.084,17.048-0.231C260.885,289.468,248.806,225.497,324.252,192.538z"/>
	<path style="fill:#585877;" d="M364.934,111.468c-34.829,8.813-82.629,7.476-113.073-3.016
		c-54.573,6.012-93.759,22.435-93.759,41.768c0,24.425,62.513,44.226,139.626,44.226s139.626-19.8,139.626-44.226
		C437.354,133.516,408.09,118.99,364.934,111.468z"/>
	<g>
		<path style="fill:#50506D;" d="M313.585,117.288c-19.955,0-43.036-2.396-61.724-8.837c-54.573,6.012-93.759,22.435-93.759,41.769
			c0,30.434,93.721,51.12,182.321,42.116C286.069,181.96,270.712,140.156,313.585,117.288z"/>
	</g>
	<ellipse style="fill:#656582;" cx="313.502" cy="87.743" rx="87.771" ry="30.654"/>
	<g>
		<path style="fill:#585877;" d="M311.385,57.099c-47.496,0.393-85.654,13.962-85.654,30.645c0,16.682,38.158,30.251,85.654,30.644
			C270.736,105.423,270.686,70.08,311.385,57.099z"/>
	</g>
	
		<ellipse transform="matrix(0.3962 -0.9182 0.9182 0.3962 51.02 529.8907)" style="fill:#767691;" cx="428.387" cy="226.155" rx="15.036" ry="15.036"/>
	
		<ellipse transform="matrix(0.3962 -0.9182 0.9182 0.3962 21.7763 512.2292)" style="fill:#767691;" cx="400.339" cy="239.558" rx="8.475" ry="8.475"/>
</g>
<g>
</g>
<g>
</g>
<g>
</g>
<g>
</g>
<g>
</g>
<g>
</g>
<g>
</g>
<g>
</g>
<g>
</g>
<g>
</g>
<g>
</g>
<g>
</g>
<g>
</g>
<g>
</g>
<g>
</g>
</svg>
