<?xml version="1.0" encoding="iso-8859-1"?>
<!-- Generator: Adobe Illustrator 21.0.0, SVG Export Plug-In . SVG Version: 6.00 Build 0)  -->
<svg version="1.1" id="Capa_1" xmlns="http://www.w3.org/2000/svg" xmlns:xlink="http://www.w3.org/1999/xlink" x="0px" y="0px"
	 viewBox="0 0 512 512" style="enable-background:new 0 0 512 512;" xml:space="preserve">
<g>
	<circle style="fill:#994E04;" cx="256" cy="256" r="256"/>
	<g>
		<path style="fill:#EAF3F9;" d="M123.152,142.989c-5.249,0-9.505-4.255-9.505-9.505V66.345c0-5.25,4.255-9.505,9.505-9.505
			c5.249,0,9.505,4.255,9.505,9.505v67.139C132.657,138.734,128.402,142.989,123.152,142.989z"/>
	</g>
	<g>
		<path style="fill:#EAF3F9;" d="M389.038,142.989c-5.249,0-9.504-4.255-9.504-9.505V66.345c0-5.25,4.255-9.505,9.504-9.505
			c5.249,0,9.505,4.255,9.505,9.505v67.139C398.543,138.734,394.287,142.989,389.038,142.989z"/>
	</g>
	<g>
		<path style="fill:#EAF3F9;" d="M300.409,142.989c-5.249,0-9.504-4.255-9.504-9.505V66.345c0-5.25,4.255-9.505,9.504-9.505
			c5.249,0,9.505,4.255,9.505,9.505v67.139C309.914,138.734,305.659,142.989,300.409,142.989z"/>
	</g>
	<g>
		<path style="fill:#EAF3F9;" d="M211.781,142.989c-5.249,0-9.505-4.255-9.505-9.505V66.345c0-5.25,4.255-9.505,9.505-9.505
			c5.249,0,9.505,4.255,9.505,9.505v67.139C221.286,138.734,217.03,142.989,211.781,142.989z"/>
	</g>
	<path style="fill:#FCAD19;" d="M146.348,130.597h-46.293c-2.898,0-5.247,2.937-5.247,6.56v197.99l0.01-0.005
		c-0.163-10.765,6.333-24.471,17.255-34.576c14.404-13.327,31.042-15.339,37.162-4.494c1.328,2.354,2.05,5.121,2.221,8.146
		l0.042-0.023V137.034C151.497,133.479,149.192,130.597,146.348,130.597z"/>
	<path style="fill:#FCAD19;" d="M234.738,130.597h-46.293c-2.898,0-5.247,2.937-5.247,6.56v257.246l0.01-0.005
		c-0.163-10.765,6.333-24.471,17.255-34.576c18.765-17.36,38.373-14.189,39.383,3.652l0.042-0.023V137.034
		C239.887,133.479,237.582,130.597,234.738,130.597z"/>
	<path style="fill:#FCAD19;" d="M323.128,130.597h-46.293c-2.898,0-5.247,2.937-5.247,6.56v359.861l0.01-0.005
		c-0.163-10.765,6.333-24.471,17.255-34.576c14.405-13.326,31.042-15.339,37.162-4.494c1.328,2.354,2.05,5.121,2.221,8.146
		l0.042-0.023V137.034C328.276,133.479,325.971,130.597,323.128,130.597z"/>
	<path style="fill:#FCAD19;" d="M411.517,130.597h-46.293c-2.898,0-5.247,2.937-5.247,6.56v197.99l0.009-0.005
		c-0.162-10.765,6.333-24.471,17.255-34.576c14.405-13.327,31.042-15.339,37.162-4.494c1.328,2.354,2.05,5.121,2.221,8.146
		l0.042-0.023V137.034C416.667,133.479,414.361,130.597,411.517,130.597z"/>
	<g>
		<path style="fill:#ED9811;" d="M123.157,213.136c-5.223,0-9.505-4.224-9.505-9.505c0-5.278,4.282-9.505,9.505-9.505
			c5.126,0,9.492,4.14,9.492,9.505C132.65,209.111,128.167,213.136,123.157,213.136z"/>
	</g>
	<g>
		<path style="fill:#ED9811;" d="M211.549,213.136c-5.317,0-9.517-4.348-9.517-9.505c0-5.942,5.494-10.526,11.367-9.314
			c3.523,0.66,6.632,3.479,7.464,7.464C222.028,207.37,217.737,213.136,211.549,213.136z"/>
	</g>
	<g>
		<path style="fill:#ED9811;" d="M299.929,213.136c-5.178,0-9.505-4.206-9.505-9.505c0-5.12,4.167-9.505,9.505-9.505
			c5.233,0,9.504,4.246,9.504,9.505C309.434,208.92,305.136,213.136,299.929,213.136z"/>
	</g>
	<g>
		<path style="fill:#ED9811;" d="M389.031,213.136c-5.34,0-9.505-4.391-9.505-9.505c0-4.511,3.265-8.492,7.654-9.314
			c5.835-1.172,11.367,3.311,11.367,9.314C398.548,208.792,394.35,213.136,389.031,213.136z"/>
	</g>
	<path style="fill:#ED9811;" d="M411.517,130.597h-46.292c-2.898,0-5.248,2.937-5.248,6.56v29.572h56.689v-29.695
		C416.667,133.479,414.361,130.597,411.517,130.597z"/>
	<path style="fill:#ED9811;" d="M323.128,130.597h-46.293c-2.898,0-5.247,2.937-5.247,6.56v29.572h56.689v-29.695
		C328.276,133.479,325.972,130.597,323.128,130.597z"/>
	<path style="fill:#ED9811;" d="M234.738,130.597h-46.293c-2.898,0-5.247,2.937-5.247,6.56v29.572h56.689v-29.695
		C239.887,133.479,237.582,130.597,234.738,130.597z"/>
	<path style="fill:#ED9811;" d="M146.348,130.597h-46.293c-2.898,0-5.248,2.937-5.248,6.56v29.572h56.689v-29.695
		C151.497,133.479,149.191,130.597,146.348,130.597z"/>
	<path style="fill:#FDD044;" d="M387.453,36.298h-96.871c-10.956,0-21.129-3.859-26.879-10.198
		c-2.201-2.426-7.703-1.367-7.703,1.484v8.714v19.265v19.265v8.714c0,2.85,5.502,3.911,7.703,1.484
		c5.75-6.339,15.923-10.199,26.879-10.199h128.213c3.144,0,5.693-2.549,5.693-5.693v-5.862
		C413.002,53.224,400.612,44.188,387.453,36.298z"/>
	<path style="fill:#FCAD19;" d="M256,74.828V55.563V36.298v-8.714c0-2.851-5.502-3.91-7.703-1.484
		c-5.75,6.339-15.923,10.198-26.879,10.198h-96.871c-13.159,7.89-25.549,16.926-37.035,26.975v5.87c0,3.14,2.545,5.685,5.686,5.685
		h128.22c10.956,0,21.129,3.86,26.879,10.199c2.201,2.426,7.703,1.366,7.703-1.484V74.828z"/>
	<g>
		<path style="fill:#FEC50A;" d="M94.808,228.333v106.815l0.01-0.005c-0.162-10.765,6.333-24.471,17.255-34.576
			c14.404-13.327,31.042-15.339,37.162-4.495c1.328,2.354,2.05,5.121,2.221,8.146l0.042-0.023v-75.863
			C141.721,254.523,104.573,254.494,94.808,228.333z"/>
	</g>
	<g>
		<path style="fill:#FEC50A;" d="M183.197,287.588v106.816l0.01-0.005c-0.163-10.765,6.333-24.471,17.254-34.576
			c18.765-17.361,38.373-14.189,39.383,3.651l0.042-0.023v-75.863C230.111,313.779,192.962,313.752,183.197,287.588z"/>
	</g>
	<g>
		<path style="fill:#FEC50A;" d="M299.929,409.878c-12.983,0-24.052-8.181-28.342-19.668v106.809l0.009-0.005
			c-0.163-10.766,6.333-24.471,17.255-34.576c14.405-13.326,31.042-15.339,37.162-4.494c1.328,2.354,2.05,5.121,2.221,8.146
			l0.042-0.023v-75.87C323.99,401.69,312.917,409.878,299.929,409.878z"/>
	</g>
	<g>
		<path style="fill:#FEC50A;" d="M359.977,226.94v108.208l0.009-0.005c-0.162-10.765,6.333-24.471,17.255-34.576
			c14.405-13.327,31.042-15.339,37.162-4.495c1.328,2.354,2.05,5.121,2.221,8.146l0.042-0.023v-74.646
			C405.691,255.454,368.449,253.558,359.977,226.94z"/>
	</g>
	<path style="fill:#FCDB7E;" d="M414.606,294.888c-6.142-10.845-22.842-8.832-37.3,4.494
		c-14.458,13.327-21.199,32.921-15.057,43.766c6.142,10.844,22.842,8.832,37.3-4.494
		C414.007,325.327,420.748,305.733,414.606,294.888z"/>
	<path style="fill:#FDD044;" d="M414.606,294.888c-5.133-9.061-17.636-9.14-30.044-1.148c17.533,7.171,7.411,40.302-15.749,55.223
		c7.967,3.258,19.971-0.387,30.736-10.309C414.007,325.327,420.748,305.733,414.606,294.888z"/>
	<path style="fill:#FCDB7E;" d="M326.216,456.759c-6.142-10.844-22.842-8.832-37.3,4.494
		c-14.458,13.327-21.199,32.921-15.057,43.766c6.142,10.845,22.842,8.832,37.3-4.494
		C325.617,487.198,332.358,467.604,326.216,456.759z"/>
	<path style="fill:#FDD044;" d="M326.216,456.759c-5.133-9.061-17.637-9.14-30.044-1.148c17.533,7.171,7.411,40.302-15.749,55.223
		c7.967,3.258,19.971-0.387,30.736-10.309C325.617,487.198,332.358,467.604,326.216,456.759z"/>
	<path style="fill:#FCDB7E;" d="M237.721,354.145c-6.142-10.845-22.842-8.832-37.3,4.494
		c-14.458,13.327-21.199,32.922-15.057,43.766c6.142,10.845,22.842,8.832,37.3-4.494
		C237.122,384.584,243.863,364.989,237.721,354.145z"/>
	<path style="fill:#FDD044;" d="M237.721,354.145c-5.133-9.061-17.636-9.14-30.044-1.148c17.93,7.334,6.985,40.577-15.749,55.223
		c7.967,3.258,19.971-0.387,30.736-10.309C237.122,384.584,243.863,364.989,237.721,354.145z"/>
	<path style="fill:#FCDB7E;" d="M149.436,294.888c-6.142-10.845-22.842-8.832-37.3,4.494
		c-14.458,13.327-21.199,32.921-15.057,43.766c6.142,10.844,22.842,8.832,37.3-4.494
		C148.837,325.327,155.578,305.733,149.436,294.888z"/>
	<path style="fill:#FDD044;" d="M149.436,294.888c-5.133-9.061-17.636-9.14-30.044-1.148c17.533,7.171,7.411,40.302-15.749,55.223
		c7.967,3.258,19.971-0.387,30.736-10.309C148.837,325.327,155.578,305.733,149.436,294.888z"/>
	<g>
		<path style="fill:#FEC50A;" d="M307.342,55.563c0-8.652,5.25-16.075,12.736-19.265h-29.497c-10.956,0-21.129-3.859-26.879-10.198
			c-2.201-2.426-7.703-1.367-7.703,1.484v8.714v19.265v19.265v8.714c0,2.85,5.502,3.911,7.703,1.484
			c5.75-6.339,15.923-10.199,26.879-10.199h29.497C312.592,71.638,307.342,64.215,307.342,55.563z"/>
	</g>
	<g>
		<path style="fill:#ED9811;" d="M204.658,55.564c0,8.652-5.25,16.075-12.736,19.265h29.497c10.956,0,21.129,3.859,26.879,10.198
			c2.201,2.426,7.703,1.367,7.703-1.484v-8.714V55.563V36.298v-8.714c0-2.85-5.502-3.911-7.703-1.484
			c-5.75,6.339-15.923,10.199-26.879,10.199h-29.497C199.408,39.488,204.658,46.912,204.658,55.564z"/>
	</g>
</g>
<g>
</g>
<g>
</g>
<g>
</g>
<g>
</g>
<g>
</g>
<g>
</g>
<g>
</g>
<g>
</g>
<g>
</g>
<g>
</g>
<g>
</g>
<g>
</g>
<g>
</g>
<g>
</g>
<g>
</g>
</svg>
