<?xml version="1.0" encoding="iso-8859-1"?>
<!-- Generator: Adobe Illustrator 21.0.0, SVG Export Plug-In . SVG Version: 6.00 Build 0)  -->
<svg version="1.1" id="Capa_1" xmlns="http://www.w3.org/2000/svg" xmlns:xlink="http://www.w3.org/1999/xlink" x="0px" y="0px"
	 viewBox="0 0 512 512" style="enable-background:new 0 0 512 512;" xml:space="preserve">
<g>
	<circle style="fill:#7DD776;" cx="256" cy="256" r="256"/>
	<path style="fill:#FCAD19;" d="M444.457,0c-29.59,0-343.872,0-372.544,0C57.085,0,45.065,12.021,45.065,26.849
		c0,14.828,12.021,26.848,26.849,26.848h372.544c12.363,0,22.478,10.115,22.478,22.478V22.478C466.935,10.115,456.82,0,444.457,0z"
		/>
	<path style="fill:#ED9811;" d="M73.044,27.191h77.204V0c-40.088,0-70.333,0-78.334,0C57.085,0,45.065,12.021,45.065,26.849
		c0,4.191,0.966,8.153,2.679,11.686C51.429,31.93,61.353,27.191,73.044,27.191z"/>
	<path style="fill:#894304;" d="M95.64,0C83.879,0,75.57,0,71.913,0C57.086,0,45.065,12.021,45.065,26.849
		c0.001,14.828,12.021,26.848,26.848,26.848H95.64V0z"/>
	<path style="fill:#FEC50A;" d="M466.936,76.175c0-12.363-10.115-22.478-22.478-22.478H71.914c-14.828,0-26.849-12.02-26.849-26.848
		c0,17.672,0,228.486,0,374.222C91.232,468.071,168.48,512,256,512s164.768-43.929,210.936-110.93V76.175z"/>
	<path style="fill:#FCAD19;" d="M142.033,71.647c0-7.144,3.192-13.574,8.214-17.949H71.914c-14.828,0-26.849-12.02-26.849-26.848
		c0,17.672,0,228.486,0,374.222c24.567,35.652,57.935,64.771,96.968,84.215V71.647z"/>
	<path style="fill:#C1671E;" d="M45.065,26.849c0,17.673,0,228.486,0,374.222c14.142,20.523,31.198,38.876,50.575,54.469V53.697
		H71.914C57.085,53.697,45.065,41.677,45.065,26.849z"/>
	<path style="fill:#EAF3F9;" d="M435.924,26.191H73.044c-11.958,0-22.085,4.952-25.559,11.794
		c4.232,9.268,13.575,15.713,24.429,15.713h368.339V30.519C440.253,28.129,438.315,26.191,435.924,26.191z"/>
	<g>
		<path style="fill:#FCDB7E;" d="M431.775,94.857h-28.258c-4.682,0-8.477-3.795-8.477-8.477c0-4.682,3.795-8.477,8.477-8.477h28.258
			c4.682,0,8.477,3.795,8.477,8.477C440.253,91.062,436.457,94.857,431.775,94.857z"/>
	</g>
	<g>
		<path style="fill:#FCDB7E;" d="M346.342,429.981H203.085c-4.682,0-8.477-3.795-8.477-8.477c0-4.682,3.795-8.477,8.477-8.477
			h143.258c4.682,0,8.477,3.795,8.477,8.477C354.82,426.186,351.024,429.981,346.342,429.981z"/>
	</g>
	<g>
		<path style="fill:#FCDB7E;" d="M346.342,463.89H203.085c-4.682,0-8.477-3.795-8.477-8.477c0-4.682,3.795-8.477,8.477-8.477
			h143.258c4.682,0,8.477,3.795,8.477,8.477C354.82,460.095,351.024,463.89,346.342,463.89z"/>
	</g>
	<g>
		<path style="fill:#C6E0F4;" d="M138.074,39.944c0-6.103,3.614-11.35,8.812-13.753H69.954c-11.958,0-22.084,4.952-25.559,11.794
			c4.232,9.268,13.575,15.713,24.429,15.713h78.063C141.688,51.294,138.074,46.047,138.074,39.944z"/>
	</g>
	<path style="fill:#C1671E;" d="M384.413,378.664H155.075c-7.174,0-13.043-5.869-13.043-13.043V136.284
		c0-7.174,5.869-13.043,13.043-13.043h229.338c7.174,0,13.043,5.869,13.043,13.043v229.338
		C397.456,372.795,391.587,378.664,384.413,378.664z"/>
	<path style="fill:#994E04;" d="M188.436,365.621V136.284c0-7.173,5.869-13.043,13.043-13.043h-46.403
		c-7.174,0-13.043,5.87-13.043,13.043v229.338c0,7.174,5.869,13.043,13.043,13.043h46.403
		C194.305,378.664,188.436,372.795,188.436,365.621z"/>
	<path style="fill:#994E04;" d="M142.032,323.381v42.24c0,7.174,5.869,13.043,13.043,13.043h229.338
		c7.174,0,13.043-5.869,13.043-13.043v-42.24H142.032z"/>
	<path style="fill:#894304;" d="M142.032,323.381v42.24c0,7.174,5.87,13.043,13.043,13.043h46.402
		c-7.173,0-13.042-5.87-13.042-13.043v-42.24H142.032z"/>
	<g>
		
			<ellipse transform="matrix(0.866 -0.5 0.5 0.866 -52.0795 158.5452)" style="fill:#F7CF9C;" cx="269.81" cy="176.454" rx="25.936" ry="25.936"/>
		<path style="fill:#EAB883;" d="M269.812,150.522c-4.409-0.005-8.877,1.109-12.97,3.472c-12.405,7.162-16.656,23.024-9.493,35.429
			c7.162,12.405,23.024,16.655,35.429,9.493c4.093-2.363,7.291-5.676,9.491-9.496C272.302,189.399,259.85,167.815,269.812,150.522z"
			/>
		<path style="fill:#F4C48B;" d="M261.328,349.88l72.13-38.041c4.827-2.546,6.676-8.522,4.13-13.349
			c-2.546-4.827-8.524-6.676-13.349-4.13l-72.13,38.041c-4.827,2.546-6.676,8.522-4.13,13.349
			C250.518,350.564,256.489,352.432,261.328,349.88z"/>
		<g>
			<path style="fill:#EDB87E;" d="M290.773,312.009L252.109,332.4c-4.827,2.546-6.676,8.522-4.13,13.349
				c2.542,4.82,8.517,6.679,13.349,4.131l38.416-20.261C289.114,332.79,281.973,318.739,290.773,312.009z"/>
		</g>
		<path style="fill:#FA6E62;" d="M300.372,262.576L300.372,262.576l18.492-15.251l-17.289-24.863
			c-2.057-2.958-5.44-4.434-8.791-4.206v-0.034h-14.098h-18.058h-13.792v0.034c-3.351-0.228-6.734,1.248-8.791,4.206l-17.225,24.77
			l0,0l18.427,16.827l0,0l0,0v42.889l30.562,16.118l30.562-16.118V262.576L300.372,262.576L300.372,262.576z"/>
		<path style="fill:#FB5C4B;" d="M269.74,323.029V218.221h-9.112h-13.792v0.034c-3.351-0.228-6.734,1.248-8.791,4.206l-17.225,24.77
			l18.427,16.827v42.889L269.74,323.029z"/>
		<path style="fill:#F7CF9C;" d="M220.82,247.231L220.82,247.231l-11.371,16.352l-34.562,13.074
			c-5.104,1.931-7.676,7.634-5.746,12.737c1.93,5.104,7.634,7.676,12.738,5.746l37.429-14.159c1.867-0.706,3.477-1.962,4.616-3.601
			l11.618-16.707L220.82,247.231z"/>
		<path style="fill:#F7CF9C;" d="M364.732,276.658l-34.562-13.074l-11.306-16.259l-15.297,12.616
			c11.66,15.938,11.921,19.217,16.744,21.042l37.429,14.159c5.104,1.931,10.807-0.642,12.738-5.746
			C372.409,284.291,369.836,278.588,364.732,276.658z"/>
		<path style="fill:#FB4A34;" d="M260.781,218.221l7.308,16.821c0.705,1.622,3.01,1.608,3.695-0.022l7.055-16.799H260.781z"/>
		<polygon style="fill:#48AEF9;" points="269.81,323.065 300.372,306.947 239.247,306.947 		"/>
		<path style="fill:#4C98E0;" d="M239.247,306.947l30.563,16.118l1.751-0.923c-4.742-3.682-4.835-10.896-1.655-15.195H239.247z"/>
		<path style="fill:#F7CF9C;" d="M278.291,349.88l-72.13-38.041c-4.827-2.546-6.676-8.522-4.13-13.349
			c2.546-4.827,8.524-6.676,13.349-4.13l72.13,38.041c4.827,2.546,6.676,8.522,4.13,13.349
			C289.102,350.564,283.13,352.432,278.291,349.88z"/>
		<g>
			<path style="fill:#F4C48B;" d="M248.846,312.009L287.51,332.4c4.827,2.546,6.676,8.522,4.13,13.349
				c-2.542,4.82-8.517,6.679-13.349,4.131l-38.416-20.261C250.57,332.81,257.641,318.735,248.846,312.009z"/>
		</g>
		<g>
			<path style="fill:#EDB87E;" d="M328.728,261.509l-9.864-14.185l-15.297,12.616l8.213,11.81
				C310.847,262.517,321.09,256.443,328.728,261.509z"/>
		</g>
		<g>
			<path style="fill:#EDB87E;" d="M227.17,272.713l8.372-12.04l-14.722-13.443l-9.556,13.742
				C219.286,256.69,228.918,263.586,227.17,272.713z"/>
		</g>
	</g>
</g>
<g>
</g>
<g>
</g>
<g>
</g>
<g>
</g>
<g>
</g>
<g>
</g>
<g>
</g>
<g>
</g>
<g>
</g>
<g>
</g>
<g>
</g>
<g>
</g>
<g>
</g>
<g>
</g>
<g>
</g>
</svg>
