<?xml version="1.0" encoding="iso-8859-1"?>
<!-- Generator: Adobe Illustrator 21.0.0, SVG Export Plug-In . SVG Version: 6.00 Build 0)  -->
<svg version="1.1" id="Capa_1" xmlns="http://www.w3.org/2000/svg" xmlns:xlink="http://www.w3.org/1999/xlink" x="0px" y="0px"
	 viewBox="0 0 512 512" style="enable-background:new 0 0 512 512;" xml:space="preserve">
<g>
	<circle style="fill:#FEC50A;" cx="256" cy="267.888" r="244.112"/>
	<path style="fill:#7DD776;" d="M37.1,376.013C76.976,456.587,160.01,512,256,512s179.024-55.413,218.9-135.986H37.1z"/>
	<path style="fill:#5CBA4F;" d="M363.288,376.013H37.1C76.976,456.587,160.01,512,256,512c29.85,0,58.446-5.362,84.882-15.169
		C307.397,462.526,315.596,396.201,363.288,376.013z"/>
	<path style="fill:#85BBEB;" d="M256,512c16.16,0,31.947-1.586,47.229-4.582c-0.26-7.481-2.299-15.009-6.302-21.944
		c-13.05-22.603-41.953-30.348-64.556-17.298c-14.626,8.444-23.019,23.526-23.594,39.243C224.057,510.414,239.842,512,256,512z"/>
	<path style="fill:#67AAE6;" d="M232.37,468.176c-14.625,8.444-23.018,23.526-23.594,39.243C224.057,510.414,239.842,512,256,512
		c0.603,0,1.201-0.018,1.803-0.023c-0.629-0.931-1.233-1.887-1.803-2.874c-8.745-15.146-8.14-33.115,0.004-47.253
		C247.97,461.842,239.828,463.87,232.37,468.176z"/>
	<path style="fill:#FA6E62;" d="M255.998,0c-131.789,0-215.77,143.435-149.21,258.721l135.229,234.222
		c6.214,10.764,21.749,10.764,27.963,0l135.228-234.222C471.845,143.305,387.57,0,255.998,0z M256,243.318
		c-38.792,0-70.351-31.559-70.351-70.351c0-38.792,31.559-70.351,70.351-70.351c38.792,0,70.351,31.559,70.351,70.351
		C326.351,211.758,294.793,243.318,256,243.318z"/>
	<g>
		<path style="fill:#FB5C4B;" d="M166.162,254.864c-59.367-102.826,1.031-228.04,108.29-253.904C268.415,0.329,262.261,0,255.998,0
			c-131.789,0-215.77,143.435-149.21,258.72l135.229,234.222c6.214,10.764,21.749,10.764,27.963,0l16.819-29.131L166.162,254.864z"
			/>
	</g>
	<g>
		<path style="fill:#838AED;" d="M312.431,268.217c-52.172,30.122-119.124,12.182-149.246-39.99
			c-30.122-52.173-12.182-119.124,39.99-149.246c52.173-30.122,119.124-12.182,149.246,39.99
			C382.543,171.144,364.603,238.095,312.431,268.217z"/>
	</g>
	<path style="fill:#686BDF;" d="M216.431,197.485c-24.787-42.932-17.023-95.866,15.572-130.056
		c-9.881,2.397-19.587,6.217-28.828,11.552c-52.173,30.122-70.112,97.073-39.99,149.246c30.122,52.173,97.073,70.112,149.246,39.99
		c9.241-5.335,17.402-11.83,24.418-19.19C290.941,260.16,241.218,240.417,216.431,197.485z"/>
	<path style="fill:#686BDF;" d="M216.675,102.364c-39.279,22.678-52.785,73.084-30.107,112.363s73.083,52.785,112.363,30.108
		c39.279-22.678,52.786-73.084,30.108-112.363C306.36,93.192,255.955,79.686,216.675,102.364z"/>
	<path style="fill:#4352BF;" d="M207.353,108.652c-31.952,24.788-41.56,70.092-20.785,106.074
		c20.775,35.983,64.813,50.314,102.256,35.037C224.846,236.433,186.91,170.72,207.353,108.652z"/>
	
		<ellipse transform="matrix(0.866 -0.5 0.5 0.866 -16.7648 142.6648)" style="fill:#F7CF9C;" cx="257.834" cy="102.616" rx="24.773" ry="24.773"/>
	<path style="fill:#EAB883;" d="M257.836,77.846c-4.211-0.004-8.479,1.059-12.388,3.316c-11.849,6.841-15.908,21.991-9.068,33.84
		c6.841,11.848,21.991,15.908,33.84,9.067c3.909-2.257,6.964-5.422,9.066-9.07C260.214,114.98,248.321,94.364,257.836,77.846z"/>
	<path style="fill:#F4C48B;" d="M249.733,268.263l68.895-36.335c4.61-2.432,6.377-8.14,3.945-12.751
		c-2.432-4.61-8.142-6.376-12.75-3.945l-68.895,36.335c-4.61,2.432-6.377,8.14-3.945,12.75
		C239.407,268.916,245.111,270.7,249.733,268.263z"/>
	<g>
		<path style="fill:#EDB87E;" d="M277.857,232.091l-36.93,19.477c-4.61,2.432-6.377,8.14-3.945,12.75
			c2.428,4.604,8.135,6.38,12.751,3.945l36.693-19.352C276.272,251.94,269.452,238.519,277.857,232.091z"/>
	</g>
	<path style="fill:#FA6E62;" d="M287.025,184.874L287.025,184.874l17.662-14.567l-16.514-23.748
		c-1.965-2.826-5.196-4.235-8.397-4.018v-0.033h-13.465h-17.248H235.89v0.033c-3.201-0.217-6.432,1.192-8.397,4.018l-16.452,23.659
		l0,0l17.601,16.072l0,0l0,0v40.965l29.192,15.396l29.191-15.396V184.874L287.025,184.874L287.025,184.874z"/>
	<path style="fill:#FB5C4B;" d="M257.767,242.616V142.509h-8.703H235.89v0.032c-3.201-0.217-6.432,1.192-8.397,4.018l-16.452,23.659
		l17.601,16.072v40.965L257.767,242.616z"/>
	<path style="fill:#F7CF9C;" d="M211.042,170.218L211.042,170.218l-10.861,15.618l-33.012,12.488
		c-4.875,1.844-7.332,7.291-5.488,12.166c1.844,4.875,7.291,7.332,12.166,5.488l35.75-13.524c1.783-0.675,3.321-1.874,4.409-3.439
		l11.097-15.958L211.042,170.218z"/>
	<path style="fill:#F7CF9C;" d="M348.499,198.325l-33.012-12.488l-10.799-15.53l-14.611,12.05l11.584,16.659
		c1.089,1.565,2.626,2.764,4.409,3.439l35.75,13.524c4.875,1.844,10.322-0.613,12.166-5.488
		C355.831,205.616,353.374,200.169,348.499,198.325z"/>
	<path style="fill:#FB4A34;" d="M249.21,142.509l6.98,16.067c0.673,1.549,2.875,1.536,3.529-0.022l6.738-16.045H249.21z"/>
	<polygon style="fill:#48AEF9;" points="257.834,242.651 287.025,227.255 228.642,227.255 	"/>
	<path style="fill:#4C98E0;" d="M228.642,227.255l29.192,15.396l1.672-0.882c-4.53-3.517-4.618-10.407-1.581-14.514H228.642z"/>
	<path style="fill:#F7CF9C;" d="M265.935,268.263l-68.895-36.335c-4.61-2.432-6.377-8.14-3.945-12.751
		c2.432-4.61,8.142-6.376,12.75-3.945l68.895,36.335c4.61,2.432,6.377,8.14,3.945,12.75
		C276.26,268.916,270.556,270.7,265.935,268.263z"/>
	<g>
		<path style="fill:#F4C48B;" d="M237.811,232.091l36.93,19.477c4.61,2.432,6.377,8.14,3.945,12.75
			c-2.428,4.604-8.135,6.38-12.75,3.945l-36.693-19.352C239.457,251.958,246.211,238.515,237.811,232.091z"/>
	</g>
	<g>
		<path style="fill:#EDB87E;" d="M314.109,183.855l-9.421-13.548l-14.611,12.05l7.844,11.281
			C297.031,184.818,306.814,179.017,314.109,183.855z"/>
	</g>
	<g>
		<path style="fill:#EDB87E;" d="M217.107,194.557l7.996-11.499l-14.061-12.84l-9.127,13.126
			C209.576,179.253,218.777,185.839,217.107,194.557z"/>
	</g>
</g>
<g>
</g>
<g>
</g>
<g>
</g>
<g>
</g>
<g>
</g>
<g>
</g>
<g>
</g>
<g>
</g>
<g>
</g>
<g>
</g>
<g>
</g>
<g>
</g>
<g>
</g>
<g>
</g>
<g>
</g>
</svg>
