<?xml version="1.0" encoding="iso-8859-1"?>
<!-- Generator: Adobe Illustrator 21.0.0, SVG Export Plug-In . SVG Version: 6.00 Build 0)  -->
<svg version="1.1" id="Capa_1" xmlns="http://www.w3.org/2000/svg" xmlns:xlink="http://www.w3.org/1999/xlink" x="0px" y="0px"
	 viewBox="0 0 488.224 488.224" style="enable-background:new 0 0 488.224 488.224;" xml:space="preserve">
<g>
	<circle style="fill:#7DD776;" cx="244.112" cy="244.112" r="244.112"/>
	<path style="fill:#4EA83F;" d="M29.604,360.723c41.379,75.957,121.923,127.501,214.508,127.501
		c92.585,0,173.128-51.544,214.507-127.501H29.604z"/>
	<path style="fill:#656582;" d="M368.089,397.984V27.54c0-15.186-12.355-27.54-27.54-27.54H48.946
		c-15.185,0-27.54,12.354-27.54,27.54v316.67c14.008,31.118,34.35,58.766,59.378,81.314h259.765
		C355.734,425.524,368.089,413.169,368.089,397.984z"/>
	<path style="fill:#585877;" d="M80.182,397.984V27.54C80.182,12.355,92.537,0,107.722,0H48.946c-15.186,0-27.54,12.354-27.54,27.54
		v316.67c14.008,31.118,34.35,58.766,59.378,81.314h26.939C92.537,425.524,80.182,413.169,80.182,397.984z"/>
	<path style="fill:#686BDF;" d="M333.979,29.16H55.514c-2.733,0-4.949,2.216-4.949,4.949v321.666c0,2.733,2.216,4.949,4.949,4.949
		h278.465c2.733,0,4.949-2.216,4.949-4.949V34.109C338.928,31.376,336.712,29.16,333.979,29.16z"/>
	<path style="fill:#4352BF;" d="M55.514,29.16c-2.733,0-4.949,2.215-4.949,4.948v321.666c0,2.733,2.216,4.948,4.949,4.948h24.667
		V29.16H55.514z"/>
	
		<ellipse transform="matrix(0.866 -0.5 0.5 0.866 0.6119 140.6752)" style="fill:#7DD776;" cx="262.81" cy="69.196" rx="17.46" ry="17.46"/>
	
		<ellipse transform="matrix(0.866 -0.5 0.5 0.866 5.2903 158.1353)" style="fill:#85BBEB;" cx="297.73" cy="69.196" rx="17.46" ry="17.46"/>
	<path style="fill:#5CBA4F;" d="M262.81,69.196c-3.23-5.594-2.997-12.224,0.008-17.446c-2.97-0.004-5.981,0.734-8.738,2.326
		c-8.351,4.821-11.212,15.5-6.391,23.851c4.822,8.351,15.5,11.213,23.851,6.391c2.758-1.592,4.902-3.83,6.383-6.405
		C271.897,77.903,266.039,74.789,262.81,69.196z"/>
	<path style="fill:#67AAE6;" d="M297.73,69.196c-3.229-5.594-2.997-12.224,0.008-17.446c-2.97-0.005-5.98,0.733-8.738,2.326
		c-8.351,4.821-11.212,15.5-6.391,23.851c4.822,8.351,15.5,11.213,23.851,6.391c2.757-1.592,4.901-3.83,6.383-6.404
		C306.818,77.903,300.959,74.789,297.73,69.196z"/>
	<path style="fill:#838AED;" d="M50.566,355.775c0,2.733,2.216,4.949,4.949,4.949h278.465c2.733,0,4.949-2.216,4.949-4.949v-38.667
		H50.566V355.775z"/>
	<path style="fill:#686BDF;" d="M50.566,317.108v38.667c0,2.733,2.216,4.948,4.949,4.948h24.667v-43.615H50.566z"/>
	<circle style="fill:#585877;" cx="194.747" cy="392.718" r="14.58"/>
	<path style="fill:#FA6E62;" d="M460.436,357.296c-1.555-7.497-3.581-14.896-6.079-22.164v0
		c-3.956-11.509-13.255-20.7-24.877-24.586c-19.295-6.451-39.491-9.723-60.03-9.723c-20.539,0-40.735,3.272-60.03,9.723
		c-11.622,3.887-20.921,13.078-24.878,24.588c-12.893,37.519-13.471,79.582,0.001,118.781c3.955,11.51,13.255,20.701,24.877,24.587
		c0.49,0.164,0.982,0.316,1.473,0.476C375.802,460.556,429.686,415.944,460.436,357.296z"/>
	<path style="fill:#FB5C4B;" d="M348.814,453.913c-12.895-37.519-13.471-79.582-0.001-118.781
		c3.957-11.51,13.256-20.701,24.878-24.588c9.116-3.048,18.435-5.377,27.894-6.996c-10.563-1.808-21.301-2.728-32.136-2.728
		c-20.539,0-40.736,3.272-60.03,9.723c-11.622,3.887-20.921,13.078-24.878,24.588c-12.893,37.52-13.471,79.582,0.001,118.781
		c3.955,11.51,13.256,20.701,24.877,24.587c0.49,0.164,0.982,0.316,1.473,0.476c14.679-4.165,28.787-9.683,42.198-16.387
		C351.323,459.899,349.872,456.993,348.814,453.913z"/>
	<path style="fill:#FB5C4B;" d="M435.066,396.179c0.188-17.734-2.604-35.038-8.286-51.569v0c-1.026-2.986-3.474-5.383-6.549-6.411
		c-16.308-5.453-33.393-8.218-50.783-8.218s-34.475,2.765-50.783,8.218c-3.074,1.028-5.522,3.424-6.549,6.411
		c-10.851,31.574-11.291,66.97,0.001,99.825c1.025,2.985,3.474,5.382,6.548,6.41c13.464,4.502,27.459,7.167,41.717,7.961
		C389.306,443.11,414.691,421.731,435.066,396.179z"/>
	<path style="fill:#ED3B2E;" d="M350.467,331.097c-10.832,1.277-21.472,3.649-31.801,7.103c-3.074,1.028-5.522,3.424-6.549,6.411
		c-10.851,31.574-11.291,66.97,0.001,99.825c1.025,2.985,3.474,5.382,6.548,6.41c10.331,3.454,20.976,5.817,31.81,7.092
		c-0.625-1.306-1.189-2.645-1.663-4.024c-12.895-37.519-13.471-79.582-0.001-118.781
		C349.288,333.751,349.844,332.406,350.467,331.097z"/>
	<path style="fill:#EAF3F9;" d="M397.939,392.196l-45.564-26.348c-1.436-0.83-3.232,0.206-3.232,1.864v52.696
		c0,1.658,1.796,2.694,3.232,1.864l45.564-26.348C399.373,395.095,399.373,393.025,397.939,392.196z"/>
	<path style="fill:#C6E0F4;" d="M364.308,394.06L364.308,394.06c0-7.174,4.172-12.898,9.825-15.631l-21.757-12.582
		c-1.436-0.83-3.232,0.206-3.232,1.864v52.696c0,1.659,1.796,2.694,3.232,1.864l21.757-12.582
		C368.48,406.958,364.308,401.234,364.308,394.06z"/>
	<g>
		
			<ellipse transform="matrix(0.866 -0.5 0.5 0.866 -52.5391 118.4424)" style="fill:#F7CF9C;" cx="194.747" cy="157.261" rx="26.754" ry="26.754"/>
		<path style="fill:#EAB883;" d="M194.749,130.51c-4.548-0.005-9.157,1.144-13.379,3.581c-12.796,7.388-17.181,23.75-9.793,36.547
			c7.388,12.796,23.75,17.18,36.547,9.792c4.222-2.437,7.521-5.855,9.791-9.796C197.318,170.614,184.473,148.349,194.749,130.51z"/>
		<path style="fill:#F4C48B;" d="M185.998,336.157l74.405-39.241c4.979-2.626,6.887-8.791,4.261-13.77
			c-2.626-4.979-8.793-6.886-13.77-4.261l-74.405,39.241c-4.979,2.626-6.887,8.791-4.261,13.77
			C174.846,336.862,181.007,338.789,185.998,336.157z"/>
		<g>
			<path style="fill:#EDB87E;" d="M216.372,297.091l-39.884,21.034c-4.979,2.626-6.887,8.791-4.261,13.77
				c2.622,4.972,8.786,6.89,13.77,4.261l39.628-20.9C214.66,318.528,207.294,304.034,216.372,297.091z"/>
		</g>
		<path style="fill:#FA6E62;" d="M226.273,246.098L226.273,246.098l19.075-15.733l-17.835-25.647
			c-2.122-3.052-5.612-4.574-9.068-4.339v-0.035h-14.542h-18.627h-14.228v0.035c-3.457-0.235-6.947,1.287-9.068,4.339
			l-17.768,25.551l0,0l19.008,17.357l0,0l0,0v44.242l31.526,16.627l31.526-16.627V246.098L226.273,246.098L226.273,246.098z"/>
		<path style="fill:#FB5C4B;" d="M194.675,308.459V200.345h-9.399h-14.228v0.035c-3.456-0.235-6.947,1.288-9.068,4.339
			l-17.768,25.551l19.008,17.357v44.242L194.675,308.459z"/>
		<path style="fill:#F7CF9C;" d="M144.212,230.27L144.212,230.27l-11.73,16.868L96.83,260.625
			c-5.265,1.991-7.919,7.874-5.927,13.139c1.991,5.265,7.875,7.919,13.139,5.927l38.61-14.605c1.926-0.729,3.586-2.023,4.762-3.714
			l11.984-17.234L144.212,230.27z"/>
		<path style="fill:#F7CF9C;" d="M292.664,260.625l-35.652-13.487l-11.663-16.772l-15.779,13.014l12.511,17.991
			c1.176,1.691,2.836,2.986,4.762,3.714l38.61,14.605c5.265,1.991,11.148-0.662,13.139-5.927
			C300.582,268.499,297.929,262.616,292.664,260.625z"/>
		<path style="fill:#FB4A34;" d="M185.433,200.344l7.538,17.352c0.727,1.673,3.105,1.659,3.812-0.023l7.277-17.329H185.433z"/>
		<polygon style="fill:#48AEF9;" points="194.747,308.496 226.273,291.869 163.221,291.869 		"/>
		<path style="fill:#4C98E0;" d="M163.221,291.869l31.527,16.627l1.806-0.952c-4.892-3.798-4.988-11.239-1.707-15.675H163.221z"/>
		<path style="fill:#F7CF9C;" d="M208.242,337.336c-1.604,0-3.229-0.379-4.746-1.179l-74.405-39.241
			c-4.979-2.626-6.887-8.791-4.261-13.77c2.626-4.979,8.793-6.886,13.77-4.261l74.405,39.241
			C222.364,323.061,218.865,337.336,208.242,337.336z"/>
		<g>
			<path style="fill:#F4C48B;" d="M173.122,297.091l39.884,21.034c9.358,4.936,5.859,19.21-4.764,19.21
				c-1.603,0-3.229-0.379-4.746-1.179l-39.628-20.9C174.9,318.548,182.194,304.03,173.122,297.091z"/>
		</g>
		<g>
			<path style="fill:#EDB87E;" d="M255.523,244.998l-10.175-14.632l-15.779,13.014l8.472,12.183
				C237.079,246.038,247.644,239.772,255.523,244.998z"/>
		</g>
		<g>
			<path style="fill:#EDB87E;" d="M150.762,256.556l8.636-12.419l-15.186-13.867l-9.857,14.176
				C142.608,240.039,152.57,247.118,150.762,256.556z"/>
		</g>
	</g>
</g>
<g>
</g>
<g>
</g>
<g>
</g>
<g>
</g>
<g>
</g>
<g>
</g>
<g>
</g>
<g>
</g>
<g>
</g>
<g>
</g>
<g>
</g>
<g>
</g>
<g>
</g>
<g>
</g>
<g>
</g>
</svg>
