<?xml version="1.0" encoding="iso-8859-1"?>
<!-- Generator: Adobe Illustrator 21.0.0, SVG Export Plug-In . SVG Version: 6.00 Build 0)  -->
<svg version="1.1" id="Capa_1" xmlns="http://www.w3.org/2000/svg" xmlns:xlink="http://www.w3.org/1999/xlink" x="0px" y="0px"
	 viewBox="0 0 511.978 511.978" style="enable-background:new 0 0 511.978 511.978;" xml:space="preserve">
<g>
	<circle style="fill:#FEC50A;" cx="255.989" cy="268.385" r="243.593"/>
	<path style="fill:#FCDB7E;" d="M131.076,329.747H50.658c-7.351,0-13.322-5.961-13.322-13.323c0-7.356,5.966-13.322,13.322-13.322
		h28.16c7.291,0,13.323-5.922,13.323-13.323c0-7.356-5.966-13.322-13.322-13.322H12.544c1.615,49.587,18.038,95.428,45.007,133.234
		h41.718c7.334,0,13.323-5.96,13.323-13.333c0-7.356-5.966-13.322-13.322-13.322h-21.5c-7.42,0-13.323-6.022-13.323-13.322
		c0-7.356,5.966-13.322,13.322-13.322h53.306c7.291,0,13.323-5.921,13.323-13.323C144.398,335.712,138.432,329.747,131.076,329.747z
		"/>
	<path style="fill:#FCDB7E;" d="M487.816,193.439c-9.532-29.507-24.525-56.559-43.812-79.944h-39.355
		c-7.356,0-13.322,5.966-13.322,13.322c0,7.401,6.031,13.323,13.323,13.323h45.306c7.356,0,13.322,5.966,13.322,13.322
		c0,7.301-5.903,13.322-13.323,13.322h-14.5c-7.356,0-13.322,5.966-13.322,13.322c0,7.372,5.989,13.333,13.323,13.333H487.816z"/>
	<path style="fill:#FCDB7E;" d="M392.271,66.454h-6.894c-7.358,0-13.323,5.965-13.323,13.323c0,7.358,5.965,13.323,13.323,13.323
		h19.854c5.215,0,9.718-3.003,11.906-7.368C409.279,78.793,400.981,72.344,392.271,66.454z"/>
	<path style="fill:#5CBA4F;" d="M255.989,511.978c100.88,0,187.437-61.323,224.429-148.726c-0.788-0.42-1.543-0.932-2.237-1.556
		c-22.017-19.799-55.457-19.805-77.479,0.056c-4.184,3.773-10.442,3.773-14.625,0c-21.989-19.83-55.428-19.886-77.479-0.056
		c-4.224,3.798-10.526,3.798-14.75,0c-22.01-19.792-55.408-19.792-77.417,0c-4.164,3.745-10.586,3.745-14.75,0
		c-22.088-19.863-55.682-19.809-77.703,0.259c-4.038,3.68-10.139,3.68-14.178,0c-10.292-9.379-23.973-15.101-38.994-15.101
		c-14.883,0-28.45,5.616-38.708,14.841c-0.285,0.256-0.581,0.492-0.884,0.714C68.006,450.258,154.786,511.978,255.989,511.978z"/>
	<path style="fill:#EAF3F9;" d="M84.524,441.394c18.402,18.239,39.7,33.555,63.14,45.213h216.65
		c23.44-11.658,44.738-26.974,63.14-45.213V275.222H84.524V441.394z"/>
	<path style="fill:#C6E0F4;" d="M113.102,275.222H84.524v166.172c8.878,8.8,18.436,16.911,28.577,24.267V275.222z"/>
	<path style="fill:#F9918F;" d="M55.947,275.222v14.377c0,15.876,12.795,28.745,28.577,28.745s28.577-12.87,28.577-28.745v-14.377
		H55.947z"/>
	<path style="fill:#FA6E62;" d="M84.524,289.599v-14.377H55.947v14.377c0,15.875,12.795,28.746,28.577,28.746
		c5.207,0,10.085-1.408,14.289-3.855C90.274,309.519,84.524,300.237,84.524,289.599z"/>
	<path style="fill:#F9918F;" d="M113.102,275.222v14.377c0,15.876,12.795,28.745,28.577,28.745c15.783,0,28.577-12.87,28.577-28.745
		v-14.377H113.102z"/>
	<path style="fill:#FA6E62;" d="M141.679,289.599v-14.377h-28.577v14.377c0,15.875,12.795,28.746,28.577,28.746
		c5.207,0,10.085-1.408,14.289-3.855C147.429,309.519,141.679,300.237,141.679,289.599z"/>
	<path style="fill:#C6E0F4;" d="M84.524,441.395c18.402,18.238,39.7,33.554,63.14,45.212h216.65
		c23.44-11.659,44.738-26.974,63.14-45.213v-5.391H84.524V441.395z"/>
	<path style="fill:#A3CCEF;" d="M113.102,436.003H84.524v5.391c14.858,14.726,27.717,23.552,28.577,24.267V436.003z"/>
	<path style="fill:#AF5B10;" d="M255.989,347.266L255.989,347.266c-31.566,0-57.155,25.589-57.155,57.155v82.185h114.31v-82.185
		C313.144,372.856,287.555,347.266,255.989,347.266z"/>
	<path style="fill:#994E04;" d="M274.923,350.491c-36.706-12.885-76.088,14.179-76.088,53.93v82.186h37.867v-82.186
		C236.701,379.494,252.665,358.306,274.923,350.491z"/>
	<g>
		<path style="fill:#C6E0F4;" d="M286.537,448.113c-4.042,0-7.319-3.276-7.319-7.319v-9.581c0-4.042,3.277-7.319,7.319-7.319
			c4.042,0,7.319,3.276,7.319,7.319v9.581C293.856,444.836,290.579,448.113,286.537,448.113z"/>
	</g>
	<g>
		<path style="fill:#EAF3F9;" d="M286.537,443.322h-14.6c-4.042,0-7.319-3.276-7.319-7.319s3.277-7.319,7.319-7.319h14.6
			c4.042,0,7.319,3.276,7.319,7.319S290.579,443.322,286.537,443.322z"/>
	</g>
	<path style="fill:#A3CCEF;" d="M378.34,383.74h16.964l-18.69-31.905c-2.043-3.489-6.526-4.658-10.014-2.616
		c-3.488,2.043-4.658,6.527-2.615,10.015L378.34,383.74z"/>
	<path style="fill:#C6E0F4;" d="M362.248,383.74l14.365-24.504c2.044-3.487,0.874-7.97-2.613-10.015
		c-3.486-2.045-7.97-0.875-10.015,2.612l-18.705,31.907H362.248z"/>
	<path style="fill:#A3CCEF;" d="M145.701,485.631c33.114,16.845,70.591,26.347,110.288,26.347c39.698,0,77.174-9.502,110.289-26.347
		H145.701z"/>
	<g>
		<path style="fill:#85BBEB;" d="M236.926,485.631H145.7c27.364,13.919,57.711,22.807,89.823,25.48
			C225.009,506.236,225.726,489.462,236.926,485.631z"/>
	</g>
	<path style="fill:#AF5B10;" d="M393.952,381.788h-47.306c-2.442,0-4.422,1.98-4.422,4.422v23.396c0,2.442,1.98,4.422,4.422,4.422
		h47.306c2.442,0,4.422-1.98,4.422-4.422V386.21C398.374,383.768,396.394,381.788,393.952,381.788z"/>
	<path style="fill:#994E04;" d="M370.299,409.606V386.21c0-2.442,1.98-4.422,4.422-4.422h-28.075c-2.442,0-4.422,1.98-4.422,4.422
		v23.396c0,2.442,1.98,4.422,4.422,4.422h28.075C372.279,414.028,370.299,412.048,370.299,409.606z"/>
	<g>
		<path style="fill:#FA6E62;" d="M370.295,363.778c-6.125,0-10.771-5.632-9.563-11.671c1.093-5.393,6.307-8.702,11.475-7.661
			c4.72,0.973,7.846,5.052,7.846,9.573C380.054,359.467,375.619,363.778,370.295,363.778z"/>
	</g>
	<path style="fill:#F9918F;" d="M170.257,275.222v14.377c0,15.876,12.795,28.745,28.577,28.745c15.783,0,28.577-12.87,28.577-28.745
		v-14.377H170.257z"/>
	<path style="fill:#FA6E62;" d="M198.834,289.599v-14.377h-28.577v14.377c0,15.875,12.795,28.746,28.577,28.746
		c5.207,0,10.085-1.408,14.289-3.855C204.584,309.519,198.834,300.237,198.834,289.599z"/>
	<path style="fill:#F9918F;" d="M227.412,275.222v14.377c0,15.876,12.795,28.745,28.577,28.745s28.577-12.87,28.577-28.745v-14.377
		H227.412z"/>
	<path style="fill:#FA6E62;" d="M255.989,289.599v-14.377h-28.577v14.377c0,15.875,12.795,28.746,28.577,28.746
		c5.207,0,10.084-1.408,14.289-3.855C261.739,309.519,255.989,300.237,255.989,289.599z"/>
	<path style="fill:#F9918F;" d="M284.568,275.222v14.377c0,15.876,12.795,28.745,28.578,28.745c15.783,0,28.577-12.87,28.577-28.745
		v-14.377H284.568z"/>
	<path style="fill:#FA6E62;" d="M313.145,289.599v-14.377h-28.577v14.377c0,15.875,12.795,28.746,28.577,28.746
		c5.207,0,10.085-1.408,14.289-3.855C318.895,309.519,313.145,300.237,313.145,289.599z"/>
	<path style="fill:#F9918F;" d="M341.723,275.222v14.377c0,15.876,12.795,28.745,28.578,28.745c15.783,0,28.577-12.87,28.577-28.745
		v-14.377H341.723z"/>
	<path style="fill:#FA6E62;" d="M370.3,289.599v-14.377h-28.577v14.377c0,15.875,12.795,28.746,28.577,28.746
		c5.207,0,10.084-1.408,14.289-3.855C376.05,309.519,370.3,300.237,370.3,289.599z"/>
	<path style="fill:#F9918F;" d="M398.878,275.222v14.377c0,15.876,12.795,28.745,28.577,28.745c15.783,0,28.577-12.87,28.577-28.745
		v-14.377H398.878z"/>
	<path style="fill:#FA6E62;" d="M427.455,289.599v-14.377h-28.577v14.377c0,15.875,12.795,28.746,28.577,28.746
		c5.207,0,10.085-1.408,14.289-3.855C433.205,309.519,427.455,300.237,427.455,289.599z"/>
	<path style="fill:#C6E0F4;" d="M403.338,113.495H108.641c-6.44,0-11.71,5.269-11.71,11.71v14.637h318.117v-14.637
		C415.048,118.764,409.778,113.495,403.338,113.495z"/>
	<path style="fill:#A3CCEF;" d="M151.641,113.495h-43c-6.44,0-11.71,5.27-11.71,11.71v14.637h43v-14.637
		C139.931,118.764,145.2,113.495,151.641,113.495z"/>
	<path style="fill:#FA6E62;" d="M466.983,264.189l-35.91-119.513c-1.21-4.028-4.918-6.785-9.124-6.785H90.029
		c-4.206,0-7.913,2.757-9.124,6.785l-35.91,119.513c-1.837,6.113,2.74,12.268,9.124,12.268h403.741
		C464.243,276.457,468.82,270.302,466.983,264.189z"/>
	<path style="fill:#FB5C4B;" d="M102.15,264.189l35.91-119.513c1.21-4.028,4.918-6.786,9.124-6.786H90.029
		c-4.206,0-7.914,2.758-9.124,6.786l-35.91,119.513c-1.837,6.113,2.741,12.268,9.124,12.268h57.155
		C104.891,276.457,100.313,270.302,102.15,264.189z"/>
	<g>
		<path style="fill:#838AED;" d="M311.714,207.945c-53.22,30.727-121.515,12.427-152.242-40.793
			c-30.727-53.22-12.427-121.515,40.793-152.242c53.22-30.727,121.515-12.427,152.242,40.793
			C383.233,108.923,364.934,177.218,311.714,207.945z"/>
	</g>
	<path style="fill:#686BDF;" d="M208.97,138.574c-25.788-44.667-17.037-99.949,17.904-134.732
		c-9.113,2.464-18.056,6.129-26.609,11.067c-53.22,30.727-71.519,99.022-40.793,152.242c30.726,53.219,99.022,71.52,152.242,40.793
		c8.553-4.938,16.198-10.851,22.889-17.511C287.01,203.303,234.758,183.241,208.97,138.574z"/>
	<path style="fill:#686BDF;" d="M212.672,36.399c-41.371,23.885-55.596,76.975-31.711,118.346
		c23.885,41.371,76.975,55.596,118.346,31.71c41.371-23.885,55.596-76.975,31.711-118.345
		C307.132,26.739,254.042,12.514,212.672,36.399z"/>
	<path style="fill:#4352BF;" d="M200.896,44.564c-32.091,26.414-41.388,73.022-19.935,110.18
		c21.453,37.158,66.465,52.411,105.386,37.826c-31.391-5.5-60.233-24.302-77.378-53.997C191.826,108.88,189.963,74.5,200.896,44.564
		z"/>
	<path style="fill:#7DD776;" d="M312.373,95.646h-23.136c-18.286,0-33.248,14.961-33.248,33.248v22.749
		c0,2.738,2.22,4.958,4.958,4.958h22.749c18.286,0,33.248-14.961,33.248-33.248v-23.136
		C316.945,97.692,314.898,95.646,312.373,95.646z"/>
	<path style="fill:#5CBA4F;" d="M306.661,139.369c-15.432,0-27.942-12.51-27.942-27.941c0-5.618,1.664-10.844,4.517-15.225
		c-15.447,2.847-27.247,16.453-27.247,32.691v22.749c0,2.738,2.22,4.958,4.958,4.958h22.749c12.803,0,23.968-7.339,29.518-18.013
		C311.112,139.094,308.919,139.369,306.661,139.369z"/>
	<path style="fill:#7DD776;" d="M199.605,95.646h23.136c18.286,0,33.248,14.961,33.248,33.248v22.749
		c0,2.738-2.22,4.958-4.958,4.958h-22.749c-18.286,0-33.248-14.961-33.248-33.248v-23.136
		C195.034,97.692,197.081,95.646,199.605,95.646z"/>
	<path style="fill:#5CBA4F;" d="M205.318,139.369c15.432,0,27.942-12.51,27.942-27.941c0-5.618-1.664-10.844-4.517-15.225
		c15.446,2.847,27.247,16.453,27.247,32.691v22.749c0,2.738-2.22,4.958-4.958,4.958h-22.749c-12.803,0-23.968-7.339-29.518-18.013
		C200.867,139.094,203.06,139.369,205.318,139.369z"/>
	<path style="fill:#CFF9A2;" d="M252.005,56.875l-12.67,12.67c-20.057,20.057-20.057,52.877,0,72.934l12.333,12.333
		c2.386,2.387,6.256,2.387,8.642,0l12.35-12.35c20.048-20.048,20.048-52.853,0-72.9l-12.686-12.686
		C257.773,54.674,254.206,54.674,252.005,56.875z"/>
	<path style="fill:#BBEF89;" d="M284.548,107.348l-0.045,0.045c-15.744,15.744-41.27,15.742-57.016-0.003h0
		c-1.069-1.069-2.117-2.151-3.15-3.243c-0.494,13.834,4.498,27.831,14.998,38.331l12.333,12.333c2.386,2.386,6.256,2.386,8.642,0
		l12.35-12.35c10.493-10.494,15.483-24.482,14.992-38.307C286.634,105.23,285.601,106.295,284.548,107.348z"/>
</g>
<g>
</g>
<g>
</g>
<g>
</g>
<g>
</g>
<g>
</g>
<g>
</g>
<g>
</g>
<g>
</g>
<g>
</g>
<g>
</g>
<g>
</g>
<g>
</g>
<g>
</g>
<g>
</g>
<g>
</g>
</svg>
