<?xml version="1.0" encoding="iso-8859-1"?>
<!-- Generator: Adobe Illustrator 21.0.0, SVG Export Plug-In . SVG Version: 6.00 Build 0)  -->
<svg version="1.1" id="Capa_1" xmlns="http://www.w3.org/2000/svg" xmlns:xlink="http://www.w3.org/1999/xlink" x="0px" y="0px"
	 viewBox="0 0 512 512" style="enable-background:new 0 0 512 512;" xml:space="preserve">
<g>
	<circle style="fill:#838AED;" cx="256" cy="265.808" r="246.192"/>
	<path style="fill:#686BDF;" d="M17.431,326.811C44.571,433.27,141.089,512,256,512s211.429-78.73,238.569-185.189H17.431z"/>
	<g>
		<path style="fill:#4352BF;" d="M337.243,326.811H17.431C44.571,433.27,141.089,512,256,512c16.904,0,33.405-1.716,49.351-4.961
			C213.755,478.005,227.133,326.811,337.243,326.811z"/>
	</g>
	<path style="fill:#BBEF89;" d="M458.192,355.066c-1.18-1.761-3.159-2.817-5.279-2.817H59.087c-2.119,0-4.099,1.057-5.279,2.817
		l-16.284,24.305c15.866,30.461,37.914,57.182,64.482,78.511h307.987c26.568-21.328,48.616-48.05,64.483-78.511L458.192,355.066z"/>
	<path style="fill:#94DC76;" d="M360.111,352.249H59.087c-2.119,0-4.099,1.057-5.279,2.817l-16.284,24.305
		c15.866,30.461,37.914,57.182,64.482,78.511h263.02C327.466,433.626,325.069,379.792,360.111,352.249z"/>
	<path style="fill:#F7CF9C;" d="M454.099,19.131c-7.833-8.381-20.974-8.826-29.356-0.994l-84.135,78.621l29.191,29.19
		c0.067,0.067,0.124,0.14,0.189,0.209l83.117-77.67C461.485,40.655,461.93,27.512,454.099,19.131z"/>
	<g>
		<path style="fill:#FA6E62;" d="M166.301,160.223c16.178,15.119,25.458,36.489,25.458,58.632v109.956L256,362.692l64.242-33.881
			V222.368c0-24.376,10.214-47.901,28.025-64.544l21.329-19.932c1.646-1.538,2.596-3.678,2.635-5.93
			c0.038-2.252-0.84-4.423-2.432-6.015l-29.389-29.389c-3.166-3.166-8.272-3.254-11.547-0.196l-45.488,42.507
			c-2.373,2.218-5.469,3.439-8.716,3.439h-37.957c-2.834,0-5.534-1.065-7.605-3l-45.958-42.946
			c-3.272-3.058-8.379-2.971-11.547,0.196l-29.389,29.389c-1.592,1.592-2.469,3.763-2.432,6.015c0.038,2.252,0.989,4.392,2.635,5.93
			L166.301,160.223z"/>
		<path style="fill:#FB5C4B;" d="M231.445,313.609V146.242c0-1.71,0.234-3.361,0.63-4.949c-1.081-0.495-2.091-1.154-2.98-1.984
			l-45.958-42.946c-3.272-3.058-8.379-2.971-11.547,0.196l-29.389,29.389c-1.592,1.592-2.469,3.763-2.432,6.015
			c0.038,2.252,0.989,4.392,2.635,5.93l23.896,22.33c16.178,15.119,25.458,36.489,25.458,58.632
			c0.005,27.294,0.018,7.878,0.018,109.956h46.508C234.097,325.078,231.445,319.66,231.445,313.609z"/>
	</g>
	<polygon style="fill:#48AEF9;" points="256,362.692 320.242,328.811 191.758,328.811 	"/>
	<g>
		<path style="fill:#4C98E0;" d="M250.485,328.811h-58.727l49.742,26.234C235.3,345.921,239.506,332.285,250.485,328.811z"/>
	</g>
	<path style="fill:#FB4A34;" d="M236.7,142.309l15.36,35.358c1.481,3.41,6.328,3.38,7.767-0.047l14.829-35.311H236.7z"/>
	<g>
		
			<ellipse transform="matrix(0.866 -0.5 0.5 0.866 6.996 135.1433)" style="fill:#F7CF9C;" cx="255.679" cy="54.517" rx="54.508" ry="54.508"/>
		<path style="fill:#EDB87E;" d="M255.683,0.016c-9.266-0.009-18.657,2.33-27.258,7.296c-26.071,15.052-35.003,48.389-19.951,74.459
			s48.388,35.003,74.459,19.951c8.601-4.966,15.323-11.929,19.948-19.958C260.915,81.722,234.748,36.361,255.683,0.016z"/>
	</g>
	<g>
		<path style="fill:#F4C48B;" d="M238.172,419.056l151.617-79.962c10.145-5.351,14.034-17.914,8.682-28.06
			c-5.352-10.146-17.918-14.033-28.06-8.682l-151.617,79.962c-10.145,5.351-14.034,17.914-8.682,28.06
			C215.448,420.494,228.001,424.42,238.172,419.056z"/>
	</g>
	<path style="fill:#EDB87E;" d="M296.43,341.369l-77.637,40.945c-10.145,5.351-14.034,17.914-8.682,28.06
		c5.337,10.119,17.889,14.046,28.06,8.682l77.371-40.805C295.685,379.696,283.88,356.651,296.43,341.369z"/>
	<g>
		<path style="fill:#F7CF9C;" d="M273.828,419.056l-151.617-79.962c-10.145-5.351-14.034-17.914-8.682-28.06
			c5.352-10.146,17.918-14.033,28.06-8.682l151.617,79.962c10.145,5.351,14.034,17.914,8.682,28.06
			C296.552,420.494,283.999,424.42,273.828,419.056z"/>
	</g>
	<path style="fill:#F4C48B;" d="M215.57,341.369l77.637,40.945c10.146,5.351,14.034,17.914,8.682,28.06
		c-5.337,10.119-17.89,14.046-28.06,8.682l-77.371-40.805C216.297,379.695,228.126,356.658,215.57,341.369z"/>
	<g>
		<path style="fill:#EDB87E;" d="M368.281,70.898l-27.674,25.86l29.191,29.19c0.066,0.067,0.124,0.14,0.189,0.208l27.929-26.098
			C379.668,107.237,361.371,89.335,368.281,70.898z"/>
	</g>
	<path style="fill:#F7CF9C;" d="M57.901,19.131c7.833-8.381,20.974-8.826,29.356-0.994l84.135,78.621l-29.191,29.19
		c-0.066,0.067-0.124,0.14-0.189,0.209l-83.117-77.67C50.515,40.655,50.07,27.512,57.901,19.131z"/>
	<g>
		<path style="fill:#EDB87E;" d="M143.718,70.898l27.674,25.86l-29.191,29.19c-0.066,0.067-0.124,0.14-0.189,0.208l-27.929-26.098
			C132.486,107.298,150.577,89.195,143.718,70.898z"/>
	</g>
</g>
<g>
</g>
<g>
</g>
<g>
</g>
<g>
</g>
<g>
</g>
<g>
</g>
<g>
</g>
<g>
</g>
<g>
</g>
<g>
</g>
<g>
</g>
<g>
</g>
<g>
</g>
<g>
</g>
<g>
</g>
</svg>
