<?xml version="1.0" encoding="iso-8859-1"?>
<!-- Generator: Adobe Illustrator 21.0.0, SVG Export Plug-In . SVG Version: 6.00 Build 0)  -->
<svg version="1.1" id="Capa_1" xmlns="http://www.w3.org/2000/svg" xmlns:xlink="http://www.w3.org/1999/xlink" x="0px" y="0px"
	 viewBox="0 0 512.023 512.023" style="enable-background:new 0 0 512.023 512.023;" xml:space="preserve">
<g>
	<circle style="fill:#7DD776;" cx="256.023" cy="256.011" r="256"/>
	<path style="fill:#C1671E;" d="M3.878,300.463C24.922,420.658,129.8,512.011,256.023,512.011s231.1-91.354,252.145-211.548H3.878z"
		/>
	<g>
		<path style="fill:#AF5B10;" d="M298.897,300.463H3.878C24.922,420.658,129.8,512.011,256.023,512.011
			c8.704,0,17.302-0.45,25.783-1.298C156.609,493.86,165.577,300.463,298.897,300.463z"/>
	</g>
	<path style="fill:#656582;" d="M409.752,103.698H50.257c-79.409,107.101-63.565,258.881,39.55,347h319.945
		c14.061,0,25.5-11.439,25.5-25.5v-296C435.252,115.138,423.812,103.698,409.752,103.698z"/>
	<path style="fill:#585877;" d="M78.932,425.198v-296c0-14.061,11.44-25.5,25.5-25.5H50.256
		c-79.409,107.101-63.565,258.881,39.55,347h14.625C90.371,450.698,78.932,439.259,78.932,425.198z"/>
	<path style="fill:#686BDF;" d="M403.67,130.698H32.759c-52.422,93.196-41.533,210.754,29.827,293H403.67
		c2.531,0,4.582-2.051,4.582-4.582V135.28C408.252,132.75,406.2,130.698,403.67,130.698z"/>
	<path style="fill:#4352BF;" d="M32.763,130.698c-51.842,92.131-42.314,209.813,29.864,293h16.305v-293H32.763z"/>
	<path style="fill:#838AED;" d="M62.585,423.698H403.67c2.531,0,4.582-2.051,4.582-4.582v-62.802H20.427
		C30.954,381.008,45.244,403.711,62.585,423.698z"/>
	<path style="fill:#686BDF;" d="M20.449,356.314c10.301,24.137,24.205,46.68,42.177,67.384h16.305v-67.384H20.449z"/>
	<path style="fill:#EAF3F9;" d="M62.585,423.698H403.67c2.531,0,4.582-2.051,4.582-4.582v-22.418H42.134
		C48.364,406.151,55.191,415.176,62.585,423.698z"/>
	<path style="fill:#C6E0F4;" d="M42.149,396.698c6.583,9.983,13.234,18.653,20.478,27h16.305v-27H42.149z"/>
	<g>
		<path style="fill:#FA6E62;" d="M352.668,487.955c-10.761-3.599-19.372-12.109-23.034-22.766
			c-11.94-34.739-12.473-73.686-0.001-109.982c3.664-10.658,12.274-19.167,23.035-22.766c34.976-11.695,74.331-12.317,111.166,0
			c10.761,3.599,19.371,12.108,23.034,22.765v0.001c11.916,34.67,12.5,73.616,0,109.982c-3.662,10.657-12.273,19.167-23.034,22.766
			C428.716,499.698,389.357,500.223,352.668,487.955z"/>
	</g>
	<path style="fill:#FB5C4B;" d="M411.245,487.955c-10.761-3.599-19.372-12.108-23.034-22.766
		c-6.074-17.673-9.153-36.175-9.153-54.99c0-18.816,3.079-37.317,9.152-54.991c3.664-10.657,12.274-19.167,23.035-22.766
		c8.59-2.873,17.376-5.057,26.295-6.558c-27.77-4.675-57.072-2.738-84.872,6.558c-10.761,3.599-19.371,12.108-23.035,22.766
		c-11.938,34.74-12.474,73.687,0.001,109.981c3.662,10.657,12.273,19.167,23.034,22.766c27.733,9.275,57.037,11.244,84.872,6.559
		C428.621,493.012,419.835,490.828,411.245,487.955z"/>
	<path style="fill:#FB5C4B;" d="M361.231,358.048c-2.847,0.952-5.113,3.17-6.064,5.935c-10.047,29.236-10.455,62.009,0.001,92.43
		c0.949,2.764,3.217,4.983,6.063,5.935c29.621,9.905,62.97,10.39,94.041,0c2.846-0.952,5.113-3.17,6.063-5.936
		c9.966-28.999,10.537-61.768,0-92.43v0c-0.95-2.765-3.217-4.984-6.063-5.935C425.65,348.143,392.302,347.658,361.231,358.048z"/>
	<path style="fill:#ED3B2E;" d="M355.168,456.413c0.949,2.765,3.217,4.983,6.063,5.935c9.249,3.093,18.769,5.247,28.457,6.456
		c-0.554-1.175-1.052-2.379-1.477-3.615c-6.074-17.673-9.153-36.175-9.153-54.99c0-18.816,3.079-37.317,9.152-54.991
		c0.425-1.236,0.924-2.44,1.478-3.615c-9.688,1.209-19.208,3.363-28.457,6.456c-2.847,0.951-5.113,3.17-6.064,5.936
		C345.12,393.219,344.712,425.993,355.168,456.413z"/>
	<g>
		
			<ellipse transform="matrix(0.866 -0.5 0.5 0.866 -77.7827 128.9765)" style="fill:#F7CF9C;" cx="201.782" cy="209.633" rx="24.772" ry="24.772"/>
		<path style="fill:#EAB883;" d="M201.784,184.864c-4.211-0.005-8.479,1.059-12.388,3.316c-11.848,6.841-15.908,21.991-9.067,33.839
			c6.84,11.848,21.991,15.908,33.839,9.067c3.909-2.257,6.964-5.422,9.065-9.07C204.163,221.997,192.27,201.381,201.784,184.864z"/>
		<path style="fill:#F4C48B;" d="M193.681,375.276l68.893-36.334c4.61-2.432,6.377-8.14,3.945-12.75
			c-2.432-4.61-8.142-6.376-12.75-3.945l-68.893,36.334c-4.61,2.431-6.377,8.14-3.945,12.75
			C183.356,375.929,189.06,377.713,193.681,375.276z"/>
		<g>
			<path style="fill:#EDB87E;" d="M221.805,339.105l-36.929,19.476c-4.61,2.432-6.377,8.14-3.945,12.75
				c2.428,4.604,8.135,6.379,12.75,3.945l36.692-19.352C220.22,358.953,213.4,345.533,221.805,339.105z"/>
		</g>
		<path style="fill:#FA6E62;" d="M230.973,291.889L230.973,291.889l17.662-14.567l-16.514-23.747
			c-1.965-2.826-5.196-4.235-8.396-4.018v-0.033H210.26h-17.247h-13.173v0.033c-3.201-0.217-6.432,1.192-8.396,4.018l-16.452,23.659
			l0,0l17.6,16.072l0,0l0,0v40.964l29.191,15.395l29.191-15.395V291.889L230.973,291.889L230.973,291.889z"/>
		<path style="fill:#FB5C4B;" d="M201.716,349.63V249.525h-8.703h-13.174v0.032c-3.2-0.217-6.432,1.192-8.396,4.018l-16.452,23.659
			l17.6,16.072v40.964L201.716,349.63z"/>
		<path style="fill:#F7CF9C;" d="M154.991,277.233L154.991,277.233l-10.861,15.618l-33.011,12.488
			c-4.875,1.844-7.332,7.291-5.488,12.166c1.844,4.875,7.291,7.332,12.166,5.488l35.749-13.523c1.783-0.675,3.321-1.874,4.409-3.439
			l11.096-15.958L154.991,277.233z"/>
		<path style="fill:#F7CF9C;" d="M292.445,305.339l-33.011-12.488l-10.799-15.529l-14.61,12.05l11.584,16.659
			c1.088,1.565,2.626,2.764,4.409,3.439l35.749,13.523c4.875,1.844,10.322-0.613,12.166-5.488
			C299.777,312.63,297.32,307.183,292.445,305.339z"/>
		<path style="fill:#FB4A34;" d="M193.159,249.525l6.98,16.066c0.673,1.549,2.875,1.536,3.529-0.022l6.738-16.045H193.159z"/>
		<polygon style="fill:#48AEF9;" points="201.782,349.665 230.973,334.269 172.592,334.269 		"/>
		<path style="fill:#4C98E0;" d="M172.592,334.269l29.191,15.395l1.672-0.882c-4.529-3.517-4.618-10.406-1.581-14.513H172.592z"/>
		<path style="fill:#F7CF9C;" d="M209.883,375.276l-68.893-36.334c-4.61-2.432-6.377-8.14-3.945-12.75
			c2.432-4.61,8.142-6.376,12.75-3.945l68.893,36.334c4.61,2.431,6.377,8.14,3.945,12.75
			C220.209,375.929,214.505,377.713,209.883,375.276z"/>
		<g>
			<path style="fill:#F4C48B;" d="M181.76,339.105l36.929,19.476c4.61,2.432,6.377,8.14,3.945,12.75
				c-2.428,4.604-8.135,6.379-12.75,3.945l-36.692-19.352C183.406,358.972,190.16,345.529,181.76,339.105z"/>
		</g>
		<g>
			<path style="fill:#EDB87E;" d="M241.816,299.595c0-5.78,4.686-10.466,10.465-10.466c2.136,0,4.12,0.643,5.775,1.741
				l-9.421-13.548l-14.61,12.05l7.844,11.281C241.834,300.305,241.816,299.952,241.816,299.595z"/>
		</g>
		<g>
			<path style="fill:#EDB87E;" d="M150.783,289.129c5.78,0,10.466,4.685,10.466,10.466c0,0.677-0.07,1.336-0.193,1.978l7.996-11.499
				l-14.061-12.84l-9.127,13.126C147.331,289.576,149.004,289.129,150.783,289.129z"/>
		</g>
	</g>
	
		<ellipse transform="matrix(0.866 -0.5 0.5 0.866 -40.9955 189.401)" style="fill:#7DD776;" cx="332.93" cy="171.199" rx="16.097" ry="16.097"/>
	
		<ellipse transform="matrix(0.866 -0.5 0.5 0.866 -36.6823 205.4982)" style="fill:#85BBEB;" cx="365.124" cy="171.199" rx="16.097" ry="16.097"/>
	<path style="fill:#5CBA4F;" d="M332.937,155.115c-2.738-0.004-5.514,0.676-8.056,2.144c-7.699,4.445-10.337,14.29-5.892,21.989
		c4.445,7.699,14.29,10.337,21.989,5.892c2.542-1.468,4.519-3.531,5.885-5.905C334.472,179.217,326.754,165.859,332.937,155.115z"/>
	<path style="fill:#67AAE6;" d="M365.131,155.115c-2.739-0.004-5.514,0.676-8.056,2.144c-7.699,4.445-10.337,14.29-5.892,21.989
		c4.445,7.699,14.29,10.337,21.989,5.892c2.542-1.468,4.519-3.531,5.885-5.904C366.666,179.217,358.948,165.859,365.131,155.115z"/>
	<path style="fill:#EAF3F9;" d="M434.631,408.044l-42.189-24.396c-1.329-0.769-2.992,0.19-2.992,1.726v48.792
		c0,1.536,1.663,2.495,2.992,1.726l42.189-24.396C435.958,410.728,435.958,408.812,434.631,408.044z"/>
	<path style="fill:#C6E0F4;" d="M403.491,409.77L403.491,409.77c0-6.642,3.863-11.942,9.097-14.473l-20.146-11.649
		c-1.329-0.769-2.992,0.19-2.992,1.726v48.792c0,1.536,1.663,2.495,2.992,1.726l20.146-11.649
		C407.354,421.712,403.491,416.412,403.491,409.77z"/>
</g>
<g>
</g>
<g>
</g>
<g>
</g>
<g>
</g>
<g>
</g>
<g>
</g>
<g>
</g>
<g>
</g>
<g>
</g>
<g>
</g>
<g>
</g>
<g>
</g>
<g>
</g>
<g>
</g>
<g>
</g>
</svg>
