<?xml version="1.0" encoding="iso-8859-1"?>
<!-- Generator: Adobe Illustrator 21.0.0, SVG Export Plug-In . SVG Version: 6.00 Build 0)  -->
<svg version="1.1" id="Capa_1" xmlns="http://www.w3.org/2000/svg" xmlns:xlink="http://www.w3.org/1999/xlink" x="0px" y="0px"
	 viewBox="0 0 512 512" style="enable-background:new 0 0 512 512;" xml:space="preserve">
<g>
	<circle style="fill:#AF5B10;" cx="256" cy="268.505" r="243.495"/>
	<path style="fill:#994E04;" d="M42.193,385.105C83.514,460.713,163.765,512,256,512s172.486-51.287,213.807-126.895H42.193z"/>
	<path style="fill:#894304;" d="M335.621,385.105H42.193C83.514,460.713,163.765,512,256,512c27.885,0,54.671-4.695,79.621-13.325
		V385.105z"/>
	<path style="fill:#BBEF89;" d="M449.471,416.345H62.529C107.027,474.488,177.128,512,256,512
		C334.873,512,404.973,474.488,449.471,416.345z"/>
	<g>
		<path style="fill:#94DC76;" d="M335.621,416.345H62.529C107.027,474.488,177.128,512,256,512c28.665,0,56.162-4.976,81.702-14.076
			C314.987,477.252,314.647,438.333,335.621,416.345z"/>
	</g>
	<path style="fill:#FA6E62;" d="M311.753,291.702l4.883-91.611l0,0l0,0l0,0l32.393-26.717c2.349-1.938,2.819-5.354,1.081-7.854
		l-31.097-44.72c-4.066-5.847-10.753-8.764-17.376-8.315v-0.067H273.77h-35.693h-27.262v0.067
		c-6.624-0.45-13.311,2.467-17.376,8.315l0,0l-31.515,45.321c-1.449,2.084-1.131,4.918,0.743,6.629l33.15,30.27l0,0l0,0
		l4.883,88.681H311.753z"/>
	<path style="fill:#FB5C4B;" d="M231.923,276.011c0,0-4.5-133-4.5-149.667c0-7.893,2.019-11.895,4.144-13.925h-20.752v0.067
		c-6.624-0.45-13.311,2.467-17.376,8.315l-31.515,45.321c-1.449,2.084-1.131,4.918,0.743,6.629l33.149,30.27l4.883,88.681h38.878
		C231.94,285.703,231.923,276.011,231.923,276.011z"/>
	<path style="fill:#FB4A34;" d="M238.379,112.419l14.444,33.249c1.393,3.206,5.95,3.179,7.304-0.044l13.945-33.205H238.379z"/>
	<path style="fill:#F7CF9C;" d="M229.1,222.818l-42.316-3.761c-2.318-0.206-3.636-2.751-2.466-4.763l8.269-14.221l-29.514-26.95
		l-23.385,40.219c-4.945,8.504-5.179,18.787-0.629,27.508c4.538,8.696,13.072,14.378,22.843,15.212
		c67.136,5.939,63.818,5.743,65.491,5.743c10.006,0.001,18.528-7.646,19.431-17.803C247.78,233.258,239.845,223.774,229.1,222.818z"
		/>
	<path style="fill:#F7CF9C;" d="M371.165,213.342l-22.881-39.353l-30.539,25.188l8.909,15.321c1.115,1.917-0.141,4.342-2.35,4.539
		l-42.55,3.782c-10.745,0.956-18.68,10.439-17.725,21.183c0.951,10.69,10.368,18.673,21.183,17.725l63.739-5.666
		c9.77-0.834,18.305-6.515,22.843-15.212C376.344,232.129,376.11,221.846,371.165,213.342z"/>
	<path style="fill:#48AEF9;" d="M320.221,377.743l-8.607-86.041H200.699l-29.912,49.903c-2.232,3.724-0.894,8.558,2.935,10.605
		l43.131,23.057c3.472,1.856,7.789,0.702,9.873-2.639l22.89-36.706c0.764-1.224,2.645-0.781,2.781,0.655l0.64,40.154
		c0,4.625,3.749,8.374,8.374,8.374h52.147C317.52,385.105,320.616,381.685,320.221,377.743z"/>
	<path style="fill:#F7CF9C;" d="M263.951,511.857c12.67-0.407,25.094-1.782,37.204-4.053V385.105h-37.204V511.857z"/>
	<path style="fill:#EDB87E;" d="M263.951,385.105v38.573c0-10.258,8.316-18.573,18.573-18.573h0.058
		c10.258,0,18.573,8.315,18.573,18.573v-38.573H263.951z"/>
	<path style="fill:#F7CF9C;" d="M256.781,443.2l-55.456-45.509c-1.119-0.918-1.439-2.495-0.767-3.776l11.204-21.369l-32.812-17.541
		l-19.527,37.246c-4.095,7.81-2.143,17.423,4.674,23.018l62.858,51.583c1.832,1.503,2.894,3.749,2.894,6.118v4.237
		c0,9.417,7.634,17.051,17.051,17.051l0,0c9.417,0,17.051-7.634,17.051-17.051v-20.167
		C263.798,451.852,261.109,446.753,256.781,443.2z"/>
	<g>
		
			<ellipse transform="matrix(0.866 -0.5 0.5 0.866 11.1763 134.1956)" style="fill:#F7CF9C;" cx="256" cy="46.243" rx="46.235" ry="46.235"/>
		<path style="fill:#EDB87E;" d="M256.003,0.013c-7.859-0.008-15.825,1.977-23.121,6.189c-22.114,12.767-29.69,41.044-16.923,63.158
			c12.767,22.114,41.044,29.691,63.158,16.923c7.296-4.212,12.997-10.118,16.92-16.929C260.442,69.318,238.246,30.842,256.003,0.013
			z"/>
	</g>
	<g>
		<path style="fill:#EDB87E;" d="M200.503,394.045c0.02-0.043,0.032-0.088,0.054-0.13l11.204-21.369l-32.812-17.541l-16.112,30.733
			C174.809,374.343,194.461,378.751,200.503,394.045z"/>
	</g>
	<g>
		<path style="fill:#4C98E0;" d="M241.865,313.874c0-9.79,3.326-18.238,8.135-22.172h-49.301l-29.912,49.903
			c-2.232,3.724-0.894,8.558,2.935,10.605l43.131,23.057c3.472,1.856,7.789,0.702,9.872-2.639l22.89-36.706
			c0.029-0.047,0.07-0.075,0.102-0.117C245.063,331.774,241.865,323.47,241.865,313.874z"/>
	</g>
	<g>
		<path style="fill:#EDB87E;" d="M184.035,214.946c0.07-0.221,0.16-0.439,0.283-0.652l8.269-14.221l-29.514-26.95l-19.389,33.347
			C156.775,196.103,176.145,200.088,184.035,214.946z"/>
	</g>
	<g>
		<path style="fill:#EDB87E;" d="M327.035,215.751c7.326-14.998,26.259-19.636,39.648-10.118l-18.398-31.644l-30.539,25.188
			l8.909,15.321C326.889,214.901,326.997,215.327,327.035,215.751z"/>
	</g>
</g>
<g>
</g>
<g>
</g>
<g>
</g>
<g>
</g>
<g>
</g>
<g>
</g>
<g>
</g>
<g>
</g>
<g>
</g>
<g>
</g>
<g>
</g>
<g>
</g>
<g>
</g>
<g>
</g>
<g>
</g>
</svg>
