<?xml version="1.0" encoding="iso-8859-1"?>
<!-- Generator: Adobe Illustrator 21.0.0, SVG Export Plug-In . SVG Version: 6.00 Build 0)  -->
<svg version="1.1" id="Capa_1" xmlns="http://www.w3.org/2000/svg" xmlns:xlink="http://www.w3.org/1999/xlink" x="0px" y="0px"
	 viewBox="0 0 512.064 512.064" style="enable-background:new 0 0 512.064 512.064;" xml:space="preserve">
<g>
	<circle style="fill:#F9918F;" cx="259.995" cy="263.927" r="248.073"/>
	<path style="fill:#FA6E62;" d="M259.995,512L259.995,512c96.664,0,180.406-55.292,221.347-135.969H38.648
		C79.589,456.708,163.332,512,259.995,512z"/>
	<path style="fill:#FB5C4B;" d="M324.692,376.031H38.648c53.145,104.726,172.339,158.08,286.044,127.442V376.031z"/>
	<path style="fill:#BBEF89;" d="M458.859,412.251H61.131C160.263,544.946,359.282,545.543,458.859,412.251z"/>
	<g>
		<path style="fill:#94DC76;" d="M324.692,412.251H61.131c59.848,80.111,159.484,114.722,253.259,93.74
			C282.783,483.214,287.039,428.069,324.692,412.251z"/>
	</g>
	<path style="fill:#FA6E62;" d="M250.105,120.259l74.429,4.789c2.607,0.168,4.584,2.417,4.417,5.024l-2.725,42.352
		c-0.147,2.283-2.117,4.015-4.4,3.868l-26.673-1.716c-2.952-0.19-5.067,2.8-3.905,5.52l29.97,70.168
		c0,0-34.206,35.195-95.826,24.218c0,0-29.121-52.488-45.549-103.048c-1.015-3.125-3.844-5.304-7.123-5.515l-31.117-2.002
		c-4.85-0.312-8.528-4.496-8.216-9.346l2.333-36.255c0.192-2.979,2.762-5.239,5.742-5.048l69.566,4.476L250.105,120.259z"/>
	<path style="fill:#F7CF9C;" d="M436.832,138.817l-107.996-6.949l-2.494,38.769l107.996,6.949
		c10.705,0.689,19.943-7.432,20.632-18.137C455.658,148.743,447.537,139.506,436.832,138.817z"/>
	<path style="fill:#F7CF9C;" d="M133.387,154.572l2.26-35.133l-110.979-7.14c-10.706-0.689-19.943,7.431-20.632,18.137
		c-0.689,10.706,7.431,19.943,18.137,20.632l111.774,7.192C133.513,157.118,133.303,155.87,133.387,154.572z"/>
	<path style="fill:#48AEF9;" d="M381.239,307.305l-60.022-57.04c0,0-34.207,35.195-95.826,24.218l-43.521,19.094
		c-3.323,1.458-4.43,5.625-2.27,8.54l27.742,37.434c2.192,2.959,6.052,4.152,9.531,2.947l67.317-23.315
		c1.563-0.542,3.293-0.275,4.621,0.711l33.6,28.951c1.96,1.689,4.801,1.877,6.966,0.461l51.087-33.4
		C383.435,313.958,383.813,309.751,381.239,307.305z"/>
	<path style="fill:#F7CF9C;" d="M371.225,321.971l-32.879,21.574l91.619,101.058c9.482-8.923,18.26-18.584,26.245-28.892
		L371.225,321.971z"/>
	<path style="fill:#F7CF9C;" d="M223.666,442.904l-37.884-91.402c-0.978-2.36,0.049-5.074,2.345-6.196l17.241-8.42l-23.526-31.745
		l-23.452,11.453c-13.586,6.634-19.693,22.77-13.904,36.736l43.291,104.448c4.097,9.885,15.447,14.625,25.382,10.507
		C223.069,464.178,227.773,452.814,223.666,442.904z"/>
	<path style="fill:#FB4A34;" d="M211.027,117.745l13.472,37.42c1.299,3.609,6.291,3.899,8,0.466l17.606-35.371L211.027,117.745z"/>
	<g>
		
			<ellipse transform="matrix(0.866 -0.5 0.5 0.866 6.452 120.6537)" style="fill:#F7CF9C;" cx="228.369" cy="48.287" rx="48.279" ry="48.279"/>
		<path style="fill:#EDB87E;" d="M228.373,0.014c-8.207-0.008-16.525,2.064-24.143,6.462
			c-23.092,13.332-31.003,42.859-17.671,65.951c13.332,23.092,42.859,31.003,65.95,17.671c7.618-4.398,13.572-10.566,17.668-17.677
			C233.007,72.383,209.83,32.206,228.373,0.014z"/>
	</g>
	<g>
		<path style="fill:#4C98E0;" d="M264.817,293.364c0-7.308,2.744-13.973,7.253-19.031c-13.125,2.624-28.737,3.346-46.677,0.15
			l-43.521,19.094c-3.323,1.458-4.43,5.625-2.27,8.54l27.742,37.434c2.192,2.959,6.052,4.152,9.531,2.947l65.569-22.709
			C272.094,315.481,264.817,305.273,264.817,293.364z"/>
	</g>
	<g>
		<path style="fill:#EDB87E;" d="M186.801,344.29c0,0.701-0.036,1.393-0.095,2.078c0.395-0.426,0.869-0.792,1.42-1.061l17.241-8.42
			l-23.526-31.745c-20.347,10.658-26.742,11.206-33.187,19.232C164.5,313.316,186.801,324.501,186.801,344.29z"/>
	</g>
	<g>
		<path style="fill:#EDB87E;" d="M394.048,347.145l-22.823-25.174l-32.879,21.574l26.998,29.779
			C359.937,355.881,377.402,340.243,394.048,347.145z"/>
	</g>
	<path style="fill:#FB5C4B;" d="M254.301,257.531c-23.5-32-41.25-96-51.5-119.635c-4.169-9.613-3.586-16.263-1.426-20.772
		l-59.914-3.855c-2.98-0.192-5.55,2.068-5.742,5.048l-2.333,36.255c-0.312,4.85,3.366,9.034,8.216,9.346l31.117,2.002
		c3.279,0.211,6.108,2.39,7.124,5.515c16.428,50.561,45.549,103.048,45.549,103.048c17.619,3.138,32.992,2.499,45.969-0.01
		C265.572,270.39,259.724,264.915,254.301,257.531z"/>
	<g>
		<path style="fill:#EDB87E;" d="M365.11,134.203l-36.274-2.334l-2.494,38.769l34.897,2.245
			C347.821,162.552,349.848,141.698,365.11,134.203z"/>
	</g>
	<g>
		<path style="fill:#EDB87E;" d="M133.387,154.572l2.26-35.132l-39.512-2.542c12.969,10.327,11.467,30.479-2.971,38.738
			l40.784,2.624C133.513,157.118,133.303,155.87,133.387,154.572z"/>
	</g>
</g>
<g>
</g>
<g>
</g>
<g>
</g>
<g>
</g>
<g>
</g>
<g>
</g>
<g>
</g>
<g>
</g>
<g>
</g>
<g>
</g>
<g>
</g>
<g>
</g>
<g>
</g>
<g>
</g>
<g>
</g>
</svg>
