<?xml version="1.0" encoding="iso-8859-1"?>
<!-- Generator: Adobe Illustrator 21.0.0, SVG Export Plug-In . SVG Version: 6.00 Build 0)  -->
<svg version="1.1" id="Capa_1" xmlns="http://www.w3.org/2000/svg" xmlns:xlink="http://www.w3.org/1999/xlink" x="0px" y="0px"
	 viewBox="0 0 512.038 512.038" style="enable-background:new 0 0 512.038 512.038;" xml:space="preserve">
<g>
	<circle style="fill:#7DD776;" cx="256.019" cy="268.292" r="243.708"/>
	<path style="fill:#F7CF9C;" d="M84.7,225.383l63.174-20.865l18.261-26.983l29.141,24.035l-19.77,29.213
		c-2.279,3.367-5.588,5.905-9.432,7.233l-69.095,22.911c-9.837,3.396-20.527-1.837-23.911-11.633
		C69.676,239.479,74.884,228.774,84.7,225.383z"/>
	<g>
		<path style="fill:#EDB87E;" d="M151.137,199.695l14.998-22.161l29.141,24.035l-14.287,21.11
			C183.588,205.757,166.523,192.953,151.137,199.695z"/>
	</g>
	<path style="fill:#5CBA4F;" d="M44.406,389.253c93.563,163.329,329.423,163.749,423.226,0H44.406z"/>
	<path style="fill:#4EA83F;" d="M344.159,389.253H44.406c60.743,106.038,188.892,149.344,299.753,106.319V389.253z"/>
	<path style="fill:#BBEF89;" d="M63.913,418.261c98.073,125.452,286.955,124.409,384.213,0H63.913z"/>
	<g>
		<path style="fill:#94DC76;" d="M344.159,418.261H63.913c65.365,83.613,175.444,114.107,272.587,80.131
			C314.021,476.93,317.075,435.264,344.159,418.261z"/>
	</g>
	<path style="fill:#FA6E62;" d="M312.924,294.844l4.935-92.597l0,0l0,0l0,0l32.742-27.005c2.375-1.958,2.85-5.411,1.092-7.938
		l-31.432-45.201c-4.11-5.911-10.869-8.859-17.563-8.404v-0.068h-28.166h-36.077h-27.556v0.068
		c-6.695-0.455-13.454,2.493-17.563,8.404l0,0l-31.855,45.809c-1.465,2.106-1.144,4.971,0.751,6.701l33.507,30.596l0,0l0,0
		l4.935,89.636H312.924z"/>
	<path style="fill:#FB4A34;" d="M238.76,113.63l14.6,33.607c1.408,3.241,6.014,3.213,7.383-0.045l14.095-33.562H238.76z"/>
	<path style="fill:#48AEF9;" d="M321.483,381.811l-8.7-86.967h-112.11l-30.234,50.44c-2.256,3.764-0.904,8.65,2.966,10.719
		l43.596,23.306c3.51,1.876,7.873,0.71,9.979-2.667l23.137-37.102c0.772-1.237,2.673-0.789,2.811,0.662l0.647,40.586
		c0,4.674,3.79,8.464,8.465,8.464h52.709C318.753,389.253,321.882,385.795,321.483,381.811z"/>
	<path style="fill:#F7CF9C;" d="M264.607,511.833c12.811-0.444,25.37-1.877,37.605-4.224V389.253h-37.605V511.833z"/>
	<path style="fill:#EDB87E;" d="M264.607,389.253v39.775c0-10.369,8.406-18.775,18.775-18.775h0.055
		c10.369,0,18.775,8.406,18.775,18.775v-39.775H264.607z"/>
	<path style="fill:#F7CF9C;" d="M429.256,225.383l-63.174-20.865l-18.261-26.983l-29.141,24.035l19.77,29.213
		c2.279,3.367,5.588,5.905,9.432,7.233c73.317,23.986,69.946,23.947,75.236,23.947c7.795,0,15.083-4.886,17.771-12.669
		C444.279,239.479,439.071,228.774,429.256,225.383z"/>
	<path style="fill:#F7CF9C;" d="M264.606,461.964c-0.154-5.245-2.872-10.4-7.247-13.991l-55.811-45.8
		c-1.272-1.044-1.636-2.837-0.872-4.295l11.178-21.321l-33.165-17.73l-19.737,37.647c-4.139,7.895-2.166,17.611,4.725,23.266
		l63.535,52.139c1.852,1.52,2.925,3.789,2.925,6.184v4.283c0,9.518,7.716,17.235,17.235,17.235h0
		c9.519,0,17.235-7.716,17.235-17.235V461.964L264.606,461.964z"/>
	<g>
		
			<ellipse transform="matrix(0.866 -0.5 0.5 0.866 11.0341 134.6612)" style="fill:#F7CF9C;" cx="256.798" cy="46.741" rx="46.733" ry="46.733"/>
		<path style="fill:#EDB87E;" d="M256.802,0.013c-7.944-0.008-15.995,1.998-23.37,6.255c-22.352,12.905-30.01,41.486-17.105,63.838
			c12.905,22.352,41.486,30.01,63.838,17.105c7.374-4.258,13.137-10.228,17.102-17.111C261.288,70.065,238.853,31.174,256.802,0.013
			z"/>
	</g>
	<g>
		<path style="fill:#EDB87E;" d="M200.396,398.644c0.066-0.261,0.151-0.519,0.281-0.765l11.178-21.321l-33.165-17.73l-19.208,36.637
			C169.902,380.623,192.4,382.373,200.396,398.644z"/>
	</g>
	<g>
		<path style="fill:#4C98E0;" d="M253.672,294.844h-52.999l-30.234,50.44c-2.256,3.764-0.904,8.65,2.966,10.719l43.596,23.306
			c3.51,1.876,7.873,0.71,9.979-2.667l23.137-37.102c0.257-0.411,0.64-0.621,1.04-0.685
			C243.746,326.541,245.095,303.651,253.672,294.844z"/>
	</g>
	<g>
		<path style="fill:#FB5C4B;" d="M230.072,284.538V124.259c0-4.903,3.128-9.065,7.493-10.629h-26.667v0.068
			c-6.695-0.455-13.454,2.493-17.563,8.404l-31.855,45.809c-1.465,2.106-1.144,4.971,0.751,6.701l33.507,30.596l4.935,89.636h36.08
			C232.818,293.077,230.072,289.131,230.072,284.538z"/>
	</g>
	<g>
		<path style="fill:#EDB87E;" d="M362.818,199.695l-14.998-22.161l-29.141,24.035l14.287,21.11
			C330.367,205.757,347.433,192.953,362.818,199.695z"/>
	</g>
</g>
<g>
</g>
<g>
</g>
<g>
</g>
<g>
</g>
<g>
</g>
<g>
</g>
<g>
</g>
<g>
</g>
<g>
</g>
<g>
</g>
<g>
</g>
<g>
</g>
<g>
</g>
<g>
</g>
<g>
</g>
</svg>
