<?xml version="1.0" encoding="iso-8859-1"?>
<!-- Generator: Adobe Illustrator 21.0.0, SVG Export Plug-In . SVG Version: 6.00 Build 0)  -->
<svg version="1.1" id="Capa_1" xmlns="http://www.w3.org/2000/svg" xmlns:xlink="http://www.w3.org/1999/xlink" x="0px" y="0px"
	 viewBox="0 0 512.046 512.046" style="enable-background:new 0 0 512.046 512.046;" xml:space="preserve">
<g>
	<circle style="fill:#838AED;" cx="256.023" cy="266.185" r="245.815"/>
	<path style="fill:#686BDF;" d="M50.025,400.335c97.197,148.95,314.961,148.7,411.996,0H50.025z"/>
	<path style="fill:#4352BF;" d="M320.998,400.335H50.025c58.93,90.307,168.556,130.984,270.973,102.978V400.335z"/>
	<path style="fill:#BBEF89;" d="M435.986,433.607H76.06C173.286,538.069,338.645,538.193,435.986,433.607z"/>
	<g>
		<path style="fill:#94DC76;" d="M320.998,433.607H76.06c63.09,67.785,156.991,93.134,243.375,70.123
			C298.739,487.12,299.615,449.277,320.998,433.607z"/>
	</g>
	<path style="fill:#F4C48B;" d="M192.683,190.754l-17.012-34.086l-110.054,56.5c-9.746,4.363-14.111,15.804-9.748,25.551
		c4.363,9.748,15.803,14.112,25.551,9.749l111.602-57.11C192.902,191.162,192.787,190.963,192.683,190.754z"/>
	<path style="fill:#FA6E62;" d="M292.575,116.865h-37.104h-19.753c-5.637,0-11.186,1.396-16.152,4.064l-41.152,22.11
		c-4.193,2.253-5.837,7.43-3.711,11.689l17.98,36.027c1.864,3.735,6.355,5.319,10.149,3.58l17.908-8.207
		c0,0,14.974,36.281-4.179,71.457l86.857,45.654c27.555-61.901,29.906-120.649,29.906-120.649h21.35
		c6.267,0,11.71-4.311,13.146-10.411l9.964-42.331c1.561-6.63-3.47-12.982-10.281-12.982
		C350.355,116.865,309.074,116.865,292.575,116.865z"/>
	<path style="fill:#FB4A34;" d="M255.784,116.865l15.016,34.564c1.448,3.333,6.186,3.304,7.593-0.046l14.496-34.518H255.784z"/>
	<path style="fill:#48AEF9;" d="M236.527,361.955l0.473,29.674c0,4.807,3.898,8.705,8.706,8.705h54.209
		c4.118,0,7.336-3.556,6.926-7.654l-3.422-89.443l-86.857-45.654l-22.992-12.371c-2.85-1.533-6.404-0.479-7.956,2.36l-23.86,43.627
		c-2.59,4.735-0.866,10.673,3.857,13.285l54.556,30.172c6.639,3.672,11.93,9.504,14.507,16.639
		C235.785,354.376,236.527,357.936,236.527,361.955z"/>
	<path style="fill:#F7CF9C;" d="M248.345,511.869c12.417,0.381,25.137-0.105,38.675-1.809V400.335h-38.675V511.869z"/>
	<path style="fill:#EDB87E;" d="M287.02,442.858v-42.523h-38.675v42.99C255.893,426.762,279.372,426.344,287.02,442.858z"/>
	<path style="fill:#F7CF9C;" d="M482.501,125.904H377.949c0.185,1.27,0.152,2.599-0.165,3.943l-8.175,34.732h112.892
		c10.68,0,19.338-8.658,19.338-19.338C501.838,134.561,493.181,125.904,482.501,125.904z"/>
	<path style="fill:#F7CF9C;" d="M75.246,185.038c-4.329-2.555-3.452-7.088-4.33-10.416c-1.327-10.11-8.512-17.755-18.32-17.75
		c-10.254,0.005-18.174,9.054-17.387,19.278c0.977,12.707,2.748,18.114,5.812,27.264l0.011-0.006
		c1.196,4.333,3.883,8.275,7.92,10.958l116.964,69.223l18.627-34.058L75.246,185.038z"/>
	<g>
		
			<ellipse transform="matrix(0.866 -0.5 0.5 0.866 12.7186 143.6088)" style="fill:#F7CF9C;" cx="274.337" cy="48.071" rx="48.063" ry="48.063"/>
		<path style="fill:#EDB87E;" d="M274.34,0.014c-8.17-0.008-16.451,2.055-24.035,6.433c-22.988,13.272-30.865,42.667-17.592,65.656
			c13.272,22.988,42.667,30.865,65.655,17.592c7.584-4.379,13.511-10.519,17.589-17.598C278.954,72.059,255.88,32.062,274.34,0.014z
			"/>
	</g>
	<g>
		<path style="fill:#4C98E0;" d="M223.048,322.422c0-21.772,17.649-39.422,39.421-39.422c0.885,0,1.761,0.04,2.632,0.097
			l-48.54-25.513l-22.992-12.371c-2.85-1.533-6.404-0.479-7.956,2.36l-23.86,43.627c-2.59,4.735-0.866,10.673,3.857,13.285
			l54.556,30.172c2.501,1.383,4.81,3.074,6.855,5.024C224.478,334.468,223.048,328.613,223.048,322.422z"/>
	</g>
	<path style="fill:#FB5C4B;" d="M245.708,272.904c28.527-65.402,4.347-122.227,0.928-137.516c-4-17.885,9.148-18.524,9.148-18.524
		l0,0h-0.314h-19.753c-5.637,0-11.186,1.396-16.152,4.064l-41.152,22.11c-4.193,2.253-5.837,7.43-3.711,11.689l17.98,36.026
		c1.864,3.735,6.355,5.319,10.149,3.58l17.908-8.207c0,0,14.974,36.281-4.179,71.457L245.708,272.904z"/>
	<g>
		<path style="fill:#EDB87E;" d="M140.697,223.659c6.948,14.687-2.686,32.068-18.995,33.763l44.214,26.167l18.627-34.058
			L140.697,223.659z"/>
	</g>
	<g>
		<path style="fill:#EDB87E;" d="M153.483,211.591l39.539-20.233c-0.12-0.195-0.235-0.395-0.339-0.603l-17.012-34.086
			l-39.488,20.273C154.118,176.942,164.101,197.485,153.483,211.591z"/>
	</g>
	<g>
		<path style="fill:#EDB87E;" d="M407.609,145.241c0-8.457,4.853-15.776,11.924-19.338h-41.584c0.185,1.27,0.152,2.599-0.165,3.943
			l-8.175,34.732h49.924C412.462,161.018,407.609,153.698,407.609,145.241z"/>
	</g>
</g>
<g>
</g>
<g>
</g>
<g>
</g>
<g>
</g>
<g>
</g>
<g>
</g>
<g>
</g>
<g>
</g>
<g>
</g>
<g>
</g>
<g>
</g>
<g>
</g>
<g>
</g>
<g>
</g>
<g>
</g>
</svg>
